<svg width="20" height="22" viewBox="0 0 20 22" fill="none" xmlns="http://www.w3.org/2000/svg">
<g clip-path="url(#clip0_555_89457)">
<path d="M19.5449 9.29724C19.4861 9.29811 19.4277 9.28736 19.373 9.26558C19.3183 9.24381 19.2685 9.21144 19.2263 9.17033C19.1841 9.12922 19.1504 9.08017 19.1271 9.02598C19.1038 8.9718 19.0913 8.91354 19.0905 8.85453C19.0905 6.25362 18.0508 3.80691 16.1618 1.96819C16.1198 1.92764 16.0864 1.879 16.0635 1.82518C16.0407 1.77136 16.0289 1.71347 16.0289 1.65498C16.0289 1.59648 16.0407 1.53859 16.0635 1.48477C16.0864 1.43095 16.1198 1.38231 16.1618 1.34176C16.2485 1.25903 16.3635 1.21289 16.4831 1.21289C16.6027 1.21289 16.7178 1.25903 16.8044 1.34176C18.8633 3.34871 20 6.01603 20 8.85453C19.9981 8.97377 19.9491 9.08737 19.8637 9.17037C19.7784 9.25338 19.6637 9.29901 19.5449 9.29724Z" fill="#FF8700"/>
<path d="M0.454425 9.29723C0.395618 9.29811 0.337203 9.28736 0.282539 9.26558C0.227875 9.24381 0.178019 9.21144 0.135821 9.17033C0.0936238 9.12922 0.0599076 9.08017 0.0366031 9.02598C0.0132987 8.9718 0.000862647 8.91354 0 8.85453C0 6.01603 1.13457 3.34871 3.19487 1.34176C3.28153 1.25903 3.39656 1.21289 3.51618 1.21289C3.6358 1.21289 3.75085 1.25903 3.83751 1.34176C3.87971 1.3822 3.9133 1.43081 3.93625 1.48465C3.95919 1.53848 3.97102 1.59642 3.97102 1.65498C3.97102 1.71353 3.95919 1.77148 3.93625 1.82532C3.9133 1.87915 3.87971 1.92775 3.83751 1.96819C1.94854 3.80691 0.908831 6.25362 0.908831 8.85453C0.907969 8.91354 0.895533 8.9718 0.872228 9.02598C0.848924 9.08017 0.815208 9.12922 0.77301 9.17033C0.730813 9.21144 0.680957 9.24381 0.626293 9.26558C0.571628 9.28736 0.513232 9.29811 0.454425 9.29723Z" fill="#FF8700"/>
<path d="M11.3662 3.70104C11.3074 3.70191 11.249 3.69116 11.1943 3.66938C11.1397 3.64761 11.0898 3.61525 11.0476 3.57414C11.0054 3.53303 10.9717 3.48398 10.9484 3.42979C10.9251 3.37561 10.9126 3.31734 10.9118 3.25833V1.77083C10.9077 1.53266 10.8098 1.3058 10.6395 1.13987C10.4692 0.973943 10.2403 0.882455 10.003 0.885417C9.76546 0.882259 9.5364 0.97366 9.36592 1.13961C9.19545 1.30556 9.09745 1.53253 9.09338 1.77083V3.25833C9.09252 3.31734 9.0801 3.37561 9.0568 3.42979C9.03349 3.48398 8.99976 3.53303 8.95756 3.57414C8.91537 3.61525 8.86553 3.64761 8.81086 3.66938C8.7562 3.69116 8.6978 3.70191 8.639 3.70104C8.58016 3.70201 8.52169 3.69133 8.46698 3.66959C8.41228 3.64785 8.36239 3.61549 8.32018 3.57436C8.27796 3.53323 8.24425 3.48414 8.22098 3.42991C8.19771 3.37568 8.18534 3.31737 8.18457 3.25833V1.77083C8.18457 0.794662 9.00001 0 10.003 0C11.0059 0 11.8206 0.794662 11.8206 1.77083V3.25833C11.8198 3.31737 11.8075 3.37568 11.7842 3.42991C11.7609 3.48414 11.7272 3.53323 11.685 3.57436C11.6428 3.61549 11.5929 3.64785 11.5382 3.66959C11.4835 3.69133 11.425 3.70201 11.3662 3.70104Z" fill="#FF8700"/>
<path d="M9.99996 21.2497C8.24482 21.2497 6.81763 19.8596 6.81763 18.1508C6.81956 18.0316 6.86848 17.9182 6.95366 17.8352C7.03884 17.7522 7.15331 17.7065 7.27202 17.7081C7.39085 17.7063 7.50553 17.7519 7.59087 17.8349C7.67621 17.9179 7.72522 18.0315 7.72716 18.1508C7.72716 19.3712 8.74702 20.3643 9.99996 20.3643C11.2529 20.3643 12.272 19.3712 12.272 18.1508C12.2741 18.0316 12.3232 17.9181 12.4085 17.8351C12.4938 17.7522 12.6084 17.7065 12.7272 17.7081C12.8459 17.7065 12.9604 17.7522 13.0455 17.8352C13.1307 17.9182 13.1796 18.0316 13.1816 18.1508C13.1816 19.8596 11.7544 21.2497 9.99996 21.2497Z" fill="#FF8700"/>
<path d="M17.7272 18.5938H2.27205C1.52058 18.5938 0.908813 17.9983 0.908813 17.2656C0.90937 17.0726 0.952443 16.8821 1.03494 16.7077C1.11744 16.5333 1.23732 16.3794 1.38602 16.257C2.0864 15.6885 2.65175 14.9706 3.04095 14.1554C3.43016 13.3403 3.63344 12.4483 3.63603 11.5444V8.85417C3.63603 5.43646 6.49042 2.65625 9.99998 2.65625C13.5095 2.65625 16.3632 5.43646 16.3632 8.85417V11.5451C16.3655 12.4474 16.5679 13.3378 16.9558 14.1518C17.3437 14.9658 17.9074 15.6829 18.6059 16.2511C18.7564 16.3738 18.878 16.5286 18.9618 16.7041C19.0456 16.8797 19.0895 17.0717 19.0904 17.2664C19.0904 17.999 18.4794 18.5945 17.7272 18.5945V18.5938ZM9.99998 3.54167C6.99116 3.54167 4.54484 5.92491 4.54484 8.85417V11.5451C4.54284 12.5776 4.31171 13.5967 3.86821 14.5284C3.42471 15.4601 2.78 16.2809 1.98088 16.9314C1.93028 16.9721 1.88936 17.0236 1.86112 17.0822C1.83288 17.1408 1.81802 17.205 1.81763 17.27C1.81849 17.3291 1.83094 17.3873 1.85425 17.4415C1.87755 17.4957 1.91125 17.5447 1.95345 17.5859C1.99565 17.627 2.0455 17.6593 2.10017 17.6811C2.15483 17.7029 2.21324 17.7136 2.27205 17.7128H17.7272C17.786 17.7136 17.8444 17.7029 17.8991 17.6811C17.9537 17.6593 18.0036 17.627 18.0458 17.5859C18.088 17.5447 18.1217 17.4957 18.145 17.4415C18.1683 17.3873 18.1807 17.3291 18.1816 17.27C18.1814 17.2057 18.1669 17.1423 18.1393 17.0842C18.1118 17.0262 18.0717 16.975 18.022 16.9343C17.2226 16.2839 16.5774 15.4632 16.1333 14.5315C15.6892 13.5999 15.4573 12.5808 15.4544 11.548V8.85785C15.4544 5.9286 13.0081 3.54535 9.99998 3.54535V3.54167Z" fill="#FF8700"/>
</g>
<defs>
<clipPath id="clip0_555_89457">
<rect width="20" height="21.25" fill="white"/>
</clipPath>
</defs>
</svg>
