<?xml version="1.0" encoding="utf-8"?>
<!-- Generator: Adobe Illustrator 23.1.0, SVG Export Plug-In . SVG Version: 6.00 Build 0)  -->
<svg version="1.1" id="Layer_1" xmlns="http://www.w3.org/2000/svg" xmlns:xlink="http://www.w3.org/1999/xlink" x="0px" y="0px"
	 viewBox="0 0 86.1 54.8" style="enable-background:new 0 0 86.1 54.8;" xml:space="preserve">
<style type="text/css">
	.st0{fill:#FFC107;}
</style>
<g>
	<g id="XMLID_18258_">
		<g id="XMLID_18281_">
			<path class="st0" d="M26.1,33.2c0,0,0.1,0.1,0.1,0.4c0,0.2,0,0.6-0.1,1.1c0,0.1,0,0.2-0.1,0.2c0,0.1-0.1,0.2-0.1,0.3
				c0,0.1-0.1,0.2-0.1,0.3c0,0.1-0.1,0.2-0.2,0.3c-0.1,0-0.1,0.2-0.2,0.3s-0.1,0.2-0.3,0.2c-0.2,0.1-0.4,0.3-0.6,0.5
				c-0.2,0.2-0.5,0.2-0.7,0.4c-0.1,0.2-0.3,0.1-0.4,0.1c-0.2,0-0.3-0.1-0.4,0.1c-0.3,0.1-0.6,0.1-1,0c-0.1-0.1-0.1-0.1-0.2-0.1
				c-0.1,0-0.2,0-0.3,0c-0.2,0-0.4,0-0.5-0.1c-0.1-0.1-0.1-0.2-0.2-0.2s-0.1-0.1-0.2-0.1c-0.1,0-0.2-0.1-0.3-0.1s-0.2,0-0.3-0.1
				c0-0.1,0-0.2-0.1-0.3s-0.1-0.2-0.2-0.2s-0.1-0.1-0.2-0.2c0,0,0,0-0.1,0s0,0,0,0c0,0-0.1,0-0.1,0c0,0,0-0.1,0-0.1l0-0.1
				c0-0.1-0.1-0.1-0.1-0.1c0,0,0,0,0,0c0,0,0,0,0-0.2c0,0.1,0,0.1,0,0.2c0,0.5,0,0.3,0,0.1c0,0.3,0,0.3,0,0.3c0,0,0,0-0.1,0
				c0,0-0.1,0-0.1,0.1v0l0,0l0,0L18.8,36l-0.1,0.2c-0.1,0.2-0.3,0.4-0.5,0.5c-0.4,0.3-0.8,0.6-1.3,0.7c-0.1,0-0.3,0-0.4,0
				c-0.1,0-0.3,0-0.4,0c-0.3,0-0.5,0-0.8,0.2c-0.5,0-1.1,0-1.5-0.4c-0.3,0-0.6-0.1-0.8-0.3c-0.1-0.1-0.2-0.2-0.3-0.3
				s-0.2-0.2-0.2-0.3c-0.1-0.1-0.2-0.2-0.3-0.3c-0.1-0.1-0.1-0.2-0.2-0.3s-0.1-0.2-0.2-0.3c-0.1-0.1-0.1-0.2-0.2-0.3
				c0-0.1-0.1-0.3-0.1-0.4c0-0.1-0.1-0.3-0.1-0.4c0-0.1-0.1-0.3-0.1-0.4c0-0.1,0-0.3,0-0.4c0-0.1,0-0.1,0-0.2l0-0.2
				c0-0.1,0-0.2,0-0.3c0-0.2,0-0.5-0.1-0.7c-0.2-0.4,0.1-0.9,0-1.3c0.1-0.1,0.1-0.2,0.1-0.3v0v-0.1V30c0-0.1,0-0.2,0-0.3
				c0-0.4-0.1-0.9-0.1-1.2v-0.1c0.4,0,0.8,0,1.1,0c0.2,0,0.4,0,0.5,0h0.1c0,0,0.1,0,0.1,0c0.1,0,0.1,0,0.1,0c0.4,0,0.8-0.1,1.2,0
				c0.4-0.4,0.8,0.1,1.2,0c0.4,0.2,0.8,0,1.2,0c0.4-0.1,0.8,0.2,1.1,0c0.4,0,0.8-0.1,1.1,0c0.4-0.2,0.7,0.2,1.1,0c0.4,0,0.7,0,1,0
				c0.3,0.3,0.7,0,1,0c0.3,0,0.6-0.2,0.9,0c0.3,0,0.6,0.1,0.9,0c0.3,0,0.6,0.4,0.8,0c0.1,0,0.1,0,0.2,0c0.1,0,0.2,0,0.3,0.1
				c0.2,0,0.3,0.1,0.6,0c0.3-0.1,0.6-0.1,0.7,0c0,0.2-0.1,0.4-0.1,0.5c0,0.3,0,0.7,0,1c0,0.1,0,0.1,0,0.2c0,0.1,0,0.1,0,0.2
				c0,0.1,0,0.2,0,0.3c0,0.2,0,0.4,0,0.6c0,0.4-0.1,0.7-0.1,0.9C26.3,32.9,26.2,33.2,26.1,33.2c-0.1,0-0.2-0.3-0.3-1
				c0-0.3-0.1-0.7-0.1-1.2c0-0.2,0-0.5,0-0.7l0-0.1l0-0.1c0,0,0-0.1,0-0.1c0-0.1,0-0.1,0-0.2c0,0,0-0.1-0.1-0.1
				c-0.1,0-0.2,0.1-0.2,0c-0.1,0-0.1,0-0.2,0.1c0,0,0,0,0,0c0,0,0,0-0.1,0c-0.1,0-0.1,0-0.2,0c-0.3,0.3-0.5,0-0.8,0
				c-0.3,0-0.6-0.1-0.9,0c-0.3,0.2-0.6-0.1-0.9,0c-0.3-0.2-0.6-0.1-1,0c-0.3-0.2-0.7,0-1,0c-0.4-0.3-0.7-0.1-1.1,0
				c-0.4,0.1-0.7,0-1.1,0c-0.4,0-0.8,0.1-1.1,0c-0.4,0.1-0.8,0.2-1.2,0c-0.4,0.1-0.8,0-1.2,0c-0.4,0.1-0.8,0-1.2,0
				c-0.1,0-0.1,0-0.1,0c0,0-0.1,0-0.1,0l0,0c0,0,0,0-0.1-0.1c-0.1,0-0.1-0.1-0.1,0c0,0,0,0,0,0c0,0,0,0.1,0,0.1c0,0,0,0,0,0v0l0,0v0
				c0,0.1,0,0.2,0,0.3c0,0.4-0.1,0.9,0,1.3c-0.1,0.2-0.2,0.4-0.1,0.7c0,0.1,0,0.2,0.1,0.3l0,0.2c0,0.1,0,0.1,0.1,0.2
				c0.1,0.3,0.1,0.7,0.2,1c0.1,0.3,0.3,0.6,0.6,0.8c0.1,0,0.1,0.1,0.2,0.2c0.1,0.1,0.1,0.1,0.2,0.2c0.1,0.1,0.3,0.2,0.4,0.2
				c0.1,0,0.2,0,0.2,0.1l0.2,0.1c0,0,0.1,0,0.1,0s0.1,0,0.1,0c0.1,0,0.2,0,0.2,0c0.3-0.1,0.6-0.1,0.9-0.1c0.1,0,0.3,0,0.5-0.1
				c0.1,0,0.1,0,0.2-0.1c0,0,0.1,0,0.1-0.1c0,0,0-0.1,0-0.1c0.1-0.1,0.2-0.3,0.2-0.4c0,0,0-0.1,0.1-0.1c0,0,0,0,0,0l0,0c0,0,0,0,0,0
				l0,0c0.1-0.1,0.3-0.3,0.4-0.3l0,0c0,0,0,0,0-0.1l0-0.1c0-0.1,0-0.2,0.1-0.3c0-0.1,0-0.2,0.1-0.2l0-0.1c0,0,0,0,0-0.1l0-0.1l0.3,0
				c0.1,0,0.2,0,0.2,0c0,0,0.1,0,0.1,0c0,0,0,0,0.1,0c0,0,0,0,0,0c0,0,0.1,0,0.1,0c0,0,0,0,0-0.1l0,0l0,0c0,0,0,0,0-0.1l0,0
				c0,0,0,0,0,0.1c0,0,0,0.1,0,0.1c0,0,0.1,0.1,0.1,0.1c0,0,0,0,0.1,0c0,0,0.1,0,0.1,0c0,0,0.1,0,0.1,0c0,0,0,0,0,0c0,0,0,0,0.1,0
				c0.1,0,0.2,0,0.3,0.1c0,0,0,0.1,0,0.1l0,0.1l0,0.2c0,0.1,0,0.2,0.1,0.3l0,0.2l0,0.1l0,0l0,0c0,0.1,0.1,0.1,0.1,0.2
				c0,0,0.1,0.1,0.1,0.1c0,0,0,0,0.1,0.1c0,0,0,0,0,0c0,0,0.1,0.1,0.1,0.2s0.1,0.1,0.1,0.2c0,0,0.1,0.1,0.2,0.1
				c0.2,0.2,0.4,0.3,0.6,0.4c0.2-0.1,0.3-0.1,0.4,0c0,0,0.1,0.1,0.1,0.1c0,0,0.1,0.1,0.2,0.1c0.1,0,0.2,0,0.4,0c0.1,0,0.2,0,0.3,0.1
				c0.1-0.2,0.2-0.2,0.3-0.2c0.1,0,0.2,0.1,0.3,0.1s0.2,0,0.3-0.1c0.1-0.1,0.2-0.1,0.3-0.1c0-0.1,0.1-0.2,0.2-0.2s0.2,0,0.3-0.1
				c0.2,0,0.3-0.3,0.4-0.3c0-0.1,0.1-0.2,0.1-0.2c0-0.1,0.1-0.1,0.2-0.2c0-0.1,0.1-0.1,0.1-0.2c0-0.1,0.1-0.1,0.1-0.2
				C26,33.7,26,33.2,26.1,33.2z"/>
		</g>
		<g id="XMLID_18280_">
			<path class="st0" d="M70.1,33.2c0.1,0,0.1,0.1,0.1,0.4c0,0.2,0,0.6-0.1,1.1c0,0.1-0.1,0.2-0.1,0.2S70,35,69.9,35.1
				c0,0.1-0.1,0.2-0.1,0.3c-0.1,0.1-0.1,0.2-0.2,0.3c-0.1,0-0.2,0.2-0.2,0.3s-0.1,0.2-0.3,0.2c-0.2,0.1-0.4,0.3-0.6,0.5
				c-0.2,0.2-0.5,0.2-0.7,0.4c-0.1,0.2-0.3,0.1-0.4,0.1c-0.2,0-0.3-0.1-0.4,0.1c-0.3,0.1-0.6,0.1-1,0c-0.1-0.1-0.2-0.1-0.2-0.1
				c-0.1,0-0.2,0-0.3,0c-0.2,0-0.3,0-0.5-0.1c-0.1-0.1-0.1-0.2-0.2-0.2s-0.2-0.1-0.2-0.1c-0.1,0-0.2-0.1-0.3-0.1
				c-0.1,0-0.2,0-0.3-0.1c0-0.1-0.1-0.2-0.1-0.3c0-0.1-0.1-0.2-0.2-0.2s-0.2-0.1-0.2-0.2c0,0,0,0-0.1,0s0,0,0,0c0,0-0.1,0-0.1,0
				c0,0,0-0.1,0-0.1l0-0.1c0-0.1-0.1-0.1-0.1-0.1c0,0,0,0,0,0c0,0,0,0,0-0.2c0,0.1,0,0.1,0,0.2c0,0.5,0,0.3,0,0.1c0,0.3,0,0.3,0,0.3
				c0,0,0,0-0.1,0c0,0-0.1,0-0.1,0.1v0l0,0l0,0L62.8,36l-0.1,0.2c-0.1,0.2-0.3,0.4-0.5,0.5c-0.4,0.3-0.8,0.6-1.3,0.7
				c-0.1,0-0.3,0-0.4,0c-0.1,0-0.3,0-0.4,0c-0.3,0-0.5,0-0.8,0.2c-0.5,0-1.1,0-1.5-0.4c-0.3,0-0.6-0.1-0.8-0.3
				c-0.1-0.1-0.2-0.2-0.3-0.3c-0.1-0.1-0.2-0.2-0.2-0.3c-0.1-0.1-0.2-0.2-0.3-0.3c-0.1-0.1-0.2-0.2-0.2-0.3
				c-0.1-0.1-0.1-0.2-0.2-0.3c-0.1-0.1-0.1-0.2-0.2-0.3c0-0.1-0.1-0.3-0.1-0.4c0-0.1-0.1-0.3-0.1-0.4c0-0.1-0.1-0.3-0.1-0.4
				s0-0.3,0-0.4c0-0.1,0-0.1,0-0.2l0-0.2c0-0.1,0-0.2,0-0.3c0-0.2,0-0.5-0.1-0.7c-0.2-0.4,0.1-0.9,0-1.3c0.1-0.1,0.1-0.2,0.1-0.3v0
				v-0.1l0-0.1c0-0.1,0-0.2,0-0.3c0-0.4-0.1-0.9,0-1.2v-0.1c0.4,0,0.8,0,1.1,0c0.2,0,0.4,0,0.5,0H57c0,0,0,0,0.1,0c0,0,0.1,0,0.2,0
				c0.4,0,0.8-0.1,1.2,0c0.4-0.4,0.8,0.1,1.2,0c0.4,0.2,0.8,0,1.2,0c0.4-0.1,0.8,0.2,1.1,0c0.4,0,0.7-0.1,1.1,0
				c0.4-0.2,0.7,0.2,1.1,0c0.3,0,0.7,0,1,0c0.3,0.3,0.7,0,1,0c0.3,0,0.6-0.2,0.9,0c0.3,0,0.6,0.1,0.9,0c0.3,0,0.6,0.4,0.8,0
				c0.1,0,0.1,0,0.2,0c0,0,0.1,0,0.1,0c0.1,0,0.1,0,0.1,0c0.2,0,0.3,0.1,0.6,0c0.3-0.1,0.6-0.1,0.7,0c0,0.2-0.1,0.4-0.1,0.5
				c0,0.3,0,0.7,0,1c0,0.1,0,0.1,0,0.2c0,0.1,0,0.1,0,0.2c0,0.1,0,0.2,0,0.3c0,0.2,0,0.4-0.1,0.6c0,0.4-0.1,0.7-0.1,0.9
				C70.3,32.9,70.2,33.2,70.1,33.2c-0.1,0-0.2-0.3-0.3-1c0-0.3-0.1-0.7-0.1-1.2c0-0.2,0-0.5-0.1-0.7l0-0.1l0-0.1c0,0,0-0.1,0-0.1
				c0-0.1,0-0.1,0-0.2c0,0,0-0.1-0.1-0.1c-0.1,0-0.2,0.1-0.2,0c-0.1,0-0.1,0-0.2,0.1c0,0,0,0,0,0s0,0-0.1,0c-0.1,0-0.1,0-0.2,0
				c-0.3,0.3-0.6,0-0.8,0c-0.3,0-0.6-0.1-0.9,0c-0.3,0.2-0.6-0.1-0.9,0c-0.3-0.2-0.7-0.1-1,0c-0.3-0.2-0.7,0-1,0
				c-0.3-0.3-0.7-0.1-1.1,0c-0.4,0.1-0.7,0-1.1,0c-0.4,0-0.8,0.1-1.1,0c-0.4,0.1-0.8,0.2-1.2,0c-0.4,0.1-0.8,0-1.2,0
				c-0.4,0.1-0.8,0-1.2,0c0,0-0.1,0-0.2,0c0,0-0.1,0-0.1,0l0,0c0,0,0,0-0.1-0.1c0,0-0.2-0.1-0.1,0c0,0,0,0,0,0c0,0,0,0.1,0,0.1
				c0,0,0,0,0,0v0l0,0v0c0,0.1,0,0.2,0,0.3c0,0.4-0.1,0.9,0,1.3c-0.1,0.2-0.2,0.4-0.1,0.7c0,0.1,0,0.2,0.1,0.3l0,0.2
				c0,0.1,0,0.1,0,0.2c0.1,0.3,0.1,0.7,0.2,1c0.2,0.3,0.3,0.6,0.5,0.8c0.1,0,0.1,0.1,0.2,0.2c0.1,0.1,0.1,0.1,0.2,0.2
				c0.1,0.1,0.3,0.2,0.4,0.2c0.1,0,0.2,0,0.2,0.1l0.2,0.1c0,0,0.1,0,0.1,0s0.1,0,0.1,0c0.1,0,0.2,0,0.2,0c0.3-0.1,0.6-0.1,0.9-0.1
				c0.2,0,0.3,0,0.5-0.1c0.1,0,0.2,0,0.2-0.1c0,0,0.1,0,0.1-0.1s0-0.1,0-0.1c0.1-0.1,0.2-0.3,0.2-0.4c0,0,0-0.1,0.1-0.1c0,0,0,0,0,0
				l0,0l0,0l0,0c0.1-0.1,0.3-0.3,0.4-0.3l0,0c0,0,0,0,0-0.1l0-0.1c0-0.1,0-0.2,0.1-0.3c0-0.1,0-0.2,0.1-0.2l0-0.1c0,0,0,0,0-0.1
				l0-0.1l0.3,0c0.1,0,0.2,0,0.2,0s0.1,0,0.1,0c0,0,0,0,0.1,0c0,0,0,0,0,0c0,0,0.1,0,0.1,0c0,0,0,0,0-0.1l0,0l0,0c0,0,0,0,0-0.1l0,0
				c0,0,0,0,0,0.1c0,0,0,0.1,0,0.1c0,0,0.1,0.1,0.1,0.1c0,0,0,0,0.1,0c0,0,0.1,0,0.1,0c0,0,0.1,0,0.1,0c0,0,0,0,0,0s0,0,0.1,0
				c0.1,0,0.2,0,0.3,0.1c0,0,0,0.1,0,0.1l0,0.1l0,0.2c0,0.1,0.1,0.2,0.1,0.3l0,0.2l0,0.1l0,0l0,0c0,0.1,0.1,0.1,0.1,0.2
				c0.1,0,0.1,0.1,0.1,0.1c0,0,0,0,0.1,0.1c0,0,0,0,0,0c0,0,0.1,0.1,0.1,0.2s0.1,0.1,0.1,0.2c0,0,0.1,0.1,0.2,0.1
				c0.2,0.2,0.4,0.3,0.6,0.4c0.2-0.1,0.3-0.1,0.4,0c0.1,0,0.1,0.1,0.1,0.1c0.1,0,0.1,0.1,0.2,0.1c0.1,0,0.2,0,0.3,0
				c0.1,0,0.2,0,0.3,0.1c0.1-0.2,0.2-0.2,0.3-0.2c0.1,0,0.2,0.1,0.3,0.1c0.1,0,0.2-0.1,0.3-0.1s0.2-0.1,0.3-0.1
				c0-0.1,0.1-0.2,0.2-0.2c0.1,0,0.2,0,0.3-0.1c0.2,0,0.3-0.3,0.4-0.3c0-0.1,0.1-0.2,0.1-0.2c0.1-0.1,0.1-0.1,0.2-0.2
				c0.1-0.1,0.1-0.1,0.1-0.2s0.1-0.1,0.1-0.2C69.9,33.7,70,33.2,70.1,33.2z"/>
		</g>
		<g id="XMLID_18279_">
			<path class="st0" d="M84.6,53.8c0,0.1-0.9,0.2-2.6,0.3c-0.3,0-0.6,0-0.9,0c-0.3,0-0.7,0.1-1,0c-0.4-0.1-0.8,0.3-1.2,0
				c-0.4-0.1-0.8,0-1.3,0c-0.4,0-0.9-0.1-1.4,0c-0.5,0.3-1-0.3-1.5,0c-0.5,0.1-1,0-1.6,0c-0.5-0.2-1.1,0-1.7,0
				c-0.6-0.3-1.2-0.1-1.8,0c-0.6-0.3-1.2-0.3-1.8,0c-0.6,0-1.3-0.1-1.9,0c-0.7,0-1.3,0.1-2,0c-0.7,0.2-1.4,0.2-2.1,0
				c-0.7,0.3-1.4,0.2-2.2,0c-0.7-0.1-1.5,0.2-2.2,0c-0.8,0-1.5,0.1-2.3,0c-0.8-0.1-1.6-0.2-2.3,0c-0.8,0.1-1.6,0.1-2.4,0
				c-0.8,0.3-1.6,0.2-2.5,0c-0.8,0-1.7-0.1-2.5,0c-0.8,0-1.7,0.1-2.5,0c-0.8-0.1-1.7-0.2-2.5,0c-0.8,0.2-1.7-0.1-2.5,0
				c-0.8-0.3-1.6,0.1-2.5,0c-0.8,0-1.6-0.1-2.4,0c-0.8,0-1.6,0.1-2.4,0c-0.8,0.4-1.5-0.1-2.3,0c-0.8-0.2-1.5,0-2.2,0
				c-0.7,0.1-1.5-0.2-2.2,0c-0.7,0-1.4,0.1-2.1,0c-0.7,0.2-1.4-0.2-2,0c-0.7,0-1.3,0-1.9,0c-0.6-0.3-1.3,0-1.9,0
				c-0.6,0-1.2,0.2-1.8,0c-0.6,0-1.1-0.2-1.7,0c-0.5,0-1.1-0.4-1.6,0c-0.5,0.1-1-0.3-1.5,0c-0.5,0.2-0.9,0-1.4,0c-0.4,0-0.9,0-1.3,0
				c-3.6-0.1-5.7-0.3-5.7-0.4c0-0.2,2.6-0.3,6.9-0.5c0.4,0,0.9-0.2,1.4,0c0.5,0,1-0.2,1.5,0c0.5-0.3,1,0,1.6,0c0.5,0,1.1,0.1,1.7,0
				c0.6-0.2,1.2,0.1,1.8,0c0.6,0.2,1.2,0.1,1.9,0c0.6,0.2,1.3,0,1.9,0c0.7,0.3,1.3,0.1,2,0c0.7-0.1,1.4,0,2.1,0c0.7,0,1.4-0.1,2.2,0
				c0.7-0.1,1.5-0.2,2.2,0c0.8-0.1,1.5,0,2.3,0c0.8-0.1,1.5,0,2.3,0c0.8,0,1.6,0.3,2.4,0c0.8,0,1.6,0,2.5,0c0.8,0,1.7,0.1,2.5,0
				c0.8,0.3,1.7,0.1,2.5,0c0.8-0.1,1.7,0,2.5,0c0.8,0,1.7,0,2.5,0c0.8-0.1,1.6,0.1,2.5,0c0.8-0.1,1.6,0.1,2.4,0
				c0.8-0.1,1.6-0.1,2.3,0c0.8,0,1.5,0.3,2.3,0c0.8,0,1.5-0.4,2.2,0c0.7-0.1,1.5,0.2,2.2,0c0.7,0.3,1.4,0,2.1,0c0.7,0,1.4,0.2,2,0
				c0.7-0.1,1.3,0.1,1.9,0c0.6-0.2,1.3,0.2,1.8,0c0.6,0,1.2,0,1.8,0c0.6-0.4,1.1,0,1.7,0c0.5,0,1.1-0.3,1.6,0c0.5-0.3,1,0,1.5,0
				c0.5,0.1,0.9-0.1,1.4,0c0.4-0.2,0.9,0.1,1.3,0c0.4,0.1,0.8,0,1.2,0c0.4,0,0.7,0,1,0c0.3,0,0.6,0,0.9,0
				C83.7,53.6,84.6,53.7,84.6,53.8z"/>
		</g>
		<g id="XMLID_18278_">
			<path class="st0" d="M80.7,29.2c-0.1,0-0.1-0.5-0.2-1.5c0-0.2-0.1-0.5-0.1-0.8c0-0.3-0.1-0.6-0.1-1c0-0.2-0.1-0.4-0.1-0.5
				c0-0.2-0.1-0.4-0.1-0.6c0-0.2-0.1-0.4-0.1-0.6c0-0.2-0.1-0.4-0.2-0.6c-0.1-0.3-0.2-0.6-0.2-0.9c-0.1-0.3-0.2-0.6-0.3-1
				c-0.2-0.7-0.5-1.3-0.8-2c-0.1-0.4-0.3-0.7-0.5-1.1c-0.1-0.1-0.1-0.2-0.2-0.3s-0.1-0.2-0.2-0.3c-0.1-0.2-0.2-0.4-0.2-0.6
				c-0.1-0.2-0.2-0.4-0.3-0.6s-0.2-0.4-0.4-0.6c-0.1-0.2-0.3-0.4-0.4-0.6c-0.1-0.2-0.3-0.4-0.4-0.6c-0.3-0.4-0.5-0.8-0.8-1.1
				c-0.3-0.4-0.6-0.8-1-1.1c-0.4-0.3-0.7-0.7-1.1-1.1c-0.3-0.4-0.7-0.8-1.2-1.1c-0.2-0.2-0.4-0.3-0.6-0.5c-0.2-0.2-0.4-0.3-0.7-0.5
				c-0.2-0.2-0.4-0.4-0.7-0.5c-0.2-0.2-0.5-0.3-0.7-0.5c-0.2-0.2-0.4-0.4-0.7-0.6S68,8,67.7,7.8c-0.1-0.1-0.3-0.1-0.4-0.2
				c-0.1-0.1-0.3-0.1-0.4-0.2c-0.3-0.1-0.6-0.3-0.8-0.4c-0.2-0.2-0.5-0.4-0.8-0.5c-0.3-0.2-0.5-0.3-0.8-0.4
				c-0.3-0.1-0.6-0.2-0.9-0.3c-0.3-0.1-0.6-0.2-0.9-0.3C62.2,5,61.6,4.6,61,4.4c-0.3-0.1-0.6-0.2-1-0.3c-0.3-0.1-0.7-0.1-1-0.1
				c-1.3-0.4-2.6-0.9-4-1.1c-1.4-0.3-2.8-0.5-4.3-0.8c-1.5,0-3-0.1-4.5-0.4c-0.8,0.1-1.5,0.1-2.3,0.1c-0.4,0-0.8,0-1.2-0.1
				s-0.8,0-1.2-0.1c-0.4,0-0.8,0-1.2,0s-0.8,0.1-1.2,0.1C38.5,2,37.7,2,36.9,2c-0.8,0.1-1.6,0.2-2.4,0.3c-0.4,0.1-0.8,0.2-1.2,0.2
				c-0.2,0-0.4,0.1-0.6,0.1s-0.4,0.1-0.6,0.1c-1.6,0.2-3.3,0.5-4.8,1.3c-1.6,0.6-3.1,1.3-4.8,1.8c-0.7,0.5-1.5,0.9-2.2,1.3
				c-0.4,0.2-0.8,0.4-1.1,0.6c-0.4,0.2-0.8,0.4-1.2,0.6c-1.4,1-2.9,1.9-4.1,3.2c-1.3,1.2-2.4,2.6-3.5,4c-1.1,1.4-2,3-2.5,4.7
				c-0.1,0.2-0.1,0.4-0.2,0.6s-0.1,0.4-0.2,0.6C7.3,22,7.2,22.4,7,22.8c-0.1,0.4-0.2,0.8-0.3,1.3c-0.1,0.2-0.1,0.4-0.1,0.6
				c0,0.2-0.1,0.4-0.1,0.6c-0.1,0.2-0.1,0.4-0.2,0.6c0,0.2-0.1,0.4-0.1,0.6c0,0.4-0.1,0.9-0.1,1.3v0.2c0,0,0,0.1,0,0.1l0,0.1
				c0,0,0,0.1,0,0.1c0,0,0.1,0,0.1,0c0,0,0,0,0.1,0l0.3,0c1.8,0,3.5,0.1,5.2,0c1.7,0,3.4-0.1,5.1,0c1.7-0.4,3.3,0.1,5,0
				c1.6,0.2,3.3,0,4.8,0c1.6-0.1,3.1,0.2,4.7,0c1.5,0,3.1-0.1,4.5,0c1.5-0.2,2.9,0.2,4.4,0c1.4,0,2.8,0,4.2,0c1.4,0.3,2.7,0,4,0
				c1.3,0,2.6-0.2,3.8,0c1.2,0,2.5,0.1,3.6,0c1.2,0,2.3,0.4,3.4,0c1.1-0.1,2.2,0.3,3.2,0c1-0.2,2,0,3,0s1.9,0,2.7,0
				c3.9,0.1,7,0.1,9.1,0.2C79.6,29.1,80.7,29.1,80.7,29.2c0,0.1-1.4,0.2-4,0.3c-2.6,0.1-6.3,0.2-11.1,0.2c-0.9,0-1.9,0.2-3,0
				c-1,0-2.1,0.2-3.2,0c-1.1,0.3-2.2,0-3.4,0c-1.2,0-2.4-0.1-3.6,0c-1.3,0.2-2.5-0.1-3.8,0c-1.3-0.2-2.7-0.1-4,0
				c-1.4-0.2-2.8,0-4.2,0c-1.4-0.3-2.9-0.1-4.4,0c-1.5,0.1-3,0-4.5,0c-1.5,0-3.1,0.1-4.7,0c-1.6,0.1-3.2,0.2-4.8,0
				c-1.6,0.1-3.3,0-5,0c-1.7,0.1-3.4,0-5.1,0c-1.7,0-3.5-0.3-5.2,0l-0.3,0H5.7c-0.4,0-0.8,0-1.2,0c0,0,0,0,0,0v0v-0.1v-0.2l0-0.3
				l0-0.6c0-0.3,0-0.7,0-1c0-0.5,0.1-0.9,0.1-1.4l0.1-0.7c0-0.2,0.1-0.5,0.1-0.7l0.1-0.7c0-0.2,0.1-0.5,0.1-0.7
				c0.1-0.5,0.2-0.9,0.3-1.4c0.1-0.5,0.3-0.9,0.4-1.4c0.1-0.2,0.1-0.5,0.2-0.7l0.2-0.7c0.2-0.4,0.5-0.8,0.7-1.3
				C7,18.2,7.1,18,7.2,17.8c0.1-0.2,0.2-0.4,0.3-0.6s0.2-0.4,0.3-0.6c0.1-0.2,0.2-0.4,0.3-0.6c0.2-0.4,0.4-0.9,0.7-1.2
				c1-1.6,2.3-3,3.7-4.3C14,9.1,15.5,8,17,7c0.4-0.3,0.8-0.5,1.1-0.7c0.4-0.2,0.8-0.4,1.2-0.7c0.8-0.4,1.6-0.8,2.4-1.2
				c1.6-0.8,3.3-1.3,5-1.9c1.6-0.6,3.3-1.1,5-1.3c0.2,0,0.4-0.1,0.6-0.1L33,1c0.4-0.1,0.8-0.1,1.3-0.2c0.8-0.1,1.7-0.2,2.5-0.4
				c0.8-0.1,1.6-0.3,2.5-0.4C39.6,0,40,0,40.4,0c0.4,0,0.8,0,1.2,0.1c0.4,0,0.8,0,1.2,0s0.8,0,1.2,0.1c0.8,0,1.6,0.1,2.4,0.1
				c1.5,0.4,3.1,0.3,4.6,0.5c1.5,0.3,2.9,0.6,4.4,0.8c1.4,0.2,2.8,0.8,4.1,1.2c0.3,0.1,0.7,0.2,1,0.3c0.3,0.1,0.6,0.3,0.9,0.4
				C62,3.7,62.6,4,63.2,4.2C63.9,4.4,64.4,4.7,65,5c0.3,0.2,0.6,0.3,0.9,0.4c0.3,0.2,0.6,0.3,0.8,0.5C67,6,67.3,6.1,67.6,6.2
				c0.1,0.1,0.3,0.1,0.4,0.2c0.1,0.1,0.3,0.2,0.4,0.3c0.3,0.2,0.5,0.4,0.7,0.6c0.2,0.2,0.5,0.4,0.7,0.6c0.2,0.2,0.5,0.4,0.7,0.5
				c0.3,0.2,0.5,0.3,0.7,0.5C71.6,9,71.8,9.2,72,9.4s0.4,0.4,0.6,0.6c0.5,0.3,0.9,0.6,1.3,1.1c0.4,0.4,0.7,0.9,1,1.3
				c0.3,0.4,0.7,0.8,1,1.2c0.3,0.4,0.6,0.8,0.8,1.2c0.2,0.2,0.3,0.4,0.5,0.6c0.1,0.2,0.2,0.4,0.3,0.6c0.1,0.2,0.2,0.4,0.3,0.6
				c0.1,0.2,0.2,0.4,0.3,0.6c0.1,0.2,0.2,0.4,0.3,0.6c0.1,0.1,0.1,0.2,0.2,0.3c0,0.1,0.1,0.2,0.1,0.3c0.2,0.4,0.4,0.7,0.5,1.1
				c0.3,0.7,0.6,1.4,0.7,2.1c0.1,0.3,0.2,0.7,0.3,1c0.1,0.3,0.1,0.6,0.2,0.9c0,0.2,0.1,0.4,0.1,0.7s0.1,0.4,0.1,0.6
				c0,0.2,0.1,0.4,0.1,0.6s0.1,0.4,0.1,0.5c0,0.4,0,0.7,0.1,1s0,0.6,0,0.8C80.8,28.7,80.8,29.2,80.7,29.2z"/>
		</g>
		<g id="XMLID_18277_">
			<path class="st0" d="M22.1,14c0,0.1-0.1,0.1-0.2,0.2c-0.1,0-0.1,0.1-0.2,0.1c-0.1,0-0.2,0.1-0.3,0.1c-0.1,0-0.1,0.1-0.2,0.1
				c0,0-0.1,0.1-0.1,0.1c0,0-0.1,0-0.1,0.1c-0.1-0.1-0.1,0.3-0.2,0.1c-0.1,0-0.2,0.1-0.2,0.2s-0.2,0-0.3,0.2c0,0.1,0,0.1-0.1,0.1
				c-0.1,0-0.2,0-0.1,0.1c0,0.1-0.1,0.2-0.2,0.3c-0.1,0-0.2,0-0.2,0.1c0,0.1,0,0.2,0,0.2c-0.3,0-0.3,0.2-0.2,0.4
				c-0.4,0-0.4,0.2-0.1,0.4c0,0.1-0.1,0.1-0.1,0.2c0,0,0,0.1,0,0.1c0,0,0,0.1,0,0.1c0,0.1,0,0.1,0,0.2c0,0.1,0,0.1,0,0.2
				c0.1,0.1,0.2,0.1,0.2,0.2c0,0,0,0.1,0,0.1s0,0.1-0.1,0.1c0.3,0.1,0.2,0.3,0.1,0.4c0,0.1,0,0.1,0.1,0.2c0.1,0,0.1,0.1,0.1,0.2
				c0,0.1,0.1,0.1,0.1,0.2c0,0.1,0.1,0.1,0.1,0.2c0,0,0,0.1,0,0.1c0,0,0,0.1,0,0.1c0,0.1,0.1,0.1,0.3,0.1c0.1,0,0.2,0.1,0.2,0.1
				c0.1,0,0.1,0.1,0.2,0.2c0.3-0.1,0.3,0,0.5,0.2c0.1,0,0.1,0.1,0.2,0.1s0.2,0.1,0.3,0c0.1,0,0.2,0,0.3,0c0.1,0,0.2,0,0.3,0
				c0.1,0,0.2,0.1,0.3,0.1c0.1,0,0.2,0,0.3-0.1c0.1-0.1,0.1-0.1,0.2-0.1s0.2,0,0.3,0c0.1,0.1,0.2,0,0.3,0s0.1-0.2,0.2-0.2
				c0.1,0,0.1-0.1,0.2-0.1c0.1,0,0.1-0.1,0.2-0.2c0-0.1,0.1-0.1,0.1-0.2c0,0,0-0.1,0.1-0.1c0,0,0.1,0,0.1-0.1c-0.1-0.2,0-0.2,0-0.3
				s0.2,0,0.2-0.1c0.1,0,0.1-0.1,0.1-0.2s0-0.2,0-0.2c0-0.1,0-0.1,0.1-0.2s0.1-0.1,0-0.2c0,0,0-0.1,0-0.1c0,0,0-0.1,0-0.1
				c0-0.1,0-0.1,0.1-0.2c-0.1-0.1-0.1-0.1,0-0.2c0-0.1,0.1-0.2,0-0.2l0-0.1l0-0.1c0-0.1,0-0.1,0-0.2c0.1-0.1,0.1-0.2,0-0.2
				c0-0.1-0.1-0.1-0.2-0.1c0-0.1-0.3-0.1-0.2-0.4c0-0.1,0-0.1-0.1-0.2c0-0.1-0.1-0.1-0.1-0.1c-0.1,0,0-0.1,0-0.2s0-0.1-0.2,0
				c-0.1,0-0.1-0.1-0.1-0.2c0-0.1,0-0.1-0.2-0.1c-0.2,0.1-0.2-0.1-0.2-0.2s-0.2-0.1-0.2-0.2C22.7,14.3,22.1,14.2,22.1,14
				c0,0,0-0.1,0.1-0.1c0.1,0,0.2-0.1,0.4-0.1c0.4,0,0.9,0,1.5,0.3c0.1,0.1,0.4,0,0.4,0.2c0.1,0,0.1,0.1,0.2,0.1
				c0.1,0,0.1,0.1,0.2,0.2c0.1-0.1,0.2,0,0.3,0.1s0,0.2,0.1,0.3c0.1,0.1,0.1,0.1,0.1,0.2c0,0.1,0.1,0.1,0.2,0.2
				c0.2,0.1,0.1,0.4,0.3,0.5c-0.1,0.2,0,0.4,0.3,0.5c0,0.1,0,0.2,0,0.3c0,0,0.1,0.1,0.1,0.1c0,0,0,0.1,0,0.1
				c-0.1,0.1-0.1,0.2-0.1,0.3s0.1,0.2,0.2,0.3s0,0.2,0,0.3c0,0.1,0,0.1,0,0.2s0,0.1,0,0.2c-0.1,0.2,0,0.5-0.1,0.7c0,0.1,0,0.3,0,0.4
				c0,0.1-0.1,0.2-0.2,0.3c0,0.1-0.1,0.2-0.1,0.4c-0.1,0.1-0.2,0.2-0.2,0.3c0,0.1,0,0.1-0.1,0.2c0,0-0.1,0.1-0.1,0.1
				c-0.1,0.1-0.2,0.2-0.3,0.3C25,20.9,24.9,21,24.7,21c-0.1,0-0.2,0.1-0.3,0.3c-0.2,0.2-0.5,0.2-0.7,0.4l-0.4,0.1
				c-0.1,0-0.3,0.1-0.4,0.1c-0.2-0.1-0.3-0.1-0.4-0.1c-0.1,0-0.3,0.1-0.4,0.2c-0.1,0-0.3,0-0.4,0s-0.3-0.1-0.4-0.1
				c-0.1,0-0.3,0-0.4-0.1c-0.1,0-0.3-0.1-0.4-0.2c-0.1,0-0.3-0.1-0.4-0.2s-0.2-0.2-0.4-0.2c-0.1,0-0.2-0.1-0.3-0.2s-0.2-0.2-0.3-0.3
				c-0.1-0.1-0.2-0.1-0.3-0.2c0,0-0.1-0.1-0.1-0.2s0-0.1-0.1-0.2c-0.1-0.1-0.1-0.2-0.1-0.4c0-0.1-0.1-0.2-0.3-0.3
				c-0.1-0.1-0.2-0.2-0.3-0.3c-0.1-0.1-0.1-0.2,0-0.4c-0.1-0.1-0.1-0.2-0.1-0.4c0-0.1,0-0.2-0.1-0.3c0.1-0.1,0.1-0.1,0.1-0.2
				c0-0.1,0-0.1,0-0.2c0-0.1-0.1-0.2-0.1-0.3c0-0.1,0.1-0.2,0.1-0.3c0-0.1,0-0.2,0-0.3c0-0.1,0-0.1,0-0.2c0,0,0-0.1,0.1-0.1
				c0.1-0.1,0.1-0.2,0.1-0.3c0-0.1,0-0.2,0.1-0.3c0.1-0.1,0.2-0.1,0.1-0.3c0.1-0.2,0.2-0.4,0.3-0.5c-0.1-0.2,0-0.3,0-0.3
				c0.1,0,0.2-0.1,0.3-0.1c0.1-0.1,0.1-0.1,0.1-0.2s0.1-0.1,0.3-0.1c0-0.2,0-0.2,0.1-0.3c0.1,0,0.2,0,0.3,0c0.2,0,0.2-0.3,0.4-0.2
				c0-0.3,0.3,0,0.4-0.1c0.2,0.1,0.2-0.1,0.3-0.1c0,0,0.1-0.1,0.1-0.1s0.1,0,0.2,0c0.1,0,0.2,0,0.3,0c0.1,0,0.2,0,0.3,0
				s0.2,0,0.2,0.1C22.1,13.9,22.1,14,22.1,14z"/>
		</g>
		<g id="XMLID_18276_">
			<path class="st0" d="M67.1,14.4c0,0.1-0.1,0.1-0.2,0.2c-0.1,0-0.1,0.1-0.2,0.1c-0.1,0-0.2,0.1-0.3,0.1c-0.1,0-0.1,0.1-0.2,0.1
				c0,0-0.1,0.1-0.1,0.1c0,0-0.1,0-0.1,0.1c-0.1-0.1-0.1,0.3-0.2,0.1c-0.1,0-0.2,0.1-0.2,0.2s-0.2,0-0.3,0.2c0,0.1-0.1,0.1-0.1,0.1
				c-0.1,0-0.2,0-0.1,0.1c0,0.1-0.1,0.2-0.2,0.3c-0.1,0-0.2,0-0.2,0.1c0,0.1,0,0.1,0,0.2c-0.3,0-0.3,0.2-0.2,0.4
				c-0.4,0-0.4,0.2-0.1,0.4c0,0.1-0.1,0.1-0.1,0.2c0,0,0,0.1,0,0.1c0,0,0,0.1,0.1,0.1c0,0.1,0,0.1,0,0.2c0,0.1,0,0.1,0,0.2
				c0.1,0.1,0.2,0.1,0.2,0.2c0,0,0,0.1,0,0.1s-0.1,0.1-0.1,0.1c0.3,0.1,0.2,0.3,0.1,0.4c0,0.1,0,0.1,0.1,0.2c0.1,0,0.1,0.1,0.1,0.2
				c0,0.1,0.1,0.1,0.1,0.2c0.1,0.1,0.1,0.1,0.1,0.2c0,0,0,0.1,0,0.1c0,0,0,0.1,0.1,0.1C65,20,65.1,20,65.2,20c0.1,0,0.2,0.1,0.2,0.1
				c0.1,0,0.1,0.1,0.2,0.2c0.3-0.1,0.3,0,0.4,0.2c0.1,0,0.2,0.1,0.2,0.1s0.2,0.1,0.3,0c0.1,0,0.2,0,0.3,0c0.1,0,0.2,0,0.3,0
				c0.1,0,0.2,0.1,0.3,0.1c0.1,0,0.2,0,0.3-0.1c0.1-0.1,0.2-0.1,0.2-0.1s0.2,0,0.3,0c0.1,0.1,0.2,0,0.3,0c0.1-0.1,0.1-0.2,0.2-0.2
				c0.1,0,0.2-0.1,0.2-0.1s0.2-0.1,0.2-0.2c0.1-0.1,0.1-0.1,0.1-0.2c0,0,0.1-0.1,0.1-0.1c0,0,0.1,0,0.1-0.1c-0.1-0.2,0-0.2,0.1-0.3
				c0.1,0,0.2,0,0.2-0.1c0.1,0,0.1-0.1,0.2-0.2s0-0.2,0.1-0.2c0-0.1,0-0.1,0.1-0.2s0.1-0.1,0-0.2c0,0,0-0.1,0-0.1s0-0.1,0-0.1
				c0-0.1,0-0.1,0.1-0.2c-0.1-0.1-0.1-0.1,0-0.2s0.1-0.2,0-0.2l0-0.1l0-0.1c0-0.1,0-0.1,0-0.2c0.1-0.1,0.1-0.2,0.1-0.2
				c-0.1-0.1-0.1-0.1-0.2-0.1c0-0.1-0.3-0.1-0.2-0.4c0-0.1,0-0.1-0.1-0.2c0-0.1-0.1-0.1-0.2-0.1c-0.1,0,0-0.1,0-0.2
				c0-0.1,0-0.1-0.2,0c-0.1,0-0.1-0.1-0.1-0.2s-0.1-0.1-0.2-0.1c-0.2,0.1-0.2-0.1-0.3-0.2c-0.1-0.1-0.2-0.1-0.2-0.2
				C67.7,14.6,67.1,14.6,67.1,14.4c0,0,0-0.1,0.1-0.1c0.1,0,0.2-0.1,0.4-0.1c0.3,0,0.9,0,1.5,0.3c0.1,0.1,0.4,0,0.4,0.2
				c0.1,0,0.1,0.1,0.2,0.1s0.1,0.1,0.2,0.2c0.2-0.1,0.2,0,0.3,0.1c0,0.1,0.1,0.2,0.1,0.3c0.1,0.1,0.1,0.1,0.2,0.2s0.1,0.1,0.2,0.2
				c0.2,0.1,0.1,0.4,0.3,0.5c-0.1,0.3,0,0.4,0.3,0.5c0,0.1,0,0.2,0,0.3c0,0,0.1,0.1,0.1,0.1c0,0,0,0.1,0.1,0.1
				c-0.1,0.1-0.1,0.2-0.1,0.3s0.1,0.2,0.2,0.3s0,0.2,0,0.3c0,0.1,0,0.1,0,0.2s0,0.1,0,0.2c-0.1,0.2,0,0.5-0.1,0.7c0,0.1,0,0.3,0,0.4
				c0,0.1-0.1,0.2-0.2,0.3c0,0.1-0.1,0.2-0.2,0.4s-0.2,0.2-0.2,0.3c0,0.1-0.1,0.1-0.1,0.2c0,0-0.1,0.1-0.1,0.1
				c-0.1,0.1-0.2,0.2-0.3,0.3c-0.1,0.1-0.2,0.1-0.3,0.2c-0.1,0-0.2,0.1-0.3,0.3c-0.2,0.2-0.5,0.2-0.7,0.4l-0.4,0.1
				c-0.1,0-0.3,0.1-0.4,0.1c-0.2-0.1-0.3-0.1-0.4-0.1c-0.1,0-0.3,0.1-0.4,0.2c-0.1,0-0.3,0-0.4,0s-0.3-0.1-0.4-0.1
				c-0.1,0-0.3,0-0.4-0.1c-0.1,0-0.3-0.1-0.4-0.2c-0.2,0-0.3-0.1-0.4-0.2c-0.1-0.1-0.2-0.2-0.4-0.2s-0.2-0.1-0.3-0.2
				c-0.1-0.1-0.2-0.2-0.3-0.3c-0.1-0.1-0.2-0.1-0.3-0.2c0,0-0.1-0.1-0.1-0.2s0-0.1-0.1-0.2c-0.1-0.1-0.1-0.2-0.1-0.4
				c0-0.1-0.1-0.2-0.3-0.3c-0.1-0.1-0.2-0.2-0.3-0.3c-0.1-0.1-0.1-0.2,0-0.4c-0.1-0.1-0.1-0.2-0.1-0.4c0-0.1,0-0.2-0.1-0.3
				c0.1-0.1,0.1-0.1,0.1-0.2c0-0.1,0-0.1,0-0.2c0-0.1-0.1-0.2-0.1-0.3c0-0.1,0.1-0.2,0.1-0.3c0-0.1,0-0.2,0-0.3c0-0.1,0-0.1,0-0.2
				c0,0,0-0.1,0.1-0.1c0.1-0.1,0.1-0.2,0.1-0.3c0-0.1,0-0.2,0.1-0.3c0.1-0.1,0.2-0.1,0.1-0.3c0.1-0.2,0.2-0.3,0.3-0.5
				c-0.1-0.2,0-0.3,0-0.3c0.1,0,0.2-0.1,0.3-0.1c0.1,0,0.1-0.1,0.1-0.2c0-0.1,0.1-0.1,0.3-0.1c0-0.2,0-0.2,0.1-0.3
				c0.1,0,0.2,0,0.3,0c0.2,0,0.2-0.3,0.4-0.2c0-0.3,0.3,0,0.4-0.1c0.2,0.1,0.2-0.1,0.3-0.1c0,0,0.1-0.1,0.1-0.1s0.1,0,0.2,0
				c0.1,0,0.2,0,0.3,0c0.1,0,0.2,0,0.3,0c0.1,0,0.2,0,0.2,0.1C67,14.3,67.1,14.3,67.1,14.4z"/>
		</g>
		<g id="XMLID_18275_">
			<path class="st0" d="M53.2,10c0,0.1-0.1,0.2-0.3,0.3c0,0-0.1,0.1-0.1,0.1c0,0-0.1,0.1-0.1,0.1c-0.1-0.1,0,0.3-0.1,0.1
				c-0.1,0-0.1,0-0.1,0.1s-0.1,0-0.1,0.1c0.1,0.1,0,0.1-0.1,0s-0.1-0.1,0,0.1c0,0.1,0,0.1-0.1,0.1C51.9,11,52,11.2,52,11.3
				c-0.2-0.1-0.2,0.1-0.1,0.2c-0.3-0.1-0.3,0,0,0.2c0,0,0,0.1-0.1,0.1s0,0.1,0,0.1c0,0,0,0.1,0,0.1c0,0,0,0.1,0,0.1
				c0.1,0,0.2,0.1,0.2,0.1s0,0.1-0.1,0.1c0.3,0,0.2,0.1,0.1,0.2c0,0.1,0,0.1,0.1,0.1c0,0,0.1,0,0,0.1c0,0.1,0.1,0.1,0.1,0.2
				c0,0.1,0,0.1,0,0.2c0,0,0.1,0.1,0.2,0c0.1,0,0.2,0,0.2,0.1c0.2-0.2,0.2-0.1,0.2,0.1c0,0,0.1,0,0.1,0.1s0.1,0.1,0.1,0
				c0,0,0.1,0,0.1,0c0,0,0.1,0,0.1,0c0,0,0.1,0.1,0.1,0.1c0,0,0.1,0,0.1-0.1c0-0.1,0-0.1,0.1-0.1c0,0,0.1,0,0.1,0
				c0.1,0.1,0.1,0.1,0.1,0s0-0.1,0.1-0.1c0,0,0.1,0,0.1,0c0,0,0.1,0,0.1-0.1c0,0,0-0.1,0-0.1s0,0,0.1,0c-0.1-0.1-0.1-0.1,0-0.1
				c0.1,0,0.2,0,0.2,0c0.1,0,0.1,0,0.1-0.1s0-0.1,0-0.1c0,0,0-0.1,0.1-0.1c0,0,0.1-0.1,0-0.1c0,0,0-0.1,0-0.1c0,0,0-0.1,0.1-0.1
				c-0.1,0-0.1-0.1,0-0.1c0,0,0.1-0.1,0-0.1c0-0.1,0-0.1,0-0.2c0.1-0.1,0.1-0.1,0.1-0.1c0,0-0.1,0-0.1-0.1c0-0.1-0.2,0-0.1-0.2
				c0-0.1,0-0.2-0.1-0.2c0,0,0-0.1,0-0.2s0-0.1-0.2,0c0,0,0-0.1,0-0.1s0-0.1-0.1,0C53.9,11,54,10.8,54,10.7s-0.1-0.1-0.1-0.1
				C53.5,10.3,53.2,10.2,53.2,10c0-0.1,0.1-0.2,0.3-0.2c0.2-0.1,0.5-0.1,1,0.1c0.1,0,0.3-0.1,0.2,0.1c0.1,0.1,0.3,0,0.3,0.1
				c0.3-0.1,0.2,0.1,0.2,0.2c0.1,0.1,0.1,0.2,0.2,0.3c0.2,0,0.1,0.2,0.2,0.3c-0.1,0.2,0,0.3,0.2,0.3c-0.1,0.1,0,0.1,0,0.2
				c0,0.1,0.1,0.1,0.1,0.2c-0.1,0.1-0.1,0.1-0.1,0.2c0,0.1,0.1,0.1,0.2,0.2c0,0.1,0,0.1,0,0.2c0,0.1,0,0.1,0,0.2
				c-0.1,0.1,0,0.3-0.1,0.5c0,0.1,0,0.2,0,0.3c0,0.1-0.1,0.1-0.2,0.2c0,0.2-0.2,0.3-0.3,0.4c0,0.1-0.1,0.2-0.1,0.2s-0.1,0.1-0.2,0.2
				c0,0.1-0.2,0.1-0.3,0.1c-0.1,0-0.2,0.1-0.2,0.2c-0.1,0.1-0.3,0.1-0.5,0.3c-0.2,0-0.4,0.1-0.5,0.2c-0.1-0.1-0.2-0.1-0.3-0.1
				c-0.1,0-0.2,0.1-0.3,0.2c-0.1,0-0.2,0-0.3,0c-0.1,0-0.2-0.1-0.3-0.1c-0.2,0-0.4-0.1-0.5-0.2c-0.1,0-0.2-0.1-0.2-0.1
				c-0.1-0.1-0.1-0.1-0.2-0.1s-0.2-0.1-0.2-0.2s-0.1-0.2-0.2-0.2c-0.1,0-0.2-0.1-0.2-0.1c-0.1-0.1-0.1-0.1-0.1-0.3
				c0-0.1,0-0.2-0.1-0.3c0-0.1,0-0.1-0.2-0.2c-0.1-0.1-0.2-0.1-0.3-0.2c-0.1-0.1-0.1-0.2,0.1-0.3c-0.1-0.1,0-0.1,0-0.2s0-0.2,0-0.2
				c0.1-0.1,0.1-0.2,0.1-0.2c0-0.1-0.1-0.1-0.1-0.2c0-0.1,0.1-0.1,0.1-0.2s0-0.1,0-0.2c-0.1-0.1,0-0.1,0-0.2c0-0.1,0.1-0.1,0.1-0.2
				c0-0.1,0-0.1,0.1-0.2s0.1-0.1,0.1-0.2c0.1-0.1,0.1-0.2,0.2-0.3c-0.1-0.1-0.1-0.2,0-0.2c0.1,0,0.2,0,0.2,0c0.1,0,0-0.1,0.1-0.2
				c0-0.1,0-0.1,0.2,0c-0.1-0.3,0.1-0.2,0.3-0.1s0.1-0.2,0.2-0.1c0-0.2,0.2,0,0.2-0.1c0.1,0.1,0.1-0.1,0.2,0c0-0.1,0.1-0.1,0.2,0
				c0.1,0,0.1,0,0.2,0c0.2,0,0.3,0.1,0.3,0.1C53.2,9.9,53.2,10,53.2,10z"/>
		</g>
		<g id="XMLID_18262_">
			<path class="st0" d="M31.3,7.8c0,0.1-0.1,0.2-0.3,0.3c0,0-0.1,0.1-0.1,0.1c0,0-0.1,0.1-0.1,0.1c-0.1-0.1,0,0.3-0.1,0.1
				c-0.1,0-0.1,0-0.1,0.1s-0.1,0-0.1,0.1c0.1,0.1,0,0.1-0.1,0s-0.1-0.1,0,0.1c0,0.1,0,0.1-0.1,0.1C30,8.8,30.1,8.9,30.1,9
				c-0.2-0.1-0.2,0.1-0.1,0.2c-0.3-0.1-0.3,0,0,0.2c0,0-0.1,0.1-0.1,0.1c0,0,0,0.1,0,0.1c0,0.1,0.1,0.1,0,0.2c0.1,0,0.2,0.1,0.2,0.1
				s0,0.1-0.1,0.1c0.3,0,0.2,0.1,0.1,0.2c0,0.1,0,0.1,0.1,0.1c0.1,0,0.1,0,0,0.1c0,0.1,0.1,0.1,0.1,0.2c0,0.1,0,0.1,0,0.2
				c0,0,0.1,0.1,0.2,0c0.1,0,0.2,0,0.2,0.1c0.2-0.2,0.2-0.1,0.2,0.1c0,0,0.1,0,0.1,0.1c0,0,0.1,0.1,0.1,0c0,0,0.1,0,0.1,0
				c0,0,0.1,0,0.1,0c0,0,0.1,0.1,0.1,0.1c0,0,0.1,0,0.1-0.1c0-0.1,0-0.1,0.1-0.1c0,0,0.1,0,0.1,0c0.1,0.1,0.1,0.1,0.1,0
				c0-0.1,0-0.1,0.1-0.1c0,0,0.1,0,0.1,0c0,0,0.1,0,0.1-0.1c0,0,0-0.1,0-0.1s0,0,0.1,0c-0.1-0.1-0.1-0.1,0-0.1c0.1,0,0.2,0,0.2,0
				c0.1,0,0.1,0,0.1-0.1s0-0.1,0-0.1c0,0,0-0.1,0.1-0.1c0,0,0.1-0.1,0-0.1c0,0,0-0.1,0-0.1c0,0,0-0.1,0.1-0.1c-0.1,0-0.1-0.1,0-0.1
				c0,0,0.1-0.1,0-0.1c0-0.1,0-0.1,0-0.2c0.1-0.1,0.1-0.1,0.1-0.1s-0.1,0-0.1-0.1c0-0.1-0.2,0-0.1-0.2c0-0.1,0-0.2-0.1-0.2
				c0,0,0-0.1,0-0.2s0-0.1-0.2,0c0,0,0-0.1,0-0.1s0-0.1-0.1,0c-0.2,0.2-0.1-0.1-0.1-0.1S32,8.4,32,8.3C31.6,8,31.3,7.9,31.3,7.8
				c0-0.1,0.1-0.2,0.3-0.2c0.2-0.1,0.5-0.1,1,0.1c0.1,0,0.3-0.1,0.2,0.1c0.1,0.1,0.3,0,0.3,0.2c0.3-0.1,0.2,0.1,0.2,0.2
				c0.1,0.1,0.1,0.2,0.2,0.3c0.2,0,0.1,0.2,0.2,0.3c-0.1,0.2,0,0.3,0.2,0.3c-0.1,0.1,0,0.1,0,0.2C34,9.2,34,9.3,34,9.4
				c-0.1,0.1-0.1,0.1-0.1,0.2c0,0.1,0.1,0.1,0.2,0.2c0,0.1,0,0.1,0,0.2c0,0.1,0,0.1,0,0.2c-0.1,0.1,0,0.3-0.1,0.5c0,0.1,0,0.2,0,0.3
				s-0.1,0.1-0.2,0.2c0,0.2-0.2,0.3-0.3,0.4c0,0.1-0.1,0.2-0.1,0.2c-0.1,0.1-0.1,0.1-0.2,0.2c0,0.1-0.2,0.1-0.3,0.1
				c-0.1,0-0.2,0.1-0.2,0.2c-0.1,0.1-0.3,0.1-0.5,0.3c-0.2,0-0.4,0.1-0.5,0.2c-0.1-0.1-0.2-0.1-0.3-0.1c-0.1,0-0.2,0.1-0.3,0.2
				c-0.1,0-0.2,0-0.3,0c-0.1,0-0.2-0.1-0.3-0.1c-0.2,0-0.4-0.1-0.5-0.2c-0.1,0-0.2-0.1-0.2-0.1c-0.1-0.1-0.1-0.1-0.2-0.1
				s-0.2-0.1-0.2-0.2s-0.1-0.2-0.2-0.2c-0.1,0-0.2-0.1-0.2-0.1c-0.1-0.1-0.1-0.1-0.1-0.3c0-0.1,0-0.2-0.1-0.3s0-0.1-0.2-0.2
				c-0.1-0.1-0.2-0.1-0.3-0.2c-0.1-0.1-0.1-0.2,0.1-0.3c-0.1-0.1,0-0.1,0-0.2s0-0.2-0.1-0.2c0.1-0.1,0.1-0.2,0.1-0.2
				s-0.1-0.1-0.1-0.2c0.1-0.1,0.2-0.3,0.1-0.4c-0.1-0.1,0-0.1,0-0.2c0-0.1,0.1-0.1,0.1-0.2c0-0.1,0-0.1,0.1-0.2s0.1-0.1,0.1-0.2
				c0.1-0.1,0.1-0.2,0.2-0.3c-0.1-0.1-0.1-0.2,0-0.2c0.1,0,0.2,0,0.2,0c0.1,0,0-0.1,0.1-0.2c0-0.1,0-0.1,0.2,0
				c-0.1-0.3,0.1-0.2,0.3-0.2c0.1,0,0.1-0.2,0.2-0.1c0-0.2,0.2,0,0.2-0.1c0.1,0.1,0.1-0.1,0.2,0c0-0.1,0.1-0.1,0.2,0
				c0.1,0,0.1,0,0.2,0c0.2,0,0.3,0.1,0.4,0.1C31.3,7.7,31.3,7.7,31.3,7.8z"/>
		</g>
		<g id="XMLID_18261_">
			<path class="st0" d="M41.5,16.9c0,0.1-0.1,0.2-0.3,0.3c0,0-0.1,0-0.1,0.1c0,0-0.1,0.1-0.1,0.1c-0.1-0.1,0,0.3-0.1,0.1
				c-0.1,0-0.1,0-0.1,0.1s-0.1,0-0.1,0.1c0.1,0.1,0,0.1-0.1,0c-0.1,0-0.1,0,0,0.1c0,0.1,0,0.1-0.1,0.1c-0.2-0.1-0.1,0.1-0.1,0.2
				c-0.2-0.1-0.2,0-0.1,0.2c-0.3-0.1-0.3,0,0,0.2c0,0,0,0-0.1,0.1c0,0,0,0.1,0,0.1c0,0.1,0.1,0.1,0,0.2c0.1,0,0.2,0.1,0.2,0.1
				s0,0.1-0.1,0.1c0.3,0,0.2,0.1,0.1,0.2c0,0,0,0.1,0.1,0.1s0.1,0,0,0.1c0,0.1,0.1,0.1,0.1,0.2c0,0.1,0,0.1,0,0.2c0,0,0.1,0,0.2,0
				c0.1,0,0.2,0,0.2,0.1C41,19.8,41,20,41,20.1c0,0,0.1,0,0.1,0.1c0,0,0.1,0,0.1,0c0,0,0.1,0,0.1,0c0,0,0.1,0,0.1,0
				c0,0,0.1,0.1,0.1,0.1c0,0,0.1,0,0.1-0.1c0-0.1,0-0.1,0.1-0.1c0,0,0.1,0,0.1,0c0.1,0.1,0.1,0.1,0.1,0s0-0.1,0.1-0.1
				c0-0.1,0.2,0,0.2-0.1c0,0,0-0.1,0-0.1s0,0,0.1,0c-0.1-0.1-0.1-0.1,0-0.1c0.1,0,0.2,0,0.2,0c0.1,0,0.1,0,0.1-0.1c0,0,0-0.1,0-0.1
				c0,0,0-0.1,0.1-0.1c0,0,0.1-0.1,0-0.1c0,0,0-0.1,0-0.1c0,0,0-0.1,0.1-0.1c-0.1,0-0.1-0.1,0-0.1c0,0,0.1-0.1,0-0.1
				c0-0.1,0-0.1,0-0.2c0.1-0.1,0.1-0.1,0.1-0.1c0,0-0.1,0-0.1,0c0-0.1-0.2,0-0.1-0.2c0-0.1,0-0.2-0.1-0.2c0,0,0-0.1,0-0.2
				s0-0.1-0.1,0c0,0,0-0.1,0-0.1c0-0.1,0-0.1-0.1,0c-0.2,0.2-0.1-0.1-0.1-0.1s-0.1-0.1-0.1-0.1C41.8,17.2,41.5,17.1,41.5,16.9
				c0-0.1,0.1-0.2,0.3-0.2c0.2,0,0.5-0.1,1,0.1c0.1,0,0.3-0.1,0.2,0.1c0.1,0,0.3,0,0.3,0.1c0.3-0.1,0.2,0.1,0.3,0.2
				c0.1,0.1,0.1,0.2,0.2,0.3c0.2,0,0.1,0.2,0.2,0.3c-0.1,0.2,0,0.3,0.2,0.3c-0.1,0.1,0,0.1,0,0.2c0,0.1,0.1,0.1,0.1,0.2
				c-0.1,0.1-0.1,0.1-0.1,0.2s0.1,0.1,0.2,0.2c0,0.1,0,0.1,0,0.2c0,0.1,0,0.1,0,0.2c-0.1,0.1,0,0.3-0.1,0.5c0,0.1,0,0.2,0,0.3
				s-0.1,0.1-0.2,0.2c0,0.2-0.2,0.3-0.3,0.4c0,0.1-0.1,0.2-0.1,0.2c-0.1,0.1-0.1,0.1-0.2,0.2c0,0.1-0.2,0.1-0.3,0.1
				c-0.1,0-0.2,0.1-0.2,0.2c-0.1,0.1-0.3,0.1-0.5,0.3c-0.2,0-0.4,0-0.5,0.2c-0.1-0.1-0.2-0.1-0.3-0.1c-0.1,0-0.2,0.1-0.3,0.2
				c-0.1,0-0.2,0-0.3,0s-0.2,0-0.3-0.1c-0.2,0-0.4-0.1-0.5-0.2c-0.1,0-0.2-0.1-0.2-0.1c-0.1-0.1-0.1-0.1-0.2-0.1s-0.2-0.1-0.2-0.2
				s-0.1-0.2-0.2-0.2c-0.1,0-0.2-0.1-0.2-0.1c-0.1-0.1-0.1-0.1-0.1-0.3c0-0.1,0-0.2-0.1-0.3c0-0.1,0-0.1-0.2-0.2
				c-0.1-0.1-0.2-0.1-0.3-0.2c-0.1-0.1-0.1-0.2,0.1-0.3c-0.1-0.1,0-0.1,0-0.2s0-0.2,0-0.2c0.1-0.1,0.1-0.2,0.1-0.2S38.7,19,38.7,19
				c0.1-0.1,0.2-0.3,0.1-0.4c-0.1-0.1,0-0.1,0-0.2c0-0.1,0.1-0.1,0.1-0.2c-0.1-0.1,0-0.1,0.1-0.2s0.1-0.1,0.1-0.2
				c0.1-0.1,0.1-0.2,0.2-0.3c-0.1-0.1-0.1-0.2,0-0.2c0.1,0,0.2,0,0.2,0c0.1,0,0-0.1,0.1-0.2c0-0.1,0-0.1,0.2,0
				c-0.1-0.3,0.1-0.2,0.3-0.1c0.1,0,0.1-0.2,0.2-0.1c0-0.2,0.2,0,0.2-0.1c0.1,0.1,0.1,0,0.2,0c0-0.1,0.1-0.1,0.2,0
				c0.1,0,0.1,0,0.2,0c0.2,0,0.3,0.1,0.3,0.1C41.5,16.8,41.5,16.9,41.5,16.9z"/>
		</g>
		<g id="XMLID_18260_">
			<path class="st0" d="M0.9,29.2c0.1,0,0.1,0.5,0.2,1.5c0,1,0.1,2.5,0.1,4.4c0,0.6,0,1.3,0,2.1c0,0.4,0,0.8,0,1.1c0,0.4,0,0.9,0,1
				c0,0.1,0,0.3,0,0.4c0.2,0,0.5-0.1,0.6-0.1c0.3,0,0.7,0,1,0c0.9,0.1,1.9,0,2.9,0c1,0,2,0.1,3.1,0c1.1-0.3,2.2,0.3,3.4,0
				c1.2-0.1,2.4,0,3.6,0c1.2,0.2,2.5,0,3.8,0c1.3,0.3,2.7,0.1,4,0c1.4,0.3,2.8,0.3,4.2,0c1.5,0,2.9,0.1,4.4,0c1.5,0,3-0.1,4.6,0
				c1.6-0.2,3.2-0.2,4.8,0c1.6-0.3,3.3-0.2,5,0c1.7,0.1,3.4-0.2,5.1,0c1.7,0,3.5-0.1,5.2,0c1.8,0.1,3.6,0.2,5.4,0
				c1.8-0.1,3.6-0.1,5.5,0c1.8-0.3,3.7-0.2,5.6,0c1.9,0,3.8,0.1,5.7,0c1,0,1.9,0,2.9,0c0.5,0,1,0,1.4,0h0.4h0.1c0,0,0,0,0,0h0
				c0,0,0.1,0,0.1,0l0,0c0,0,0-0.1,0-0.1l0,0c0,0,0,0,0,0v-0.1l0-0.4c0-0.5,0-1,0-1.5c0-1,0-1.9-0.1-2.9c-0.1-0.9-0.1-1.7-0.1-2.6
				c0-0.4,0-0.9,0-1.3l0-0.3l0,0c0,0,0-0.1,0-0.1c0,0-0.1,0-0.1,0c0,0,0,0-0.1,0l0,0h-0.1l-0.2,0c-0.2,0-0.5,0-0.7,0
				c-0.5,0-0.9,0-1.4,0c-0.9,0-1.9,0.1-2.8,0.1c-1.8,0-3.7-0.1-5.5,0c-1.8,0-3.6,0.1-5.4,0c-1.8,0.4-3.5-0.1-5.2,0
				c-1.7-0.2-3.4,0-5.1,0c-1.7,0.1-3.3-0.2-5,0c-1.6,0-3.2,0.1-4.8,0c-1.6,0.2-3.1-0.2-4.6,0c-1.5,0-3,0-4.4,0c-1.5-0.3-2.9,0-4.3,0
				c-1.4,0-2.7,0.2-4,0c-1.3,0-2.6-0.1-3.8,0c-1.2,0-2.4-0.4-3.6,0c-1.2,0.1-2.3-0.3-3.4,0c-1.1,0.2-2.1,0-3.1,0c-1,0-2,0-2.9,0
				c-4.1-0.1-7.4-0.1-9.6-0.2C2,29.4,0.9,29.3,0.9,29.2c0-0.1,1.5-0.2,4.2-0.3s6.7-0.2,11.7-0.2c1,0,2-0.2,3.1,0
				c1.1,0,2.2-0.2,3.4,0c1.2-0.3,2.4,0,3.6,0c1.2,0,2.5,0.1,3.8,0c1.3-0.2,2.7,0.1,4,0c1.4,0.2,2.8,0.1,4.3,0c1.5,0.2,2.9,0,4.4,0
				c1.5,0.3,3,0.1,4.6,0c1.6-0.1,3.2,0,4.8,0c1.6,0,3.3-0.1,5,0c1.7-0.1,3.4-0.2,5.1,0c1.7-0.1,3.5,0,5.2,0c1.8-0.1,3.6,0,5.4,0
				c1.8,0,3.7,0.3,5.5,0c0.9,0,1.9,0,2.8,0c0.5,0,0.9,0,1.4,0h0.7c0.4,0,0.7,0,1.1,0c0.3,0,0.7,0,1,0c0,1.1,0,2.3,0,3.4
				c0,0.9,0,1.7,0.1,2.6c-0.1,1-0.2,1.9-0.1,2.9c0,1.1,0.1,1.5,0.1,3.8l0,0c-0.8,0-1.6,0-2.3,0c-0.5,0-1,0-1.4,0c-1,0-1.9,0-2.9,0
				c-1.9,0-3.8,0-5.7,0c-1.9,0.1-3.8-0.1-5.6,0c-1.8,0.1-3.7-0.1-5.5,0c-1.8,0.1-3.6,0.1-5.4,0c-1.8,0-3.5-0.3-5.2,0
				c-1.7,0-3.4,0.4-5.1,0c-1.7,0.1-3.3-0.2-5,0c-1.6-0.3-3.2,0-4.8,0c-1.6,0-3.1-0.2-4.6,0c-1.5,0.1-3-0.1-4.4,0
				c-1.5,0.2-2.9-0.2-4.2,0c-1.4,0-2.7,0-4,0c-1.3,0.4-2.6,0-3.8,0c-1.2,0-2.4,0.3-3.6,0c-1.2,0.3-2.3,0-3.4,0s-2.1,0.1-3.1,0
				c-1,0.2-2-0.1-2.9,0c-0.3,0-0.7-0.1-1-0.1c-0.5,0-0.9,0-1.4,0c0-0.3,0-0.5,0-0.8c0-0.7,0-1,0-1.4c0-0.4,0-0.8,0.1-1.1
				c0-0.7,0-1.4,0.1-2.1c0.1-1.9,0.1-3.4,0.1-4.4C0.8,29.7,0.8,29.2,0.9,29.2z"/>
		</g>
		<g id="XMLID_18259_">
			<path class="st0" d="M5.3,40.2c0.1,0,0.1,0.5,0.2,1.4c0.1,0.9,0.1,2.3,0.2,4c0,0.3,0,0.6,0,0.9c0,0.2,0,0.3,0,0.5
				c0,0.2,0,0.3,0,0.5c0.1,0.6,0.2,1.3,0.5,2c0,0.2,0.1,0.3,0.2,0.5c0.1,0.1,0.1,0.2,0.2,0.2s0.1,0.1,0.2,0.2
				c0.1,0.1,0.1,0.1,0.2,0.2C6.9,50.6,7,50.7,7,50.7c0.1,0.2,0.2,0.3,0.3,0.5c0.5,0.6,1.2,1.1,1.9,1.5c0.2,0.1,0.4,0.2,0.6,0.3
				c0.1,0,0.2,0.1,0.3,0.1c0.1,0,0.2,0.1,0.3,0.1c0.1,0,0.2,0.1,0.3,0.1c0.1,0,0.2,0,0.3,0s0.2,0,0.3,0c0.1,0,0.2,0,0.3,0
				c0.1,0,0.2,0,0.4,0c0.1,0,0.3,0,0.4,0c0.3,0,0.5,0,0.8,0.1c0.5,0.1,1,0.1,1.6,0c1.1-0.1,2.1,0,3.3,0c1.1,0.2,2.3,0,3.5,0
				c1.2,0.3,2.4,0.1,3.6,0c1.3,0.3,2.5,0.3,3.8,0c1.3,0,2.6,0.1,4,0c1.4,0,2.8-0.1,4.2,0c1.4-0.2,2.9-0.2,4.3,0c1.5-0.3,3-0.2,4.5,0
				c1.5,0.1,3-0.2,4.6,0c1.6,0,3.1-0.1,4.7,0c1.6,0.1,3.2,0.2,4.9,0c1.6-0.1,3.3-0.1,5,0c1.7-0.3,3.4-0.2,5.1,0c0.8,0,1.7,0,2.6,0
				l0.7,0h0.3c0.1,0,0.2,0,0.3,0c0.2,0,0.4,0,0.6-0.1c0.2,0,0.4-0.1,0.6-0.1c0.7-0.2,1.4-0.5,2.1-1s1.1-1,1.6-1.6
				c0.4-0.6,0.8-1.3,0.9-2.1c0-0.2,0.1-0.4,0.1-0.6s0-0.4,0-0.6c0-0.4,0-0.9-0.1-1.3c-0.1-0.9-0.1-1.7,0-2.6c0-0.4,0-0.9,0-1.3
				l0-0.3v-0.3c0,0,0-0.1,0-0.1c0,0,0,0,0-0.1c0,0-0.1,0-0.1,0c0,0-0.1,0-0.1,0h0h-0.1h-0.2c-0.4,0-0.8,0-1.2,0
				c-0.8,0-1.6,0.1-2.4,0c-1.7,0-3.3-0.1-5,0c-1.6,0-3.3,0.1-4.9,0c-1.6,0.4-3.2-0.1-4.7,0c-1.6-0.2-3.1,0-4.6,0
				c-1.5,0.1-3-0.2-4.5,0c-1.5,0-2.9,0.1-4.3,0c-1.4,0.2-2.8-0.2-4.2,0c-1.4,0-2.7,0-4,0c-1.3-0.3-2.6,0-3.8,0c-1.3,0-2.5,0.2-3.7,0
				c-1.2,0-2.3-0.2-3.5,0c-1.1,0-2.2-0.4-3.3,0c-1,0.1-2.1-0.3-3,0c-1,0.2-1.9,0-2.8,0c-0.9,0-1.8,0-2.6,0c-3.7-0.1-6.7-0.1-8.7-0.2
				C6.4,40.3,5.3,40.2,5.3,40.2c0-0.1,1.3-0.2,3.8-0.3s6.1-0.2,10.6-0.2c0.9,0,1.9-0.2,2.8,0c1,0,2-0.2,3,0c1-0.3,2.1,0,3.3,0
				c1.1,0,2.3,0.1,3.5,0c1.2-0.2,2.4,0.1,3.7,0c1.3,0.2,2.5,0.1,3.8,0c1.3,0.2,2.6,0,4,0c1.4,0.3,2.8,0.1,4.2,0c1.4-0.1,2.9,0,4.3,0
				c1.5,0,3-0.1,4.5,0c1.5-0.1,3-0.2,4.6,0c1.6-0.1,3.1,0,4.7,0c1.6-0.1,3.2,0,4.9,0c1.6,0,3.3,0.3,5,0c0.8,0,1.6,0,2.4,0
				c0.4,0,0.8,0,1.2,0c0.3,0,0.6,0,0.9,0c0.4,0,0.8,0,1.1,0c0,0.2,0,0.4,0,0.5c0,1.1,0,2.1,0,3.2c0,0.9,0,1.7,0,2.6
				c-0.1,0.4-0.1,0.9-0.1,1.3l-0.1,0.7c0,0.2-0.1,0.5-0.1,0.7c-0.2,1-0.5,1.9-0.9,2.8c-0.5,0.9-1.2,1.6-2,2.2
				c-0.8,0.6-1.7,1-2.7,1.2c-0.2,0.1-0.5,0.1-0.7,0.1c-0.2,0-0.5,0-0.7,0.1c-0.1,0-0.3,0-0.4,0h-0.3h-0.7c-0.9,0-1.7,0-2.6,0
				c-1.7,0.1-3.4-0.1-5.1,0c-1.7,0.1-3.3-0.1-5,0c-1.6,0.1-3.3,0.1-4.9,0c-1.6,0-3.2-0.3-4.7,0c-1.6,0-3.1,0.4-4.6,0
				c-1.5,0.1-3-0.2-4.5,0c-1.5-0.3-2.9,0-4.3,0c-1.4-0.1-2.8-0.2-4.2,0c-1.4,0.1-2.7-0.1-4,0c-1.3,0.2-2.6-0.2-3.8,0
				c-1.3,0-2.5,0-3.6,0c-1.2,0.4-2.3,0-3.5,0c-1.1,0-2.2,0.3-3.3,0c-0.5,0.1-1,0.2-1.6,0.1c-0.3,0-0.5,0-0.8-0.1c-0.1,0-0.3,0-0.4,0
				c-0.1,0-0.3,0-0.4,0c-0.1,0-0.3,0-0.4,0c-0.1,0-0.3,0-0.4-0.1s-0.3,0-0.4,0c-0.1,0-0.3,0-0.4-0.1c-0.1,0-0.2-0.1-0.4-0.1
				c-0.1,0-0.2-0.1-0.4-0.1c-0.2-0.1-0.4-0.2-0.6-0.4c-0.3,0-0.5-0.2-0.7-0.3c-0.2-0.1-0.4-0.3-0.6-0.4c-0.2-0.2-0.3-0.3-0.5-0.5
				s-0.3-0.3-0.5-0.5c-0.1-0.2-0.2-0.4-0.4-0.5c-0.1-0.1-0.1-0.2-0.2-0.3S6.1,50.8,6,50.7s-0.1-0.2-0.2-0.3s-0.1-0.2-0.2-0.3
				c-0.1-0.2-0.2-0.4-0.2-0.5C5.1,48.9,5,48.1,5,47.5c0-0.2,0-0.3,0-0.5c0-0.2,0-0.3,0-0.5c0-0.3,0-0.6,0-0.9c0.1-1.7,0.1-3.1,0.2-4
				C5.2,40.7,5.3,40.2,5.3,40.2z"/>
		</g>
	</g>
</g>
</svg>
