<svg width="549" height="549" viewBox="0 0 549 549" fill="none" xmlns="http://www.w3.org/2000/svg">
<path d="M241.834 537.122L242.843 537.21C242.831 537.92 242.894 538.52 243.033 539.012C243.172 539.503 243.402 539.895 243.724 540.188C244.028 540.496 244.429 540.729 244.927 540.888C245.426 541.047 246.028 541.158 246.734 541.219C247.341 541.272 247.834 541.299 248.214 541.299C248.577 541.314 248.859 541.297 249.062 541.249C249.265 541.201 249.403 541.13 249.477 541.037C249.534 540.96 249.568 540.847 249.581 540.699L250.73 527.533C250.776 527.008 250.782 526.553 250.75 526.17C250.701 525.786 250.58 525.461 250.388 525.197C250.179 524.947 249.875 524.738 249.476 524.571C249.059 524.419 248.507 524.305 247.82 524.228L247.901 523.293L257.204 524.105L257.122 525.04C256.432 524.997 255.868 525.013 255.432 525.091C254.994 525.185 254.658 525.338 254.425 525.549C254.173 525.775 253.998 526.074 253.9 526.445C253.785 526.815 253.705 527.263 253.659 527.788L252.51 540.955C252.497 541.102 252.52 541.22 252.578 541.308C252.619 541.411 252.726 541.503 252.901 541.584C253.06 541.664 253.294 541.726 253.604 541.769C253.913 541.829 254.33 541.882 254.855 541.928C255.495 541.984 256.096 542.012 256.658 542.011C257.204 542.009 257.692 541.903 258.124 541.693C258.538 541.497 258.889 541.164 259.178 540.694C259.467 540.223 259.658 539.553 259.75 538.685L260.661 538.765L260.251 543.465L241.67 541.844L241.834 537.122Z" fill="white"/>
<path d="M226.178 527.035L232.671 528.2C233.065 527.585 233.407 527.035 233.694 526.551C233.979 526.084 234.22 525.675 234.416 525.326C234.597 524.973 234.735 524.672 234.83 524.421C234.925 524.17 234.987 523.964 235.016 523.802C235.098 523.348 235.008 523.006 234.749 522.775C234.486 522.561 234.014 522.392 233.333 522.27L233.499 521.346L239.408 522.407L239.242 523.331C238.861 523.312 238.533 523.32 238.259 523.355C237.969 523.387 237.713 523.458 237.493 523.569C237.256 523.677 237.044 523.831 236.857 524.032C236.652 524.246 236.445 524.51 236.238 524.824L227.075 539.519L226.029 539.331L222.971 524.627C222.761 523.652 222.568 522.864 222.391 522.264C222.212 521.679 222.017 521.226 221.807 520.904C221.597 520.582 221.354 520.354 221.077 520.221C220.783 520.084 220.426 519.978 220.004 519.903L220.174 518.954L228.101 520.377L227.931 521.325C227.072 521.171 226.466 521.146 226.112 521.25C225.759 521.354 225.549 521.592 225.482 521.965C225.453 522.127 225.435 522.275 225.428 522.407C225.418 522.556 225.423 522.716 225.442 522.887C225.445 523.055 225.47 523.243 225.516 523.452C225.543 523.674 225.589 523.934 225.653 524.23L226.178 527.035ZM231.966 529.328L226.422 528.333L227.834 535.991L231.966 529.328Z" fill="white"/>
<path d="M214.724 523.55L213.84 523.315C213.919 522.569 213.883 521.87 213.733 521.216C213.567 520.559 213.306 519.97 212.95 519.449C212.578 518.924 212.119 518.47 211.574 518.087C211.008 517.715 210.367 517.434 209.65 517.244C208.473 516.931 207.467 516.962 206.635 517.337C205.803 517.713 205.26 518.378 205.006 519.333C204.9 519.731 204.875 520.116 204.929 520.488C204.968 520.856 205.106 521.234 205.344 521.621C205.578 522.024 205.925 522.448 206.386 522.895C206.831 523.336 207.413 523.84 208.132 524.406C209.004 525.098 209.722 525.732 210.285 526.307C210.848 526.883 211.271 527.438 211.555 527.974C211.839 528.509 212.005 529.039 212.053 529.563C212.081 530.099 212.013 530.677 211.848 531.298C211.653 532.03 211.346 532.673 210.927 533.226C210.491 533.775 209.976 534.208 209.38 534.527C208.78 534.862 208.122 535.062 207.406 535.128C206.685 535.209 205.935 535.146 205.155 534.939C204.455 534.753 203.832 534.468 203.286 534.085C202.74 533.701 202.223 533.18 201.733 532.522L200.827 533.432L200.278 533.286L201.277 528.465L202.16 528.699C202.196 530.106 202.495 531.225 203.058 532.056C203.605 532.883 204.388 533.432 205.407 533.702C206.378 533.96 207.213 533.926 207.913 533.601C208.613 533.276 209.071 532.707 209.286 531.895C209.388 531.513 209.417 531.146 209.374 530.794C209.327 530.458 209.199 530.108 208.988 529.746C208.774 529.399 208.474 529.021 208.088 528.612C207.698 528.219 207.201 527.78 206.597 527.296C205.559 526.458 204.711 525.704 204.054 525.036C203.392 524.383 202.892 523.764 202.553 523.18C202.21 522.612 202.01 522.048 201.954 521.487C201.894 520.943 201.947 520.361 202.112 519.74C202.323 518.944 202.677 518.254 203.173 517.67C203.669 517.086 204.266 516.632 204.966 516.306C205.666 515.981 206.45 515.789 207.318 515.729C208.181 515.686 209.09 515.791 210.046 516.045C210.953 516.286 211.739 516.631 212.403 517.08C213.052 517.525 213.67 518.149 214.258 518.953L215.237 517.96L215.786 518.106L214.724 523.55Z" fill="white"/>
<path d="M176.182 520.327L177.136 520.669C176.943 521.352 176.852 521.949 176.861 522.46C176.871 522.97 176.994 523.408 177.231 523.773C177.446 524.147 177.775 524.475 178.217 524.756C178.658 525.037 179.213 525.296 179.879 525.535C180.453 525.741 180.924 525.892 181.291 525.989C181.638 526.095 181.916 526.151 182.124 526.156C182.332 526.16 182.484 526.127 182.579 526.057C182.654 525.996 182.716 525.896 182.766 525.756L187.224 513.314C187.401 512.818 187.523 512.38 187.589 512.001C187.639 511.617 187.605 511.272 187.487 510.968C187.348 510.673 187.106 510.394 186.763 510.131C186.399 509.878 185.894 509.627 185.248 509.378L185.565 508.495L194.356 511.644L194.039 512.528C193.383 512.31 192.833 512.183 192.391 512.147C191.944 512.127 191.58 512.189 191.301 512.334C191 512.489 190.755 512.734 190.566 513.068C190.36 513.397 190.169 513.809 189.991 514.305L185.533 526.748C185.483 526.887 185.475 527.007 185.51 527.106C185.523 527.216 185.603 527.333 185.752 527.456C185.885 527.573 186.096 527.693 186.385 527.814C186.668 527.95 187.058 528.107 187.554 528.285C188.159 528.502 188.733 528.681 189.277 528.824C189.805 528.96 190.305 528.982 190.776 528.888C191.225 528.805 191.65 528.572 192.049 528.19C192.448 527.808 192.803 527.209 193.113 526.393L193.973 526.701L192.382 531.143L174.823 524.852L176.182 520.327Z" fill="white"/>
<path d="M167.226 512.19C166.419 511.817 165.726 511.55 165.146 511.391C164.545 511.24 164.039 511.196 163.628 511.26C163.202 511.317 162.846 511.479 162.56 511.746C162.258 512.005 162.003 512.359 161.796 512.808L161.011 512.445L163.843 506.324L164.628 506.687C164.421 507.136 164.308 507.555 164.29 507.946C164.258 508.331 164.357 508.703 164.589 509.065C164.8 509.434 165.157 509.799 165.662 510.16C166.144 510.528 166.804 510.906 167.641 511.293L169.986 506.226C170.214 505.733 170.344 505.295 170.377 504.91C170.403 504.541 170.322 504.186 170.135 503.846C169.926 503.513 169.603 503.191 169.166 502.88C168.722 502.584 168.149 502.274 167.447 501.948C166.655 501.582 165.958 501.323 165.356 501.172C164.748 501.035 164.195 501.015 163.696 501.111C163.198 501.208 162.737 501.421 162.312 501.75C161.88 502.095 161.438 502.561 160.984 503.15L160.132 502.756L162.512 498.495L176.435 504.937L176.041 505.789C175.511 505.562 175.071 505.413 174.723 505.342C174.36 505.265 174.047 505.275 173.784 505.371C173.522 505.467 173.285 505.666 173.073 505.967C172.861 506.268 172.634 506.681 172.392 507.204L167.557 517.652C167.315 518.175 167.152 518.607 167.066 518.949C166.959 519.298 166.946 519.601 167.027 519.856C167.087 520.12 167.252 520.35 167.524 520.548C167.788 520.761 168.152 520.994 168.617 521.245L168.223 522.097L155.264 516.101L156.888 512.061L157.672 512.424C157.486 513.064 157.41 513.619 157.447 514.089C157.461 514.568 157.596 515.002 157.851 515.392C158.091 515.775 158.459 516.136 158.956 516.475C159.452 516.814 160.082 517.159 160.844 517.512L163.691 518.83C163.946 518.947 164.131 518.879 164.249 518.625L167.226 512.19Z" fill="white"/>
<path d="M128.662 501.29C127.442 500.507 126.444 499.563 125.666 498.457C124.888 497.352 124.351 496.176 124.055 494.929C123.759 493.682 123.714 492.411 123.92 491.114C124.125 489.818 124.606 488.581 125.362 487.402C126.082 486.279 126.987 485.373 128.076 484.682C129.151 483.982 130.312 483.514 131.56 483.278C132.799 483.055 134.082 483.067 135.412 483.313C136.732 483.573 137.995 484.09 139.201 484.864C140.407 485.637 141.403 486.57 142.19 487.662C142.968 488.767 143.514 489.93 143.827 491.148C144.132 492.381 144.198 493.636 144.024 494.914C143.836 496.183 143.382 497.379 142.661 498.501C141.905 499.68 140.981 500.632 139.888 501.36C138.795 502.087 137.621 502.576 136.364 502.826C135.108 503.077 133.815 503.079 132.486 502.833C131.157 502.587 129.882 502.072 128.662 501.29ZM138.467 486.007C137.552 485.42 136.632 485.055 135.707 484.911C134.768 484.759 133.851 484.816 132.955 485.083C132.046 485.341 131.182 485.804 130.362 486.472C129.533 487.153 128.781 488.021 128.105 489.074C127.394 490.183 126.892 491.27 126.6 492.335C126.299 493.414 126.205 494.43 126.318 495.383C126.421 496.349 126.734 497.235 127.255 498.039C127.768 498.857 128.481 499.559 129.396 500.146C130.311 500.733 131.247 501.089 132.204 501.214C133.152 501.352 134.087 501.267 135.009 500.959C135.922 500.664 136.806 500.155 137.662 499.432C138.508 498.723 139.287 497.814 139.998 496.705C140.674 495.651 141.149 494.606 141.423 493.569C141.689 492.545 141.756 491.571 141.626 490.646C141.495 489.721 141.165 488.863 140.635 488.073C140.105 487.283 139.382 486.594 138.467 486.007Z" fill="white"/>
<path d="M108.122 471.892C108.932 470.874 109.748 470.06 110.569 469.451C111.378 468.831 112.213 468.443 113.074 468.286C113.922 468.12 114.808 468.183 115.733 468.476C116.647 468.782 117.606 469.335 118.611 470.135C119.565 470.894 120.325 471.645 120.89 472.389C121.445 473.147 121.792 473.928 121.93 474.732C122.059 475.55 121.962 476.399 121.64 477.28C121.319 478.16 120.753 479.109 119.943 480.128L115.883 485.231C115.124 486.185 114.565 486.94 114.207 487.497C113.835 488.043 113.662 488.526 113.686 488.945C113.707 489.236 113.833 489.514 114.062 489.781C114.269 490.051 114.591 490.36 115.029 490.708L114.445 491.443L107.853 486.199L108.437 485.464C108.875 485.813 109.25 486.069 109.562 486.233C109.873 486.396 110.189 486.437 110.507 486.353C110.872 486.265 111.286 485.983 111.747 485.509C112.199 485.047 112.804 484.34 113.563 483.386L117.746 478.127C118.269 477.47 118.671 476.832 118.952 476.214C119.21 475.599 119.328 474.988 119.306 474.381C119.273 473.787 119.084 473.205 118.738 472.635C118.379 472.054 117.838 471.477 117.117 470.903C115.828 469.877 114.579 469.463 113.371 469.659C112.152 469.868 110.989 470.669 109.882 472.061L106.175 476.72C105.263 477.867 104.616 478.773 104.234 479.437C103.853 480.102 103.687 480.654 103.737 481.094C103.785 481.405 103.928 481.688 104.168 481.942C104.398 482.208 104.712 482.501 105.112 482.819L104.527 483.553L98.9208 479.093L99.5053 478.358C99.9177 478.687 100.285 478.926 100.607 479.077C100.916 479.218 101.235 479.24 101.564 479.144C101.972 479.027 102.44 478.704 102.966 478.175C103.481 477.66 104.164 476.867 105.015 475.797L108.122 471.892Z" fill="white"/>
<path d="M86.1991 460.616C87.1127 459.666 88.157 459.151 89.3319 459.071C90.5067 458.99 91.8199 459.442 93.2715 460.428L93.8945 451.907C93.951 451.207 93.875 450.586 93.6666 450.042C93.4349 449.499 93.092 448.929 92.6379 448.332L93.2889 447.656L96.7242 450.962L95.7062 460.748C95.6663 461.098 95.6605 461.401 95.6887 461.657C95.705 461.901 95.7617 462.127 95.8589 462.335C95.9328 462.543 96.0649 462.75 96.2552 462.956C96.4222 463.163 96.6422 463.397 96.9151 463.66L100.478 459.958C100.901 459.519 101.225 459.134 101.452 458.803C101.655 458.473 101.748 458.151 101.731 457.837C101.701 457.512 101.555 457.165 101.291 456.797C101.005 456.43 100.594 455.989 100.06 455.476L100.711 454.799L106.995 460.846L106.344 461.523C105.917 461.135 105.55 460.851 105.244 460.67C104.926 460.478 104.627 460.385 104.348 460.39C104.068 460.396 103.779 460.506 103.481 460.721C103.182 460.937 102.833 461.252 102.433 461.667L94.45 469.962C94.0503 470.378 93.7543 470.733 93.5619 471.028C93.3463 471.323 93.2352 471.604 93.2287 471.873C93.1989 472.141 93.2798 472.413 93.4714 472.689C93.6517 472.977 93.9202 473.315 94.2771 473.704L93.6262 474.381L88.037 469.002C86.3994 467.426 85.4269 465.907 85.1193 464.445C84.7999 462.972 85.1598 461.696 86.1991 460.616ZM96.0586 464.55L94.7948 463.334C93.6081 462.192 92.5244 461.56 91.5437 461.439C90.5397 461.319 89.558 461.757 88.5987 462.754C87.6737 463.715 87.2427 464.626 87.3058 465.487C87.357 466.336 87.8691 467.229 88.8422 468.165L90.4797 469.741C90.6815 469.935 90.8794 469.932 91.0736 469.73L96.0586 464.55Z" fill="white"/>
<path d="M77.5538 435.503C78.0411 435.11 78.4179 434.764 78.6842 434.464C78.9274 434.163 79.0549 433.848 79.0665 433.522C79.0653 433.205 78.9572 432.848 78.7422 432.45C78.5169 432.039 78.1781 431.54 77.7258 430.953L78.4566 430.364L83.9454 437.172L83.2145 437.761C82.8399 437.323 82.512 436.995 82.2309 436.777C81.9394 436.547 81.6546 436.417 81.3767 436.387C81.0988 436.357 80.7982 436.43 80.4748 436.607C80.1513 436.783 79.7653 437.052 79.3165 437.413L70.3542 444.639C69.9054 445.001 69.5671 445.316 69.3392 445.584C69.0881 445.85 68.9425 446.115 68.9024 446.38C68.8391 446.643 68.8851 446.923 69.0406 447.221C69.1832 447.529 69.4071 447.899 69.7122 448.33L68.9814 448.919L60.0195 437.802L63.5223 434.629L64.065 435.303C63.5757 435.824 63.2251 436.308 63.0133 436.753C62.7887 437.209 62.6978 437.674 62.7408 438.147C62.7734 438.607 62.9373 439.099 63.2325 439.623C63.5148 440.157 63.9351 440.77 64.4933 441.462L66.4624 443.905C66.6381 444.123 66.835 444.144 67.0529 443.968L72.8611 439.286C72.365 438.67 71.9091 438.171 71.4936 437.786C71.0549 437.4 70.632 437.137 70.2251 437C69.8079 436.85 69.3834 436.822 68.9516 436.916C68.5199 437.01 68.0449 437.235 67.5266 437.589L66.984 436.916L72.6191 432.373L73.1617 433.046C72.7262 433.503 72.405 433.931 72.1982 434.331C71.9913 434.73 71.9119 435.143 71.9598 435.57C71.9973 435.984 72.1534 436.44 72.4279 436.938C72.7024 437.436 73.1033 438.012 73.6304 438.666L77.5538 435.503Z" fill="white"/>
<path d="M62.8301 408.624L71.7951 421.827L71.0185 422.354C70.681 421.887 70.3811 421.533 70.1187 421.293C69.847 421.039 69.5739 420.886 69.2994 420.834C69.0249 420.782 68.7192 420.83 68.3825 420.979C68.0457 421.128 67.6389 421.364 67.162 421.688L57.6381 428.155C57.1612 428.479 56.7982 428.765 56.5491 429.014C56.2771 429.258 56.1102 429.511 56.0485 429.772C55.9639 430.029 55.9868 430.312 56.1174 430.621C56.2343 430.94 56.4271 431.326 56.6959 431.781L55.9193 432.308L51.7005 426.095L52.4771 425.568C52.7868 425.995 53.0682 426.321 53.3214 426.547C53.5653 426.76 53.8267 426.881 54.1056 426.911C54.3752 426.927 54.6853 426.856 55.0356 426.697C55.3768 426.525 55.8062 426.264 56.324 425.912L65.1326 419.931C65.7049 419.542 66.1379 419.168 66.4318 418.81C66.7028 418.446 66.8479 418.059 66.8673 417.648C66.8637 417.232 66.7456 416.765 66.5128 416.246C66.2663 415.737 65.9025 415.128 65.4215 414.419C64.8941 413.643 64.4091 413.016 63.9666 412.541C63.5104 412.074 63.053 411.738 62.5944 411.531C62.113 411.321 61.6054 411.247 61.0714 411.311C60.5147 411.371 59.8652 411.543 59.123 411.828L58.5957 411.051L62.8301 408.624Z" fill="white"/>
<path d="M48.583 397.804L51.8009 403.562C52.5269 403.477 53.1681 403.392 53.7246 403.307C54.2667 403.231 54.7352 403.157 55.1301 403.088C55.517 403.004 55.8375 402.919 56.0917 402.833C56.3458 402.748 56.5448 402.665 56.6885 402.585C57.0911 402.36 57.2991 402.074 57.3126 401.726C57.3118 401.387 57.1426 400.916 56.8052 400.312L57.6246 399.854L60.5532 405.094L59.7338 405.552C59.5058 405.246 59.2916 404.998 59.0912 404.808C58.8827 404.603 58.6656 404.451 58.4398 404.351C58.206 404.236 57.9523 404.171 57.6787 404.154C57.3827 404.131 57.0476 404.139 56.6733 404.178L39.5011 406.417L38.9829 405.49L48.4097 393.797C49.03 393.016 49.5163 392.367 49.8685 391.85C50.2063 391.34 50.4332 390.902 50.549 390.536C50.6649 390.169 50.6864 389.836 50.6137 389.537C50.5329 389.224 50.3881 388.88 50.1792 388.507L51.0202 388.037L54.9491 395.067L54.1081 395.537C53.6823 394.775 53.3171 394.29 53.0127 394.083C52.7082 393.876 52.3906 393.865 52.06 394.049C51.9162 394.13 51.7908 394.209 51.6839 394.288C51.5625 394.375 51.442 394.48 51.3223 394.603C51.1946 394.712 51.0646 394.851 50.9323 395.019C50.7775 395.181 50.6061 395.381 50.4179 395.618L48.583 397.804ZM50.4816 403.733L47.7338 398.816L42.7099 404.765L50.4816 403.733Z" fill="white"/>
<path d="M42.1092 377.657L30.5467 378.062C29.8896 378.085 29.383 378.122 29.0269 378.173C28.6708 378.224 28.365 378.307 28.1094 378.421C27.7034 378.602 27.4748 378.858 27.4237 379.187C27.3658 379.502 27.488 379.997 27.7904 380.674L26.9334 381.057L24.484 375.576L25.341 375.193C25.5407 375.519 25.7352 375.793 25.9247 376.015C26.1074 376.222 26.3101 376.393 26.5327 376.528C26.7487 376.648 27.0031 376.732 27.2958 376.782C27.5668 376.823 27.8904 376.841 28.2666 376.835L45.9065 376.285L46.2593 377.074L34.8087 389.173C34.445 389.57 34.1414 389.94 33.898 390.283C33.6478 390.611 33.4679 390.935 33.3582 391.255C33.2485 391.575 33.2048 391.901 33.2272 392.234C33.2497 392.566 33.3332 392.935 33.4779 393.339L32.5982 393.732L29.3122 386.38L30.1918 385.987C30.38 386.408 30.5571 386.743 30.7232 386.994C30.8675 387.236 31.0183 387.412 31.1758 387.522C31.3181 387.639 31.4629 387.7 31.6101 387.707C31.7572 387.713 31.906 387.683 32.0564 387.616C32.2669 387.522 32.4982 387.373 32.7503 387.17C32.9873 386.974 33.3219 386.653 33.7541 386.207L42.1092 377.657Z" fill="white"/>
<path d="M18.6652 360.014C18.206 358.639 18.0203 357.278 18.108 355.929C18.1956 354.58 18.5151 353.327 19.0665 352.17C19.6178 351.014 20.3801 349.995 21.3535 349.114C22.3268 348.234 23.4774 347.572 24.8052 347.128C26.0705 346.705 27.3437 346.566 28.625 346.712C29.9011 346.841 31.0992 347.205 32.2193 347.803C33.3238 348.406 34.3164 349.221 35.1972 350.246C36.0624 351.277 36.722 352.472 37.176 353.831C37.63 355.19 37.8209 356.541 37.7488 357.885C37.6612 359.234 37.3573 360.481 36.8372 361.627C36.3015 362.779 35.5652 363.797 34.6283 364.683C33.6862 365.554 32.5825 366.2 31.3172 366.623C29.9894 367.066 28.6719 367.229 27.3646 367.11C26.0573 366.991 24.8358 366.635 23.7 366.042C22.5643 365.449 21.556 364.64 20.6752 363.614C19.7944 362.589 19.1244 361.389 18.6652 360.014ZM35.8873 354.261C35.5429 353.23 35.0554 352.369 34.4248 351.676C33.7889 350.968 33.0386 350.438 32.1739 350.084C31.3039 349.715 30.3403 349.533 29.283 349.539C28.2102 349.55 27.0802 349.754 25.893 350.151C24.6433 350.568 23.5708 351.1 22.6754 351.746C21.7644 352.398 21.054 353.13 20.5441 353.943C20.0186 354.761 19.7067 355.646 19.6083 356.6C19.4943 357.558 19.6096 358.553 19.9539 359.584C20.2983 360.615 20.8041 361.479 21.4711 362.176C22.1226 362.879 22.9041 363.399 23.8158 363.737C24.7118 364.08 25.7196 364.239 26.8393 364.212C27.9434 364.19 29.1203 363.971 30.37 363.553C31.5572 363.157 32.5829 362.64 33.447 362.005C34.2955 361.374 34.9591 360.657 35.4377 359.855C35.9163 359.053 36.197 358.177 36.2798 357.23C36.3625 356.282 36.2317 355.292 35.8873 354.261Z" fill="white"/>
<path d="M15.0052 327.27C16.2897 326.976 17.4455 327.118 18.4724 327.694C19.4994 328.271 20.3498 329.369 21.0238 330.989L26.2148 324.203C26.6457 323.649 26.9229 323.087 27.0464 322.518C27.1502 321.937 27.1758 321.272 27.1233 320.524L28.0385 320.315L29.0998 324.964L22.8847 332.591C22.6594 332.862 22.4884 333.112 22.3719 333.341C22.2516 333.555 22.1752 333.775 22.1426 334.002C22.0902 334.217 22.0872 334.462 22.1335 334.739C22.16 335.003 22.2155 335.32 22.2998 335.689L27.3093 334.545C27.9034 334.41 28.3858 334.266 28.7564 334.114C29.1074 333.949 29.3616 333.73 29.519 333.458C29.6727 333.17 29.7402 332.799 29.7215 332.348C29.6831 331.883 29.5814 331.29 29.4164 330.567L30.3316 330.358L32.2728 338.86L31.3576 339.069C31.2133 338.511 31.0624 338.072 30.9052 337.753C30.7442 337.418 30.5454 337.177 30.3088 337.028C30.0721 336.879 29.7698 336.813 29.4019 336.83C29.034 336.846 28.5691 336.918 28.0071 337.047L16.7839 339.609C16.2219 339.738 15.7797 339.872 15.4572 340.014C15.1149 340.142 14.8676 340.317 14.7153 340.538C14.5432 340.746 14.4617 341.018 14.4708 341.354C14.4639 341.693 14.503 342.124 14.5882 342.645L13.673 342.854L11.9463 335.291C11.4403 333.075 11.4593 331.272 12.0032 329.881C12.5435 328.474 13.5441 327.603 15.0052 327.27ZM21.0956 335.964L20.7051 334.254C20.3385 332.649 19.7782 331.526 19.0242 330.888C18.2505 330.237 17.1893 330.065 15.8406 330.373C14.54 330.67 13.6802 331.196 13.2613 331.95C12.8386 332.689 12.7776 333.716 13.0782 335.033L13.5841 337.248C13.6465 337.521 13.8141 337.627 14.0871 337.564L21.0956 335.964Z" fill="white"/>
<path d="M21.7201 317.211L21.5914 316.306C22.3089 316.087 22.9391 315.781 23.482 315.388C24.0226 314.978 24.4631 314.508 24.8035 313.977C25.1416 313.43 25.3807 312.831 25.5209 312.179C25.6424 311.513 25.651 310.813 25.5467 310.079C25.3751 308.872 24.9541 307.959 24.2837 307.339C23.6133 306.719 22.7889 306.479 21.8106 306.618C21.403 306.676 21.0384 306.803 20.7168 306.998C20.393 307.177 20.0993 307.452 19.8359 307.822C19.5562 308.194 19.3008 308.68 19.0699 309.278C18.8366 309.86 18.5997 310.593 18.3593 311.475C18.0628 312.549 17.7594 313.457 17.4492 314.2C17.139 314.943 16.7927 315.549 16.4104 316.019C16.0282 316.49 15.6052 316.849 15.1415 317.098C14.6593 317.333 14.1002 317.496 13.4643 317.586C12.7142 317.693 12.0027 317.661 11.3297 317.491C10.6544 317.304 10.0536 316.998 9.52752 316.574C8.9851 316.152 8.54407 315.624 8.20441 314.991C7.84846 314.359 7.61367 313.644 7.50004 312.845C7.39801 312.128 7.41708 311.443 7.55724 310.791C7.6974 310.139 7.97499 309.459 8.39002 308.751L7.19898 308.272L7.11898 307.709L11.9479 306.748L12.0765 307.653C10.7952 308.234 9.8817 308.946 9.33615 309.789C8.78829 310.616 8.58856 311.551 8.73696 312.594C8.87841 313.589 9.23546 314.345 9.80809 314.862C10.3807 315.38 11.0828 315.579 11.9144 315.461C12.3057 315.405 12.6552 315.289 12.9627 315.112C13.254 314.938 13.5255 314.683 13.7772 314.348C14.0127 314.015 14.2435 313.591 14.4698 313.077C14.6797 312.564 14.8898 311.936 15.0998 311.19C15.4663 309.907 15.8292 308.833 16.1884 307.966C16.5313 307.102 16.9056 306.4 17.3112 305.86C17.7005 305.323 18.1421 304.919 18.6361 304.649C19.1137 304.381 19.6705 304.202 20.3064 304.112C21.1217 303.996 21.8949 304.052 22.6261 304.281C23.3573 304.51 24.0092 304.883 24.5819 305.4C25.1545 305.918 25.6374 306.564 26.0305 307.34C26.4073 308.118 26.6653 308.997 26.8044 309.975C26.9366 310.904 26.9256 311.763 26.7714 312.55C26.6148 313.321 26.2813 314.133 25.7706 314.988L27.0665 315.502L27.1465 316.065L21.7201 317.211Z" fill="white"/>
<path d="M18.8482 282.986C18.8635 283.48 18.7796 283.96 18.5964 284.427C18.4127 284.878 18.1617 285.281 17.8432 285.637C17.5078 285.977 17.1129 286.261 16.6587 286.49C16.2039 286.701 15.7131 286.816 15.1864 286.832C14.6596 286.848 14.1709 286.765 13.7203 286.581C13.2527 286.381 12.8489 286.114 12.5089 285.778C12.1525 285.444 11.8683 285.049 11.6564 284.594C11.444 284.123 11.3296 283.624 11.3132 283.097C11.2973 282.587 11.3812 282.106 11.5649 281.656C11.7481 281.188 12.0072 280.777 12.3421 280.42C12.6606 280.064 13.0472 279.78 13.502 279.569C13.9403 279.357 14.4228 279.243 14.9496 279.227C15.4763 279.21 15.9735 279.302 16.4411 279.502C16.9081 279.685 17.3199 279.944 17.6764 280.279C18.0164 280.614 18.2925 281.018 18.505 281.489C18.7168 281.944 18.8312 282.443 18.8482 282.986Z" fill="white"/>
<path d="M11.5655 242.365L11.4769 243.374C10.7671 243.362 10.1664 243.424 9.67479 243.563C9.18317 243.702 8.79098 243.932 8.49823 244.253C8.19051 244.557 7.9569 244.958 7.7974 245.457C7.6379 245.955 7.52718 246.557 7.46523 247.263C7.41193 247.87 7.38512 248.363 7.38481 248.744C7.36952 249.106 7.38605 249.388 7.43438 249.591C7.48272 249.794 7.55323 249.932 7.64591 250.006C7.72361 250.063 7.8363 250.098 7.98395 250.11L21.15 251.267C21.675 251.313 22.129 251.319 22.5121 251.287C22.8967 251.238 23.2214 251.118 23.4862 250.926C23.736 250.717 23.9446 250.412 24.1119 250.014C24.2642 249.597 24.3788 249.045 24.4557 248.358L25.3908 248.44L24.574 257.742L23.6389 257.66C23.683 256.97 23.6663 256.406 23.5889 255.969C23.4951 255.531 23.3428 255.195 23.1318 254.962C22.9059 254.711 22.6071 254.536 22.2355 254.437C21.8654 254.322 21.4178 254.241 20.8928 254.195L7.72682 253.039C7.57916 253.026 7.46144 253.049 7.37364 253.107C7.27089 253.148 7.17877 253.255 7.0973 253.43C7.01727 253.588 6.95537 253.823 6.91159 254.133C6.85141 254.442 6.79827 254.859 6.75217 255.384C6.69599 256.024 6.66802 256.625 6.66826 257.187C6.66994 257.732 6.77582 258.221 6.9859 258.653C7.18101 259.067 7.51386 259.418 7.98444 259.708C8.45502 259.997 9.12436 260.188 9.99245 260.281L9.9125 261.191L5.21211 260.779L6.84351 242.199L11.5655 242.365Z" fill="white"/>
<path d="M21.6612 226.715L20.4924 233.207C21.1073 233.602 21.6567 233.943 22.1403 234.231C22.6078 234.516 23.0162 234.757 23.3657 234.954C23.718 235.134 24.0195 235.272 24.2701 235.368C24.5207 235.463 24.727 235.525 24.8891 235.554C25.343 235.636 25.6853 235.547 25.9161 235.288C26.1307 235.025 26.2993 234.553 26.4219 233.873L27.3458 234.039L26.2821 239.947L25.3582 239.781C25.3767 239.399 25.3687 239.071 25.3344 238.797C25.303 238.507 25.2318 238.252 25.1209 238.031C25.013 237.794 24.8587 237.582 24.6581 237.395C24.4441 237.19 24.1801 236.983 23.866 236.776L9.17627 227.605L9.3645 226.559L24.0708 223.509C25.0456 223.3 25.8334 223.107 26.4341 222.931C27.0186 222.751 27.472 222.557 27.7942 222.347C28.1164 222.137 28.3443 221.894 28.4779 221.617C28.6144 221.323 28.7206 220.966 28.7965 220.545L29.7447 220.715L28.3176 228.641L27.3694 228.471C27.5241 227.612 27.5495 227.005 27.4458 226.652C27.3421 226.299 27.1038 226.088 26.731 226.021C26.569 225.992 26.4216 225.974 26.289 225.967C26.1402 225.957 25.9804 225.961 25.8096 225.981C25.6416 225.984 25.4531 226.009 25.244 226.055C25.0217 226.082 24.7625 226.127 24.4665 226.191L21.6612 226.715ZM19.3643 232.501L20.3624 226.958L12.7041 228.365L19.3643 232.501Z" fill="white"/>
<path d="M25.1518 215.262L25.3869 214.379C26.1327 214.458 26.8323 214.423 27.4858 214.273C28.1434 214.107 28.7326 213.846 29.2534 213.491C29.7783 213.119 30.2327 212.661 30.6165 212.115C30.9886 211.55 31.27 210.909 31.4606 210.192C31.774 209.015 31.7433 208.01 31.3685 207.177C30.9936 206.344 30.3287 205.801 29.3738 205.547C28.9759 205.441 28.5908 205.415 28.2184 205.469C27.8503 205.508 27.4727 205.646 27.0856 205.884C26.6826 206.117 26.2578 206.464 25.8114 206.925C25.3692 207.37 24.8651 207.951 24.2989 208.67C23.6065 209.542 22.9725 210.26 22.3967 210.822C21.8209 211.385 21.2652 211.808 20.7296 212.091C20.1939 212.375 19.6641 212.54 19.14 212.588C18.6043 212.616 18.0261 212.548 17.4054 212.382C16.6733 212.187 16.0308 211.88 15.4779 211.46C14.9292 211.025 14.4956 210.509 14.177 209.913C13.8426 209.312 13.6428 208.654 13.5778 207.938C13.4968 207.218 13.5601 206.468 13.7677 205.688C13.954 204.987 14.2391 204.365 14.6229 203.819C15.0067 203.274 15.5279 202.756 16.1865 202.267L15.2774 201.36L15.4235 200.811L20.2441 201.813L20.009 202.696C18.6023 202.731 17.4832 203.03 16.6518 203.592C15.8245 204.139 15.2753 204.922 15.0042 205.94C14.7458 206.911 14.7791 207.746 15.1041 208.446C15.429 209.147 15.9974 209.605 16.809 209.821C17.191 209.922 17.5581 209.952 17.9103 209.909C18.2466 209.862 18.5961 209.734 18.9588 209.524C19.3056 209.309 19.6837 209.009 20.093 208.624C20.4864 208.234 20.9254 207.738 21.4099 207.134C22.2486 206.096 23.0025 205.248 23.6716 204.591C24.3248 203.93 24.9436 203.43 25.5279 203.092C26.0964 202.749 26.6607 202.549 27.2208 202.494C27.765 202.434 28.3475 202.487 28.9682 202.652C29.764 202.864 30.4537 203.218 31.0374 203.714C31.6211 204.211 32.0755 204.809 32.4004 205.509C32.7254 206.209 32.9173 206.993 32.976 207.86C33.0189 208.724 32.9132 209.633 32.659 210.588C32.4176 211.495 32.0721 212.281 31.6226 212.945C31.1773 213.594 30.5528 214.212 29.7489 214.799L30.7407 215.778L30.5946 216.327L25.1518 215.262Z" fill="white"/>
<path d="M28.3951 176.722L28.0529 177.676C27.3697 177.483 26.7727 177.391 26.262 177.401C25.7512 177.41 25.3134 177.533 24.9486 177.769C24.5738 177.985 24.2459 178.313 23.965 178.755C23.684 179.196 23.4239 179.75 23.1847 180.417C22.9788 180.99 22.8274 181.461 22.7305 181.829C22.6236 182.175 22.5678 182.453 22.563 182.661C22.5583 182.869 22.5913 183.021 22.662 183.116C22.7228 183.191 22.823 183.253 22.9625 183.303L35.4023 187.768C35.8983 187.946 36.3358 188.068 36.7145 188.133C37.0989 188.184 37.4435 188.15 37.7483 188.032C38.0432 187.893 38.3222 187.652 38.5853 187.309C38.8385 186.945 39.0896 186.44 39.3388 185.794L40.2224 186.112L37.068 194.901L36.1844 194.584C36.4026 193.927 36.5297 193.378 36.5659 192.936C36.5865 192.488 36.5245 192.125 36.3798 191.845C36.2251 191.545 35.9807 191.3 35.6464 191.11C35.3177 190.904 34.9053 190.713 34.4093 190.535L21.9695 186.07C21.83 186.02 21.7103 186.012 21.6106 186.046C21.5009 186.059 21.3844 186.14 21.2612 186.288C21.1436 186.421 21.0242 186.632 20.903 186.921C20.7662 187.204 20.6089 187.594 20.4309 188.09C20.2139 188.695 20.0341 189.269 19.8914 189.812C19.7544 190.341 19.7325 190.84 19.826 191.311C19.9095 191.761 20.142 192.186 20.5236 192.585C20.9052 192.985 21.504 193.34 22.32 193.65L22.0112 194.51L17.5701 192.916L23.8705 175.361L28.3951 176.722Z" fill="white"/>
<path d="M36.5364 167.771C36.9103 166.964 37.1771 166.271 37.3367 165.691C37.4883 165.09 37.5322 164.584 37.4684 164.173C37.4115 163.747 37.2498 163.391 36.9834 163.104C36.7239 162.802 36.37 162.548 35.9217 162.34L36.2852 161.555L42.4044 164.391L42.0409 165.175C41.5926 164.968 41.173 164.855 40.7819 164.837C40.3977 164.804 40.0249 164.904 39.6634 165.136C39.2938 165.346 38.9286 165.703 38.5679 166.207C38.199 166.69 37.8208 167.349 37.433 168.186L42.4987 170.533C42.9919 170.762 43.4305 170.893 43.8146 170.925C44.1838 170.951 44.5388 170.871 44.8796 170.684C45.2123 170.475 45.5343 170.152 45.8455 169.715C46.1418 169.272 46.4527 168.699 46.7781 167.997C47.1451 167.205 47.4044 166.508 47.556 165.907C47.6926 165.298 47.713 164.745 47.6171 164.247C47.5212 163.749 47.3086 163.287 46.9791 162.862C46.6346 162.43 46.1683 161.987 45.58 161.533L45.9747 160.681L50.2346 163.064L43.7848 176.983L42.9331 176.589C43.1605 176.059 43.3095 175.619 43.3802 175.271C43.4578 174.908 43.4485 174.595 43.3523 174.332C43.2561 174.07 43.0574 173.833 42.7564 173.621C42.4553 173.409 42.0433 173.181 41.5203 172.939L31.075 168.099C30.552 167.857 30.1198 167.693 29.7783 167.607C29.4287 167.5 29.1262 167.486 28.8707 167.568C28.6072 167.627 28.3764 167.792 28.1781 168.064C27.9649 168.328 27.7326 168.692 27.4811 169.157L26.6294 168.762L32.6325 155.806L36.671 157.432L36.3075 158.217C35.6682 158.03 35.1133 157.954 34.6428 157.99C34.1643 158.004 33.7298 158.139 33.3395 158.394C32.9561 158.633 32.595 159.002 32.256 159.498C31.9171 159.994 31.5711 160.624 31.2179 161.386L29.8989 164.232C29.7812 164.486 29.8494 164.672 30.1034 164.79L36.5364 167.771Z" fill="white"/>
<path d="M47.4578 129.212C48.2411 127.993 49.1857 126.995 50.2917 126.217C51.3978 125.44 52.5741 124.904 53.8209 124.609C55.0676 124.313 56.3391 124.269 57.6355 124.475C58.9319 124.681 60.169 125.163 61.3469 125.919C62.4693 126.64 63.3755 127.546 64.0657 128.635C64.7647 129.71 65.2322 130.872 65.4681 132.119C65.6902 133.358 65.6779 134.642 65.431 135.971C65.1702 137.291 64.6526 138.554 63.8783 139.76C63.1039 140.965 62.1706 141.961 61.0784 142.747C59.9724 143.525 58.8099 144.07 57.5909 144.383C56.358 144.687 55.1028 144.752 53.8252 144.577C52.5565 144.389 51.361 143.934 50.2386 143.213C49.0607 142.456 48.1085 141.531 47.3817 140.438C46.655 139.345 46.1667 138.17 45.9169 136.914C45.6671 135.657 45.6656 134.364 45.9125 133.035C46.1594 131.706 46.6745 130.432 47.4578 129.212ZM62.7351 139.026C63.3225 138.111 63.6883 137.191 63.8324 136.266C63.9855 135.327 63.9287 134.409 63.6622 133.514C63.4046 132.605 62.9422 131.74 62.2749 130.92C61.5938 130.091 60.7267 129.338 59.6736 128.662C58.565 127.95 57.4783 127.447 56.4134 127.155C55.3347 126.853 54.3189 126.759 53.366 126.871C52.3993 126.974 51.5137 127.286 50.7094 127.807C49.8912 128.319 49.1884 129.032 48.601 129.947C48.0135 130.861 47.6571 131.797 47.5318 132.754C47.3926 133.702 47.4771 134.637 47.7852 135.559C48.0794 136.472 48.5879 137.357 49.3105 138.213C50.0194 139.059 50.9281 139.839 52.0366 140.551C53.0897 141.227 54.1349 141.703 55.172 141.978C56.1953 142.243 57.1696 142.311 58.0947 142.181C59.0199 142.051 59.8777 141.722 60.6682 141.192C61.4586 140.662 62.1476 139.94 62.7351 139.026Z" fill="white"/>
<path d="M76.8666 108.688C77.8844 109.499 78.6977 110.315 79.3065 111.136C79.9256 111.945 80.3132 112.78 80.4694 113.642C80.6359 114.49 80.5723 115.376 80.2785 116.3C79.9719 117.214 79.4184 118.173 78.6181 119.178C77.8589 120.132 77.1069 120.891 76.3623 121.456C75.6047 122.01 74.8236 122.357 74.0188 122.495C73.2012 122.623 72.3522 122.525 71.4718 122.203C70.5914 121.881 69.6424 121.315 68.6246 120.504L63.523 116.441C62.5696 115.682 61.8148 115.123 61.2584 114.764C60.7123 114.392 60.2297 114.219 59.8105 114.243C59.5199 114.264 59.2411 114.389 58.9741 114.619C58.7045 114.825 58.3952 115.147 58.0464 115.585L57.312 115L62.5601 108.411L63.2944 108.996C62.9456 109.434 62.6892 109.808 62.5252 110.12C62.3613 110.432 62.3209 110.747 62.4039 111.066C62.4921 111.431 62.7734 111.844 63.2477 112.306C63.7091 112.758 64.4164 113.363 65.3698 114.122L70.626 118.308C71.2831 118.832 71.9205 119.234 72.5385 119.516C73.1537 119.774 73.7649 119.892 74.3718 119.87C74.9659 119.838 75.5481 119.649 76.1183 119.303C76.6988 118.945 77.2764 118.404 77.8509 117.683C78.8769 116.395 79.2922 115.146 79.0966 113.938C78.8882 112.719 78.0883 111.556 76.6969 110.448L72.0397 106.739C70.8931 105.826 69.9876 105.178 69.3232 104.796C68.6587 104.414 68.1066 104.249 67.6669 104.298C67.3558 104.345 67.0732 104.489 66.8191 104.728C66.5521 104.958 66.2596 105.272 65.9415 105.672L65.2072 105.087L69.6703 99.4829L70.4046 100.068C70.0763 100.48 69.8366 100.847 69.6856 101.169C69.5448 101.478 69.5223 101.797 69.6182 102.126C69.7349 102.535 70.0574 103.002 70.5858 103.528C71.1014 104.044 71.8938 104.728 72.9631 105.579L76.8666 108.688Z" fill="white"/>
<path d="M88.1542 86.7711C89.1031 87.6852 89.6176 88.7298 89.6977 89.9047C89.7778 91.0796 89.3247 92.3926 88.3384 93.8436L96.8587 94.4711C97.5586 94.528 98.1803 94.4523 98.7239 94.2442C99.267 94.0128 99.8372 93.6702 100.434 93.2165L101.11 93.8678L97.8024 97.3014L88.0168 96.2781C87.6666 96.238 87.3637 96.232 87.108 96.2601C86.8637 96.2763 86.6376 96.3329 86.4297 96.43C86.2215 96.5037 86.0143 96.6357 85.8081 96.8259C85.6016 96.9928 85.3669 97.2127 85.1041 97.4855L88.8046 101.051C89.2434 101.473 89.628 101.798 89.9584 102.025C90.2883 102.229 90.6103 102.322 90.9245 102.304C91.2501 102.275 91.5968 102.128 91.9646 101.865C92.332 101.579 92.7728 101.169 93.287 100.635L93.963 101.286L87.9126 107.567L87.2365 106.915C87.6246 106.489 87.909 106.122 88.0896 105.816C88.2817 105.498 88.3752 105.199 88.37 104.92C88.3648 104.64 88.2545 104.351 88.0393 104.052C87.8241 103.754 87.5089 103.404 87.0938 103.004L78.8034 95.017C78.3882 94.6171 78.0333 94.3209 77.7385 94.1284C77.4433 93.9126 77.1617 93.8013 76.8937 93.7947C76.6252 93.7647 76.353 93.8455 76.077 94.037C75.7892 94.2171 75.4506 94.4855 75.0612 94.8421L74.3852 94.1908L79.7672 88.6046C81.344 86.9678 82.8634 85.9961 84.3253 85.6893C85.7986 85.3707 87.0749 85.7313 88.1542 86.7711ZM84.2146 96.6285L85.4315 95.3653C86.5742 94.1793 87.2063 93.0959 87.3278 92.1153C87.4489 91.1113 87.0113 90.1294 86.015 89.1696C85.0543 88.244 84.1436 87.8125 83.2828 87.8752C82.4335 87.9259 81.5403 88.4376 80.6033 89.4101L79.0264 91.0469C78.8322 91.2485 78.8359 91.4464 79.0375 91.6407L84.2146 96.6285Z" fill="white"/>
<path d="M113.272 78.1391C113.665 78.6265 114.011 79.0035 114.31 79.27C114.612 79.5134 114.926 79.641 115.252 79.6528C115.569 79.6518 115.926 79.5439 116.324 79.3291C116.735 79.104 117.234 78.7654 117.821 78.3134L118.41 79.0446L111.599 84.5297L111.01 83.7986C111.449 83.4242 111.777 83.0965 111.995 82.8154C112.225 82.524 112.356 82.2394 112.386 81.9615C112.416 81.6836 112.343 81.3829 112.167 81.0594C111.991 80.7359 111.722 80.3497 111.36 79.9007L104.14 70.9346C103.778 70.4856 103.463 70.1471 103.195 69.9191C102.929 69.6679 102.664 69.5221 102.399 69.4818C102.136 69.4184 101.856 69.4643 101.558 69.6196C101.25 69.762 100.88 69.9857 100.449 70.2906L99.8605 69.5595L110.982 60.6035L114.153 64.108L113.479 64.6503C112.958 64.1607 112.475 63.8099 112.029 63.5979C111.573 63.373 111.109 63.2819 110.635 63.3246C110.175 63.357 109.683 63.5206 109.159 63.8155C108.625 64.0976 108.012 64.5175 107.319 65.0753L104.876 67.0432C104.658 67.2188 104.636 67.4156 104.812 67.6337L109.491 73.4444C110.107 72.9485 110.607 72.4929 110.992 72.0776C111.379 71.6391 111.641 71.2164 111.779 70.8096C111.929 70.3924 111.957 69.9679 111.863 69.5361C111.769 69.1043 111.545 68.6292 111.191 68.1108L111.865 67.5684L116.404 73.206L115.731 73.7483C115.274 73.3125 114.846 72.9911 114.447 72.784C114.048 72.577 113.635 72.4973 113.208 72.545C112.794 72.5823 112.338 72.7381 111.84 73.0124C111.342 73.2866 110.765 73.6872 110.111 74.214L113.272 78.1391Z" fill="white"/>
<path d="M140.158 63.43L126.951 72.388L126.424 71.6111C126.892 71.2739 127.245 70.9742 127.485 70.7119C127.739 70.4404 127.892 70.1674 127.945 69.8929C127.997 69.6184 127.949 69.3127 127.8 68.9759C127.652 68.639 127.415 68.2321 127.092 67.755L120.63 58.2276C120.306 57.7506 120.02 57.3874 119.772 57.1382C119.527 56.866 119.275 56.699 119.014 56.6372C118.757 56.5524 118.474 56.5752 118.165 56.7056C117.846 56.8224 117.459 57.015 117.005 57.2836L116.478 56.5067L122.693 52.2911L123.22 53.0681C122.793 53.3775 122.466 53.6588 122.24 53.9118C122.027 54.1556 121.906 54.4169 121.876 54.6958C121.86 54.9655 121.931 55.2755 122.089 55.626C122.261 55.9672 122.522 56.3968 122.874 56.9147L128.85 65.7265C129.239 66.299 129.612 66.7323 129.971 67.0263C130.334 67.2975 130.721 67.4429 131.132 67.4624C131.548 67.4591 132.015 67.3412 132.534 67.1087C133.044 66.8625 133.653 66.499 134.362 66.0183C135.138 65.4914 135.765 65.0068 136.241 64.5644C136.708 64.1085 137.045 63.6513 137.251 63.1929C137.462 62.7115 137.536 62.2039 137.472 61.67C137.413 61.1132 137.241 60.4636 136.956 59.7213L137.733 59.1944L140.158 63.43Z" fill="white"/>
<path d="M150.987 49.1884L145.227 52.4032C145.312 53.1293 145.396 53.7705 145.48 54.3271C145.557 54.8692 145.63 55.3377 145.699 55.7327C145.783 56.1197 145.868 56.4402 145.953 56.6944C146.038 56.9486 146.121 57.1476 146.201 57.2914C146.426 57.694 146.712 57.9022 147.059 57.9159C147.398 57.9152 147.87 57.7463 148.474 57.4092L148.931 58.2289L143.69 61.1547L143.232 60.335C143.539 60.1073 143.787 59.8932 143.977 59.6929C144.181 59.4845 144.334 59.2675 144.434 59.0417C144.549 58.8079 144.615 58.5543 144.632 58.2807C144.655 57.9847 144.647 57.6496 144.608 57.2753L142.378 40.1019L143.306 39.5842L154.993 49.0173C155.774 49.638 156.422 50.1246 156.94 50.4771C157.449 50.8152 157.887 51.0422 158.254 51.1583C158.62 51.2743 158.953 51.2961 159.252 51.2235C159.565 51.1429 159.909 50.9982 160.283 50.7895L160.753 51.6308L153.72 55.556L153.251 54.7147C154.013 54.2893 154.498 53.9244 154.705 53.62C154.912 53.3157 154.924 52.9981 154.739 52.6674C154.659 52.5236 154.579 52.3981 154.501 52.2911C154.414 52.1697 154.309 52.0492 154.186 51.9294C154.077 51.8017 153.938 51.6716 153.77 51.5391C153.608 51.3843 153.408 51.2127 153.171 51.0245L150.987 49.1884ZM145.056 51.0838L149.975 48.3386L144.028 43.3116L145.056 51.0838Z" fill="white"/>
<path d="M171.137 42.7254L170.738 31.1626C170.715 30.5055 170.678 29.9988 170.627 29.6427C170.577 29.2866 170.494 28.9807 170.38 28.7251C170.199 28.319 169.944 28.0903 169.614 28.039C169.3 27.9809 168.804 28.1029 168.127 28.4049L167.745 27.5477L173.227 25.1012L173.609 25.9585C173.283 26.158 173.009 26.3524 172.787 26.5417C172.58 26.7242 172.409 26.9268 172.274 27.1495C172.154 27.3654 172.069 27.6197 172.019 27.9124C171.978 28.1833 171.96 28.5069 171.966 28.8832L172.507 46.5234L171.717 46.8757L159.625 35.4187C159.228 35.0547 158.858 34.751 158.515 34.5074C158.187 34.257 157.863 34.0769 157.543 33.967C157.224 33.8572 156.897 33.8134 156.565 33.8356C156.232 33.8578 155.863 33.9412 155.459 34.0856L155.066 33.2058L162.421 29.9237L162.813 30.8035C162.392 30.9914 162.056 31.1684 161.806 31.3343C161.563 31.4785 161.387 31.6293 161.277 31.7866C161.16 31.9289 161.099 32.0737 161.092 32.2208C161.086 32.368 161.116 32.5168 161.183 32.6672C161.277 32.8777 161.426 33.1091 161.628 33.3613C161.824 33.5985 162.145 33.9332 162.59 34.3657L171.137 42.7254Z" fill="white"/>
<path d="M188.792 19.2908C190.167 18.8323 191.529 18.6473 192.877 18.7357C194.226 18.8241 195.479 19.1443 196.635 19.6962C197.791 20.2482 198.81 21.011 199.69 21.9849C200.57 22.9587 201.232 24.1096 201.675 25.4376C202.097 26.7031 202.235 27.9765 202.089 29.2577C201.959 30.5337 201.595 31.7316 200.996 32.8514C200.392 33.9555 199.577 34.9478 198.551 35.828C197.52 36.6927 196.325 37.3516 194.965 37.8049C193.606 38.2581 192.255 38.4483 190.911 38.3756C189.562 38.2872 188.315 37.9826 187.169 37.4619C186.018 36.9256 184.999 36.1888 184.114 35.2514C183.244 34.3088 182.598 33.2048 182.176 31.9393C181.733 30.6113 181.572 29.2936 181.691 27.9864C181.811 26.6792 182.168 25.4578 182.761 24.3224C183.355 23.187 184.165 22.1791 185.191 21.2989C186.217 20.4186 187.417 19.7492 188.792 19.2908ZM194.535 36.5159C195.567 36.1721 196.429 35.685 197.121 35.0548C197.829 34.4193 198.361 33.6693 198.715 32.8047C199.084 31.9349 199.266 30.9714 199.261 29.9142C199.251 28.8413 199.047 27.7112 198.651 26.5238C198.235 25.2739 197.703 24.2011 197.057 23.3054C196.406 22.394 195.675 21.6832 194.862 21.1729C194.044 20.647 193.159 20.3346 192.206 20.2357C191.248 20.1212 190.253 20.2359 189.222 20.5797C188.19 20.9236 187.326 21.4289 186.628 22.0956C185.925 22.7466 185.404 23.5279 185.066 24.4394C184.722 25.3352 184.564 26.343 184.59 27.4627C184.611 28.5668 184.83 29.7438 185.246 30.9937C185.642 32.1811 186.158 33.207 186.793 34.0715C187.424 34.9204 188.14 35.5843 188.942 36.0634C189.744 36.5424 190.619 36.8236 191.567 36.9068C192.515 36.99 193.504 36.8597 194.535 36.5159Z" fill="white"/>
<path d="M221.539 15.6481C221.831 16.9327 221.689 18.0884 221.112 19.115C220.535 20.1417 219.436 20.9915 217.816 21.6646L224.599 26.8593C225.153 27.2905 225.715 27.568 226.283 27.6918C226.864 27.7959 227.529 27.8219 228.277 27.7697L228.486 28.685L223.837 29.7439L216.213 23.5247C215.942 23.2992 215.692 23.1282 215.463 23.0115C215.249 22.8911 215.029 22.8146 214.802 22.7819C214.588 22.7294 214.342 22.7262 214.065 22.7723C213.801 22.7988 213.484 22.854 213.115 22.9381L214.256 27.9483C214.391 28.5424 214.535 29.0249 214.687 29.3956C214.852 29.7467 215.07 30.001 215.342 30.1585C215.631 30.3124 216.001 30.3801 216.453 30.3617C216.917 30.3235 217.51 30.2221 218.233 30.0575L218.441 30.9728L209.939 32.9095L209.73 31.9942C210.289 31.8501 210.727 31.6995 211.046 31.5424C211.381 31.3817 211.623 31.183 211.772 30.9464C211.921 30.7098 211.987 30.4076 211.971 30.0397C211.955 29.6718 211.882 29.2068 211.754 28.6448L209.198 17.4202C209.07 16.8581 208.935 16.4158 208.794 16.0932C208.666 15.7509 208.491 15.5035 208.27 15.3511C208.062 15.1789 207.79 15.0973 207.455 15.1062C207.115 15.099 206.685 15.1379 206.164 15.2229L205.955 14.3076L213.518 12.5848C215.734 12.0801 217.538 12.1 218.929 12.6447C220.336 13.1857 221.206 14.1868 221.539 15.6481ZM212.841 21.7338L214.551 21.3442C216.157 20.9785 217.279 20.4188 217.918 19.6651C218.57 18.8918 218.742 17.8306 218.435 16.4818C218.138 15.181 217.613 14.321 216.859 13.9016C216.121 13.4786 215.093 13.417 213.776 13.7169L211.56 14.2217C211.287 14.2839 211.182 14.4514 211.244 14.7244L212.841 21.7338Z" fill="white"/>
<path d="M231.594 22.3685L232.499 22.2403C232.717 22.9579 233.023 23.5883 233.416 24.1314C233.825 24.6723 234.295 25.113 234.825 25.4537C235.372 25.792 235.972 26.0315 236.624 26.172C237.29 26.2939 237.99 26.3028 238.724 26.1989C239.93 26.0279 240.844 25.6074 241.464 24.9373C242.084 24.2673 242.325 23.443 242.187 22.4647C242.129 22.057 242.002 21.6923 241.807 21.3707C241.628 21.0467 241.354 20.7529 240.984 20.4893C240.611 20.2094 240.126 19.9538 239.528 19.7225C238.946 19.4889 238.213 19.2517 237.331 19.0107C236.258 18.7137 235.35 18.4099 234.607 18.0992C233.864 17.7886 233.258 17.442 232.788 17.0595C232.318 16.677 231.959 16.2538 231.71 15.79C231.475 15.3076 231.313 14.7484 231.223 14.1125C231.116 13.3624 231.149 12.6509 231.32 11.978C231.507 11.3027 231.812 10.7022 232.237 10.1763C232.659 9.63409 233.187 9.19333 233.821 8.85401C234.453 8.49839 235.168 8.26398 235.967 8.15079C236.685 8.04914 237.369 8.06857 238.021 8.20907C238.673 8.34958 239.353 8.62754 240.061 9.04294L240.541 7.85215L241.103 7.77245L242.062 12.6018L241.157 12.7301C240.576 11.4484 239.864 10.5345 239.022 9.98852C238.196 9.44022 237.261 9.23999 236.217 9.38784C235.222 9.52876 234.466 9.8854 233.949 10.4578C233.431 11.0301 233.231 11.7321 233.349 12.5638C233.404 12.9551 233.52 13.3046 233.697 13.6123C233.871 13.9036 234.126 14.1753 234.461 14.4272C234.794 14.6628 235.217 14.8939 235.732 15.1204C236.244 15.3306 236.873 15.541 237.618 15.7515C238.901 16.1186 239.975 16.4821 240.841 16.8418C241.705 17.1851 242.407 17.5598 242.947 17.9657C243.484 18.3553 243.888 18.7971 244.157 19.2912C244.425 19.769 244.603 20.3258 244.693 20.9618C244.809 21.7771 244.752 22.5503 244.523 23.2814C244.294 24.0125 243.92 24.6642 243.403 25.2366C242.885 25.8089 242.238 26.2915 241.462 26.6842C240.684 27.0606 239.805 27.3181 238.827 27.4567C237.897 27.5884 237.039 27.5769 236.252 27.4223C235.481 27.2653 234.669 26.9313 233.815 26.4202L233.3 27.7158L232.737 27.7955L231.594 22.3685Z" fill="white"/>
<path d="M265.82 19.5152C265.326 19.5303 264.846 19.4462 264.379 19.2627C263.928 19.0788 263.525 18.8275 263.169 18.5088C262.83 18.1732 262.546 17.7782 262.317 17.3238C262.106 16.869 261.992 16.3781 261.976 15.8514C261.96 15.3246 262.044 14.8359 262.228 14.3854C262.427 13.918 262.695 13.5143 263.031 13.1745C263.366 12.8182 263.761 12.5343 264.216 12.3226C264.687 12.1105 265.186 11.9963 265.713 11.9802C266.223 11.9646 266.704 12.0488 267.154 12.2327C267.621 12.4161 268.033 12.6754 268.389 13.0105C268.745 13.3292 269.029 13.7159 269.24 14.1708C269.451 14.6092 269.565 15.0918 269.581 15.6186C269.597 16.1454 269.505 16.6425 269.305 17.11C269.122 17.577 268.863 17.9886 268.528 18.3448C268.192 18.6847 267.789 18.9606 267.317 19.1728C266.862 19.3844 266.363 19.4986 265.82 19.5152Z" fill="white"/>
<path d="M306.444 12.2533L305.436 12.1642C305.449 11.4544 305.386 10.8536 305.248 10.3619C305.109 9.87023 304.879 9.47792 304.558 9.185C304.254 8.87712 303.854 8.6433 303.355 8.48353C302.857 8.32377 302.255 8.21272 301.549 8.1504C300.942 8.09678 300.449 8.06971 300.068 8.06919C299.706 8.05371 299.424 8.07008 299.221 8.11832C299.018 8.16655 298.88 8.23698 298.805 8.32962C298.749 8.40729 298.714 8.51996 298.701 8.66761L297.538 21.833C297.492 22.358 297.485 22.812 297.517 23.1952C297.566 23.5797 297.686 23.9045 297.877 24.1694C298.087 24.4194 298.391 24.6281 298.789 24.7956C299.206 24.9481 299.758 25.063 300.445 25.1403L300.363 26.0754L291.061 25.2536L291.143 24.3185C291.834 24.363 292.397 24.3466 292.834 24.2695C293.272 24.1759 293.608 24.0237 293.842 23.8129C294.093 23.5871 294.268 23.2884 294.367 22.9169C294.483 22.5468 294.563 22.0993 294.61 21.5743L295.773 8.40891C295.786 8.26126 295.763 8.14353 295.705 8.0557C295.664 7.95292 295.557 7.86075 295.382 7.77919C295.224 7.69907 294.99 7.63704 294.679 7.5931C294.37 7.53275 293.954 7.47939 293.429 7.43302C292.789 7.37649 292.188 7.3482 291.626 7.34815C291.08 7.34954 290.591 7.45516 290.159 7.66501C289.745 7.8599 289.393 8.19256 289.104 8.66299C288.814 9.13341 288.623 9.80265 288.53 10.6707L287.619 10.5903L288.034 5.89008L306.614 7.53138L306.444 12.2533Z" fill="white"/>
<path d="M322.09 22.3577L315.599 21.1854C315.203 21.8001 314.861 22.3493 314.573 22.8328C314.288 23.3001 314.047 23.7084 313.85 24.0577C313.669 24.41 313.531 24.7114 313.435 24.962C313.34 25.2125 313.278 25.4188 313.248 25.5809C313.166 26.0347 313.255 26.377 313.515 26.608C313.777 26.8228 314.249 26.9916 314.929 27.1145L314.763 28.0384L308.855 26.9715L309.022 26.0477C309.403 26.0664 309.731 26.0586 310.005 26.0244C310.295 25.9931 310.551 25.9221 310.772 25.8114C311.009 25.7036 311.221 25.5494 311.407 25.3488C311.613 25.135 311.82 24.8711 312.027 24.5571L321.206 9.87225L322.252 10.061L325.294 24.769C325.503 25.7439 325.695 26.5317 325.871 27.1325C326.05 27.7171 326.245 28.1706 326.454 28.493C326.664 28.8153 326.907 29.0434 327.184 29.1771C327.477 29.3137 327.835 29.4201 328.256 29.4962L328.085 30.4443L320.16 29.013L320.331 28.0649C321.19 28.22 321.796 28.2458 322.149 28.1423C322.503 28.0388 322.713 27.8006 322.78 27.4279C322.81 27.2658 322.828 27.1185 322.835 26.9859C322.845 26.8371 322.841 26.6773 322.821 26.5064C322.818 26.3385 322.794 26.15 322.748 25.9408C322.721 25.7184 322.676 25.4592 322.612 25.1632L322.09 22.3577ZM316.304 20.0577L321.847 21.0587L320.444 13.3997L316.304 20.0577Z" fill="white"/>
<path d="M333.54 25.8542L334.424 26.0898C334.344 26.8356 334.379 27.5352 334.528 28.1888C334.694 28.8465 334.954 29.4359 335.31 29.9568C335.681 30.4819 336.139 30.9366 336.685 31.3206C337.25 31.693 337.891 31.9747 338.607 32.1657C339.784 32.4798 340.79 32.4497 341.622 32.0752C342.455 31.7008 342.999 31.0362 343.254 30.0814C343.36 29.6836 343.386 29.2985 343.332 28.9261C343.293 28.558 343.156 28.1803 342.918 27.793C342.685 27.3899 342.338 26.965 341.877 26.5183C341.433 26.0759 340.851 25.5714 340.133 25.0049C339.261 24.312 338.544 23.6776 337.982 23.1015C337.42 22.5254 336.997 21.9695 336.714 21.4337C336.431 20.8979 336.265 20.368 336.217 19.8439C336.19 19.3082 336.259 18.73 336.424 18.1094C336.62 17.3774 336.927 16.7351 337.347 16.1824C337.783 15.6339 338.3 15.2006 338.896 14.8823C339.496 14.5482 340.155 14.3488 340.871 14.2841C341.591 14.2035 342.341 14.2672 343.121 14.4752C343.821 14.662 344.444 14.9474 344.989 15.3315C345.534 15.7155 346.051 16.237 346.54 16.8958L347.448 15.9873L347.997 16.1337L346.992 20.9538L346.109 20.7182C346.075 19.3115 345.777 18.1922 345.215 17.3604C344.669 16.5329 343.886 15.9833 342.868 15.7117C341.897 15.4528 341.062 15.4856 340.361 15.8102C339.661 16.1348 339.203 16.7028 338.986 17.5144C338.885 17.8963 338.855 18.2634 338.897 18.6156C338.944 18.9519 339.072 19.3015 339.282 19.6643C339.497 20.0112 339.796 20.3895 340.181 20.799C340.571 21.1926 341.067 21.6318 341.671 22.1167C342.708 22.9559 343.555 23.7103 344.212 24.3797C344.873 25.0333 345.372 25.6523 345.711 26.2369C346.053 26.8055 346.252 27.37 346.307 27.9301C346.367 28.4743 346.314 29.0568 346.148 29.6774C345.936 30.473 345.582 31.1626 345.085 31.746C344.589 32.3295 343.99 32.7835 343.29 33.1081C342.59 33.4327 341.806 33.6241 340.938 33.6824C340.074 33.7248 339.165 33.6187 338.21 33.364C337.303 33.122 336.518 32.7762 335.854 32.3263C335.206 31.8807 334.588 31.2558 334.002 30.4516L333.021 31.4429L332.472 31.2965L333.54 25.8542Z" fill="white"/>
<path d="M372.078 29.1184L371.125 28.7757C371.318 28.0926 371.41 27.4957 371.402 26.9849C371.393 26.4742 371.27 26.0363 371.034 25.6714C370.818 25.2965 370.49 24.9684 370.049 24.6872C369.607 24.406 369.053 24.1456 368.387 23.906C367.813 23.6999 367.343 23.5482 366.975 23.4511C366.629 23.344 366.351 23.288 366.143 23.2832C365.935 23.2783 365.783 23.3112 365.688 23.3819C365.613 23.4427 365.551 23.5428 365.501 23.6823L361.03 36.1197C360.851 36.6157 360.729 37.053 360.663 37.4318C360.612 37.8161 360.646 38.1607 360.764 38.4656C360.903 38.7606 361.144 39.0397 361.487 39.303C361.851 39.5563 362.355 39.8078 363.001 40.0573L362.683 40.9407L353.896 37.7816L354.213 36.8982C354.87 37.1167 355.419 37.2442 355.861 37.2805C356.308 37.3014 356.672 37.2396 356.951 37.095C357.252 36.9406 357.497 36.6962 357.687 36.3621C357.893 36.0334 358.085 35.6212 358.263 35.1252L362.734 22.6878C362.785 22.5483 362.793 22.4287 362.758 22.3289C362.745 22.2192 362.665 22.1027 362.516 21.9794C362.384 21.8617 362.173 21.7422 361.884 21.6208C361.601 21.484 361.211 21.3264 360.715 21.1481C360.111 20.9308 359.537 20.7507 358.993 20.6078C358.465 20.4704 357.965 20.4483 357.494 20.5415C357.044 20.6248 356.62 20.8571 356.22 21.2385C355.82 21.6199 355.465 22.2185 355.154 23.0343L354.294 22.7251L355.89 18.2848L373.442 24.5945L372.078 29.1184Z" fill="white"/>
<path d="M381.026 37.2642C381.833 37.6385 382.526 37.9057 383.105 38.0656C383.706 38.2175 384.212 38.2617 384.623 38.1981C385.049 38.1414 385.405 37.98 385.692 37.7137C385.994 37.4543 386.249 37.1006 386.457 36.6524L387.241 37.0163L384.403 43.134L383.618 42.7701C383.826 42.3219 383.939 41.9023 383.957 41.5112C383.99 41.1271 383.891 40.7542 383.659 40.3926C383.45 40.0229 383.093 39.6575 382.588 39.2965C382.106 38.9274 381.447 38.5488 380.61 38.1606L378.26 43.2251C378.031 43.7181 377.9 44.1566 377.867 44.5408C377.841 44.9099 377.922 45.265 378.109 45.6058C378.317 45.9387 378.64 46.2608 379.076 46.5723C379.52 46.8688 380.092 47.18 380.795 47.5058C381.586 47.8732 382.283 48.1328 382.884 48.2847C383.492 48.4217 384.046 48.4424 384.544 48.3468C385.042 48.2512 385.504 48.0387 385.929 47.7095C386.361 47.3653 386.804 46.8991 387.259 46.3111L388.11 46.7063L385.726 50.9649L371.81 44.5077L372.205 43.6562C372.734 43.8839 373.174 44.0331 373.522 44.104C373.885 44.1818 374.198 44.1727 374.461 44.0766C374.723 43.9805 374.96 43.782 375.173 43.481C375.385 43.1801 375.612 42.7682 375.855 42.2453L380.701 31.8026C380.943 31.2798 381.107 30.8476 381.193 30.5061C381.301 30.1567 381.314 29.8542 381.233 29.5986C381.174 29.3351 381.009 29.1041 380.737 28.9057C380.473 28.6924 380.109 28.4599 379.645 28.2082L380.04 27.3566L392.993 33.3667L391.364 37.4043L390.58 37.0404C390.768 36.4012 390.843 35.8463 390.808 35.3758C390.794 34.8973 390.659 34.4628 390.405 34.0723C390.165 33.6888 389.797 33.3274 389.301 32.9882C388.805 32.649 388.176 32.3027 387.414 31.9491L384.568 30.6286C384.314 30.5107 384.128 30.5788 384.01 30.8328L381.026 37.2642Z" fill="white"/>
<path d="M419.578 48.2062C420.797 48.9901 421.795 49.9353 422.572 51.0417C423.348 52.1482 423.884 53.3248 424.179 54.5717C424.473 55.8186 424.517 57.0902 424.31 58.3865C424.103 59.6827 423.621 60.9196 422.864 62.097C422.142 63.2191 421.237 64.1248 420.147 64.8144C419.071 65.5128 417.909 65.9797 416.662 66.215C415.423 66.4364 414.139 66.4234 412.81 66.1758C411.49 65.9143 410.227 65.3961 409.022 64.621C407.817 63.846 406.821 62.9122 406.036 61.8196C405.259 60.7132 404.715 59.5504 404.402 58.3312C404.099 57.0982 404.035 55.8429 404.21 54.5654C404.399 53.2969 404.855 52.1016 405.576 50.9795C406.333 49.8021 407.259 48.8503 408.352 48.1242C409.446 47.398 410.621 46.9104 411.878 46.6612C413.135 46.4121 414.427 46.4113 415.756 46.6589C417.085 46.9065 418.359 47.4223 419.578 48.2062ZM409.757 63.4782C410.671 64.0662 411.591 64.4325 412.516 64.5771C413.455 64.7306 414.372 64.6744 415.268 64.4083C416.177 64.1512 417.042 63.6892 417.863 63.0224C418.692 62.3417 419.445 61.475 420.122 60.4223C420.835 59.3141 421.338 58.2276 421.631 57.1629C421.933 56.0844 422.028 55.0686 421.917 54.1157C421.814 53.1489 421.502 52.2632 420.982 51.4586C420.47 50.6401 419.758 49.9369 418.843 49.349C417.929 48.761 416.993 48.4042 416.037 48.2783C415.089 48.1386 414.154 48.2226 413.231 48.5302C412.318 48.8239 411.433 49.3319 410.577 50.0542C409.73 50.7625 408.95 51.6708 408.237 52.779C407.56 53.8318 407.084 54.8766 406.809 55.9136C406.542 56.9368 406.474 57.911 406.603 58.8362C406.733 59.7615 407.062 60.6195 407.592 61.4102C408.121 62.201 408.843 62.8903 409.757 63.4782Z" fill="white"/>
<path d="M440.087 77.6258C439.276 78.6431 438.459 79.456 437.637 80.0644C436.828 80.683 435.993 81.0702 435.131 81.226C434.283 81.392 433.397 81.3279 432.473 81.0336C431.559 80.7265 430.6 80.1725 429.596 79.3717C428.643 78.612 427.884 77.8596 427.32 77.1146C426.765 76.3568 426.419 75.5754 426.282 74.7706C426.154 73.9529 426.252 73.1039 426.575 72.2238C426.897 71.3436 427.464 70.3948 428.275 69.3775L432.341 64.278C433.101 63.3251 433.66 62.5705 434.019 62.0143C434.391 61.4684 434.565 60.9859 434.541 60.5667C434.52 60.2761 434.395 59.9972 434.166 59.7301C433.96 59.4603 433.638 59.1509 433.2 58.8019L433.785 58.0679L440.372 63.3194L439.787 64.0534C439.349 63.7043 438.974 63.4477 438.663 63.2836C438.351 63.1195 438.036 63.0789 437.717 63.1618C437.352 63.2498 436.938 63.5309 436.476 64.0049C436.024 64.4661 435.419 65.1731 434.659 66.126L430.47 71.3801C429.946 72.0368 429.543 72.6741 429.262 73.2918C429.003 73.907 428.884 74.5181 428.906 75.1251C428.938 75.7192 429.126 76.3014 429.472 76.8718C429.831 77.4525 430.37 78.0304 431.091 78.6053C432.379 79.632 433.627 80.0479 434.836 79.853C436.055 79.6452 437.219 78.8459 438.327 77.4551L442.039 72.7999C442.953 71.6538 443.601 70.7486 443.983 70.0844C444.365 69.4202 444.531 68.8682 444.482 68.4284C444.435 68.1173 444.292 67.8346 444.052 67.5804C443.823 67.3132 443.508 67.0205 443.109 66.7023L443.694 65.9682L449.296 70.4344L448.711 71.1684C448.299 70.8398 447.932 70.6 447.61 70.4487C447.301 70.3078 446.982 70.2852 446.653 70.3809C446.244 70.4973 445.777 70.8196 445.25 71.3478C444.734 71.863 444.05 72.6551 443.198 73.7239L440.087 77.6258Z" fill="white"/>
<path d="M461.998 88.9255C461.083 89.8738 460.039 90.3877 458.864 90.4672C457.689 90.5467 456.376 90.0929 454.926 89.1058L454.293 97.6258C454.236 98.3257 454.312 98.9474 454.519 99.4911C454.751 100.034 455.093 100.605 455.546 101.202L454.895 101.878L451.463 98.568L452.491 88.783C452.531 88.4328 452.538 88.1299 452.51 87.8741C452.494 87.6298 452.437 87.4037 452.34 87.1958C452.266 86.9875 452.135 86.7802 451.945 86.574C451.778 86.3674 451.558 86.1326 451.285 85.8696L447.718 89.5682C447.295 90.0068 446.97 90.3912 446.743 90.7214C446.54 91.0513 446.446 91.3733 446.464 91.6874C446.493 92.013 446.639 92.3598 446.902 92.7278C447.188 93.0953 447.598 93.5363 448.131 94.0508L447.48 94.7265L441.203 88.6727L441.854 87.997C442.281 88.3853 442.647 88.6699 442.953 88.8507C443.271 89.043 443.57 89.1366 443.849 89.1315C444.129 89.1265 444.418 89.0164 444.717 88.8013C445.016 88.5863 445.365 88.2713 445.765 87.8564L453.757 79.5702C454.157 79.1553 454.454 78.8005 454.646 78.5058C454.862 78.2107 454.974 77.9292 454.981 77.6612C455.011 77.3927 454.93 77.1205 454.739 76.8444C454.559 76.5564 454.29 76.2177 453.934 75.8281L454.586 75.1524L460.169 80.5374C461.805 82.1152 462.776 83.6351 463.082 85.0971C463.4 86.5706 463.039 87.8467 461.998 88.9255ZM452.143 84.9805L453.405 86.1982C454.591 87.3415 455.674 87.9741 456.654 88.0962C457.658 88.2178 458.64 87.7807 459.601 86.7849C460.527 85.8247 460.959 84.9142 460.897 84.0534C460.846 83.2041 460.335 82.3106 459.363 81.3731L457.727 79.7954C457.526 79.601 457.328 79.6046 457.133 79.8061L452.143 84.9805Z" fill="white"/>
<path d="M470.617 114.048C470.129 114.44 469.752 114.786 469.485 115.085C469.242 115.386 469.114 115.701 469.102 116.027C469.103 116.344 469.21 116.701 469.425 117.099C469.65 117.51 469.988 118.009 470.44 118.597L469.708 119.185L464.227 112.371L464.958 111.783C465.332 112.222 465.66 112.55 465.941 112.768C466.232 112.999 466.517 113.129 466.795 113.159C467.073 113.189 467.373 113.116 467.697 112.941C468.021 112.765 468.407 112.496 468.856 112.135L477.826 104.919C478.275 104.558 478.614 104.243 478.842 103.975C479.093 103.71 479.239 103.444 479.28 103.179C479.343 102.917 479.298 102.636 479.142 102.338C479 102.03 478.777 101.66 478.472 101.229L479.203 100.641L488.153 111.767L484.647 114.936L484.105 114.262C484.595 113.741 484.946 113.258 485.158 112.813C485.384 112.357 485.475 111.892 485.433 111.419C485.4 110.959 485.237 110.467 484.942 109.943C484.661 109.408 484.241 108.795 483.684 108.102L481.717 105.657C481.542 105.439 481.345 105.418 481.127 105.593L475.313 110.27C475.809 110.886 476.264 111.386 476.679 111.771C477.118 112.158 477.54 112.42 477.947 112.558C478.364 112.709 478.788 112.737 479.22 112.643C479.652 112.55 480.127 112.326 480.646 111.972L481.188 112.646L475.548 117.183L475.006 116.509C475.442 116.053 475.764 115.625 475.971 115.226C476.178 114.826 476.258 114.413 476.211 113.986C476.174 113.572 476.018 113.116 475.744 112.618C475.47 112.12 475.07 111.543 474.543 110.889L470.617 114.048Z" fill="white"/>
<path d="M485.312 140.941L476.361 127.729L477.138 127.203C477.475 127.671 477.774 128.025 478.036 128.265C478.308 128.519 478.581 128.672 478.855 128.725C479.13 128.777 479.435 128.729 479.772 128.581C480.109 128.432 480.516 128.196 480.994 127.873L490.524 121.416C491.002 121.093 491.365 120.807 491.614 120.558C491.887 120.314 492.054 120.062 492.116 119.801C492.201 119.544 492.178 119.261 492.048 118.952C491.931 118.633 491.739 118.246 491.47 117.791L492.248 117.265L496.46 123.482L495.683 124.009C495.373 123.582 495.092 123.255 494.839 123.028C494.596 122.815 494.334 122.694 494.056 122.664C493.786 122.648 493.476 122.719 493.125 122.877C492.784 123.048 492.354 123.309 491.836 123.66L483.021 129.632C482.448 130.02 482.015 130.393 481.721 130.752C481.449 131.115 481.304 131.502 481.284 131.913C481.287 132.329 481.405 132.796 481.637 133.315C481.883 133.825 482.246 134.434 482.726 135.143C483.253 135.921 483.737 136.547 484.179 137.024C484.635 137.491 485.092 137.828 485.55 138.034C486.032 138.246 486.539 138.319 487.073 138.256C487.63 138.197 488.28 138.026 489.022 137.741L489.549 138.519L485.312 140.941Z" fill="white"/>
<path d="M499.547 151.777L496.335 146.016C495.609 146.1 494.968 146.185 494.411 146.269C493.869 146.344 493.401 146.417 493.006 146.487C492.619 146.57 492.298 146.655 492.044 146.74C491.79 146.825 491.591 146.908 491.447 146.988C491.044 147.212 490.836 147.498 490.822 147.845C490.822 148.185 490.991 148.656 491.328 149.26L490.508 149.717L487.585 144.474L488.405 144.017C488.632 144.324 488.846 144.572 489.046 144.762C489.255 144.967 489.472 145.119 489.697 145.22C489.931 145.334 490.185 145.4 490.458 145.418C490.754 145.441 491.089 145.434 491.464 145.395L508.638 143.174L509.155 144.102L499.716 155.784C499.095 156.564 498.608 157.213 498.255 157.73C497.917 158.239 497.69 158.677 497.573 159.043C497.457 159.41 497.435 159.743 497.508 160.042C497.588 160.355 497.732 160.699 497.941 161.073L497.099 161.542L493.178 154.508L494.02 154.039C494.445 154.801 494.809 155.286 495.113 155.493C495.418 155.701 495.735 155.712 496.066 155.528C496.21 155.448 496.335 155.368 496.442 155.29C496.564 155.203 496.685 155.098 496.804 154.975C496.932 154.866 497.062 154.728 497.195 154.559C497.35 154.398 497.521 154.198 497.71 153.961L499.547 151.777ZM497.655 145.846L500.397 150.766L505.428 144.822L497.655 145.846Z" fill="white"/>
<path d="M505.999 171.931L517.562 171.538C518.219 171.516 518.726 171.479 519.082 171.429C519.438 171.378 519.744 171.296 520 171.182C520.406 171.001 520.635 170.746 520.687 170.416C520.745 170.102 520.623 169.606 520.321 168.929L521.179 168.547L523.622 174.03L522.765 174.413C522.566 174.087 522.371 173.813 522.182 173.59C522 173.383 521.797 173.212 521.575 173.077C521.359 172.957 521.105 172.872 520.812 172.822C520.541 172.78 520.217 172.762 519.841 172.767L502.201 173.299L501.849 172.51L513.312 160.423C513.676 160.026 513.98 159.656 514.224 159.313C514.475 158.985 514.655 158.662 514.765 158.342C514.875 158.023 514.919 157.697 514.897 157.364C514.875 157.031 514.792 156.662 514.647 156.258L515.527 155.866L518.806 163.222L517.926 163.614C517.738 163.193 517.561 162.857 517.395 162.606C517.251 162.364 517.101 162.188 516.943 162.077C516.801 161.96 516.656 161.899 516.509 161.892C516.362 161.886 516.213 161.916 516.063 161.983C515.852 162.077 515.621 162.225 515.368 162.428C515.131 162.624 514.796 162.944 514.364 163.389L505.999 171.931Z" fill="white"/>
<path d="M529.425 189.599C529.882 190.974 530.067 192.336 529.978 193.685C529.888 195.033 529.568 196.286 529.015 197.442C528.462 198.598 527.699 199.616 526.725 200.495C525.75 201.375 524.599 202.036 523.271 202.478C522.005 202.899 520.732 203.037 519.451 202.891C518.175 202.76 516.977 202.395 515.858 201.795C514.754 201.191 513.762 200.375 512.882 199.349C512.018 198.317 511.36 197.122 510.907 195.762C510.455 194.403 510.265 193.051 510.339 191.708C510.428 190.359 510.733 189.111 511.254 187.966C511.791 186.815 512.529 185.797 513.466 184.912C514.41 184.043 515.514 183.398 516.78 182.976C518.108 182.534 519.426 182.373 520.733 182.494C522.04 182.614 523.261 182.971 524.396 183.566C525.531 184.16 526.539 184.97 527.418 185.996C528.298 187.023 528.967 188.224 529.425 189.599ZM512.196 195.333C512.54 196.364 513.026 197.227 513.656 197.92C514.291 198.628 515.041 199.16 515.905 199.514C516.775 199.884 517.738 200.067 518.796 200.062C519.869 200.052 520.999 199.85 522.186 199.454C523.436 199.038 524.51 198.508 525.406 197.862C526.317 197.212 527.029 196.48 527.539 195.668C528.066 194.85 528.379 193.965 528.478 193.012C528.593 192.054 528.479 191.059 528.135 190.028C527.792 188.996 527.287 188.132 526.621 187.433C525.97 186.73 525.189 186.209 524.278 185.87C523.382 185.526 522.375 185.367 521.255 185.392C520.151 185.413 518.974 185.631 517.724 186.047C516.536 186.442 515.51 186.957 514.645 187.592C513.796 188.222 513.131 188.938 512.652 189.74C512.172 190.542 511.891 191.417 511.807 192.364C511.723 193.312 511.853 194.302 512.196 195.333Z" fill="white"/>
<path d="M533.05 222.347C531.765 222.639 530.609 222.496 529.583 221.919C528.557 221.341 527.707 220.242 527.035 218.622L521.837 225.402C521.405 225.956 521.127 226.517 521.003 227.086C520.899 227.667 520.873 228.331 520.924 229.08L520.009 229.288L518.953 224.638L525.176 217.017C525.401 216.747 525.573 216.497 525.689 216.267C525.81 216.054 525.887 215.834 525.919 215.607C525.972 215.393 525.975 215.147 525.929 214.87C525.903 214.606 525.848 214.289 525.764 213.92L520.753 215.058C520.159 215.193 519.677 215.337 519.306 215.489C518.955 215.653 518.7 215.871 518.542 216.143C518.388 216.432 518.321 216.802 518.339 217.254C518.377 217.718 518.478 218.311 518.642 219.034L517.727 219.242L515.794 210.738L516.71 210.53C516.854 211.089 517.004 211.527 517.161 211.846C517.321 212.182 517.52 212.424 517.756 212.572C517.993 212.721 518.295 212.788 518.663 212.772C519.031 212.756 519.496 212.684 520.058 212.556L531.284 210.006C531.846 209.878 532.289 209.744 532.611 209.603C532.954 209.474 533.201 209.3 533.354 209.079C533.526 208.871 533.608 208.599 533.599 208.264C533.606 207.924 533.568 207.494 533.483 206.973L534.398 206.765L536.117 214.329C536.621 216.545 536.6 218.349 536.054 219.739C535.513 221.146 534.511 222.015 533.05 222.347ZM526.969 213.646L527.357 215.357C527.722 216.963 528.281 218.085 529.034 218.725C529.808 219.377 530.869 219.549 532.218 219.243C533.518 218.947 534.379 218.423 534.799 217.668C535.222 216.93 535.284 215.903 534.985 214.586L534.481 212.37C534.419 212.097 534.252 211.991 533.979 212.053L526.969 213.646Z" fill="white"/>
<path d="M526.324 232.399L526.452 233.304C525.734 233.522 525.104 233.827 524.56 234.22C524.019 234.629 523.578 235.099 523.237 235.629C522.899 236.176 522.659 236.775 522.518 237.427C522.396 238.093 522.387 238.793 522.49 239.527C522.66 240.733 523.08 241.647 523.75 242.268C524.42 242.889 525.244 243.13 526.222 242.992C526.63 242.934 526.995 242.808 527.317 242.613C527.641 242.434 527.935 242.16 528.198 241.79C528.479 241.418 528.734 240.932 528.966 240.334C529.2 239.752 529.438 239.02 529.679 238.138C529.977 237.065 530.281 236.157 530.592 235.414C530.903 234.672 531.25 234.066 531.633 233.596C532.015 233.126 532.439 232.767 532.903 232.519C533.385 232.284 533.944 232.122 534.58 232.032C535.331 231.926 536.042 231.959 536.715 232.13C537.39 232.318 537.99 232.624 538.516 233.049C539.058 233.471 539.499 233.999 539.838 234.633C540.193 235.265 540.427 235.981 540.54 236.78C540.641 237.497 540.621 238.182 540.48 238.834C540.339 239.486 540.061 240.166 539.645 240.873L540.836 241.354L540.915 241.916L536.085 242.872L535.958 241.967C537.24 241.387 538.154 240.676 538.7 239.834C539.249 239.008 539.45 238.073 539.302 237.029C539.162 236.034 538.806 235.278 538.234 234.76C537.662 234.242 536.96 234.042 536.128 234.159C535.737 234.214 535.387 234.33 535.079 234.507C534.788 234.681 534.516 234.935 534.264 235.27C534.028 235.603 533.797 236.027 533.57 236.541C533.36 237.053 533.149 237.681 532.938 238.426C532.57 239.709 532.206 240.783 531.846 241.649C531.502 242.513 531.127 243.214 530.721 243.754C530.331 244.291 529.889 244.695 529.395 244.964C528.917 245.231 528.36 245.41 527.724 245.499C526.909 245.614 526.135 245.557 525.404 245.328C524.674 245.098 524.022 244.724 523.45 244.206C522.878 243.688 522.396 243.041 522.003 242.265C521.627 241.486 521.37 240.608 521.232 239.629C521.101 238.7 521.113 237.842 521.268 237.055C521.425 236.284 521.76 235.472 522.271 234.618L520.976 234.102L520.897 233.539L526.324 232.399Z" fill="white"/>
<path d="M529.16 266.627C529.145 266.133 529.229 265.653 529.413 265.186C529.597 264.735 529.849 264.332 530.167 263.977C530.503 263.637 530.898 263.353 531.353 263.125C531.808 262.914 532.299 262.8 532.826 262.785C533.352 262.769 533.841 262.853 534.291 263.037C534.759 263.237 535.162 263.505 535.502 263.841C535.858 264.176 536.142 264.571 536.353 265.026C536.565 265.498 536.679 265.997 536.695 266.524C536.71 267.034 536.626 267.514 536.441 267.965C536.258 268.432 535.998 268.843 535.663 269.199C535.344 269.555 534.957 269.838 534.502 270.05C534.064 270.261 533.581 270.374 533.054 270.39C532.527 270.406 532.03 270.314 531.563 270.113C531.096 269.93 530.685 269.67 530.329 269.335C529.989 268.999 529.713 268.596 529.501 268.124C529.29 267.669 529.176 267.17 529.16 266.627Z" fill="white"/>
<path d="M536.399 307.255L536.489 306.246C537.198 306.26 537.799 306.197 538.291 306.059C538.783 305.921 539.175 305.691 539.468 305.37C539.776 305.067 540.01 304.666 540.17 304.168C540.33 303.669 540.442 303.068 540.505 302.362C540.558 301.755 540.586 301.262 540.587 300.881C540.602 300.519 540.586 300.237 540.538 300.034C540.49 299.831 540.419 299.693 540.327 299.618C540.249 299.562 540.136 299.527 539.989 299.514L526.824 298.344C526.299 298.297 525.845 298.29 525.462 298.322C525.077 298.37 524.753 298.49 524.487 298.682C524.237 298.891 524.029 299.195 523.861 299.593C523.708 300.01 523.593 300.562 523.515 301.249L522.58 301.166L523.407 291.864L524.342 291.948C524.297 292.638 524.313 293.202 524.39 293.638C524.483 294.077 524.635 294.412 524.846 294.646C525.072 294.898 525.37 295.073 525.742 295.172C526.112 295.288 526.559 295.369 527.084 295.416L540.249 296.586C540.397 296.599 540.514 296.576 540.602 296.518C540.705 296.477 540.797 296.37 540.879 296.195C540.959 296.037 541.021 295.803 541.065 295.492C541.126 295.184 541.18 294.767 541.226 294.242C541.283 293.602 541.312 293.001 541.312 292.439C541.311 291.893 541.206 291.404 540.996 290.972C540.801 290.558 540.469 290.206 539.999 289.917C539.528 289.627 538.859 289.435 537.991 289.341L538.072 288.431L542.772 288.849L541.121 307.427L536.399 307.255Z" fill="white"/>
<path d="M526.287 322.895L527.463 316.404C526.848 316.008 526.299 315.666 525.816 315.378C525.349 315.092 524.94 314.851 524.591 314.654C524.239 314.473 523.938 314.335 523.687 314.239C523.437 314.144 523.23 314.081 523.068 314.052C522.615 313.97 522.272 314.058 522.041 314.318C521.826 314.58 521.657 315.051 521.534 315.732L520.61 315.565L521.68 309.658L522.604 309.825C522.585 310.207 522.592 310.534 522.627 310.808C522.658 311.099 522.728 311.354 522.839 311.575C522.947 311.812 523.101 312.024 523.301 312.211C523.515 312.417 523.779 312.624 524.093 312.831L538.773 322.018L538.583 323.063L523.874 326.098C522.899 326.306 522.111 326.498 521.51 326.674C520.925 326.853 520.472 327.047 520.149 327.256C519.827 327.465 519.599 327.709 519.465 327.986C519.328 328.279 519.221 328.636 519.145 329.057L518.197 328.886L519.632 320.961L520.58 321.133C520.425 321.992 520.399 322.598 520.502 322.951C520.605 323.305 520.844 323.515 521.216 323.583C521.378 323.612 521.526 323.631 521.658 323.638C521.807 323.648 521.967 323.644 522.138 323.624C522.306 323.621 522.494 323.597 522.703 323.551C522.926 323.524 523.185 323.479 523.481 323.416L526.287 322.895ZM528.59 317.111L527.586 322.653L535.246 321.254L528.59 317.111Z" fill="white"/>
<path d="M522.784 334.344L522.548 335.227C521.802 335.147 521.102 335.182 520.449 335.331C519.791 335.496 519.202 335.756 518.68 336.111C518.155 336.482 517.7 336.94 517.316 337.485C516.943 338.05 516.661 338.691 516.47 339.407C516.155 340.584 516.185 341.59 516.559 342.423C516.933 343.256 517.597 343.8 518.552 344.055C518.949 344.161 519.334 344.187 519.707 344.134C520.075 344.096 520.453 343.958 520.84 343.72C521.243 343.487 521.669 343.141 522.115 342.681C522.558 342.236 523.063 341.655 523.63 340.937C524.323 340.066 524.958 339.349 525.534 338.787C526.111 338.225 526.667 337.803 527.203 337.52C527.739 337.237 528.269 337.072 528.793 337.024C529.329 336.997 529.907 337.066 530.527 337.232C531.259 337.428 531.901 337.736 532.454 338.156C533.002 338.592 533.435 339.109 533.753 339.705C534.087 340.306 534.286 340.964 534.35 341.68C534.43 342.401 534.366 343.151 534.158 343.93C533.971 344.631 533.685 345.253 533.301 345.798C532.916 346.343 532.395 346.86 531.735 347.349L532.644 348.256L532.497 348.805L527.677 347.798L527.913 346.915C529.32 346.882 530.439 346.585 531.272 346.023C532.099 345.477 532.649 344.695 532.922 343.677C533.181 342.706 533.149 341.871 532.824 341.17C532.5 340.47 531.932 340.011 531.121 339.794C530.739 339.692 530.372 339.662 530.02 339.705C529.683 339.751 529.334 339.879 528.971 340.089C528.624 340.303 528.245 340.603 527.836 340.988C527.442 341.377 527.002 341.873 526.517 342.476C525.677 343.513 524.923 344.36 524.253 345.016C523.599 345.677 522.98 346.176 522.395 346.514C521.826 346.857 521.261 347.055 520.701 347.11C520.157 347.169 519.575 347.116 518.954 346.95C518.159 346.737 517.469 346.382 516.886 345.886C516.303 345.389 515.849 344.79 515.525 344.09C515.201 343.389 515.01 342.605 514.952 341.737C514.91 340.874 515.017 339.965 515.272 339.01C515.514 338.103 515.86 337.318 516.311 336.654C516.757 336.006 517.382 335.389 518.186 334.803L517.196 333.822L517.342 333.273L522.784 334.344Z" fill="white"/>
<path d="M519.5 372.88L519.843 371.927C520.526 372.121 521.123 372.213 521.633 372.204C522.144 372.196 522.582 372.073 522.947 371.837C523.322 371.622 523.651 371.294 523.932 370.853C524.213 370.411 524.474 369.858 524.714 369.191C524.92 368.618 525.072 368.148 525.17 367.78C525.277 367.434 525.333 367.156 525.338 366.948C525.343 366.74 525.31 366.588 525.24 366.492C525.179 366.418 525.079 366.356 524.939 366.305L512.504 361.828C512.008 361.649 511.571 361.527 511.192 361.46C510.808 361.409 510.463 361.443 510.158 361.561C509.863 361.699 509.584 361.94 509.321 362.283C509.067 362.647 508.815 363.151 508.566 363.797L507.682 363.479L510.846 354.693L511.729 355.011C511.51 355.667 511.383 356.216 511.346 356.658C511.325 357.106 511.387 357.469 511.531 357.749C511.685 358.049 511.93 358.295 512.264 358.485C512.592 358.691 513.004 358.883 513.5 359.062L525.935 363.54C526.075 363.59 526.194 363.598 526.294 363.564C526.404 363.551 526.52 363.47 526.644 363.322C526.761 363.189 526.881 362.979 527.003 362.69C527.14 362.407 527.297 362.017 527.476 361.521C527.694 360.917 527.874 360.343 528.017 359.799C528.155 359.271 528.177 358.772 528.084 358.301C528.001 357.851 527.769 357.426 527.388 357.026C527.007 356.626 526.408 356.27 525.593 355.959L525.902 355.099L530.342 356.698L524.023 374.246L519.5 372.88Z" fill="white"/>
<path d="M511.349 381.823C510.974 382.63 510.707 383.323 510.546 383.902C510.394 384.503 510.35 385.009 510.413 385.42C510.469 385.846 510.631 386.202 510.897 386.489C511.156 386.791 511.51 387.046 511.958 387.255L511.593 388.039L505.477 385.197L505.842 384.413C506.29 384.621 506.709 384.734 507.1 384.752C507.484 384.785 507.857 384.686 508.219 384.455C508.589 384.245 508.954 383.889 509.316 383.385C509.685 382.902 510.064 382.243 510.453 381.407L505.389 379.054C504.897 378.825 504.458 378.694 504.074 378.661C503.705 378.634 503.35 378.715 503.009 378.901C502.676 379.11 502.353 379.432 502.042 379.868C501.745 380.312 501.434 380.884 501.107 381.586C500.74 382.378 500.48 383.074 500.327 383.676C500.19 384.284 500.169 384.837 500.264 385.335C500.36 385.834 500.572 386.295 500.901 386.721C501.245 387.153 501.711 387.596 502.299 388.051L501.903 388.902L497.646 386.516L504.11 372.603L504.962 372.998C504.734 373.528 504.584 373.967 504.513 374.316C504.435 374.679 504.444 374.992 504.54 375.254C504.636 375.517 504.834 375.754 505.135 375.967C505.436 376.179 505.848 376.407 506.37 376.65L516.811 381.501C517.333 381.744 517.765 381.908 518.107 381.994C518.456 382.102 518.759 382.115 519.014 382.034C519.278 381.975 519.509 381.81 519.707 381.539C519.921 381.275 520.154 380.911 520.406 380.447L521.257 380.843L515.24 393.792L511.203 392.161L511.568 391.377C512.207 391.565 512.761 391.641 513.232 391.606C513.711 391.592 514.145 391.458 514.536 391.204C514.919 390.964 515.281 390.597 515.62 390.101C515.96 389.604 516.307 388.976 516.66 388.214L517.983 385.369C518.101 385.115 518.033 384.929 517.779 384.811L511.349 381.823Z" fill="white"/>
<path d="M500.386 420.37C499.602 421.588 498.656 422.586 497.549 423.362C496.442 424.138 495.265 424.673 494.018 424.967C492.771 425.261 491.5 425.304 490.204 425.096C488.907 424.888 487.671 424.406 486.494 423.648C485.372 422.926 484.467 422.02 483.778 420.93C483.08 419.853 482.614 418.691 482.379 417.443C482.158 416.204 482.172 414.92 482.42 413.592C482.682 412.272 483.201 411.009 483.977 409.805C484.753 408.6 485.687 407.605 486.78 406.82C487.887 406.044 489.05 405.5 490.269 405.188C491.503 404.885 492.758 404.822 494.035 404.998C495.304 405.188 496.499 405.644 497.62 406.366C498.797 407.124 499.749 408.05 500.474 409.144C501.2 410.238 501.687 411.413 501.935 412.67C502.184 413.927 502.184 415.22 501.936 416.549C501.687 417.877 501.171 419.151 500.386 420.37ZM485.119 410.54C484.531 411.454 484.164 412.374 484.019 413.299C483.865 414.238 483.921 415.155 484.186 416.051C484.443 416.96 484.905 417.826 485.571 418.646C486.251 419.476 487.118 420.23 488.17 420.907C489.278 421.621 490.364 422.124 491.428 422.418C492.507 422.72 493.523 422.816 494.476 422.705C495.442 422.603 496.328 422.292 497.133 421.772C497.952 421.261 498.655 420.548 499.244 419.634C499.832 418.72 500.19 417.785 500.316 416.828C500.456 415.88 500.373 414.945 500.066 414.023C499.772 413.109 499.265 412.224 498.543 411.367C497.835 410.52 496.927 409.74 495.82 409.026C494.767 408.349 493.722 407.872 492.686 407.596C491.663 407.329 490.688 407.26 489.763 407.389C488.838 407.518 487.98 407.847 487.189 408.376C486.398 408.905 485.708 409.626 485.119 410.54Z" fill="white"/>
<path d="M470.956 440.863C469.939 440.051 469.126 439.234 468.519 438.412C467.9 437.602 467.514 436.767 467.358 435.905C467.193 435.057 467.257 434.17 467.552 433.247C467.86 432.333 468.414 431.375 469.215 430.371C469.976 429.418 470.728 428.66 471.474 428.096C472.232 427.542 473.013 427.196 473.818 427.059C474.636 426.932 475.485 427.03 476.365 427.353C477.245 427.676 478.193 428.244 479.21 429.055L484.308 433.124C485.26 433.884 486.014 434.444 486.57 434.803C487.116 435.176 487.599 435.35 488.018 435.326C488.308 435.305 488.587 435.18 488.855 434.951C489.124 434.745 489.434 434.423 489.783 433.986L490.517 434.571L485.262 441.155L484.528 440.57C484.878 440.132 485.134 439.757 485.299 439.446C485.463 439.135 485.504 438.819 485.421 438.501C485.333 438.135 485.052 437.722 484.579 437.259C484.118 436.807 483.411 436.201 482.458 435.441L477.207 431.249C476.55 430.725 475.913 430.322 475.295 430.04C474.68 429.781 474.069 429.662 473.462 429.683C472.868 429.714 472.286 429.903 471.715 430.248C471.134 430.606 470.556 431.146 469.981 431.867C468.954 433.154 468.537 434.402 468.731 435.61C468.939 436.829 469.737 437.994 471.127 439.103L475.781 442.817C476.926 443.732 477.831 444.38 478.495 444.762C479.159 445.145 479.711 445.312 480.151 445.262C480.462 445.216 480.745 445.072 480.999 444.833C481.266 444.604 481.559 444.29 481.878 443.891L482.611 444.476L478.142 450.076L477.409 449.49C477.737 449.078 477.977 448.711 478.129 448.39C478.27 448.081 478.293 447.762 478.197 447.433C478.081 447.024 477.759 446.556 477.231 446.029C476.716 445.513 475.924 444.828 474.856 443.976L470.956 440.863Z" fill="white"/>
<path d="M459.645 462.768C458.697 461.853 458.183 460.808 458.105 459.633C458.026 458.458 458.48 457.145 459.468 455.695L450.948 455.059C450.249 455.001 449.627 455.076 449.083 455.284C448.54 455.515 447.969 455.856 447.371 456.31L446.696 455.658L450.008 452.227L459.792 453.261C460.142 453.302 460.445 453.308 460.701 453.28C460.945 453.264 461.171 453.208 461.379 453.111C461.588 453.037 461.795 452.906 462.001 452.716C462.208 452.549 462.443 452.329 462.706 452.057L459.01 448.488C458.571 448.065 458.187 447.739 457.857 447.512C457.527 447.308 457.205 447.215 456.891 447.232C456.565 447.261 456.218 447.407 455.85 447.67C455.483 447.956 455.041 448.365 454.527 448.898L453.851 448.246L459.908 441.973L460.584 442.625C460.195 443.051 459.911 443.417 459.73 443.723C459.537 444.041 459.443 444.34 459.448 444.619C459.453 444.898 459.563 445.188 459.778 445.487C459.993 445.786 460.308 446.136 460.722 446.536L469.004 454.532C469.419 454.932 469.774 455.229 470.068 455.422C470.363 455.638 470.645 455.749 470.913 455.756C471.181 455.787 471.453 455.706 471.73 455.515C472.018 455.335 472.357 455.067 472.746 454.711L473.422 455.363L468.034 460.943C466.455 462.579 464.935 463.549 463.472 463.854C461.999 464.171 460.723 463.809 459.645 462.768ZM463.595 452.915L462.377 454.177C461.233 455.362 460.599 456.444 460.477 457.425C460.355 458.429 460.791 459.411 461.786 460.372C462.746 461.298 463.656 461.731 464.517 461.669C465.367 461.619 466.26 461.109 467.198 460.137L468.777 458.502C468.971 458.301 468.968 458.103 468.767 457.908L463.595 452.915Z" fill="white"/>
<path d="M434.518 471.373C434.126 470.885 433.78 470.508 433.481 470.241C433.18 469.997 432.866 469.869 432.539 469.857C432.223 469.858 431.865 469.965 431.467 470.18C431.056 470.404 430.556 470.742 429.968 471.194L429.38 470.462L436.197 464.984L436.785 465.716C436.346 466.09 436.018 466.417 435.8 466.698C435.569 466.989 435.438 467.274 435.408 467.551C435.378 467.829 435.451 468.13 435.626 468.454C435.802 468.778 436.07 469.164 436.431 469.613L443.642 478.587C444.003 479.037 444.318 479.375 444.586 479.604C444.851 479.855 445.117 480.001 445.382 480.042C445.644 480.106 445.924 480.06 446.222 479.905C446.531 479.763 446.901 479.54 447.332 479.235L447.92 479.967L436.789 488.911L433.622 485.403L434.296 484.861C434.817 485.352 435.3 485.703 435.745 485.915C436.201 486.141 436.665 486.232 437.138 486.19C437.599 486.158 438.091 485.995 438.615 485.701C439.149 485.419 439.763 485 440.457 484.443L442.902 482.478C443.12 482.302 443.142 482.106 442.967 481.887L438.293 476.072C437.677 476.567 437.176 477.022 436.792 477.437C436.404 477.875 436.141 478.297 436.003 478.704C435.853 479.121 435.824 479.546 435.917 479.977C436.011 480.409 436.234 480.885 436.588 481.403L435.914 481.945L431.38 476.303L432.054 475.761C432.51 476.197 432.938 476.519 433.337 476.727C433.736 476.934 434.149 477.014 434.576 476.967C434.99 476.93 435.446 476.775 435.945 476.501C436.443 476.227 437.02 475.828 437.674 475.301L434.518 471.373Z" fill="white"/>
<path d="M407.616 486.054L420.833 477.11L421.359 477.887C420.891 478.224 420.537 478.523 420.296 478.785C420.042 479.056 419.889 479.329 419.836 479.604C419.783 479.878 419.831 480.184 419.979 480.521C420.128 480.858 420.364 481.265 420.687 481.742L427.139 491.277C427.462 491.754 427.747 492.118 427.996 492.367C428.24 492.639 428.492 492.807 428.753 492.869C429.009 492.954 429.292 492.931 429.602 492.801C429.921 492.685 430.308 492.493 430.763 492.225L431.289 493.002L425.069 497.211L424.543 496.434C424.97 496.125 425.297 495.844 425.524 495.591C425.737 495.347 425.858 495.086 425.888 494.807C425.905 494.538 425.834 494.227 425.677 493.877C425.505 493.535 425.244 493.106 424.893 492.587L418.926 483.769C418.538 483.196 418.165 482.763 417.807 482.468C417.444 482.197 417.057 482.051 416.646 482.031C416.23 482.034 415.763 482.151 415.244 482.383C414.734 482.629 414.124 482.991 413.415 483.471C412.638 483.998 412.011 484.481 411.534 484.923C411.067 485.379 410.73 485.836 410.523 486.294C410.311 486.775 410.237 487.282 410.3 487.816C410.359 488.373 410.53 489.023 410.814 489.766L410.036 490.292L407.616 486.054Z" fill="white"/>
<path d="M396.772 500.283L402.535 497.075C402.452 496.349 402.368 495.707 402.284 495.151C402.208 494.608 402.136 494.14 402.067 493.745C401.983 493.358 401.899 493.037 401.814 492.783C401.729 492.529 401.646 492.329 401.566 492.186C401.342 491.783 401.056 491.574 400.709 491.56C400.37 491.56 399.898 491.729 399.294 492.065L398.837 491.245L404.082 488.325L404.539 489.145C404.232 489.373 403.983 489.586 403.793 489.786C403.589 489.995 403.436 490.211 403.335 490.437C403.221 490.671 403.154 490.924 403.137 491.198C403.113 491.494 403.121 491.829 403.16 492.203L405.371 509.379L404.443 509.896L392.765 500.45C391.986 499.829 391.338 499.342 390.821 498.988C390.312 498.65 389.874 498.422 389.507 498.306C389.141 498.189 388.808 498.167 388.509 498.24C388.196 498.32 387.852 498.464 387.478 498.672L387.009 497.831L394.046 493.913L394.514 494.755C393.752 495.179 393.266 495.544 393.059 495.848C392.851 496.152 392.839 496.47 393.024 496.801C393.104 496.944 393.183 497.07 393.262 497.177C393.348 497.298 393.453 497.419 393.576 497.539C393.685 497.667 393.824 497.797 393.992 497.93C394.153 498.085 394.353 498.257 394.59 498.445L396.772 500.283ZM402.705 498.394L397.783 501.134L403.724 506.168L402.705 498.394Z" fill="white"/>
<path d="M376.615 506.725L377.002 518.288C377.024 518.945 377.06 519.452 377.111 519.808C377.161 520.164 377.243 520.47 377.357 520.726C377.538 521.132 377.793 521.361 378.122 521.413C378.437 521.471 378.932 521.35 379.61 521.049L379.991 521.906L374.507 524.347L374.125 523.489C374.451 523.29 374.725 523.096 374.947 522.907C375.155 522.725 375.326 522.522 375.461 522.3C375.582 522.084 375.667 521.83 375.717 521.537C375.759 521.266 375.777 520.943 375.772 520.566L375.249 502.926L376.039 502.574L388.119 514.044C388.516 514.408 388.886 514.713 389.229 514.956C389.556 515.207 389.88 515.388 390.2 515.498C390.519 515.608 390.845 515.652 391.178 515.63C391.511 515.608 391.879 515.525 392.284 515.381L392.676 516.262L385.318 519.536L384.926 518.656C385.347 518.468 385.683 518.292 385.934 518.126C386.177 517.982 386.353 517.832 386.463 517.674C386.58 517.532 386.642 517.387 386.649 517.24C386.655 517.093 386.625 516.944 386.558 516.794C386.464 516.583 386.316 516.352 386.114 516.099C385.918 515.862 385.598 515.527 385.153 515.094L376.615 506.725Z" fill="white"/>
<path d="M358.935 530.141C357.56 530.598 356.198 530.781 354.849 530.691C353.5 530.602 352.248 530.28 351.092 529.727C349.937 529.174 348.919 528.41 348.04 527.435C347.161 526.46 346.501 525.309 346.059 523.98C345.639 522.714 345.502 521.441 345.649 520.16C345.78 518.884 346.146 517.686 346.746 516.567C347.351 515.464 348.167 514.472 349.194 513.593C350.226 512.73 351.422 512.072 352.782 511.62C354.141 511.168 355.493 510.98 356.837 511.054C358.186 511.144 359.433 511.449 360.578 511.971C361.728 512.509 362.746 513.247 363.63 514.185C364.499 515.129 365.144 516.233 365.564 517.499C366.006 518.828 366.166 520.146 366.045 521.453C365.924 522.76 365.566 523.981 364.971 525.116C364.376 526.25 363.566 527.257 362.539 528.137C361.512 529.016 360.311 529.684 358.935 530.141ZM353.21 512.91C352.179 513.252 351.316 513.738 350.623 514.368C349.914 515.003 349.382 515.752 349.027 516.616C348.656 517.486 348.473 518.449 348.477 519.506C348.487 520.579 348.689 521.709 349.084 522.897C349.499 524.148 350.029 525.221 350.674 526.117C351.324 527.029 352.055 527.741 352.867 528.252C353.684 528.779 354.569 529.092 355.522 529.192C356.481 529.308 357.475 529.194 358.507 528.851C359.539 528.509 360.404 528.004 361.102 527.338C361.806 526.688 362.327 525.907 362.667 524.996C363.011 524.101 363.171 523.093 363.146 521.973C363.126 520.869 362.909 519.692 362.493 518.442C362.099 517.254 361.584 516.227 360.95 515.362C360.32 514.513 359.605 513.848 358.803 513.368C358.002 512.888 357.127 512.606 356.179 512.522C355.231 512.438 354.242 512.567 353.21 512.91Z" fill="white"/>
<path d="M326.185 533.749C325.894 532.464 326.037 531.308 326.615 530.282C327.193 529.256 328.293 528.407 329.914 527.736L323.136 522.534C322.583 522.102 322.021 521.824 321.453 521.7C320.872 521.595 320.207 521.568 319.459 521.62L319.251 520.704L323.901 519.65L331.519 525.878C331.789 526.103 332.039 526.275 332.269 526.392C332.482 526.512 332.702 526.589 332.929 526.622C333.143 526.675 333.389 526.678 333.666 526.632C333.93 526.606 334.247 526.551 334.616 526.468L333.48 521.456C333.346 520.862 333.202 520.379 333.051 520.008C332.887 519.657 332.669 519.403 332.397 519.245C332.108 519.091 331.738 519.022 331.286 519.04C330.822 519.078 330.228 519.179 329.506 519.343L329.298 518.427L337.803 516.5L338.01 517.415C337.452 517.559 337.013 517.709 336.694 517.865C336.359 518.026 336.117 518.224 335.968 518.461C335.819 518.697 335.752 518.999 335.768 519.367C335.784 519.735 335.855 520.2 335.983 520.762L338.527 531.99C338.655 532.552 338.789 532.994 338.93 533.317C339.058 533.66 339.232 533.907 339.453 534.06C339.661 534.232 339.932 534.314 340.268 534.306C340.608 534.313 341.038 534.275 341.559 534.19L341.767 535.106L334.202 536.82C331.985 537.323 330.182 537.301 328.791 536.755C327.385 536.212 326.516 535.21 326.185 533.749ZM334.889 527.672L333.179 528.06C331.572 528.424 330.449 528.982 329.809 529.735C329.157 530.508 328.984 531.569 329.29 532.918C329.584 534.219 330.109 535.08 330.863 535.5C331.6 535.924 332.628 535.987 333.945 535.688L336.162 535.186C336.435 535.124 336.54 534.956 336.478 534.683L334.889 527.672Z" fill="white"/>
<path d="M316.137 527.017L315.232 527.145C315.014 526.427 314.709 525.796 314.317 525.252C313.908 524.711 313.439 524.27 312.908 523.929C312.362 523.59 311.763 523.35 311.111 523.208C310.445 523.086 309.745 523.076 309.011 523.179C307.804 523.349 306.89 523.769 306.269 524.438C305.648 525.107 305.407 525.931 305.544 526.91C305.601 527.318 305.728 527.682 305.922 528.004C306.101 528.328 306.375 528.622 306.745 528.886C307.117 529.167 307.602 529.423 308.2 529.655C308.782 529.889 309.514 530.127 310.396 530.369C311.469 530.667 312.377 530.972 313.119 531.283C313.861 531.595 314.467 531.942 314.937 532.325C315.407 532.708 315.766 533.132 316.014 533.596C316.248 534.078 316.41 534.638 316.499 535.274C316.605 536.024 316.572 536.735 316.4 537.408C316.212 538.083 315.906 538.683 315.481 539.209C315.058 539.751 314.529 540.191 313.895 540.529C313.263 540.884 312.548 541.118 311.748 541.23C311.031 541.331 310.346 541.311 309.694 541.17C309.042 541.029 308.363 540.75 307.656 540.334L307.175 541.524L306.612 541.603L305.658 536.773L306.564 536.646C307.143 537.928 307.854 538.842 308.696 539.389C309.521 539.939 310.456 540.14 311.5 539.993C312.495 539.853 313.251 539.497 313.769 538.926C314.288 538.354 314.488 537.652 314.372 536.82C314.317 536.429 314.201 536.079 314.025 535.771C313.85 535.48 313.596 535.208 313.261 534.956C312.929 534.72 312.505 534.488 311.991 534.261C311.479 534.05 310.851 533.839 310.106 533.628C308.823 533.259 307.749 532.895 306.884 532.534C306.02 532.19 305.319 531.815 304.779 531.408C304.242 531.018 303.839 530.576 303.57 530.081C303.303 529.603 303.125 529.046 303.036 528.41C302.921 527.595 302.979 526.821 303.209 526.091C303.439 525.36 303.813 524.708 304.331 524.137C304.849 523.565 305.497 523.083 306.273 522.691C307.052 522.316 307.931 522.059 308.909 521.921C309.839 521.791 310.697 521.803 311.484 521.959C312.255 522.116 313.067 522.451 313.92 522.963L314.437 521.668L314.999 521.589L316.137 527.017Z" fill="white"/>
<path d="M281.907 529.835C282.401 529.82 282.882 529.905 283.348 530.089C283.799 530.273 284.201 530.525 284.557 530.844C284.896 531.18 285.18 531.575 285.408 532.03C285.619 532.485 285.732 532.976 285.748 533.503C285.763 534.029 285.679 534.518 285.494 534.968C285.294 535.436 285.026 535.839 284.69 536.178C284.354 536.534 283.959 536.818 283.504 537.029C283.032 537.241 282.533 537.354 282.006 537.37C281.496 537.385 281.016 537.3 280.565 537.116C280.099 536.932 279.687 536.672 279.331 536.337C278.976 536.018 278.693 535.631 278.481 535.175C278.271 534.737 278.158 534.254 278.142 533.727C278.127 533.201 278.219 532.703 278.419 532.236C278.603 531.769 278.863 531.358 279.198 531.002C279.534 530.663 279.938 530.387 280.41 530.176C280.865 529.964 281.364 529.851 281.907 529.835Z" fill="white"/>
</svg>
