<?xml version="1.0" encoding="utf-8"?>
<!-- Generator: Adobe Illustrator 23.1.0, SVG Export Plug-In . SVG Version: 6.00 Build 0)  -->
<svg version="1.1" id="Layer_1" xmlns="http://www.w3.org/2000/svg" xmlns:xlink="http://www.w3.org/1999/xlink" x="0px" y="0px"
	 viewBox="0 0 74.7 86" style="enable-background:new 0 0 74.7 86;" xml:space="preserve">
<style type="text/css">
	.st0{fill:#FFC107;}
</style>
<g>
	<g id="XMLID_17755_">
		<g id="XMLID_17764_">
			<path class="st0" d="M4.8,45.4c0.1,0,0.1,0.5,0.2,1.4c0,0.2,0,0.5,0.1,0.8c0,0.3,0.1,0.6,0.1,0.9c0.1,0.7,0.2,1.4,0.3,2.3
				c0,0.3,0.1,0.6,0.2,0.9c0.1,0.3,0.1,0.6,0.2,1c0.1,0.3,0.2,0.7,0.3,1c0.1,0.2,0.1,0.3,0.1,0.5c0.1,0.2,0.1,0.4,0.1,0.5
				c0,0.4,0.2,0.7,0.4,1.1C7,56.2,7.2,56.6,7.2,57c0.1,0.4,0.3,0.8,0.4,1.2C7.8,58.6,8,59,8.3,59.4c0.2,0.4,0.4,0.8,0.6,1.2
				c0.2,0.4,0.5,0.8,0.8,1.2c0.2,0.2,0.3,0.4,0.5,0.6c0.1,0.2,0.2,0.4,0.4,0.7c0.1,0.1,0.1,0.2,0.2,0.3c0.1,0.1,0.1,0.2,0.2,0.3
				c0.1,0.2,0.3,0.4,0.6,0.6c0.1,0.1,0.2,0.2,0.3,0.3c0.1,0.1,0.2,0.2,0.3,0.3c0.2,0.2,0.4,0.4,0.5,0.6c0.2,0.2,0.4,0.4,0.5,0.6
				s0.4,0.4,0.6,0.6c0.1,0.3,0.3,0.4,0.5,0.7c0.2,0.2,0.4,0.4,0.6,0.6c0.4,0.4,0.9,0.7,1.4,1.1c0.8,0.9,1.8,1.6,3,2.1
				c0.2,0.2,0.5,0.5,0.7,0.7c0.3,0.2,0.5,0.4,0.8,0.5c0.1,0.1,0.3,0.2,0.4,0.2c0.1,0.1,0.3,0.1,0.5,0.2c0.3,0.1,0.6,0.2,1,0.3
				c0.3,0.1,0.6,0.3,0.9,0.4c0.3,0.1,0.6,0.3,0.9,0.4c0.6,0.3,1.2,0.5,1.9,0.7c1.3,0.4,2.6,0.8,4,1.2c0.7,0,1.4,0.2,2.1,0.3
				c0.3,0.1,0.7,0.2,1.1,0.2c0.3,0.1,0.7,0.2,1.1,0.3c1.5-0.1,2.9,0.2,4.4,0.3c0.2,0,0.4,0,0.6,0c0.2,0,0.4,0,0.6,0
				c0.4,0,0.8-0.1,1.1-0.1c0.8-0.1,1.5-0.2,2.3-0.2c0.8-0.1,1.5-0.2,2.3-0.3c0.8-0.2,1.5-0.3,2.3-0.4c0.8-0.1,1.6-0.3,2.4-0.5
				c0.4-0.1,0.8-0.2,1.2-0.4l0.3-0.1c0.1,0,0.2-0.1,0.3-0.1c0.2-0.1,0.4-0.2,0.5-0.3c1.5-0.6,3-1.3,4.5-2c1.3-1,2.8-1.8,4.2-2.7
				c1.3-1,2.7-2,3.8-3.4c0.2-0.2,0.3-0.3,0.4-0.5c0.2-0.2,0.3-0.3,0.4-0.5c0.3-0.3,0.5-0.7,0.8-1c0.3-0.3,0.5-0.7,0.8-1
				c0.1-0.2,0.3-0.3,0.4-0.5c0.1-0.2,0.3-0.3,0.4-0.5c1-1.4,1.9-2.9,2.4-4.6c0.1-0.4,0.3-0.8,0.4-1.2c0.1-0.2,0.2-0.4,0.2-0.6
				l0.2-0.6l0.2-0.6c0-0.1,0.1-0.2,0.1-0.3l0.1-0.3c0.1-0.4,0.2-0.8,0.3-1.2c0.2-0.4,0.2-0.8,0.3-1.2c0-0.2,0.1-0.4,0.1-0.6l0.1-0.6
				c0-0.4,0.1-0.8,0.1-1.3c0-0.4,0.1-0.8,0.1-1.2c0-0.2,0-0.4,0-0.6l0-0.6l0-0.2v-0.1v0l0-0.1c0,0,0-0.1,0-0.1c0,0-0.1,0-0.1,0h-0.1
				h-0.3c-0.4,0-0.8,0-1.3,0c-1.7,0-3.3,0.1-4.9,0c-1.6,0.4-3.2-0.1-4.8,0c-1.6-0.2-3.1,0-4.7,0c-1.5,0.1-3-0.2-4.5,0
				c-1.5,0-3,0.1-4.4,0c-1.4,0.2-2.8-0.2-4.2,0c-1.4,0-2.7,0-4.1,0c-1.3-0.3-2.6,0-3.9,0c-1.3,0-2.5,0.2-3.7,0c-1.2,0-2.4-0.2-3.5,0
				c-1.1,0-2.2-0.4-3.3,0c-1.1,0.1-2.1-0.3-3.1,0c-1,0.2-2,0-2.9,0c-0.9,0-1.8,0-2.6,0c-3.8-0.1-6.8-0.1-8.8-0.2
				C5.9,45.6,4.8,45.5,4.8,45.4c0-0.1,1.4-0.2,3.8-0.3s6.1-0.2,10.7-0.2c0.9,0,1.9-0.2,2.9,0c1,0,2-0.2,3.1,0c1.1-0.3,2.2,0,3.3,0
				c1.1,0,2.3,0.1,3.5,0c1.2-0.2,2.4,0.1,3.7,0c1.3,0.2,2.6,0.1,3.9,0c1.3,0.2,2.7,0,4.1,0c1.4,0.3,2.8,0.1,4.2,0
				c1.4-0.1,2.9,0,4.4,0c1.5,0,3-0.1,4.5,0c1.5-0.1,3.1-0.2,4.7,0c1.6-0.1,3.2,0,4.8,0c1.6-0.1,3.3,0,4.9,0c0.4,0,0.8,0,1.3,0l0.2,0
				h0.1h0.1l0.6,0c0.4,0,0.7,0,1.1,0c0,0,0,0,0,0v0v0v0.1l0,0.1l0,0.3l0,0.6l0,0.6l0,0.4c0,0.2,0,0.4,0,0.7c0,0.2,0,0.4,0,0.7
				c0,0.4-0.1,0.9-0.1,1.3c-0.1,0.4-0.1,0.9-0.2,1.3l-0.1,0.7l-0.1,0.7c-0.1,0.4-0.2,0.9-0.2,1.3c-0.4,1.7-1,3.4-1.6,5.1
				c-0.2,0.4-0.5,0.8-0.7,1.2c-0.1,0.2-0.2,0.4-0.3,0.6c-0.1,0.2-0.2,0.4-0.3,0.6c-0.1,0.2-0.2,0.4-0.3,0.6L70.4,62l-0.3,0.6
				c-0.1,0.2-0.2,0.4-0.3,0.6l-0.4,0.6c-0.1,0.2-0.2,0.4-0.4,0.6c-0.3,0.4-0.5,0.7-0.8,1.1c-0.3,0.3-0.6,0.7-0.9,1
				c-0.2,0.2-0.3,0.3-0.5,0.5l-0.5,0.5c-1.2,1.3-2.6,2.5-4,3.6c-1.4,1.1-3,1.9-4.5,2.8c-0.4,0.2-0.8,0.4-1.2,0.6
				c-0.4,0.2-0.8,0.3-1.2,0.5c-0.4,0.2-0.8,0.3-1.2,0.4l-0.6,0.2c-0.2,0.1-0.4,0.2-0.6,0.2C53,76,52.8,76,52.6,76.1l-0.3,0.1
				L52,76.3c-0.4,0.1-0.8,0.3-1.2,0.4c-0.8,0.2-1.6,0.4-2.5,0.5c-0.8,0.2-1.6,0.3-2.4,0.4c-0.8,0.1-1.6,0.2-2.4,0.4
				c-0.8,0.1-1.6,0.2-2.4,0.3c-0.4,0-0.8,0-1.2,0c-0.2,0-0.4,0-0.6-0.1c-0.2,0-0.4-0.1-0.6-0.1c-1.6,0.1-3.1-0.3-4.6-0.3
				c-0.4-0.1-0.7-0.2-1.1-0.3s-0.7-0.1-1.1-0.2c-0.7-0.1-1.5-0.2-2.2-0.3c-1.4-0.4-2.8-0.9-4.1-1.2c-0.7-0.2-1.3-0.4-2-0.7
				c-0.3-0.1-0.6-0.3-0.9-0.5s-0.6-0.3-0.9-0.4c-0.3-0.1-0.6-0.3-0.9-0.4c-0.1-0.1-0.3-0.2-0.4-0.3s-0.3-0.2-0.4-0.3
				c-0.3-0.2-0.5-0.4-0.8-0.5s-0.5-0.3-0.9-0.5c-1.1-0.7-2.1-1.4-3.1-2.2c-0.6-0.3-1.1-0.7-1.5-1.1c-0.2-0.2-0.4-0.5-0.6-0.7
				s-0.4-0.4-0.6-0.7c-0.2-0.2-0.4-0.4-0.6-0.6c-0.2-0.2-0.4-0.4-0.6-0.6s-0.4-0.4-0.6-0.6c-0.1-0.1-0.2-0.2-0.2-0.3
				c-0.1-0.1-0.1-0.3-0.2-0.4c-0.2-0.2-0.4-0.4-0.6-0.6c-0.1-0.1-0.2-0.2-0.3-0.3s-0.1-0.2-0.2-0.3c-0.1-0.2-0.3-0.5-0.4-0.7
				c-0.1-0.2-0.2-0.5-0.3-0.7c-0.2-0.5-0.5-0.9-0.8-1.3c-0.2-0.4-0.5-0.8-0.6-1.3c-0.3-0.4-0.4-0.8-0.6-1.2
				c-0.2-0.4-0.2-0.9-0.4-1.3c-0.2-0.8-0.5-1.6-0.7-2.3c-0.1-0.2-0.1-0.4-0.2-0.5S5.4,54,5.4,53.9c-0.1-0.4-0.2-0.7-0.2-1
				c-0.1-0.3-0.1-0.7-0.2-1c-0.1-0.3-0.1-0.6-0.1-0.9c-0.1-0.9-0.2-1.7-0.2-2.3c0-0.3,0-0.7,0-0.9c0-0.3,0-0.5,0-0.8
				C4.7,45.9,4.7,45.4,4.8,45.4z"/>
		</g>
		<g id="XMLID_17763_">
			<path class="st0" d="M4.8,45.4c0.1,0,0.1,0.4,0.2,1.2c0,0.2,0,0.4,0.1,0.7c0,0.2,0.1,0.5,0.1,0.8s0.1,0.6,0.1,0.9
				s0.1,0.7,0.2,1.1c0,0.3,0.1,0.5,0.1,0.8c0,0.2,0.1,0.5,0.1,0.7c0,0.1,0,0.2,0.1,0.3c0,0,0,0,0,0h0h0.1c0.1,0,0.1,0,0.2,0
				s0.1,0,0.2,0c0.1,0,0.1,0,0.2,0c0.2,0,0.3,0,0.5,0c0.7,0.1,1.4-0.3,2.1,0c0.7,0.1,1.5,0,2.3,0c0.8,0,1.6,0.1,2.5,0
				c0.9-0.3,1.8,0.3,2.7,0c0.9-0.1,1.9,0,2.9,0c1,0.2,2,0,3,0c1,0.3,2.1,0.1,3.2,0c1.1,0.3,2.2,0.3,3.4,0c1.1,0,2.3,0.1,3.5,0
				c1.2,0,2.4-0.1,3.7,0c1.2-0.2,2.5-0.2,3.8,0c1.3-0.3,2.6-0.2,3.9,0c1.3,0.1,2.7-0.2,4,0c1.4,0,2.7-0.1,4.1,0
				c1.4,0.1,2.8,0.2,4.3,0c1.4-0.1,2.9-0.1,4.3,0c1.5-0.3,2.9-0.2,4.4,0c1.5,0,3,0.1,4.5,0c0.8,0,1.5,0,2.3,0c0.3,0,0.6,0,0.8,0
				c0,0,0.1,0,0.1,0c0,0,0,0,0,0c0,0,0.1-0.2,0.1-0.4c0-0.2,0.1-0.4,0.1-0.5c0.1-0.4,0.1-0.7,0.2-1.1c0.1-0.4,0.1-0.7,0.1-1.1
				c0-0.4,0-0.7,0-1.1c0-0.2,0-0.4,0-0.6v0l0,0l0,0v0v0c0,0,0,0,0,0c0,0,0,0,0,0c0,0,0,0,0,0l0,0l0,0h0h-0.1l-0.1,0l-0.6,0
				c-0.4,0-0.8,0-1.1,0c-1.5-0.3-3,0.1-4.4,0c-1.5,0-2.9-0.1-4.3,0c-1.4,0-2.8,0.1-4.3,0c-1.4,0.4-2.8-0.1-4.1,0c-1.4-0.2-2.7,0-4,0
				c-1.3,0.1-2.6-0.2-3.9,0c-1.3,0-2.5,0.1-3.8,0c-1.2,0.2-2.5-0.2-3.7,0c-1.2,0-2.4,0-3.5,0c-1.1-0.3-2.3,0-3.4,0
				c-1.1,0-2.1,0.2-3.2,0c-1,0-2-0.2-3,0c-1,0-1.9-0.4-2.9,0c-0.9,0.1-1.8-0.3-2.7,0c-0.9,0.2-1.7,0-2.5,0c-0.8,0-1.6,0-2.3,0
				c-3.3-0.1-5.8-0.1-7.6-0.2C5.8,45.6,4.8,45.5,4.8,45.4c0-0.1,1.2-0.2,3.3-0.3c2.1-0.1,5.3-0.2,9.3-0.2c0.8,0,1.6-0.2,2.5,0
				c0.9,0,1.8-0.2,2.7,0c0.9-0.3,1.9,0,2.9,0c1,0,2,0.1,3,0c1-0.2,2.1,0.1,3.2,0c1.1,0.2,2.2,0.1,3.4,0c1.1,0.2,2.3,0,3.5,0
				c1.2,0.3,2.4,0.1,3.7,0c1.2-0.1,2.5,0,3.8,0c1.3,0,2.6-0.1,3.9,0c1.3-0.1,2.7-0.2,4,0c1.4-0.1,2.7,0,4.1,0c1.4-0.1,2.8,0,4.3,0
				c1.4,0,2.9,0.3,4.3,0c1.5,0,2.9,0,4.4,0c0.4,0,0.8,0,1.1,0l0.6,0c0.3,0,0.6,0,0.9,0c0.3,0,0.7,0,1,0h0.1h0h0v0v0.1V45l0,0.5
				c0,0.3,0,0.7,0,1l0,0.6c-0.1,0.4-0.2,0.8-0.2,1.2c-0.1,0.4-0.1,0.8-0.1,1.2s-0.1,0.8-0.1,1.2c0,0.2,0,0.4-0.1,0.6
				c0,0.2,0,0.3-0.1,0.8c-0.1,0.4-0.1,0.7-0.2,1.1c0,0,0,0.1,0,0.1h-0.1h-0.3l-0.6,0c-0.3,0-0.6,0-0.9,0h-0.6c-0.8,0-1.5,0-2.3,0
				c-1.5,0-3,0-4.5,0c-1.5,0.1-3-0.1-4.4,0c-1.5,0.1-2.9-0.1-4.3,0c-1.4,0.1-2.8,0.1-4.3,0c-1.4,0-2.8-0.3-4.1,0c-1.4,0-2.7,0.4-4,0
				c-1.3,0.1-2.6-0.2-3.9,0c-1.3-0.3-2.5,0-3.8,0c-1.2,0-2.5-0.2-3.7,0c-1.2,0.1-2.4-0.1-3.5,0c-1.1,0.2-2.3-0.2-3.4,0
				c-1.1,0-2.2,0-3.2,0c-1,0.4-2,0-3,0c-1,0-1.9,0.3-2.9,0c-0.9,0.3-1.8,0-2.7,0c-0.9-0.1-1.7,0.1-2.5,0c-0.8,0.2-1.6-0.1-2.3,0
				c-0.7-0.1-1.4,0-2.1,0c-0.2,0-0.3,0-0.5,0c-0.1,0-0.2,0-0.3,0c-0.1,0-0.2,0-0.3,0c-0.1,0-0.2,0-0.3,0l-0.2,0H5.1c0,0,0,0,0,0l0,0
				c0-0.2-0.1-0.4-0.1-0.6c-0.1-0.3-0.1-0.7-0.1-1c0-0.3-0.1-0.5-0.1-0.8c0-0.4-0.1-0.7-0.1-1.1s0-0.7,0-1c0-0.3,0-0.6,0-0.8
				c0-0.3,0-0.5,0-0.7C4.7,45.9,4.7,45.4,4.8,45.4z"/>
		</g>
		<g id="XMLID_17762_">
			<path class="st0" d="M26.3,75.5c0.1,0,0.2,0.8,0.3,2.2c0,0.2,0,0.5,0,0.8c0,0.3,0.1,0.6,0,0.9c-0.1,0.3,0.3,0.6,0,1
				c-0.1,0.3,0,0.7,0,1.1c0,0.4-0.1,0.8,0,1.2c0.3,0.4-0.3,0.8,0,1.3l0,0.1l0,0l0,0.1c0,0,0,0.1,0,0.1c0,0.1,0,0.1,0,0.2
				c0,0,0.1,0,0.1,0c0,0.1,0.2,0.1,0.3,0.1c0.2,0,0.5-0.1,0.7-0.1c0.5,0.3,1,0.1,1.5,0c0.5,0.3,1,0.3,1.6,0c0.5,0,1.1,0.1,1.7,0
				c0.6,0,1.1-0.1,1.7,0c0.6-0.2,1.2-0.2,1.8,0c0.6-0.3,1.2-0.2,1.9,0c0.6,0.1,1.3-0.2,1.9,0c0.7,0,1.3-0.1,2,0c0.7,0.1,1.3,0.2,2,0
				c0.7-0.1,1.4-0.1,2.1,0c0.7-0.3,1.4-0.2,2.1,0c0.7,0,1.4,0.1,2.1,0c0.3,0,0.7,0,1,0c0,0,0,0,0.1,0c0,0,0,0,0,0c0,0,0,0,0.1-0.1
				l0,0l0,0c0,0,0,0,0,0c0-0.1,0-0.2,0-0.3c0-0.4,0-0.7-0.1-1.1c-0.2-0.7,0.1-1.4,0-2.2c0.3-0.7-0.1-1.4,0-2.1c0-0.7,0.1-1.4,0-2.1
				c0-0.3,0-0.5,0-0.8c0.3,0.3,0.6,0.6,0.9,0.9c-0.1,0-0.2,0-0.3,0h-0.2h-0.1h0c0,0,0,0,0,0c0,0,0,0,0,0c0,0,0,0-0.1,0
				c-0.1,0-0.2,0-0.3,0.1c-0.3,0.3-0.6,0.3-0.9,0.4c-0.3,0-0.7,0-1,0.1c-0.7,0-1.3,0.3-1.9,0.4c-0.3,0.1-0.6,0.1-1,0.1
				s-0.6,0.1-0.9,0.2c-0.6,0.1-1.2,0.3-1.8,0.2C43.5,78,43.2,78,42.9,78c-0.2,0-0.3,0-0.4,0c-0.2,0-0.3,0-0.4,0.1
				c-0.6,0-1.1,0.1-1.7,0.1c-0.6-0.3-1.1,0-1.6,0c-0.5-0.1-1,0.2-1.5-0.1c-0.3,0-0.5-0.1-0.7-0.1c-0.1,0-0.2,0-0.4,0
				c-0.1,0-0.2,0-0.4,0c-0.5,0-0.9-0.5-1.4-0.2c-0.5,0-0.8-0.4-1.3-0.2c-0.5,0.2-0.8-0.2-1.2-0.2c-0.2,0-0.4-0.1-0.5-0.1
				c-0.2,0-0.4-0.1-0.5-0.1c-0.4-0.1-0.7-0.2-1.1-0.3c-0.3-0.1-0.6-0.2-0.9-0.3c-0.6-0.2-1.1-0.4-1.5-0.5c-0.2-0.1-0.4-0.2-0.5-0.2
				c-0.1,0-0.3,0-0.4-0.1C26.3,75.6,26.2,75.5,26.3,75.5c0-0.1,0.1-0.1,0.4-0.1c0.1,0,0.1,0,0.2,0c0,0,0.1,0,0.1,0c0,0,0.1,0,0.2,0
				c0.2,0,0.4,0.1,0.7,0.1c1,0.2,2.5,0.5,4.3,0.8c0.4,0.1,0.8-0.1,1.2,0.2c0.4,0.1,0.8-0.1,1.3,0.1c0.5-0.2,0.9,0,1.3,0.1
				c0.1,0,0.2,0,0.3,0c0.1,0,0.2,0,0.3,0c0.2,0,0.5,0,0.7,0c0.5-0.1,1,0.1,1.5,0c0.5,0.2,1,0.1,1.6,0c0.5,0.2,1.1-0.1,1.6-0.1
				c0.1,0.1,0.3,0.1,0.4,0.1c0.1,0,0.3,0,0.4,0c0.3-0.1,0.6-0.2,0.8-0.2c0.6-0.2,1.2-0.1,1.8-0.3c0.3,0,0.6-0.1,0.9-0.2
				c0.3-0.1,0.6-0.1,0.9-0.2c0.6-0.3,1.2-0.4,1.8-0.4c0.3-0.1,0.6-0.2,0.9-0.3c0.3-0.1,0.6-0.2,0.9-0.3c0.1,0,0.2-0.1,0.3-0.1
				c0,0,0.2-0.1,0.2-0.1l0.1,0c0,0,0,0,0.1,0h0.1h0.2H52l0.3,0l0.9,0l0,0.8c0,0.3,0,0.5,0,0.8c0,0.7-0.3,1.4,0,2.1
				c0,0.7,0,1.4,0,2.1c0,0.7-0.1,1.4,0,2.2C53,83,53,83.3,53,83.7c0,0.1,0,0.2,0,0.3c0,0.2,0,0.3,0,0.5c0,0.3,0.1,0.7,0.1,1.1
				c0,0.1,0,0.3,0,0.4c-0.6,0-1.3,0-1.9,0c-0.3,0-0.7,0-1,0c-0.7,0-1.4,0-2.1,0c-0.7,0.1-1.4-0.1-2.1,0c-0.7,0.1-1.4-0.1-2.1,0
				c-0.7,0.1-1.3,0.1-2,0c-0.7,0-1.3-0.3-2,0c-0.7,0.1-1.3,0.4-1.9,0c-0.6,0.1-1.3-0.2-1.9,0c-0.6-0.3-1.2,0-1.8,0
				c-0.6-0.1-1.2-0.2-1.7,0c-0.6,0.1-1.1-0.1-1.7,0c-0.5,0.2-1.1-0.2-1.6,0c-0.4,0-1,0-1.4,0c-0.3,0.2-0.5,0.2-0.7,0.1
				c-0.2,0-0.4-0.1-0.6-0.1s-0.4-0.1-0.5-0.1c-0.1,0-0.3,0-0.5,0c0-0.3-0.1-0.5-0.1-0.8c0-0.2,0-0.3,0-0.4c0-0.1,0-0.2,0-0.2
				c0,0,0-0.1,0-0.1c0,0,0,0,0-0.1c-0.3-0.4,0-0.9,0-1.3c0.1-0.4-0.1-0.8,0-1.2c-0.2-0.4,0.1-0.7,0-1.1c0.1-0.3,0-0.7,0-1
				c0-0.3,0-0.6,0-0.9c0-0.3,0-0.5,0-0.8C26,76.3,26.1,75.5,26.3,75.5z"/>
		</g>
		<g id="XMLID_17761_">
			<path class="st0" d="M62.2,25c0,0.1-0.4,0.3-1.1,0.6c-0.1,0-0.3,0.1-0.4,0.1c-0.1,0.1-0.3,0.1-0.5,0.2c-0.2-0.1-0.3,0.3-0.5,0.2
				c-0.2,0-0.4,0.1-0.6,0.2c-0.2,0.1-0.4,0-0.6,0.2c-0.1,0.3-0.5-0.2-0.7,0.2c-0.2,0.1-0.5,0.2-0.7,0.2c-0.3-0.1-0.5,0.1-0.7,0.2
				c-0.3-0.2-0.6,0-0.8,0.2c-0.4-0.3-0.6-0.1-0.8,0.3c-0.3,0.1-0.6,0-0.9,0.3c-0.3,0.1-0.6,0.2-0.9,0.3c-0.3,0.3-0.6,0.4-0.9,0.3
				c-0.3,0.3-0.6,0.3-1,0.3c-0.4,0-0.6,0.4-1,0.3c-0.3,0.1-0.7,0.2-1,0.3c-0.4,0-0.8,0-1,0.3c-0.3,0.1-0.7,0.3-1.1,0.3
				c-0.3,0.4-0.7,0.3-1.1,0.3c-0.4,0.1-0.8,0.1-1.1,0.3c-0.4,0.1-0.7,0.3-1.1,0.3c-0.4,0-0.8,0.1-1.1,0.3c-0.3,0.3-0.8,0.1-1.1,0.3
				c-0.4-0.1-0.7,0.3-1.1,0.3c-0.4,0.1-0.8,0.1-1.1,0.3c-0.3,0.1-0.7,0.3-1.1,0.3c-0.3,0.5-0.7,0.1-1,0.3c-0.4-0.1-0.7,0.2-1,0.3
				c-0.3,0.2-0.7,0-1,0.2c-0.3,0.1-0.6,0.3-1,0.2c-0.3,0.3-0.7,0-0.9,0.2c-0.3,0.1-0.6,0.2-0.9,0.2c-0.4-0.2-0.6,0.1-0.8,0.2
				c-0.3,0-0.5,0.3-0.8,0.2c-0.3,0-0.5,0-0.8,0.2c-0.2,0.1-0.6-0.3-0.7,0.2c-0.2,0.1-0.5-0.2-0.7,0.1c-0.1,0.3-0.4,0.1-0.6,0.1
				c-0.2,0-0.4,0.1-0.6,0.1c-1.7,0.3-2.6,0.4-2.7,0.3c0-0.2,1.1-0.6,3-1.3c0.2-0.1,0.4-0.3,0.6-0.2c0.2-0.1,0.4-0.3,0.6-0.2
				c0.2-0.3,0.5-0.2,0.7-0.2c0.2-0.1,0.5-0.1,0.7-0.2c0.2-0.2,0.5-0.1,0.8-0.2c0.3,0.1,0.6,0,0.8-0.3c0.3,0.1,0.6-0.2,0.9-0.3
				c0.4,0.2,0.6-0.1,0.9-0.3c0.3-0.2,0.6-0.1,0.9-0.3c0.3,0,0.6-0.2,1-0.3c0.3-0.2,0.6-0.3,1-0.3c0.3-0.2,0.7-0.2,1-0.3
				c0.3-0.2,0.7-0.2,1-0.3c0.3-0.1,0.8,0.1,1.1-0.3c0.3-0.1,0.7-0.1,1.1-0.3c0.4-0.1,0.8-0.1,1.1-0.3c0.5,0.2,0.8-0.1,1.1-0.3
				c0.4-0.2,0.8-0.2,1.1-0.3c0.4-0.1,0.8-0.2,1.1-0.3c0.3-0.2,0.8-0.1,1.1-0.3c0.3-0.2,0.8-0.1,1.1-0.3c0.3-0.2,0.7-0.3,1.1-0.3
				c0.3-0.1,0.8,0.1,1-0.3c0.3-0.1,0.6-0.5,1-0.3c0.3-0.2,0.7,0,1-0.2c0.4,0.2,0.6-0.2,1-0.2c0.3,0,0.7,0,0.9-0.2
				c0.3-0.2,0.6-0.1,0.9-0.2c0.2-0.2,0.6,0,0.8-0.2c0.3,0,0.5-0.2,0.8-0.2c0.2-0.4,0.5-0.1,0.8-0.2c0.3,0,0.4-0.4,0.7-0.1
				c0.2-0.3,0.4-0.2,0.7-0.1s0.4-0.2,0.6-0.1c0.1-0.3,0.4,0,0.6-0.1c0.2,0.1,0.3-0.1,0.5-0.1c0.2-0.1,0.3-0.1,0.5-0.1
				c0.2,0,0.3,0,0.4-0.1C61.7,24.9,62.2,24.9,62.2,25z"/>
		</g>
		<g id="XMLID_17760_">
			<path class="st0" d="M16,39.7c-0.1,0-0.3,0-0.5-0.3c0,0-0.1-0.1-0.1-0.1c-0.1,0-0.1-0.1-0.1-0.2c0.1-0.1-0.3,0-0.1-0.2
				c0-0.1,0-0.1-0.1-0.2s0-0.2-0.1-0.2c-0.3,0,0.3-0.3-0.1-0.3c-0.1-0.1-0.1-0.2-0.1-0.3c0.2-0.1,0-0.2-0.1-0.3
				c0.2-0.2,0.1-0.2-0.1-0.3c0.3-0.2,0.3-0.3-0.1-0.3c0-0.1,0.1-0.3-0.1-0.4c0-0.1-0.1-0.3,0-0.4c-0.1-0.1-0.2-0.1-0.2-0.2
				s0.1-0.1,0.2-0.2c-0.2-0.2-0.1-0.3,0-0.4c0.2-0.1-0.2-0.3,0.1-0.4c0-0.1,0-0.2,0-0.2c0-0.1,0-0.2,0.1-0.2
				c0.1-0.1,0.3-0.2,0.1-0.5c0-0.2,0-0.3,0.1-0.4c-0.1-0.1-0.1-0.2-0.1-0.3c0-0.1,0.1-0.1,0.2-0.2c0-0.2,0.3-0.2,0.2-0.4
				c0,0,0,0,0,0c0,0,0,0,0,0c0,0,0-0.1,0-0.1c0-0.1,0-0.1,0.1-0.2c0.1-0.1,0.3-0.2,0.1-0.3c-0.1-0.2,0.1-0.2,0.1-0.3
				c0.1,0,0.1-0.1,0.1-0.2c0-0.1-0.1-0.1,0-0.2c0-0.1,0.2-0.2,0.1-0.4c0-0.1-0.1-0.3,0.1-0.4c-0.4-0.1,0.1-0.2,0.1-0.4
				c0.2-0.1,0-0.2,0-0.3c-0.1-0.1,0.2-0.2,0-0.3c0-0.1-0.1-0.2,0-0.3c-0.2-0.1,0.1-0.2,0-0.3c0-0.1,0-0.2,0-0.3c0.3-0.1,0-0.2,0-0.3
				c0-0.1-0.2-0.2,0-0.3c0-0.1,0.1-0.2,0-0.3c-0.1-0.1,0.4-0.3,0-0.3c-0.1-0.1,0.3-0.2,0-0.2c-0.3,0,0-0.1,0-0.2c0-0.1,0-0.1,0-0.2
				c-0.1-0.6-0.1-1,0.1-1c0.2-0.1,0.5,0.3,0.9,1c0,0.1,0.3,0.1,0.1,0.2c0,0.1,0.2,0.1,0.1,0.3c0.3,0,0.1,0.2,0.1,0.3
				c0,0.1,0,0.2,0.1,0.3c0.2,0.1,0,0.2,0.1,0.3c-0.1,0.1-0.1,0.2,0.1,0.3c-0.1,0.1,0.1,0.2,0.1,0.4c-0.2,0.1-0.1,0.3,0.1,0.4
				c0.1,0.1,0,0.3,0,0.4c0,0.1,0.1,0.3,0,0.4c0.1,0.1,0.1,0.3,0,0.4c0.1,0.1,0,0.3,0,0.4c0.1,0.2-0.1,0.3,0,0.5
				c0,0.1-0.1,0.1-0.1,0.2c-0.1,0.1-0.1,0.1,0,0.3c0,0.2-0.1,0.3-0.1,0.5c-0.1,0.1-0.2,0.3-0.2,0.5c-0.3,0-0.2,0.3-0.2,0.5
				c0,0.1,0,0.2-0.1,0.3c0,0,0,0.1-0.1,0.1l0,0l0,0c0,0.1-0.1,0.2-0.2,0.3c0,0.1,0,0.1-0.1,0.2c0,0-0.1,0.1-0.1,0.2
				c0.1,0.2-0.2,0.2-0.1,0.3c0,0.1,0.1,0.3-0.1,0.3c0,0.1-0.1,0.1-0.1,0.2c0,0,0,0.1,0,0.2c0,0.1,0.3,0.3-0.1,0.3
				c0.1,0.1-0.2,0.2,0,0.3c-0.1,0-0.1,0.1-0.1,0.2c0,0,0.1,0.1,0.1,0.2c-0.1,0.1-0.1,0.2,0,0.3c0.1,0.1-0.1,0.2,0,0.3
				c0.2,0.1-0.2,0.2,0,0.3c0,0.1,0.1,0.2,0,0.3c0.4,0,0,0.2,0,0.3c0,0.1,0.3,0.1,0,0.3c0.3,0,0.1,0.1,0,0.2c-0.1,0.1,0.2,0.1,0,0.2
				c0.2,0-0.1,0.2,0,0.2c-0.1,0.1,0,0.1,0,0.2c0.1,0,0.1,0.1,0,0.2c0,0,0,0.1,0,0.2C16.1,39.5,16.1,39.7,16,39.7z"/>
		</g>
		<g id="XMLID_17759_">
			<path class="st0" d="M21.5,39.7c-0.1,0-0.3,0-0.5-0.3c0,0-0.1-0.1-0.1-0.1c0,0-0.1-0.1-0.1-0.2c0.1-0.1-0.3,0-0.1-0.2
				c0-0.1,0-0.1-0.1-0.2s0-0.2-0.1-0.2c-0.3,0,0.3-0.3-0.1-0.3c-0.1-0.1-0.1-0.2-0.1-0.3c0.2-0.1,0-0.2-0.1-0.3
				c0.2-0.2,0.1-0.2-0.1-0.3c0.3-0.2,0.3-0.3-0.1-0.3c0-0.1,0.1-0.3-0.1-0.4c0-0.1-0.1-0.3,0-0.4c-0.1-0.1-0.2-0.1-0.2-0.2
				s0.1-0.1,0.2-0.2c-0.2-0.2-0.1-0.3,0-0.4c0.2-0.1-0.2-0.3,0-0.4c0-0.1,0-0.2,0-0.2c0-0.1,0-0.2,0.1-0.2c0.1-0.1,0.3-0.2,0.1-0.5
				c0-0.2,0-0.3,0.1-0.4c-0.1-0.1-0.1-0.2-0.1-0.3s0.1-0.1,0.2-0.2c0-0.2,0.3-0.2,0.2-0.4c0,0,0,0,0,0c0,0,0,0,0,0c0,0,0-0.1,0-0.1
				c0-0.1,0-0.1,0.1-0.2c0.1-0.1,0.3-0.2,0.1-0.3c-0.1-0.2,0.1-0.2,0.1-0.3c0.1,0,0.1-0.1,0.1-0.2c0-0.1-0.1-0.1,0-0.2
				c0-0.1,0.2-0.2,0.1-0.4c0-0.1-0.1-0.3,0.1-0.4c-0.4-0.1,0.1-0.2,0-0.4c0.2-0.1,0-0.2,0-0.3c-0.1-0.1,0.2-0.2,0-0.3
				c0-0.1-0.1-0.2,0-0.3c-0.2-0.1,0.1-0.2,0-0.3c0-0.1,0-0.2,0-0.3c0.3-0.1,0-0.2,0-0.3c0-0.1-0.2-0.2,0-0.3c0-0.1,0.1-0.2,0-0.3
				c-0.1-0.1,0.4-0.3,0-0.3c-0.1-0.1,0.3-0.2,0-0.2c-0.3,0,0-0.1,0-0.2c0-0.1,0-0.1,0-0.2c0-0.6-0.1-1,0.1-1c0.2-0.1,0.5,0.3,0.9,1
				c0,0.1,0.3,0.1,0.1,0.2c0,0.1,0.2,0.1,0.1,0.3c0.3,0,0.1,0.2,0.1,0.3c0,0.1,0,0.2,0.1,0.3c0.2,0.1,0,0.2,0.1,0.3
				c-0.1,0.1-0.1,0.2,0.1,0.3C22.7,28.8,23,28.9,23,29c-0.2,0.1-0.1,0.3,0,0.4c0.1,0.1,0,0.3,0,0.4c0,0.1,0.1,0.3,0,0.4
				c0.1,0.1,0.1,0.3,0,0.4c0.1,0.1,0,0.3,0,0.4c0.1,0.2-0.1,0.3,0,0.5c0,0.1-0.1,0.1-0.1,0.2c-0.1,0.1-0.1,0.1,0,0.3
				c0,0.2-0.1,0.3-0.1,0.5c-0.1,0.1-0.2,0.3-0.2,0.5c-0.3,0-0.2,0.3-0.2,0.5c0,0.1,0,0.2-0.1,0.3c0,0,0,0.1-0.1,0.1l0,0l0,0
				c0,0.1-0.1,0.2-0.2,0.3c0,0.1,0,0.1-0.1,0.2s-0.1,0.1-0.1,0.2c0.1,0.2-0.2,0.2-0.1,0.3c0,0.1,0.1,0.3-0.1,0.3
				c0,0.1-0.1,0.1-0.1,0.2c0,0,0,0.1,0,0.2c0,0.1,0.3,0.3-0.1,0.3c0.1,0.1-0.2,0.2,0,0.3c-0.1,0-0.1,0.1-0.1,0.2
				c0,0,0.1,0.1,0.1,0.2c0,0.1-0.1,0.2,0,0.3c0.1,0.1-0.1,0.2,0,0.3c0.2,0.1-0.2,0.2,0,0.3c0,0.1,0,0.2,0,0.3c0.4,0,0,0.2,0,0.3
				c0,0.1,0.3,0.1,0,0.3c0.3,0,0.1,0.1,0,0.2c-0.1,0.1,0.2,0.1,0,0.2c0.2,0-0.1,0.2,0,0.2c-0.1,0.1,0,0.1,0,0.2c0.1,0,0.1,0.1,0,0.2
				c0,0,0,0.1,0,0.2C21.6,39.5,21.6,39.7,21.5,39.7z"/>
		</g>
		<g id="XMLID_17758_">
			<path class="st0" d="M27,39.7c-0.1,0-0.3,0-0.5-0.3c0,0-0.1-0.1-0.1-0.1c0,0-0.1-0.1-0.1-0.2c0.1-0.1-0.3,0-0.1-0.2
				c0-0.1,0-0.1-0.1-0.2s0-0.2-0.1-0.2c-0.3,0,0.3-0.3-0.1-0.3c-0.1-0.1-0.1-0.2-0.1-0.3c0.2-0.1,0-0.2-0.1-0.3
				c0.2-0.2,0.1-0.2-0.1-0.3c0.3-0.2,0.3-0.3-0.1-0.3c0-0.1,0.1-0.3-0.1-0.4c0-0.1-0.1-0.3,0-0.4c-0.1-0.1-0.2-0.1-0.2-0.2
				s0.1-0.1,0.2-0.2c-0.2-0.2-0.1-0.3,0-0.4c0.2-0.1-0.2-0.3,0-0.4c0-0.1,0-0.2,0-0.2c0-0.1,0-0.2,0.1-0.2c0.1-0.1,0.3-0.2,0.1-0.5
				c0-0.2,0-0.3,0.1-0.4c-0.1-0.1-0.1-0.2-0.1-0.3s0.1-0.1,0.2-0.2c0-0.2,0.3-0.2,0.2-0.4c0,0,0,0,0,0c0,0,0,0,0,0c0,0,0-0.1,0-0.1
				c0-0.1,0-0.1,0.1-0.2c0.1-0.1,0.3-0.2,0.1-0.3c-0.1-0.2,0.1-0.2,0.1-0.3c0.1,0,0.1-0.1,0.1-0.2c0-0.1-0.1-0.1,0-0.2
				c0-0.1,0.2-0.2,0.1-0.4c0-0.1-0.1-0.3,0.1-0.4c-0.4-0.1,0.1-0.2,0-0.4c0.2-0.1,0-0.2,0-0.3c-0.1-0.1,0.2-0.2,0-0.3
				c0-0.1-0.1-0.2,0-0.3c-0.2-0.1,0.1-0.2,0-0.3c0-0.1,0-0.2,0-0.3c0.3-0.1,0-0.2,0-0.3c0-0.1-0.2-0.2,0-0.3c0-0.1,0.1-0.2,0-0.3
				c-0.1-0.1,0.4-0.3,0-0.3c-0.1-0.1,0.3-0.2,0-0.2c-0.3,0,0-0.1,0-0.2c0-0.1,0-0.1,0-0.2c0-0.6-0.1-1,0.1-1c0.2-0.1,0.5,0.3,0.9,1
				c0,0.1,0.3,0.1,0.1,0.2c0,0.1,0.2,0.1,0.1,0.3c0.3,0,0.1,0.2,0.1,0.3c0,0.1,0,0.2,0.1,0.3c0.2,0.1,0,0.2,0.1,0.3
				c-0.1,0.1-0.1,0.2,0.1,0.3c-0.1,0.1,0.1,0.2,0.1,0.4c-0.2,0.1-0.1,0.3,0,0.4c0.1,0.1,0,0.3,0,0.4c0,0.1,0.1,0.3,0,0.4
				c0.1,0.1,0.1,0.3,0,0.4c0.1,0.1,0,0.3,0,0.4c0.1,0.2-0.1,0.3,0,0.5c0,0.1-0.1,0.1-0.1,0.2c-0.1,0.1-0.1,0.1,0,0.3
				c0,0.2-0.1,0.3-0.1,0.5c-0.1,0.1-0.2,0.3-0.2,0.5c-0.3,0-0.2,0.3-0.2,0.5c0,0.1,0,0.2-0.1,0.3c0,0,0,0.1-0.1,0.1l0,0l0,0
				c0,0.1-0.1,0.2-0.2,0.3c0,0.1,0,0.1-0.1,0.2s-0.1,0.1-0.1,0.2c0.1,0.2-0.2,0.2-0.1,0.3c0,0.1,0.1,0.3-0.1,0.3
				c0,0.1-0.1,0.1-0.1,0.2c0,0-0.1,0.1,0,0.2c0,0.1,0.3,0.3-0.1,0.3c0.1,0.1-0.2,0.2,0,0.3c-0.1,0-0.1,0.1-0.1,0.2
				c0,0,0.1,0.1,0.1,0.2c0,0.1-0.1,0.2,0,0.3c0.1,0.1-0.1,0.2,0,0.3c0.2,0.1-0.2,0.2,0,0.3c0,0.1,0,0.2,0,0.3c0.4,0,0,0.2,0,0.3
				c0,0.1,0.3,0.1,0,0.3c0.3,0,0.1,0.1,0,0.2c-0.1,0.1,0.2,0.1,0,0.2c0.2,0-0.1,0.2,0,0.2c-0.1,0.1,0,0.1,0,0.2c0.1,0,0.1,0.1,0,0.2
				c0,0,0,0.1,0,0.2C27.1,39.5,27,39.7,27,39.7z"/>
		</g>
		<g id="XMLID_17757_">
			<path class="st0" d="M32.5,39.7c-0.1,0-0.3,0-0.5-0.3c0,0-0.1-0.1-0.1-0.1c0,0-0.1-0.1-0.1-0.2c0.1-0.1-0.3,0-0.1-0.2
				c0-0.1,0-0.1-0.1-0.2s0-0.2-0.1-0.2c-0.3,0,0.3-0.3-0.1-0.3c-0.1-0.1-0.1-0.2-0.1-0.3c0.2-0.1,0-0.2-0.1-0.3
				c0.2-0.2,0.1-0.2-0.1-0.3c0.3-0.2,0.3-0.3-0.1-0.3c0-0.1,0.1-0.3-0.1-0.4c0-0.1-0.1-0.3,0-0.4c-0.1-0.1-0.2-0.1-0.2-0.2
				s0.1-0.1,0.2-0.2c-0.2-0.2-0.1-0.3,0-0.4c0.2-0.1-0.2-0.3,0-0.4c0-0.1,0-0.2,0-0.2c0-0.1,0-0.2,0.1-0.2c0.1-0.1,0.3-0.2,0.1-0.5
				c0-0.2,0-0.3,0.1-0.4c-0.1-0.1-0.1-0.2-0.1-0.3c0-0.1,0.1-0.1,0.2-0.2c0-0.2,0.3-0.2,0.2-0.4c0,0,0,0,0,0c0,0,0,0,0,0
				c0,0,0-0.1,0-0.1c0-0.1,0-0.1,0.1-0.2c0.1-0.1,0.3-0.2,0.1-0.3c-0.1-0.2,0.2-0.2,0.1-0.3c0.1,0,0.1-0.1,0.1-0.2
				c0-0.1-0.1-0.1,0-0.2c0-0.1,0.2-0.2,0.1-0.4c0-0.1-0.1-0.3,0.1-0.4c-0.4-0.1,0.1-0.2,0-0.4c0.2-0.1,0-0.2,0-0.3
				c-0.1-0.1,0.2-0.2,0-0.3c0-0.1-0.1-0.2,0-0.3c-0.2-0.1,0.1-0.2,0-0.3c0-0.1,0-0.2,0-0.3c0.3-0.1,0-0.2,0-0.3c0-0.1-0.2-0.2,0-0.3
				c0-0.1,0.1-0.2,0-0.3c-0.1-0.1,0.4-0.3,0-0.3c-0.1-0.1,0.3-0.2,0-0.2c-0.3,0,0-0.1,0-0.2c0-0.1,0-0.1,0-0.2c0-0.6-0.1-1,0.1-1
				c0.2-0.1,0.5,0.3,0.8,1c0,0.1,0.3,0.1,0.1,0.2c0,0.1,0.2,0.1,0.1,0.3c0.3,0,0.1,0.2,0.1,0.3c0,0.1,0,0.2,0.1,0.3
				c0.2,0.1,0,0.2,0.1,0.3c-0.2,0.1-0.1,0.2,0.1,0.3c-0.2,0.1,0.1,0.2,0.1,0.4c-0.2,0.1-0.1,0.3,0.1,0.4c0.1,0.1,0,0.3,0,0.4
				c0,0.1,0.1,0.3,0,0.4c0.1,0.1,0.2,0.3,0,0.4c0.1,0.1,0,0.3,0,0.4c0.1,0.2-0.1,0.3,0,0.5c0,0.1-0.1,0.1-0.1,0.2
				c-0.1,0.1-0.1,0.1,0,0.3c0,0.2-0.1,0.3-0.1,0.5c-0.1,0.1-0.2,0.3-0.2,0.5c-0.3,0-0.2,0.3-0.2,0.5c0,0.1,0,0.2-0.1,0.3
				c0,0,0,0.1-0.1,0.1l0,0l0,0c0,0.1-0.1,0.2-0.2,0.3c0,0.1,0,0.1-0.1,0.2s-0.1,0.1,0,0.2c0.1,0.2-0.2,0.2-0.1,0.3
				c0,0.1,0.1,0.3-0.1,0.3c0,0.1-0.1,0.1-0.1,0.2c0,0-0.1,0.1,0,0.2c0,0.1,0.3,0.3-0.1,0.3c0.1,0.1-0.2,0.2,0,0.3
				c-0.2,0-0.2,0.1-0.1,0.2c0,0,0.1,0.1,0.1,0.2c0,0.1-0.2,0.2,0,0.3c0.1,0.1-0.1,0.2,0,0.3c0.2,0.1-0.2,0.2,0,0.3
				c0,0.1,0,0.2,0,0.3c0.4,0,0,0.2,0,0.3c0,0.1,0.3,0.1,0,0.3c0.3,0,0.1,0.1,0,0.2c-0.1,0.1,0.2,0.1,0,0.2c0.2,0-0.1,0.2,0,0.2
				c-0.1,0.1,0,0.1,0,0.2c0.1,0,0.1,0.1,0,0.2c0,0,0,0.1,0,0.2C32.6,39.5,32.5,39.7,32.5,39.7z"/>
		</g>
		<g id="XMLID_17756_">
			<path class="st0" d="M0,0.6c0.1-0.1,0.4,0.3,0.9,0.9C1,1.6,1.1,1.7,1.1,1.9C1.3,2,1.4,2.1,1.4,2.2c0,0.2,0.4,0.2,0.3,0.4
				c0,0.2,0.2,0.3,0.3,0.5c0.1,0.1,0.1,0.4,0.4,0.5c0.3,0.1,0,0.5,0.4,0.6C3,4.5,3.1,4.7,3.2,4.9c0,0.3,0.3,0.4,0.4,0.7
				C3.5,5.9,3.8,6.1,4,6.3C3.9,6.7,4.1,6.9,4.5,7C4.7,7.2,4.7,7.6,5,7.8C5.2,8,5.4,8.2,5.5,8.6C5.8,8.7,6,9,6,9.4
				c0.4,0.2,0.5,0.5,0.5,0.9C6.6,10.6,7,10.7,7,11.1c0.2,0.3,0.4,0.6,0.6,0.9c0.1,0.4,0.2,0.7,0.6,0.9c0.2,0.3,0.5,0.6,0.6,1
				c0.4,0.2,0.5,0.6,0.6,1c0.2,0.3,0.3,0.7,0.6,1c0.2,0.4,0.5,0.6,0.6,1c0.1,0.4,0.3,0.8,0.6,1c0.3,0.3,0.3,0.7,0.6,1
				c0,0.5,0.4,0.6,0.6,1c0.2,0.3,0.3,0.7,0.6,1c0.2,0.3,0.4,0.6,0.5,1c0.5,0.1,0.3,0.7,0.5,0.9c0,0.4,0.4,0.6,0.5,0.9
				c0.2,0.3,0.2,0.7,0.5,0.9c0.1,0.3,0.4,0.5,0.5,0.9c0.3,0.2,0.2,0.6,0.4,0.8c0.1,0.3,0.3,0.5,0.4,0.8c-0.1,0.4,0.3,0.5,0.4,0.8
				c0.1,0.3,0.4,0.4,0.4,0.7c0.1,0.2,0.1,0.5,0.4,0.7c0.2,0.2-0.1,0.6,0.3,0.6c0.2,0.2,0,0.6,0.3,0.6c0.3,0.1,0.2,0.4,0.3,0.6
				s0.2,0.4,0.3,0.5c0.7,1.5,1.1,2.4,1,2.5c-0.1,0.1-0.9-0.9-2-2.6c-0.1-0.2-0.4-0.3-0.4-0.5c-0.1-0.2-0.4-0.3-0.4-0.6
				c-0.4-0.1-0.3-0.4-0.4-0.6c-0.1-0.2-0.2-0.5-0.4-0.7c-0.3-0.1-0.2-0.5-0.4-0.7c0-0.3-0.2-0.6-0.5-0.7c0-0.3-0.3-0.5-0.5-0.8
				c0.1-0.4-0.3-0.6-0.5-0.8c-0.2-0.2-0.3-0.6-0.5-0.8c-0.1-0.3-0.4-0.5-0.5-0.9c-0.3-0.2-0.5-0.5-0.5-0.9c-0.3-0.3-0.4-0.6-0.6-0.9
				c-0.3-0.3-0.4-0.6-0.6-0.9c-0.2-0.3-0.1-0.8-0.6-1c-0.2-0.3-0.3-0.7-0.6-1c-0.2-0.4-0.3-0.7-0.6-1c0-0.5-0.3-0.7-0.6-1
				c-0.3-0.3-0.4-0.7-0.6-1c-0.2-0.3-0.4-0.7-0.6-1c-0.3-0.3-0.3-0.7-0.6-1c-0.3-0.3-0.3-0.7-0.6-1c-0.3-0.3-0.5-0.6-0.5-1
				C6,12.6,6,12.1,5.6,11.9C5.4,11.7,5,11.5,5.1,11c-0.3-0.3-0.2-0.7-0.5-0.9c0.1-0.4-0.3-0.6-0.5-0.9C4.1,9,4,8.7,3.7,8.5
				C3.5,8.3,3.5,7.9,3.3,7.7C3,7.5,3.2,7.1,2.9,6.9C2.8,6.7,2.6,6.4,2.5,6.2c-0.5,0-0.3-0.5-0.4-0.7C2.1,5.3,1.7,5.2,1.8,4.8
				C1.5,4.8,1.6,4.5,1.5,4.2S1.2,3.9,1.2,3.7C1,3.6,1.1,3.3,1,3.1c0-0.2-0.2-0.3-0.2-0.5C0.6,2.5,0.6,2.4,0.6,2.2
				C0.5,2.1,0.4,1.9,0.4,1.8C0.1,1.1-0.1,0.7,0,0.6z"/>
		</g>
	</g>
</g>
</svg>
