<?xml version="1.0" encoding="utf-8"?>
<!-- Generator: Adobe Illustrator 23.1.0, SVG Export Plug-In . SVG Version: 6.00 Build 0)  -->
<svg version="1.1" id="Layer_1" xmlns="http://www.w3.org/2000/svg" xmlns:xlink="http://www.w3.org/1999/xlink" x="0px" y="0px"
	 viewBox="0 0 84.3 56.3" style="enable-background:new 0 0 84.3 56.3;" xml:space="preserve">
<style type="text/css">
	.st0{fill:#FFFFFF;}
</style>
<g>
	<g id="XMLID_17951_">
		<g id="XMLID_17995_">
			<path class="st0" d="M0,51.7c-0.1-0.1-0.1-0.2,0-0.4v-0.1v-0.1c0.1,0.1-0.1-0.2,0-0.1c0.1,0,0.1,0,0.1-0.1s0.1,0,0.1-0.1
				C0,50.6,0.5,51,0.3,50.7c0-0.1,0-0.1,0.1-0.1c0.2,0.1,0.1-0.1,0.1-0.1c0.2,0.1,0.2,0,0.1-0.1c0.3,0.2,0.3,0.1,0.1-0.1
				c0,0,0.2,0,0.1-0.2c0-0.1,0-0.2,0.1-0.2c-0.1-0.2-0.1-0.3,0.1-0.2c-0.1-0.2,0-0.2,0.1-0.2S1,49.2,1.2,49.3c0.1,0,0.1-0.1,0.1-0.2
				c0.1,0,0.3,0,0.1-0.2c0-0.1,0-0.2,0.1-0.2c-0.1-0.2,0-0.2,0.1-0.2c0-0.1,0.2,0,0.2-0.2c0.1,0,0-0.2,0.2-0.2c0.1,0,0.2,0,0.2-0.2
				c0,0.1,0.2,0.2,0.2,0.1c0.2,0.1,0-0.2,0.2-0.2c0-0.1,0.2,0,0.2-0.2c0-0.1,0-0.2,0.2-0.1c-0.2-0.3,0.2,0,0.2-0.1
				c0.2,0.1,0.1-0.1,0.2-0.1c0-0.1,0.2,0,0.2-0.1c0.1,0,0-0.2,0.2-0.1C3.7,46.9,4,47.1,4,47c0,0,0.1-0.1,0.2-0.1
				c0.3,0.2,0.1,0,0.1-0.1c0.1,0,0-0.2,0.1-0.1c0.1,0,0.2,0,0.1-0.1c0-0.1,0.4,0.2,0.1-0.1c0-0.1,0.3,0.2,0.1-0.1
				c-0.1-0.2,0.1,0,0.1-0.1s0.1,0,0.1,0c0.3-0.1,0.6-0.2,0.7-0.1c0.1,0.1,0.1,0.4-0.1,0.8c0,0,0.1,0.2-0.1,0.1c0,0,0.1,0.2-0.1,0.1
				c0.2,0.2,0,0.1-0.1,0.1c0,0-0.1,0-0.1,0.1c0.1,0.2-0.1,0-0.1,0.1c-0.2-0.1-0.2,0-0.1,0.1c-0.2-0.1-0.1,0.1-0.1,0.2
				c-0.2-0.1-0.1,0-0.1,0.2s-0.1,0.1-0.1,0.2c-0.1,0-0.1,0.1-0.1,0.2c0,0.1,0,0.2-0.1,0.2c0,0.1-0.1,0.1-0.1,0.2
				c0,0.1-0.1,0.1-0.1,0.2c0,0.1-0.3-0.1-0.2,0.2c0,0.1-0.1,0.1-0.2,0.2c-0.1,0-0.2,0.1-0.2,0.2c-0.3-0.1-0.2,0-0.2,0.2
				c0,0.1-0.1,0.1-0.2,0.2c0,0.1-0.1,0.1-0.2,0.2c0,0.1-0.2,0-0.2,0.2c0,0.1-0.2,0-0.2,0.2c0,0.1,0,0.2-0.2,0.1c0,0-0.3-0.1-0.2,0.1
				c0,0.1,0.2,0.4-0.2,0.1c0,0.1-0.2,0-0.2,0.1c-0.3-0.2-0.1,0.1-0.1,0.1c-0.1,0-0.2,0-0.1,0.1c0,0.1-0.1,0-0.1,0.1
				c0.1,0.2-0.2-0.1-0.1,0.1c-0.1,0-0.1,0.1-0.1,0.1c0.2,0.3-0.1,0.1-0.1,0.1c-0.1,0,0.1,0.3-0.1,0.1c0.2,0.2,0,0.1-0.1,0.1
				s0,0.2-0.1,0.1c0.1,0.2-0.1,0-0.1,0c-0.1-0.1-0.1,0-0.1,0s0,0.1-0.1,0H0.5C0.2,51.7,0.1,51.7,0,51.7z"/>
		</g>
		<g id="XMLID_17994_">
			<path class="st0" d="M42.8,8.8c-0.1-0.1-0.1-0.2,0-0.4V8.3V8.2c0.1,0.1-0.1-0.2,0-0.1c0.1,0,0.1-0.1,0-0.1c0-0.1,0.1,0,0.1-0.1
				C42.7,7.7,43.2,8,43,7.8c0-0.1,0-0.1,0.1-0.1c0.2,0.1,0.1-0.1,0.1-0.1c0.2,0.1,0.2,0,0.1-0.1c0.3,0.2,0.3,0.1,0.1-0.1
				c0-0.1,0.2,0,0.1-0.1c0-0.1,0-0.2,0.1-0.2c-0.1-0.2-0.1-0.2,0.1-0.2c-0.1-0.2,0-0.2,0.1-0.2c0.1,0.1-0.1-0.3,0.1-0.2
				C44,6.5,44,6.4,44,6.3c0.1,0,0.3,0.1,0.1-0.2c0-0.1,0-0.2,0.2-0.2c-0.1-0.2,0-0.2,0.2-0.2c0-0.1,0.2,0,0.2-0.2
				c0.1,0,0-0.2,0.2-0.2c0.1,0,0.2,0,0.2-0.2C45,4.9,45.3,5,45.3,4.9c0.2,0.1,0-0.2,0.2-0.2c0-0.1,0.2,0,0.2-0.2
				c0-0.1,0-0.2,0.2-0.1c-0.2-0.3,0.2,0,0.2-0.1C46,4.7,45.9,4.5,46,4.5c0-0.1,0.2,0,0.2-0.1c0.1,0,0-0.2,0.2-0.1
				c-0.1-0.2,0.2,0,0.2-0.1c0,0,0.1-0.1,0.2-0.1c0.3,0.2,0.1,0,0.1-0.1c0.1,0,0-0.2,0.1-0.1c0,0,0.2,0,0.1-0.1
				c0-0.1,0.4,0.2,0.1-0.1c0-0.1,0.3,0.2,0.1-0.1c-0.1-0.2,0.1,0,0.1-0.1h0.1c0.3-0.1,0.6-0.2,0.7-0.1c0.1,0.1,0.1,0.4-0.1,0.8
				c0,0,0.1,0.2-0.1,0.1c0,0,0,0.2-0.1,0.1c0.2,0.2,0,0.1-0.1,0.1c0,0-0.1,0-0.1,0.1c0.1,0.2-0.1,0-0.1,0.1c-0.2-0.1-0.2,0-0.1,0.1
				c-0.2-0.1-0.1,0.1-0.1,0.2c-0.2-0.1-0.1,0-0.1,0.2c0,0.1-0.1,0.1-0.1,0.2c-0.1,0,0,0.1-0.1,0.2c0,0.1,0,0.2-0.1,0.2
				c0,0.1-0.1,0.1-0.1,0.2s-0.1,0.1-0.1,0.2s-0.3-0.1-0.2,0.2c0,0.1-0.1,0.1-0.2,0.2c-0.1,0-0.2,0.1-0.2,0.2C45.9,6.7,46,6.8,46,7
				c0,0.1-0.1,0.1-0.2,0.2c0,0.1-0.1,0.1-0.1,0.2s-0.2,0-0.2,0.2s-0.2,0-0.2,0.2c0,0.1,0,0.2-0.2,0.1c0,0.1-0.3-0.1-0.2,0.1
				c0,0.1,0.2,0.4-0.2,0.1c0,0.1-0.2,0-0.2,0.1c0-0.4,0.2-0.2,0.1-0.2c-0.1,0-0.2,0-0.2,0.1s-0.1,0-0.2,0.1c0.1,0.1-0.2-0.1-0.1,0.1
				C44,8.3,44,8.4,44,8.4c0.2,0.3-0.1,0.1-0.1,0.1c-0.1,0,0.1,0.3-0.1,0.1c0.2,0.2,0,0.1-0.1,0.1s0,0.1-0.1,0.1
				c0.1,0.2-0.1,0-0.1,0.1c-0.1-0.1-0.1,0.1-0.1,0c0,0.1,0,0.1-0.1,0h-0.1C43,8.9,42.8,8.9,42.8,8.8z"/>
		</g>
		<g id="XMLID_17993_">
			<path class="st0" d="M39.6,5.6L39.6,5.6c-0.1,0-0.2,0-0.2-0.1s-0.1,0-0.2-0.1c-0.1-0.1-0.3-0.1-0.4-0.1s-0.3-0.1-0.6-0.1
				c-0.1,0-0.3,0-0.4,0.1c-0.2,0.1-0.3,0.1-0.5,0.2h-0.1l-0.1,0.1c0,0,0,0.1-0.1,0.1c0,0-0.1,0.1-0.1,0c0,0-0.1,0-0.1,0.1l-0.1,0.1
				c-0.1,0.1-0.1,0.2-0.2,0.3C36.3,6.6,36,6.7,35.9,7c0,0.4-0.6,0.2-0.6,0.6C35.2,7.8,35,8,34.7,8.2c-0.4,0.1-0.5,0.4-0.7,0.7
				c-0.4,0.1-0.6,0.4-0.7,0.7c-0.5,0-0.7,0.3-0.7,0.8c-0.3,0.3-0.6,0.4-0.8,0.8c-0.2,0.3-0.5,0.6-0.7,0.8c0,0.2,0,0.3,0,0.4
				c0,0.1-0.1,0.2-0.2,0.3c0.1,0.1,0.2,0.3,0.2,0.4s0,0.3,0,0.4c0,0.1,0,0.1,0.1,0.2c0,0,0.1,0,0.1,0.1s0,0,0.1,0.1
				c0.2,0.1,0.4,0.2,0.4,0.5c0.3,0.3,0.6,0.6,0.9,0.9c0.2,0.4,0.5,0.8,1,0.9c0.4,0.3,0.8,0.5,1,1c0.5,0.1,0.8,0.5,1,1
				c0.4,0.3,0.6,0.8,1,1c0.3,0.4,0.8,0.6,1,1c0.1,0.1,0.2,0.3,0.3,0.3c0.1,0.1,0.3,0.1,0.5,0s0.3-0.1,0.4-0.1c0.1,0,0.3,0,0.4-0.1
				h0.1h0.1c0,0,0,0,0.1-0.1l0.1-0.1c0.1-0.2,0.3-0.4,0.5-0.5c0.3-0.3,0.8-0.5,1-1c0.3-0.4,0.6-0.7,1-0.9c0-0.6,0.7-0.5,0.9-0.9
				c0.4-0.2,0.6-0.6,0.9-0.9c0.3-0.4,0.7-0.5,0.9-0.9c0.2-0.1,0.3-0.3,0.4-0.4c0.1-0.1,0.2-0.2,0.3-0.3c0-0.2,0.1-0.2,0.1-0.4
				c0-0.1,0.1-0.1,0.1-0.2c0-0.1,0-0.1,0-0.2c0-0.1,0-0.3-0.1-0.4c0-0.1-0.1-0.2-0.1-0.4c0.1-0.2,0-0.3-0.1-0.4
				c-0.1-0.1-0.3-0.2-0.4-0.3c-0.2-0.3-0.6-0.4-0.7-0.7c-0.2-0.3-0.3-0.6-0.7-0.7c-0.3-0.2-0.1-0.7-0.6-0.7
				c-0.3-0.2-0.2-0.6-0.6-0.6c-0.4,0-0.4-0.4-0.5-0.6c-0.2-0.2-0.3-0.4-0.5-0.5C40.2,6.7,39.5,5.7,39.6,5.6s1.3,0.8,3.2,2.5
				c0.2,0.2,0.5,0.2,0.6,0.5c0.2,0.2,0.5,0.3,0.6,0.6c0.4,0,0.5,0.4,0.7,0.6c0.2,0.2,0.4,0.5,0.7,0.6s0.4,0.5,0.7,0.7
				c0.1,0.2,0.2,0.3,0.3,0.4c0.2,0.1,0.3,0.3,0.5,0.5c0.1,0.3,0.2,0.5,0.3,0.7s0.2,0.5,0.2,0.7c-0.1,0.3-0.2,0.5-0.2,0.7
				c0,0.3-0.1,0.5-0.1,0.8c-0.1,0.3-0.3,0.5-0.5,0.7c-0.2,0.1-0.3,0.3-0.4,0.4c-0.3,0.3-0.5,0.6-0.9,0.9c-0.2,0.4-0.5,0.7-0.9,0.9
				c-0.3,0.4-0.6,0.6-0.9,0.9c-0.2,0.4-0.6,0.6-0.9,1c-0.3,0.4-0.8,0.5-1,1c-0.2,0.2-0.3,0.3-0.5,0.5L41,21.3l-0.2,0.2
				c-0.1,0.1-0.1,0.1-0.2,0.2c-0.1,0-0.1,0.1-0.2,0.1c-0.3,0.2-0.6,0.3-0.9,0.3s-0.7,0.1-1,0.1c-0.3-0.2-0.6-0.3-0.9-0.4
				c-0.3-0.1-0.6-0.3-0.9-0.5c-0.4-0.3-0.7-0.7-1-1c-0.4-0.3-0.7-0.7-1-1c-0.4-0.3-0.6-0.8-1-1s-0.6-0.7-1-1s-0.7-0.5-0.9-1
				c-0.3-0.3-0.4-0.8-0.9-0.9c-0.2-0.1-0.4-0.2-0.6-0.3L30.2,15c0,0-0.1-0.1-0.1-0.2C30,14.7,30,14.5,30,14.3
				c-0.2-0.2-0.3-0.5-0.3-0.8s0-0.6-0.1-0.8c0.1-0.3,0.2-0.5,0.3-0.8c0-0.3,0.1-0.5,0.3-0.7c0.2-0.2,0.4-0.4,0.5-0.5
				s0.3-0.3,0.4-0.4c0.2-0.4,0.6-0.5,0.8-0.8c0.1-0.4,0.7-0.4,0.8-0.7c0.3-0.2,0.5-0.5,0.7-0.7c0-0.5,0.5-0.5,0.7-0.7
				c0.3-0.2,0.3-0.6,0.7-0.6c0-0.4,0.4-0.4,0.6-0.6c0.3-0.1,0.3-0.5,0.6-0.5c0-0.2,0.1-0.2,0.2-0.3c0.1,0,0.1-0.1,0.2-0.1
				c0,0,0.1-0.1,0.2-0.1c0.1,0,0.1-0.1,0.2-0.1C36.9,5.1,36.9,5,37,5c0,0,0.1-0.1,0.2-0.1c0.1,0,0.1-0.1,0.2-0.1
				c0.2-0.1,0.5-0.2,0.7-0.1c0.2,0,0.4,0,0.6,0C38.5,4.8,38.8,4.9,39,5s0.3,0.2,0.4,0.3c0,0.1,0.1,0.1,0.1,0.1
				C39.5,5.5,39.5,5.5,39.6,5.6L39.6,5.6z"/>
		</g>
		<g id="XMLID_17992_">
			<path class="st0" d="M34,17.6c0,0-0.2,0-0.4-0.1c-0.1-0.1-0.2-0.1-0.4-0.2s-0.3-0.2-0.5-0.3c-0.1-0.1-0.3-0.1-0.4-0.2
				c-0.1,0-0.2-0.1-0.2-0.1c-0.1,0-0.2-0.1-0.2-0.1c-0.1-0.2-0.4,0.1-0.5-0.2c-0.1-0.1-0.2-0.1-0.3-0.1c-0.1,0-0.2,0-0.3,0
				c-0.2,0-0.4-0.2-0.7-0.1c-0.1,0.1-0.2,0-0.4-0.1c-0.1-0.1-0.2-0.1-0.4,0c-0.1,0-0.3,0-0.4,0s-0.3,0-0.4,0c-0.1-0.1-0.3-0.1-0.4,0
				c-0.1,0.1-0.3,0.1-0.4,0.2c-0.3-0.2-0.6,0-0.8,0.3c-0.1-0.1-0.2-0.1-0.3-0.1c-0.1,0-0.2,0-0.2,0c-0.1,0.1-0.2,0.2-0.3,0.4
				C26,17,25.8,17,25.7,17.1c-0.1,0-0.1,0.1-0.2,0.1s-0.1,0.1-0.1,0.2c-0.1,0.1-0.2,0.2-0.4,0.3c-0.1,0.1-0.2,0.2-0.4,0.3
				c0,0.2-0.1,0.4-0.2,0.5c0,0.1-0.1,0.1-0.2,0.2s-0.1,0.1-0.2,0.1c0,0.4-0.2,0.6-0.5,0.9c-0.1,0.1-0.2,0.3-0.2,0.5s0,0.4-0.2,0.5
				v0.1v0.1c0,0.1,0,0.2,0,0.3c0,0.2,0,0.4-0.1,0.5c0,0.1-0.1,0.2-0.1,0.3c0,0.1,0,0.2-0.1,0.3c0,0.1,0,0.2,0,0.3
				c0,0.1,0.1,0.2,0.1,0.3c0,0.2,0.1,0.4,0.1,0.5c0,0.2,0,0.4,0,0.6c0.3,0.3,0.3,0.7,0.4,1.1c0,0.1,0.1,0.2,0.1,0.3s0.1,0.2,0.1,0.3
				c0.1,0.2,0.2,0.4,0.3,0.5c0.1,0.2,0.2,0.3,0.4,0.5c0.1,0.1,0.3,0.3,0.4,0.5s0.2,0.3,0.4,0.5c0.1,0.1,0.3,0.2,0.5,0.3
				c0.2,0,0.4,0.1,0.5,0.3c0.1,0.1,0.2,0.1,0.2,0.2s0.2,0.1,0.3,0.1c0.1,0.1,0.1,0.2,0.2,0.2s0.2,0,0.3,0.1h0.1h0.1
				c0.1,0,0.2,0,0.3,0.1c0.2,0,0.4,0.1,0.5,0.1c0.2,0.1,0.4,0.1,0.6,0c0.1,0,0.2,0,0.3,0s0.2,0,0.3,0c0.1,0,0.2,0,0.3,0
				c0.1,0,0.2,0,0.3,0c0.1-0.2,0.3-0.2,0.5-0.2c0.1,0,0.2,0,0.3,0h0.1h0.1c0.2,0,0.4,0,0.5-0.1s0.3-0.2,0.5-0.3
				c0.1-0.1,0.3-0.2,0.5-0.2h0.1c0,0,0.1,0,0.1-0.1c0.1,0,0.1-0.1,0.2-0.2c0.1,0,0.1-0.1,0.2-0.1c0.1-0.1,0.1-0.1,0.2-0.2
				c0.1-0.1,0.1-0.1,0.2-0.2s0.1-0.1,0.2-0.1c0-0.2,0.2-0.3,0.3-0.4s0.3-0.2,0.3-0.4c0-0.1,0.1-0.1,0.1-0.2s0.1-0.1,0.1-0.2
				c0.1-0.1,0.2-0.3,0.3-0.4c0.2-0.1,0.3-0.2,0.3-0.4c0-0.1,0-0.3,0.1-0.5c0.1-0.3,0-0.6,0.3-0.8c0-0.1,0.1-0.3,0.1-0.4
				s0.1-0.3,0-0.4c0-0.1,0.1-0.3,0.2-0.4s0.1-0.3-0.1-0.4c0-0.1,0-0.3,0.1-0.4c0-0.1,0-0.3-0.1-0.4c-0.3-0.2-0.1-0.5-0.1-0.7
				c0,0,0-0.1,0-0.2s0-0.1,0-0.1c0-0.1,0-0.2-0.1-0.3c-0.3-0.9-0.6-1.5-0.9-2C34.1,17.9,34,17.6,34,17.6s0.1,0,0.3,0.1
				c0.1,0,0.2,0.1,0.3,0.2c0,0,0.1,0.1,0.2,0.1c0,0,0.1,0.1,0.2,0.2c0.5,0.5,1.1,1.3,1.5,2.5c0.1,0.2,0.3,0.5,0.2,0.8
				c0,0.1,0.1,0.3,0.1,0.4s0,0.3,0,0.4c0.1,0.1,0.2,0.3,0.1,0.5c0,0.1-0.1,0.3-0.1,0.5s0,0.3-0.1,0.5s0,0.3,0,0.5
				c0.1,0.4-0.2,0.6-0.2,1c-0.1,0.1-0.2,0.3-0.3,0.5s-0.1,0.4-0.1,0.5c-0.2,0.1-0.3,0.3-0.3,0.5c0,0.1-0.1,0.2-0.1,0.3
				c0,0.1-0.1,0.2-0.2,0.3c-0.2,0.1-0.3,0.2-0.5,0.4s-0.2,0.4-0.3,0.5c0,0.1-0.1,0.2-0.2,0.2s-0.2,0.1-0.2,0.2
				c-0.1,0.1-0.2,0.1-0.2,0.2C34,29,33.9,29,33.9,29.1c-0.1,0-0.2,0.1-0.3,0.2l-0.1,0.1l-0.1,0.1c-0.2,0.1-0.3,0.3-0.5,0.3
				c-0.2,0.1-0.3,0.3-0.5,0.4s-0.4,0.1-0.7,0.1c0,0-0.1,0-0.1,0.1c0,0-0.1,0-0.2,0s-0.2,0.1-0.3,0.1c-0.2,0.1-0.5,0.1-0.7,0.1
				c-0.1,0-0.2,0.1-0.3,0.1c-0.1,0-0.2,0-0.4,0s-0.2,0-0.4,0s-0.2,0-0.4,0c-0.2,0-0.5-0.1-0.7-0.1c-0.2-0.1-0.5-0.1-0.7,0
				c-0.5-0.1-0.9-0.3-1.4-0.4L25.8,30c-0.1-0.1-0.2-0.1-0.3-0.2c-0.2-0.1-0.4-0.2-0.7-0.4c-0.1-0.3-0.3-0.4-0.5-0.6
				c-0.2-0.1-0.4-0.3-0.7-0.4c-0.2-0.2-0.4-0.3-0.5-0.5s-0.3-0.4-0.4-0.6s-0.3-0.4-0.4-0.6C22.1,26.3,22,26.2,22,26l-0.1-0.3
				c-0.1-0.1-0.1-0.2-0.1-0.3c0-0.1-0.1-0.2-0.1-0.4v-0.2c0-0.1,0-0.1,0-0.2s-0.1-0.2-0.1-0.3c-0.1-0.2-0.1-0.5-0.1-0.7s0-0.5,0-0.7
				c0-0.1,0-0.2-0.1-0.4s0-0.2,0-0.4c0-0.1,0-0.2,0-0.4c0-0.1,0.1-0.2,0.1-0.3c0-0.2,0.1-0.4,0.2-0.6c0-0.1,0.1-0.2,0.1-0.3
				c0-0.1,0-0.1,0-0.2s0-0.1,0-0.2c0-0.2,0-0.5,0.1-0.7s0.2-0.4,0.4-0.5c0.1-0.2,0.2-0.4,0.4-0.5l0.1-0.1l0.1-0.1
				C23,18.1,23,18,23,17.9c0.1,0,0.2-0.1,0.3-0.2c0.1-0.1,0.1-0.1,0.2-0.2c0.1-0.2,0.2-0.4,0.4-0.5c0.2-0.1,0.3-0.2,0.5-0.3
				s0.3-0.2,0.4-0.4c0.1-0.1,0.1-0.1,0.2-0.2c0.1,0,0.2-0.1,0.3-0.1c0.2-0.1,0.4-0.1,0.5-0.2c0.1-0.1,0.3-0.2,0.5-0.2
				c0.1,0,0.2,0,0.3-0.1s0.2-0.1,0.2-0.1c0.3-0.1,0.7-0.2,1-0.2c0.1-0.2,0.3-0.2,0.5-0.2s0.3,0.1,0.5,0.1s0.3-0.1,0.5-0.1
				s0.3,0,0.5,0.1c0.1-0.1,0.3-0.1,0.4-0.1c0.1,0.1,0.3,0.2,0.4,0.2c0.3,0.1,0.5,0,0.8,0.2c0.1-0.1,0.3,0,0.4,0.1s0.2,0.2,0.3,0.2
				c0.2,0.2,0.4,0.2,0.6,0.3c0.1,0,0.2,0.1,0.3,0.1s0.2,0.1,0.2,0.2c0.2,0.1,0.3,0.2,0.4,0.3c0.2,0.2,0.3,0.3,0.5,0.4
				c0.1,0.1,0.2,0.3,0.3,0.4C34,17.4,34.1,17.5,34,17.6z"/>
		</g>
		<g id="XMLID_17991_">
			<path class="st0" d="M2.2,43L2.2,43C2.1,43,2,43,2,43l-0.1-0.1c-0.2-0.2-0.4-0.5-0.5-1.1c0-0.2,0-0.4,0-0.6c0-0.2,0-0.5,0.1-0.7
				c0.1,0,0.1-0.1,0.1-0.2s0-0.1,0-0.2s0-0.1,0.1-0.2c0-0.1,0.1-0.1,0.2-0.1c0.1,0,0.1-0.1,0.2-0.1l0.1-0.1c0.1-0.1,0.1-0.2,0.2-0.3
				c0.1-0.2,0.4-0.3,0.5-0.6c0-0.4,0.6-0.2,0.6-0.6c0.2-0.3,0.4-0.5,0.6-0.7c0.4-0.1,0.4-0.4,0.7-0.7c0.4,0,0.6-0.4,0.7-0.7
				c0.5,0,0.7-0.3,0.7-0.8c0.3-0.3,0.6-0.4,0.8-0.8c0.1-0.1,0.3-0.3,0.4-0.4c0.1-0.1,0.3-0.3,0.6-0.5C8.3,33,8.9,32.8,9.5,33
				c0.3-0.1,0.6-0.2,0.9-0.1c0.3,0.1,0.5,0.2,0.8,0.4c0.1,0.1,0.2,0.2,0.3,0.3s0.2,0.2,0.4,0.2c0.2,0.1,0.4,0.2,0.4,0.5
				c0.3,0.3,0.6,0.6,0.9,0.9c0.2,0.4,0.5,0.8,1,0.9c0.4,0.3,0.8,0.5,1,1c0.5,0.1,0.8,0.5,1,1c0.4,0.3,0.6,0.8,1,1
				c0.3,0.4,0.8,0.6,1,1c0.2,0.3,0.4,0.6,0.5,0.9s0.2,0.6,0.4,0.9c0.1,0.3,0.1,0.7,0,1s-0.3,0.6-0.4,0.9c-0.1,0.1-0.1,0.1-0.2,0.2
				c-0.1,0.1-0.1,0.1-0.2,0.2c0,0.1-0.1,0.1-0.1,0.2l-0.1,0.1c-0.1,0.2-0.3,0.4-0.5,0.5c-0.3,0.3-0.8,0.5-1,1
				c-0.3,0.3-0.6,0.7-1,0.9c0,0.6-0.7,0.5-0.9,0.9c-0.4,0.2-0.6,0.6-0.9,0.9c-0.3,0.3-0.7,0.5-0.9,0.9c-0.2,0.1-0.3,0.3-0.4,0.5
				c-0.2,0.2-0.4,0.4-0.7,0.4c-0.2,0.2-0.5,0.3-0.7,0.3c-0.3,0-0.5,0-0.8,0s-0.5,0-0.7-0.1S9.1,50.5,9,50.4
				c-0.1-0.3-0.3-0.4-0.5-0.5c-0.1-0.1-0.3-0.2-0.4-0.3c-0.2-0.3-0.6-0.4-0.7-0.7c-0.2-0.3-0.3-0.6-0.7-0.7
				c-0.3-0.2-0.1-0.7-0.6-0.7c-0.3-0.2-0.2-0.6-0.6-0.6S5.1,46.5,5,46.3c-0.2-0.2-0.4-0.4-0.5-0.6C2.8,44.1,2.1,43.2,2.2,43
				c0.1-0.1,1.3,0.8,3.2,2.5C5.6,45.7,5.9,45.7,6,46c0.2,0.2,0.5,0.3,0.6,0.6C7,46.6,7,47,7.2,47.2s0.4,0.5,0.7,0.7
				c0.4,0.1,0.4,0.5,0.7,0.7C8.7,48.8,8.8,48.9,9,49c0.1,0.1,0.2,0.1,0.4,0.1c0.1,0.1,0.2,0.2,0.3,0.2s0.3,0,0.4,0
				c0.1,0.1,0.1,0.1,0.2,0.1c0.1,0,0.1,0,0.2,0c0.1,0,0.2-0.2,0.3-0.3s0.2-0.2,0.3-0.3s0.3-0.3,0.4-0.4c0.3-0.3,0.5-0.6,0.9-0.9
				c0.2-0.4,0.5-0.7,0.9-0.9c0.3-0.4,0.6-0.6,0.9-0.9c0.2-0.4,0.6-0.6,0.9-1c0.3-0.4,0.8-0.5,1-1c0.1-0.2,0.3-0.3,0.5-0.5l0.1-0.1
				l0.1-0.1c0,0,0-0.1,0.1-0.1v-0.1c0.2-0.2,0.3-0.5,0.2-0.8c0.1-0.2,0.1-0.3,0-0.5c-0.1-0.1-0.2-0.2-0.4-0.3c-0.4-0.3-0.7-0.7-1-1
				c-0.4-0.3-0.7-0.7-1-1c-0.4-0.3-0.6-0.8-1-1s-0.6-0.7-1-1s-0.7-0.5-0.9-1c-0.3-0.3-0.4-0.8-0.9-0.9c-0.2-0.1-0.4-0.2-0.6-0.3
				c-0.1,0-0.1,0-0.1-0.1s0,0-0.1-0.1c0,0-0.1-0.1-0.1-0.3c-0.1,0-0.2-0.1-0.4-0.2c-0.1-0.1-0.3-0.1-0.4,0c-0.1-0.1-0.1-0.1-0.2-0.1
				c-0.1,0-0.1,0-0.2,0.1c-0.1,0.1-0.2,0.2-0.3,0.3c-0.1,0-0.1,0-0.2,0.1c-0.1,0-0.1,0.1-0.2,0.2C8,35,7.8,35.2,7.7,35.3
				c-0.2,0.4-0.6,0.5-0.8,0.8c-0.1,0.4-0.7,0.4-0.8,0.7c-0.3,0.2-0.5,0.5-0.7,0.7c0,0.5-0.5,0.5-0.7,0.7c-0.3,0.2-0.3,0.6-0.7,0.6
				c0,0.4-0.4,0.4-0.6,0.6c-0.3,0.1-0.3,0.5-0.6,0.5c0,0.2-0.1,0.2-0.2,0.3c-0.1,0-0.1,0-0.2,0.1l-0.1,0.1c-0.1,0-0.1,0-0.1,0.1
				s-0.1,0.1-0.1,0.1v0.1c0,0,0,0.1-0.1,0.1c0,0.2-0.1,0.3-0.2,0.5c0,0.2,0,0.3-0.1,0.4c0,0.2,0,0.4,0.1,0.6c0,0.2,0.1,0.3,0.1,0.4
				c0,0,0,0.1,0.1,0.2V43C2.2,43,2.2,43,2.2,43z"/>
		</g>
		<g id="XMLID_17967_">
			<path class="st0" d="M14.1,37.5c0,0-0.2,0-0.4-0.2c-0.1-0.1-0.2-0.2-0.4-0.3c-0.1-0.1-0.3-0.3-0.4-0.5c-0.1-0.1-0.2-0.3-0.3-0.4
				c-0.1-0.1-0.1-0.1-0.2-0.2s-0.1-0.2-0.1-0.3c0.1-0.2-0.4-0.3-0.3-0.6c0-0.1-0.1-0.2-0.1-0.3c0,0-0.1-0.1-0.1-0.2
				c0-0.1-0.1-0.1-0.1-0.2c-0.1-0.2-0.1-0.5-0.2-0.8c-0.1-0.1-0.1-0.3-0.1-0.4s0.1-0.3-0.1-0.4c0-0.1-0.1-0.3-0.1-0.4
				c0-0.2,0-0.3,0-0.5c0.1-0.1,0.1-0.3,0.1-0.5s-0.1-0.3,0-0.5c0.3-0.3,0.3-0.6,0.2-1c0.2-0.1,0.3-0.3,0.4-0.4
				c0.1-0.2,0.1-0.4,0-0.6c0.1-0.2,0.2-0.3,0.3-0.5c0.1-0.1,0.1-0.2,0.1-0.2c0.1-0.1,0.1-0.2,0.1-0.3c0.1-0.2,0.2-0.3,0.3-0.5
				s0.3-0.3,0.4-0.4c0-0.1,0.1-0.2,0.1-0.3s0.1-0.2,0.2-0.2s0.2-0.1,0.3-0.2c0.1,0,0.2-0.1,0.3-0.1c0.1-0.1,0.1-0.2,0.2-0.3l0.1-0.1
				l0.1-0.1c0.2-0.1,0.4-0.2,0.6-0.2c0.2,0,0.4-0.2,0.6-0.3c0.2-0.1,0.4-0.2,0.6-0.2h0.2L17,25c0.1,0,0.2-0.1,0.3-0.1
				c0.2-0.1,0.4-0.1,0.7-0.1c0.1,0,0.2,0,0.4,0c0.1,0,0.2,0,0.3,0s0.2,0,0.3,0c0.1,0,0.2,0,0.4-0.1c0.2,0,0.5,0,0.7,0
				s0.5,0.1,0.7,0.2c0.5-0.1,1,0.1,1.4,0.4c0.1,0,0.2,0.1,0.3,0.2c0.1,0.1,0.2,0.1,0.3,0.2c0.2,0.1,0.4,0.3,0.7,0.4
				c0.2,0.2,0.4,0.3,0.6,0.4s0.4,0.3,0.5,0.5s0.3,0.4,0.4,0.6s0.3,0.4,0.5,0.5c0.2,0.2,0.3,0.4,0.4,0.6c0,0.1,0.1,0.2,0.1,0.4
				c0,0.1,0.1,0.2,0.2,0.3c0,0.1,0,0.3,0,0.4s0.1,0.2,0.1,0.3l0.1,0.2c0,0,0,0.1,0.1,0.2c0,0.1,0.1,0.2,0.1,0.4
				c0.1,0.2,0.1,0.5,0.1,0.7s0,0.5,0.1,0.7c0,0.1,0,0.2,0,0.3s0,0.2,0,0.3s0,0.2,0,0.3s-0.1,0.2-0.1,0.3c0.2,0.3,0.1,0.5,0,0.7
				c-0.1,0.1-0.1,0.2-0.2,0.3c0,0,0,0.1-0.1,0.2c0,0,0,0.1,0,0.2c-0.1,0.2-0.2,0.4-0.3,0.6c-0.1,0.2-0.1,0.4-0.2,0.6
				c-0.1,0.2-0.2,0.4-0.4,0.5l-0.1,0.1l-0.1,0.1c-0.1,0.1-0.1,0.2-0.1,0.3c-0.1,0.1-0.1,0.2-0.2,0.3s-0.1,0.2-0.2,0.3
				c-0.1,0.2-0.3,0.3-0.5,0.4c-0.1,0.2-0.3,0.3-0.4,0.4s-0.4,0.2-0.5,0.3s-0.1,0.1-0.2,0.2c-0.1,0-0.2,0.1-0.2,0.2
				c-0.2,0.1-0.3,0.2-0.5,0.3c-0.2,0-0.4,0-0.5,0.1c-0.1,0-0.1,0.1-0.2,0.2c-0.1,0-0.1,0.1-0.2,0.1c-0.3,0.1-0.6,0.4-1,0.2
				c-0.2,0-0.3,0-0.5,0s-0.3,0-0.5,0.1c-0.1,0-0.3-0.1-0.5-0.1c-0.1,0-0.3-0.1-0.4,0.1c-0.1,0-0.3,0-0.4-0.1s-0.3-0.1-0.4,0
				c-0.3,0.2-0.5-0.1-0.8-0.2c-0.1,0-0.1,0-0.2,0s-0.1,0-0.2-0.1c-0.1,0-0.2-0.1-0.3-0.1c-0.9-0.4-1.6-0.9-1.9-1.3
				C14.2,37.8,14.1,37.6,14.1,37.5c0,0,0.1,0,0.3,0.1c0.1,0,0.2,0.1,0.3,0.2c0.1,0,0.1,0.1,0.2,0.1c0.1,0,0.1,0.1,0.2,0.1
				c0.5,0.3,1.3,0.7,2.4,0.9c0.2,0,0.5-0.1,0.7,0.1c0.1,0,0.2,0,0.4,0c0.1,0,0.2,0,0.4,0c0.1-0.1,0.3-0.1,0.4-0.1s0.3,0.1,0.4,0.1
				s0.3,0,0.4,0s0.3,0,0.4-0.1c0.2-0.2,0.6,0,0.8-0.3c0.1,0,0.2,0,0.2,0c0.1,0,0.1,0,0.2-0.1s0.3-0.2,0.4-0.3c0.2,0,0.3-0.1,0.4-0.2
				c0.1,0,0.1-0.1,0.2-0.2c0.1-0.1,0.1-0.1,0.2-0.2c0.2,0,0.4-0.1,0.5-0.2c0.1-0.1,0.2-0.3,0.3-0.4c0.1-0.1,0.2-0.3,0.3-0.4
				c0.1-0.1,0.1-0.1,0.2-0.2c0-0.1,0.1-0.1,0.1-0.2c0.3-0.2,0.3-0.6,0.5-0.9c0-0.2,0-0.4,0.1-0.5c0.1-0.2,0.1-0.3,0.3-0.5v-0.1v-0.1
				c0-0.1,0-0.2,0.1-0.3c0.1-0.2,0.1-0.3,0.1-0.5c0-0.1,0-0.2,0-0.3s0-0.2,0-0.3s0-0.2,0-0.3s0-0.2,0-0.3c0-0.2,0-0.4,0-0.6
				s0-0.4-0.2-0.5c-0.1-0.4-0.2-0.8-0.4-1.1l-0.1-0.3c0-0.1-0.1-0.2-0.1-0.3c-0.1-0.2-0.2-0.3-0.3-0.5c0-0.2-0.1-0.4-0.2-0.6
				c-0.1-0.1-0.3-0.2-0.5-0.4c-0.2-0.1-0.3-0.2-0.5-0.4c-0.1-0.1-0.3-0.3-0.4-0.4c-0.2-0.1-0.3-0.2-0.5-0.3
				c-0.1-0.1-0.2-0.1-0.3-0.1l-0.3-0.1c-0.4-0.1-0.7-0.4-1.1-0.4c-0.2,0-0.4,0-0.5-0.1c-0.2-0.1-0.4-0.1-0.6,0c-0.1,0-0.2,0-0.3,0
				c-0.1,0-0.2,0-0.3,0s-0.2,0-0.3,0s-0.2,0-0.3,0c-0.2,0-0.4,0-0.5,0s-0.2,0-0.3,0c0,0-0.1,0-0.1,0.1l-0.1,0.1
				c-0.2,0.1-0.3,0.2-0.4,0.3c-0.1,0.1-0.3,0.2-0.5,0.1c-0.1,0.1-0.3,0.2-0.5,0.2h-0.1c0,0-0.1,0-0.1,0.1c-0.1,0-0.1,0.1-0.2,0.2
				c-0.1,0-0.2,0-0.3,0s-0.1,0.1-0.2,0.2s-0.1,0.1-0.1,0.2c-0.1,0.1-0.1,0.1-0.1,0.2c-0.1,0.1-0.3,0.2-0.4,0.3
				c-0.1,0.1-0.2,0.3-0.2,0.4s-0.1,0.1-0.1,0.2S14,28.7,14,28.8c-0.1,0.1-0.2,0.2-0.3,0.4c0,0.2-0.1,0.3-0.2,0.4
				c-0.1,0.1-0.2,0.3-0.2,0.4c-0.1,0.3-0.1,0.6-0.3,0.8c0.2,0.2,0.1,0.3,0.1,0.4s-0.2,0.2-0.2,0.4c0,0.1,0,0.3,0.1,0.4
				c0,0.1,0.1,0.3-0.1,0.4c0.1,0.1,0.2,0.2,0.1,0.4c0,0.1-0.1,0.3-0.1,0.4c-0.1,0.3,0.2,0.4,0.1,0.7c0.1,0,0.1,0.1,0.1,0.1
				s0,0.1,0,0.2c0,0.1,0,0.2,0,0.3c-0.1,0.2,0.1,0.4,0.2,0.5c0.1,0.1,0.1,0.2,0.1,0.2c0,0.1,0.1,0.2,0.1,0.3
				c0.1,0.2,0.1,0.3,0.2,0.4c0.1,0.2,0.2,0.3,0.3,0.5s0.2,0.3,0.2,0.4C14.1,37.3,14.1,37.5,14.1,37.5z"/>
		</g>
		<g id="XMLID_17966_">
			<path class="st0" d="M16.2,48.9c0-0.1,0.1-0.2,0.2-0.3c0,0,0,0,0.1,0c0,0,0.1-0.1,0.1,0s0.1-0.3,0.1,0c0,0.1,0.1,0,0.1,0
				s0.1,0.1,0.1,0c0-0.3,0.1,0.3,0.1,0c0-0.1,0.1,0,0.1,0c0,0.2,0.1,0,0.1,0c0,0.3,0.1,0.1,0.2,0c0.1,0.3,0.1,0.3,0.2,0
				c0.1,0,0.1,0.1,0.2,0c0.1,0,0.1-0.1,0.2,0c0.1-0.2,0.1-0.2,0.2,0c0.1-0.3,0.1-0.2,0.2,0c0.1,0.1,0.1-0.2,0.2,0
				c0.1,0,0.1-0.1,0.2,0s0.1,0.2,0.2,0c0.1-0.1,0.1-0.1,0.2,0c0.1-0.3,0.1-0.2,0.2,0c0.1,0,0.1,0.1,0.2,0c0.1,0,0.1-0.1,0.2,0
				s0.2,0.2,0.2,0c0.1-0.2,0.1,0.1,0.2,0c0.1,0.3,0.1-0.1,0.2,0c0.1,0,0.1,0.1,0.2,0c0.1,0,0.1-0.1,0.2,0c0.1-0.4,0.1,0.1,0.2,0
				c0.1,0.2,0.1,0,0.2,0c0.1-0.1,0.1,0.2,0.2,0c0.1,0,0.1-0.1,0.2,0c0.1-0.2,0.1,0.2,0.2,0c0.1,0,0.1,0,0.2,0c0.1,0.3,0.1,0,0.2,0
				s0.1-0.2,0.2,0c0,0,0.1,0.2,0.1,0c0,0,0.1,0.4,0.1,0c0-0.1,0.1,0.3,0.1,0c0-0.2,0.1,0,0.1,0h0.1c0.3,0.1,0.5,0.3,0.5,0.4
				c0,0.2-0.2,0.3-0.6,0.5c0,0-0.1,0.2-0.1,0c0,0-0.1,0.2-0.1,0c0,0.3-0.1,0-0.1,0s-0.1-0.1-0.1,0c0,0.2-0.1-0.1-0.2,0
				c-0.1-0.2-0.1-0.1-0.2,0c-0.1-0.2-0.1,0-0.2,0c-0.1-0.3-0.1-0.1-0.2,0s-0.1,0-0.2,0s-0.1,0.1-0.2,0c-0.1,0.1-0.1,0.2-0.2,0
				c-0.1,0.1-0.1,0-0.2,0c-0.1,0.1-0.1,0-0.2,0s-0.1-0.3-0.2,0c-0.1,0-0.1,0-0.2,0s-0.1-0.1-0.2,0c-0.1-0.3-0.1-0.1-0.2,0
				s-0.2,0-0.2,0c-0.1,0-0.1,0-0.2,0c-0.1,0.1-0.1-0.1-0.2,0s-0.1-0.1-0.2,0s-0.1,0.1-0.2,0c-0.1,0-0.1-0.3-0.2,0
				c-0.1,0-0.1,0.4-0.2,0c-0.1,0.1-0.1-0.2-0.2,0c-0.1-0.3-0.1,0-0.2,0s-0.1-0.2-0.2,0c-0.1,0.1-0.1-0.1-0.2,0
				c-0.1,0.2-0.1-0.2-0.2,0c-0.1,0-0.1,0-0.2,0c0,0.4-0.1,0-0.1,0c0-0.1-0.1,0.3-0.1,0c0,0.3-0.1,0-0.1,0c0-0.1-0.1,0.1-0.1,0
				c0,0.2-0.1-0.1-0.1,0c0-0.1-0.1,0-0.1,0h-0.1h-0.1C16.3,49.1,16.2,49,16.2,48.9z"/>
		</g>
		<g id="XMLID_17965_">
			<path class="st0" d="M76.7,48.9c0-0.1,0.1-0.2,0.2-0.3H77c0,0,0.1-0.1,0.1,0s0.1-0.3,0.1,0c0,0.1,0.1,0,0.1,0s0.1,0.1,0.1,0
				c0-0.3,0.1,0.3,0.1,0c0.1-0.1,0.1,0,0.1,0c0.1,0.2,0.1,0,0.2,0c0.1,0.3,0.1,0.1,0.2,0c0.1,0.3,0.1,0.3,0.2,0c0.1,0,0.1,0.1,0.2,0
				c0.1,0,0.1-0.1,0.2,0c0.1-0.2,0.1-0.2,0.2,0c0.1-0.3,0.1-0.2,0.2,0c0.1,0.1,0.1-0.2,0.2,0c0.1,0,0.1-0.1,0.2,0s0.1,0.2,0.2,0
				c0.1-0.1,0.2-0.1,0.2,0c0.1-0.3,0.2-0.2,0.2,0c0.1,0,0.2,0.1,0.2,0c0.1,0,0.2-0.1,0.2,0c0.1,0.1,0.2,0.2,0.2,0
				c0.1-0.2,0.2,0.1,0.2,0c0.1,0.3,0.2-0.1,0.2,0c0.1,0,0.2,0.1,0.2,0c0.1,0,0.1-0.1,0.2,0c0.1-0.4,0.1,0.1,0.2,0
				c0.1,0.2,0.1,0,0.2,0c0.1-0.1,0.1,0.2,0.2,0c0.1,0,0.1-0.1,0.2,0c0.1-0.2,0.1,0.2,0.2,0c0.1,0,0.1,0,0.2,0c0.1,0.3,0.1,0,0.2,0
				s0.1-0.2,0.2,0c0.1,0,0.1,0.2,0.2,0c0.1,0,0.1,0.4,0.1,0c0.1-0.1,0.1,0.3,0.1,0c0-0.2,0.1,0,0.1,0h0.1c0.3,0.1,0.5,0.3,0.5,0.4
				c0,0.2-0.2,0.3-0.6,0.5c0,0-0.1,0.2-0.1,0c0,0-0.1,0.2-0.1,0c-0.1,0.3-0.1,0-0.1,0c-0.1,0-0.1-0.1-0.2,0c-0.1,0.2-0.1-0.1-0.2,0
				c-0.1-0.2-0.1-0.1-0.2,0c-0.1-0.2-0.1,0-0.2,0c-0.1-0.3-0.1-0.1-0.2,0s-0.1,0-0.2,0s-0.1,0.1-0.2,0c-0.1,0.1-0.1,0.2-0.2,0
				c-0.1,0.1-0.1,0-0.2,0c-0.1,0.1-0.1,0-0.2,0s-0.2-0.3-0.2,0c-0.1,0-0.2,0-0.2,0c-0.1,0-0.2-0.1-0.2,0c-0.1-0.3-0.2-0.1-0.2,0
				c-0.1,0.1-0.2,0-0.2,0c-0.1,0-0.2,0-0.2,0c-0.1,0.1-0.2-0.1-0.2,0c-0.1,0.1-0.2-0.1-0.2,0c-0.1,0.1-0.1,0.1-0.2,0
				c-0.1,0-0.1-0.3-0.2,0c-0.1,0-0.1,0.4-0.2,0c-0.1,0.1-0.1-0.2-0.2,0c-0.1-0.3-0.1,0-0.2,0s-0.1-0.2-0.2,0c-0.1,0.1-0.1-0.1-0.2,0
				c-0.1,0.2-0.1-0.2-0.2,0c-0.1,0-0.1,0-0.2,0c-0.1,0.4-0.1,0-0.2,0c-0.1-0.1-0.1,0.3-0.1,0c-0.1,0.3-0.1,0-0.1,0s-0.1,0.1-0.1,0
				c0,0.2-0.1-0.1-0.1,0c0-0.1-0.1,0-0.1,0H77h-0.1C76.7,49.1,76.7,49,76.7,48.9z"/>
		</g>
		<g id="XMLID_17964_">
			<path class="st0" d="M76.7,44.4C76.6,44.4,76.6,44.4,76.7,44.4c-0.1-0.1-0.1-0.2-0.1-0.2s0-0.1-0.1-0.2c0-0.1-0.1-0.2-0.2-0.4
				c-0.1-0.1-0.2-0.3-0.3-0.5c-0.1-0.1-0.2-0.2-0.3-0.3c-0.1-0.1-0.3-0.1-0.4-0.2l-0.1-0.1c-0.1,0-0.1,0-0.2,0s-0.1,0-0.1,0
				s-0.1,0-0.1-0.1c-0.1,0-0.1,0-0.2,0s-0.1,0-0.2,0s-0.2,0-0.4,0.1c-0.3,0-0.5-0.1-0.8,0c-0.3,0.3-0.6-0.3-0.8,0
				c-0.3,0.1-0.6,0-0.9,0c-0.3-0.2-0.6,0-1,0c-0.3-0.3-0.7-0.1-1,0c-0.3-0.3-0.7-0.3-1.1,0c-0.4,0-0.7-0.1-1.1,0c-0.4,0-0.8,0.1-1,0
				c-0.1,0.1-0.2,0.2-0.3,0.3c-0.1,0-0.2,0.1-0.4,0.1c0,0.2-0.1,0.3-0.1,0.4c-0.1,0.1-0.2,0.2-0.3,0.3c-0.1,0-0.1,0.1-0.1,0.2v0.1
				V44c0.1,0.2,0.1,0.4,0,0.6c0,0.4,0.1,0.9,0,1.3c-0.1,0.4-0.2,0.9,0,1.3c0.1,0.5,0.1,0.9,0,1.4c0.3,0.5,0.2,0.9,0,1.4
				c0,0.5-0.1,1,0,1.4c0,0.5,0.1,1,0,1.5c0,0.2-0.1,0.3,0,0.5c0,0.2,0.1,0.3,0.3,0.3c0.2,0.1,0.2,0.2,0.3,0.3s0.2,0.2,0.4,0.2
				l0.1,0.1h0.1h0.1c0.1,0,0.1,0,0.2,0c0.2,0,0.5-0.1,0.7,0c0.5,0,0.9,0.1,1.4,0c0.4,0,0.9-0.1,1.3,0c0.4-0.4,0.9,0.1,1.3,0
				c0.4,0.2,0.9,0,1.3,0c0.4-0.1,0.8,0.2,1.2,0c0.2,0,0.4,0,0.6,0c0.1,0,0.2,0,0.4,0c0.1-0.1,0.2-0.1,0.3-0.2c0.1,0,0.1,0,0.2-0.1
				c0.1,0,0.1-0.1,0.1-0.2c0.1-0.1,0.2-0.2,0.2-0.3c0.1-0.1,0.1-0.2,0.2-0.3C76,53.1,76,53,76,52.8s-0.1-0.3-0.1-0.5
				c0-0.3-0.2-0.7,0-1c0-0.3,0.2-0.7,0-1c0-0.3,0.4-0.6,0-0.9c-0.1-0.3,0.3-0.6,0-0.8c-0.2-0.3,0-0.5,0-0.8s0-0.5,0-0.7
				C76.4,45.6,76.5,44.4,76.7,44.4s0.3,1.5,0.5,4c0,0.3,0.2,0.5,0,0.8c0,0.3,0.2,0.5,0,0.8c0.3,0.3,0.1,0.6,0,0.9c0,0.3-0.1,0.6,0,1
				c0.2,0.3-0.1,0.7,0,1c-0.1,0.2-0.1,0.3-0.1,0.5s0,0.5,0.1,0.7c-0.1,0.2-0.2,0.4-0.3,0.7c-0.1,0.2-0.2,0.5-0.4,0.6
				c-0.3,0.1-0.4,0.2-0.7,0.4c-0.2,0.2-0.4,0.3-0.6,0.5c-0.2,0.1-0.5,0.2-0.8,0.1c-0.2,0-0.4,0-0.6,0c-0.4,0-0.8,0.1-1.2,0
				c-0.4,0.1-0.8,0.2-1.3,0c-0.4,0.1-0.9,0-1.3,0c-0.4,0.1-0.9,0-1.3,0s-0.9-0.3-1.4,0c-0.2,0-0.5,0-0.7,0h-0.2h-0.2
				c-0.1,0-0.2,0-0.2,0c-0.1,0-0.2,0-0.3,0c-0.6-0.2-1.2-0.6-1.7-1.1c-0.1-0.3-0.2-0.6-0.3-0.9c-0.1-0.3-0.3-0.6-0.3-1
				c-0.1-0.5,0-1,0-1.5s0-1,0-1.4c-0.1-0.5,0.1-0.9,0-1.4s0.1-0.9,0-1.4s-0.1-0.9,0-1.3c0-0.4,0.3-0.9,0-1.3c0-0.2-0.1-0.4-0.2-0.6
				c0,0,0-0.1,0-0.2c0-0.1,0-0.2,0-0.2c0-0.2,0.1-0.3,0.3-0.4c0-0.3,0.2-0.5,0.4-0.8c0.2-0.2,0.4-0.4,0.5-0.7
				c0.3-0.1,0.5-0.2,0.7-0.4s0.5-0.3,0.7-0.3c0.3,0,0.6,0,0.7,0c0.2,0,0.4,0,0.6,0c0.4-0.1,0.8,0.1,1.1,0c0.4-0.2,0.7,0.2,1.1,0
				c0.3,0,0.7,0,1,0c0.3-0.4,0.7,0,1,0s0.6-0.3,0.9,0c0.3-0.3,0.6,0,0.8,0s0.5-0.1,0.8,0c0.1-0.1,0.3-0.1,0.4,0c0.1,0,0.1,0,0.2,0.1
				c0.1,0,0.1,0,0.2,0s0.1,0.1,0.2,0.1s0.1,0,0.2,0s0.1,0,0.2,0s0.1,0,0.2,0.1c0.3,0,0.5,0.2,0.6,0.4c0.2,0.1,0.3,0.3,0.4,0.5
				c0.3,0.5,0.4,0.9,0.4,1.2c0,0.1,0,0.1,0,0.2s0,0.1,0,0.1C76.7,44.4,76.7,44.4,76.7,44.4z"/>
		</g>
		<g id="XMLID_17963_">
			<path class="st0" d="M64.3,48.9c-0.1,0-0.1-0.1-0.2-0.3c0-0.1-0.1-0.3-0.1-0.4c0-0.2,0-0.4-0.1-0.6c0-0.1-0.1-0.3-0.2-0.4
				c0-0.1-0.1-0.2-0.1-0.2c0-0.1-0.1-0.2-0.1-0.3c0.1-0.2-0.4-0.3-0.3-0.5c0-0.1-0.1-0.2-0.1-0.3L63,45.8l-0.1-0.1
				c-0.2-0.2-0.2-0.4-0.4-0.5c-0.2,0-0.2-0.2-0.2-0.3s-0.1-0.3-0.3-0.3c-0.1-0.1-0.2-0.2-0.3-0.2s-0.2-0.2-0.3-0.3
				c0-0.2-0.1-0.3-0.3-0.3s-0.3-0.1-0.4-0.2c-0.1-0.3-0.4-0.4-0.8-0.4c0-0.1-0.1-0.2-0.1-0.3s-0.1-0.1-0.2-0.1c-0.2,0-0.3,0-0.5,0.1
				c-0.1,0-0.3-0.1-0.4-0.2c-0.1,0-0.2,0-0.2-0.1c-0.1,0-0.2,0-0.3,0c-0.2,0-0.3,0-0.5,0s-0.3,0-0.5,0c-0.2,0.1-0.3,0.2-0.5,0.2
				c-0.1,0-0.2,0-0.3,0s-0.2,0-0.3-0.1c-0.3,0.3-0.6,0.3-1,0.2c-0.2,0-0.3,0.1-0.5,0.2c-0.2,0.1-0.3,0.2-0.5,0.2c0,0-0.1,0-0.1,0.1
				l-0.1,0.1l0.1,0.1c-0.2,0.1-0.3,0.2-0.5,0.3c-0.1,0-0.2,0.1-0.3,0.1S53,44.1,53,44.2c-0.1,0.1-0.1,0.1-0.2,0.2
				c0,0.1-0.1,0.2-0.1,0.3c-0.1,0.2-0.2,0.3-0.3,0.5s-0.2,0.3-0.4,0.4c0,0.5-0.2,0.7-0.5,1c0,0.1-0.1,0.2-0.1,0.3s-0.1,0.2-0.1,0.3
				c-0.1,0.2-0.1,0.4-0.1,0.6c0,0.2,0,0.4-0.1,0.6c0,0.2,0,0.4-0.1,0.6c0,0.2-0.1,0.4-0.1,0.6c0,0.2,0.1,0.4,0.2,0.6
				c0.1,0.2,0.2,0.4,0.2,0.6c0,0.1,0,0.2,0,0.3s0.1,0.2,0.1,0.3s0,0.2,0,0.3s0.1,0.2,0.2,0.3l0.1,0.1l0.1,0.1
				c0.1,0.1,0.1,0.2,0.2,0.3c0.1,0.2,0.2,0.3,0.3,0.5s0.2,0.3,0.4,0.4c0.1,0.1,0.1,0.1,0.2,0.2c0.1,0.1,0.2,0.1,0.2,0.2
				c0.1,0.1,0.1,0.1,0.2,0.2c0.1,0.1,0.1,0.1,0.2,0.2c0.3,0,0.4,0.1,0.5,0.2c0.1,0.1,0.1,0.2,0.2,0.2l0.1,0.1h0.1
				c0.1,0.2,0.3,0.2,0.5,0.3s0.3,0.1,0.5,0.2c0.2,0,0.3,0.1,0.5,0.2H56h0.1c0.1,0,0.2,0,0.3,0s0.2,0,0.3,0s0.2,0,0.3,0s0.2,0,0.3,0
				s0.2,0,0.2,0.1c0.2-0.1,0.3-0.1,0.5,0s0.3,0,0.5,0c0.1,0,0.2,0,0.2,0s0.2,0,0.2-0.1c0.2,0,0.3-0.1,0.5-0.1c0.2,0.1,0.3,0,0.5,0
				c0.1-0.1,0.2-0.2,0.4-0.3c0.3-0.1,0.4-0.4,0.8-0.4c0.1-0.1,0.3-0.1,0.4-0.2s0.2-0.1,0.3-0.3c0.1-0.1,0.3-0.1,0.4-0.2
				c0.1,0,0.2-0.1,0.2-0.4c0.1-0.1,0.2-0.2,0.3-0.2c0.1-0.1,0.2-0.2,0.2-0.3c0-0.3,0.3-0.4,0.4-0.5l0.1-0.1c0,0,0-0.1,0.1-0.1
				c0-0.1,0.1-0.2,0.2-0.3c0.4-0.8,0.6-1.5,0.8-2C64.2,49.2,64.3,48.9,64.3,48.9s0.1,0.1,0.1,0.3c0,0.1,0,0.2,0.1,0.3
				c0,0.1,0,0.1,0,0.2s0,0.2,0,0.2c0,0.7-0.1,1.7-0.7,2.8c-0.1,0.2-0.1,0.6-0.4,0.7c-0.1,0.1-0.1,0.2-0.2,0.4
				c-0.1,0.1-0.2,0.2-0.3,0.3c0,0.2-0.1,0.3-0.2,0.4c-0.1,0.1-0.3,0.2-0.4,0.3c-0.1,0.1-0.3,0.2-0.4,0.3s-0.3,0.2-0.4,0.3
				c-0.2,0.3-0.6,0.3-0.9,0.5c-0.2,0-0.4,0.1-0.5,0.1c-0.2,0.1-0.3,0.2-0.5,0.3c-0.2,0-0.4,0-0.5,0.1c-0.1,0-0.2,0.1-0.3,0.1
				s-0.2,0.1-0.3,0.1c-0.2-0.1-0.4-0.1-0.6,0s-0.4,0.1-0.6,0.2c-0.1,0-0.2,0-0.3,0s-0.2,0-0.3,0s-0.2,0-0.3,0s-0.2,0-0.3,0
				s-0.2,0-0.3-0.1h-0.2h-0.2c-0.2,0-0.4-0.1-0.6-0.2c-0.2,0-0.5,0-0.7-0.1s-0.4-0.2-0.6-0.4c0,0-0.1,0-0.2,0s-0.1,0-0.2-0.1
				c-0.1,0-0.2-0.1-0.3-0.2c-0.2-0.1-0.4-0.3-0.5-0.4c-0.1,0-0.2-0.1-0.3-0.2c-0.1-0.1-0.2-0.2-0.3-0.2l-0.3-0.3
				c-0.1-0.1-0.2-0.2-0.2-0.3c-0.2-0.2-0.3-0.4-0.4-0.6c-0.1-0.2-0.3-0.4-0.5-0.5c-0.3-0.4-0.4-0.9-0.7-1.3l-0.1-0.4
				c0-0.1-0.1-0.2-0.1-0.4s-0.1-0.5-0.2-0.7c0.1-0.3,0.1-0.5,0-0.8c0-0.2-0.1-0.5-0.2-0.7c0-0.3,0-0.5,0-0.8s0.1-0.5,0.2-0.7
				c0-0.3,0.1-0.5,0.2-0.7c0-0.1,0.1-0.2,0.1-0.3l0.1-0.3c0-0.1,0-0.1,0-0.2s0-0.1,0.1-0.2c0.1-0.1,0.1-0.2,0.2-0.3l0.1-0.2
				c0,0,0.1-0.1,0.1-0.2c0.1-0.1,0.1-0.2,0.2-0.3c0.1-0.2,0.3-0.4,0.4-0.6c0.2-0.2,0.3-0.3,0.5-0.5c0.1-0.1,0.1-0.2,0.2-0.3
				c0.1-0.1,0.2-0.2,0.2-0.3c0.1-0.1,0.2-0.2,0.3-0.2c0.1-0.1,0.2-0.1,0.3-0.2c0.2-0.1,0.4-0.2,0.6-0.3c0.1,0,0.2-0.1,0.3-0.2
				l0.1-0.1l0.1-0.1c0.2-0.1,0.3-0.3,0.5-0.4c0.2-0.1,0.4-0.2,0.7-0.1c0.2-0.1,0.4-0.1,0.6-0.1c0,0,0.1,0,0.2,0s0.1,0,0.2,0
				c0.1,0,0.2,0,0.3-0.1c0.1,0,0.2,0.1,0.3,0.1s0.2,0,0.3,0c0.2,0,0.4-0.1,0.6-0.1c0.2,0,0.4,0.1,0.6,0.1s0.4,0.1,0.6,0
				c0.1,0,0.2,0,0.3,0s0.2,0.1,0.3,0.1c0.2,0.1,0.3,0.2,0.5,0.2s0.4,0.1,0.5,0.2c0.1,0,0.2,0.1,0.2,0.2c0.1,0,0.2,0.1,0.3,0.1
				c0.3,0.2,0.6,0.3,0.9,0.5c0.2-0.1,0.4,0,0.5,0.2s0.2,0.3,0.3,0.4c0.1,0.1,0.3,0.2,0.4,0.3c0.1,0.1,0.2,0.2,0.2,0.4
				c0.2,0,0.3,0.1,0.4,0.3s0.1,0.3,0.1,0.4c0.1,0.3,0.4,0.4,0.4,0.7c0.1,0,0.1,0.1,0.2,0.1c0,0,0,0.1,0,0.2c0,0.1,0,0.3,0.1,0.3
				c0,0.3,0.2,0.4,0.2,0.6c0.1,0.1,0.1,0.2,0.1,0.3s0,0.2,0,0.3c0,0.2,0.1,0.3,0.1,0.5s0,0.4,0,0.6s0,0.3,0,0.5
				C64.4,48.8,64.4,48.9,64.3,48.9z"/>
		</g>
		<g id="XMLID_17962_">
			<path class="st0" d="M23.8,44.4L23.8,44.4c-0.1-0.1-0.1-0.2-0.1-0.2s0-0.1,0-0.2c0-0.3,0.1-0.7,0.4-1.2c0.1-0.2,0.2-0.3,0.4-0.4
				c0.1-0.2,0.3-0.3,0.6-0.4c0.1,0,0.1,0,0.2,0s0.1-0.1,0.2-0.1s0.1-0.1,0.2-0.1s0.1,0,0.2,0s0.1,0,0.2,0s0.1,0,0.2,0s0.2,0,0.4-0.1
				c0.3,0,0.5,0.1,0.8,0c0.3-0.3,0.5,0.3,0.8,0c0.3-0.1,0.6,0,0.9,0c0.3,0.2,0.6,0,1,0c0.3,0.3,0.7,0.1,1,0c0.3,0.3,0.7,0.3,1.1,0
				c0.4,0,0.7,0.1,1.1,0c0.2,0,0.4,0,0.6,0c0.2,0,0.5,0,0.7,0.1c0.6-0.1,1.2,0.2,1.4,0.7c0.3,0.1,0.5,0.3,0.7,0.5s0.2,0.5,0.2,0.8
				c0,0.2,0,0.3,0.1,0.4c0,0.1,0,0.3,0.1,0.4c0,0.2,0.1,0.4,0,0.6c0,0.4,0.1,0.9,0,1.3c-0.1,0.4-0.2,0.9,0,1.3
				c0.1,0.5,0.2,0.9,0,1.4c0.3,0.5,0.2,0.9,0,1.4c0,0.5-0.1,1,0,1.4c0,0.5,0.1,1,0,1.5c0,0.3-0.1,0.7-0.3,1
				c-0.1,0.3-0.3,0.6-0.4,0.9c-0.1,0.3-0.4,0.5-0.7,0.7s-0.6,0.3-0.9,0.4c-0.1,0-0.2,0-0.3,0s-0.2,0-0.2,0h-0.2c-0.1,0-0.1,0-0.2,0
				c-0.2,0-0.5,0.1-0.7,0.1c-0.5,0-0.9-0.1-1.4,0c-0.5,0-0.9,0.1-1.3,0c-0.4,0.4-0.9-0.1-1.3,0c-0.4-0.2-0.9,0-1.3,0
				c-0.4,0.1-0.8-0.2-1.2,0c-0.2,0-0.4,0-0.6,0c-0.3,0-0.5,0-0.8-0.2c-0.3,0-0.5-0.1-0.7-0.3c-0.1-0.1-0.2-0.2-0.3-0.3
				c-0.1-0.1-0.2-0.2-0.3-0.2c-0.2-0.2-0.3-0.4-0.4-0.6c-0.1-0.2-0.2-0.5-0.2-0.7c0.1-0.3,0.1-0.5,0-0.7c0-0.2-0.1-0.3-0.1-0.5
				c0-0.3-0.2-0.7,0-1c0-0.3,0.1-0.7,0-1c0-0.3,0.4-0.6,0-0.9c-0.1-0.3,0.3-0.6,0-0.8c-0.2-0.3,0-0.5,0-0.8s0-0.5,0-0.7
				C23.5,45.6,23.7,44.4,23.8,44.4c0.2,0,0.3,1.5,0.5,4c0,0.3,0.2,0.5,0,0.8c0,0.3,0.2,0.5,0,0.8c0.3,0.3,0,0.6,0,0.9
				c0,0.3-0.1,0.6,0,1c0.2,0.3-0.1,0.7,0,1c-0.1,0.2-0.1,0.3-0.1,0.5c0,0.1,0.1,0.3,0.2,0.4c-0.1,0.1,0,0.3,0.1,0.4
				c0.1,0.1,0.2,0.2,0.3,0.3c0,0.1,0,0.2,0.1,0.2c0,0,0.1,0.1,0.2,0.1c0.1,0.1,0.3,0,0.4,0s0.3,0,0.4,0c0.2,0,0.4,0,0.6,0
				c0.4,0,0.8-0.1,1.2,0c0.4-0.1,0.8-0.2,1.3,0c0.4-0.1,0.9,0,1.3,0c0.4-0.1,0.9,0,1.3,0s0.9,0.3,1.4,0c0.2,0,0.5,0,0.7,0h0.2H34
				h0.1h0.1c0.3,0,0.6-0.2,0.7-0.5c0.2,0,0.3-0.2,0.3-0.3c0-0.2,0-0.3-0.1-0.5c-0.1-0.5,0-1,0-1.5s0-1,0-1.4c-0.1-0.5,0.1-0.9,0-1.4
				s0.1-0.9,0-1.4s-0.1-0.9,0-1.3c0-0.4,0.3-0.9,0-1.3c0-0.2-0.1-0.4-0.2-0.6c0-0.1,0-0.1,0-0.1v-0.1c0-0.1,0.1-0.1,0.1-0.2
				c-0.1-0.1-0.1-0.2-0.1-0.4c0-0.1-0.1-0.3-0.3-0.3c0-0.1,0-0.2-0.1-0.2c0,0-0.1-0.1-0.2-0.1c-0.1,0-0.3,0-0.4,0
				c-0.2-0.1-0.7-0.2-1,0c-0.4,0.1-0.8-0.1-1.1,0c-0.4,0.2-0.7-0.2-1.1,0c-0.4,0-0.7,0-1,0c-0.3,0.4-0.6,0-1,0c-0.3,0-0.6,0.3-0.9,0
				c-0.3,0.3-0.6,0-0.8,0s-0.5,0.1-0.8,0c-0.1,0.1-0.3,0.1-0.4,0c-0.1,0-0.1,0-0.2-0.1s-0.1,0-0.1,0h-0.1h-0.1h-0.1h-0.1
				c-0.1,0.1-0.3,0.2-0.4,0.2c-0.1,0.1-0.3,0.2-0.4,0.3c-0.1,0.2-0.3,0.3-0.4,0.4c-0.1,0.1-0.1,0.3-0.2,0.4c0,0,0,0.1-0.1,0.2v0.1
				C23.9,44.4,23.9,44.4,23.8,44.4z"/>
		</g>
		<g id="XMLID_17961_">
			<path class="st0" d="M36.2,48.9c0,0-0.1-0.1-0.1-0.4c0-0.1,0-0.3,0-0.5s0-0.4,0-0.6c0-0.2,0-0.3,0.1-0.5c0-0.1,0-0.2,0-0.3
				s0-0.2,0.1-0.3c0.2-0.1-0.1-0.5,0.2-0.6c0.1-0.1,0.1-0.2,0.2-0.3c0-0.1,0-0.1,0.1-0.2c0-0.1,0-0.1,0.1-0.2
				c0.1-0.2,0.3-0.4,0.4-0.7c0-0.2,0.1-0.3,0.3-0.3c0.1-0.1,0.3-0.1,0.3-0.3c0.1-0.1,0.2-0.3,0.3-0.4c0.1-0.1,0.2-0.2,0.3-0.3
				c0.2,0,0.3-0.1,0.4-0.2c0.1-0.1,0.2-0.3,0.3-0.4c0.4,0,0.6-0.2,0.9-0.5c0.1,0,0.2,0.1,0.3,0c0.1,0,0.2,0,0.3-0.1
				c0.2-0.1,0.3-0.2,0.4-0.4c0.2-0.1,0.4-0.1,0.5-0.1s0.2,0,0.3-0.1s0.2-0.1,0.3-0.1c0.2,0,0.4-0.1,0.6-0.1c0.2,0,0.4,0,0.6,0
				c0.2-0.1,0.4-0.2,0.6-0.2c0.1,0,0.2,0,0.3,0s0.2,0.1,0.3,0.2c0.5-0.2,0.9,0,1.3,0.3c0.2,0.1,0.4,0.2,0.6,0.2
				c0.2,0,0.4,0.1,0.6,0.3h0.2l0.2,0.1c0.1,0,0.2,0.1,0.3,0.2c0.2,0.1,0.4,0.2,0.6,0.4l0.2,0.3c0.1,0.1,0.1,0.2,0.2,0.3
				c0.1,0.1,0.2,0.2,0.3,0.2c0.1,0.1,0.2,0.1,0.3,0.2c0.2,0.2,0.4,0.3,0.5,0.5c0.2,0.2,0.3,0.4,0.4,0.6c0.5,0.3,0.6,0.8,0.7,1.3
				c0,0.1,0.1,0.2,0.1,0.3s0.1,0.2,0.1,0.4c0,0.3,0.1,0.5,0.2,0.7c0,0.3,0.1,0.5,0.1,0.7c0,0.3,0.1,0.5,0,0.8c0,0.3-0.1,0.5-0.1,0.8
				s-0.1,0.5,0,0.8s-0.1,0.5-0.1,0.7c0,0.1-0.1,0.2-0.2,0.3S51,51.6,51,51.7c-0.1,0.1-0.2,0.2-0.2,0.3s-0.1,0.2-0.1,0.3v0.2
				c0,0.1,0,0.1-0.1,0.2c0,0.1-0.1,0.2-0.2,0.3c-0.1,0.2-0.3,0.4-0.5,0.6c-0.2,0.2-0.3,0.3-0.4,0.6c-0.1,0.1-0.1,0.2-0.2,0.3
				s-0.2,0.2-0.3,0.3S48.8,55,48.7,55c-0.1,0.1-0.2,0.1-0.3,0.2c-0.1,0.3-0.3,0.4-0.5,0.5c-0.1,0-0.2,0.1-0.3,0.1c0,0-0.1,0-0.2,0.1
				s-0.1,0-0.2,0.1c-0.2,0-0.4,0.1-0.6,0.2c-0.2,0.1-0.4,0.2-0.6,0.3c-0.2,0.1-0.4,0.1-0.6,0.1c0,0-0.1,0-0.2,0c0,0-0.1,0-0.2,0
				c-0.1,0-0.2,0-0.3,0.1c-0.1,0-0.2,0-0.3,0s-0.2,0-0.3,0s-0.2,0-0.3,0s-0.2,0-0.3-0.1c-0.2,0.1-0.4,0-0.6,0
				c-0.2-0.1-0.4-0.2-0.6-0.1c-0.1,0-0.2,0-0.3,0s-0.2,0-0.3-0.1c-0.2,0-0.4-0.1-0.5-0.2c-0.1-0.2-0.3-0.3-0.5-0.3s-0.4-0.1-0.5-0.1
				c-0.3-0.2-0.7-0.2-0.9-0.5c-0.1-0.1-0.2-0.2-0.3-0.3s-0.2-0.2-0.4-0.3c-0.1-0.1-0.2-0.3-0.2-0.4c-0.1-0.1-0.1-0.3-0.4-0.2
				c-0.1-0.1-0.2-0.2-0.2-0.4s-0.1-0.3-0.3-0.3c-0.4-0.1-0.3-0.5-0.4-0.7c0,0-0.1-0.1-0.1-0.2s0-0.1-0.1-0.2c0-0.1-0.1-0.2-0.1-0.3
				C36,51,36,50.2,36,49.7S36.1,48.9,36.2,48.9c0,0,0.1,0.1,0.1,0.2c0,0.1,0,0.2,0.1,0.3c0,0.1,0,0.1,0,0.2s0,0.1,0.1,0.2
				c0.2,0.6,0.4,1.4,1,2.3c0.1,0.2,0.4,0.3,0.4,0.5c0.1,0.1,0.2,0.2,0.3,0.3s0.2,0.2,0.2,0.3c0.2,0,0.3,0.1,0.3,0.2
				c0.1,0.1,0.1,0.2,0.2,0.3c0.1,0.1,0.2,0.2,0.3,0.3s0.2,0.2,0.4,0.2s0.3,0.1,0.4,0.2c0.1,0.1,0.2,0.2,0.4,0.2
				c0.1,0.1,0.2,0.2,0.4,0.3c0.2,0,0.3,0,0.5,0c0.1,0.1,0.3,0.2,0.4,0.2c0.1,0,0.2,0,0.2,0h0.2c0.1,0.2,0.3,0.2,0.5,0.2
				s0.3-0.1,0.5-0.1c0.1,0,0.2,0,0.3,0s0.2,0,0.3,0s0.2,0,0.3,0s0.2,0,0.3,0s0.2,0,0.3,0h0.1h0.1c0.2-0.1,0.3-0.1,0.5-0.1
				c0.1-0.1,0.3-0.2,0.5-0.3s0.3-0.1,0.5-0.1c0,0,0.1,0,0.1-0.1c0,0,0.1,0,0.1-0.1c0.1,0,0.2-0.1,0.2-0.1c0.2-0.1,0.3-0.2,0.5-0.3
				c0.1-0.1,0.1-0.1,0.2-0.2c0.1-0.1,0.1-0.1,0.2-0.2l0.2-0.2c0.1-0.1,0.1-0.1,0.2-0.2c0.1-0.2,0.3-0.2,0.4-0.4
				c0.1-0.1,0.3-0.3,0.3-0.5c0.2-0.3,0.4-0.6,0.5-1l0.1-0.3c0-0.1,0.1-0.2,0.1-0.3c0-0.2,0.1-0.4,0.1-0.6c0.2-0.2,0.2-0.4,0.2-0.6
				c0-0.2-0.1-0.4-0.1-0.6c0-0.2-0.1-0.4-0.1-0.6c0-0.2,0-0.4,0-0.6c0-0.2-0.1-0.4-0.2-0.6c0-0.1,0-0.2-0.1-0.3L49,46.6
				c-0.2-0.3-0.2-0.8-0.5-1c-0.1-0.1-0.2-0.3-0.3-0.5s-0.2-0.3-0.4-0.4c-0.1,0-0.2-0.1-0.2-0.2c-0.1,0-0.2-0.1-0.2-0.2
				c-0.1-0.1-0.1-0.1-0.2-0.2c-0.1,0-0.2-0.1-0.2-0.2c-0.2-0.1-0.3-0.3-0.4-0.4c-0.1-0.1-0.1-0.1-0.2-0.2h-0.1c0,0-0.1,0-0.2,0
				c-0.2,0-0.4,0-0.5-0.1c-0.2,0-0.3-0.1-0.4-0.3c-0.2,0-0.3-0.1-0.5-0.2c0,0-0.1,0-0.1-0.1h-0.1c-0.1,0-0.2,0-0.3,0
				c-0.1-0.1-0.2-0.1-0.2-0.2c-0.1,0-0.2,0-0.3,0c-0.2,0-0.3,0.1-0.5,0.1s-0.3,0-0.5,0s-0.3,0-0.5,0.1c-0.1,0-0.2,0.1-0.2,0.1
				c-0.1,0-0.2,0-0.2,0c-0.2,0-0.3,0-0.5,0.1c-0.1,0.1-0.3,0.1-0.4,0.1c-0.1,0-0.2,0-0.2,0c-0.1,0-0.1,0.1-0.2,0.1
				c-0.3,0.1-0.5,0.3-0.8,0.4c0,0.2-0.1,0.3-0.3,0.3c-0.1,0-0.3,0-0.4,0.1c-0.1,0.1-0.2,0.2-0.2,0.3c-0.1,0.1-0.1,0.2-0.3,0.2
				c0,0.2,0,0.3-0.2,0.3C38.2,44.9,38,45,37.9,45c-0.2,0.1-0.2,0.5-0.4,0.5c0,0.1,0,0.1,0,0.2l-0.1,0.1c-0.1,0.1-0.2,0.1-0.2,0.2
				c-0.2,0.1-0.2,0.4-0.3,0.5c0,0.1,0,0.2-0.1,0.3c0,0.1-0.1,0.2-0.1,0.2c0,0.2-0.1,0.3-0.2,0.4c0,0.2-0.1,0.4-0.2,0.5
				s-0.1,0.3-0.1,0.4C36.3,48.8,36.2,48.9,36.2,48.9z"/>
		</g>
		<g id="XMLID_17960_">
			<path class="st0" d="M64.1,17c-0.1,0.1-0.3,0.1-0.6-0.1c0,0-0.1,0-0.2-0.1c-0.1,0-0.1-0.1-0.2-0.1c0.1-0.1-0.3,0.1-0.2-0.1
				c0-0.1-0.1-0.1-0.2-0.2c-0.1,0,0-0.2-0.2-0.2c-0.1,0-0.1-0.1-0.1-0.1c0-0.1,0.1-0.1-0.1-0.1c-0.1-0.1-0.2-0.2-0.2-0.3
				c0.1-0.1,0.1-0.1,0-0.2c0-0.1-0.1-0.1-0.2-0.1c0.2-0.2,0.1-0.3-0.1-0.4c0.3-0.2,0.3-0.3-0.1-0.4c0-0.1,0.1-0.3,0-0.4
				c0-0.1,0-0.3,0-0.4c-0.2-0.2-0.2-0.3,0.1-0.4c-0.2-0.2-0.1-0.3,0.1-0.4s-0.1-0.4,0.2-0.4c0.1-0.1,0.1-0.3,0.2-0.4
				c0.2-0.1,0.3-0.2,0.2-0.4c0-0.2,0-0.3,0.2-0.4c-0.1-0.3,0-0.3,0.3-0.4c0-0.1,0.1-0.1,0.2-0.2c0.1-0.1,0.1-0.1,0.1-0.2
				c0.1-0.1,0-0.3,0.2-0.3c0.1-0.1,0.3-0.2,0.2-0.4C63.8,9.4,64,9.4,64,9.3c0.3,0,0-0.3,0.1-0.4c0-0.1,0.2-0.2,0.1-0.4
				c0-0.1,0-0.3,0.1-0.4C64,8,64.5,8,64.4,7.8c0.2-0.1,0-0.2,0.1-0.4c-0.1-0.1,0.2-0.2,0-0.3c0-0.1-0.1-0.2,0-0.3
				c-0.2-0.1,0.2-0.2,0-0.3c0-0.1,0-0.2,0-0.3c0.3-0.1,0-0.2,0-0.3c0-0.1-0.2-0.2,0-0.3c0-0.1,0.1-0.2,0-0.3c-0.1-0.1,0.4-0.3,0-0.3
				c-0.1-0.1,0.3-0.2,0-0.3c-0.3,0,0-0.2,0-0.2c0-0.1,0-0.2,0-0.2c0-0.6,0-1,0.1-1.1c0.2-0.1,0.5,0.3,0.8,1.1c0,0.1,0.3,0.1,0.1,0.2
				c0,0.1,0.2,0.2,0.1,0.3c0.3,0,0.1,0.2,0.1,0.3c0,0.1,0,0.2,0.1,0.3c0.2,0.1-0.1,0.2,0.1,0.3C65.7,5.8,65.8,5.9,66,6
				c-0.2,0.2,0,0.3,0,0.4c-0.3,0.1-0.1,0.3,0,0.4s0,0.3,0,0.4c-0.1,0.1,0.1,0.3,0,0.4c0.1,0.2,0.1,0.3,0,0.4c0.1,0.2,0,0.3-0.1,0.4
				c0.1,0.3,0,0.4,0,0.6c0,0.1-0.1,0.1-0.1,0.2c-0.1,0.1-0.1,0.1,0,0.3c0,0.2-0.2,0.3-0.2,0.5c-0.1,0.1-0.2,0.3-0.2,0.5
				c-0.3,0-0.2,0.3-0.2,0.5s-0.1,0.3-0.3,0.4c0,0.1-0.1,0.2-0.1,0.2s-0.1,0.1-0.1,0.2c0,0.2-0.3,0.2-0.2,0.3c0,0.2-0.2,0.2-0.2,0.3
				s0,0.3-0.2,0.3c-0.1,0.1-0.3,0.1-0.2,0.3c0,0.1,0.3,0.4-0.1,0.3c0,0.1-0.3,0.2-0.1,0.3c-0.3,0-0.1,0.2-0.1,0.3
				c-0.1,0.1-0.2,0.2-0.1,0.3c0.1,0.1-0.1,0.2,0,0.3c0.1,0,0,0.1,0,0.1s-0.1,0.1,0,0.1c0,0.1,0.1,0.1,0,0.2c0.2,0,0.2,0,0.2,0.1
				s-0.1,0.1-0.1,0.2c0,0.1,0.3,0,0,0.2c0.1,0,0.2,0,0.2,0c0,0.1-0.1,0.1-0.1,0.2c0,0.1,0.2,0.1,0.1,0.2c0.2-0.1,0,0.2,0.1,0.2
				c-0.1,0.1,0.1,0.1,0.1,0.2c0.1,0,0.1,0.1,0.1,0.1s0,0.1,0.1,0.1C64.1,16.7,64.2,16.9,64.1,17z"/>
		</g>
		<g id="XMLID_17953_">
			<path class="st0" d="M54.9,22.6c-0.1,0.1-0.3,0.1-0.5-0.1c0,0-0.1,0-0.2-0.1c-0.1,0-0.1,0-0.2-0.1c0.1-0.1-0.3,0.1-0.2-0.1
				c0-0.1-0.1-0.1-0.2-0.2c-0.1,0,0-0.2-0.2-0.2c-0.1,0-0.1,0-0.1-0.1s0.1-0.1-0.1-0.1c-0.1-0.1-0.2-0.2-0.2-0.3
				c0.1-0.1,0.1-0.1,0-0.2c0,0-0.1-0.1-0.2-0.1c0.2-0.2,0.1-0.3-0.1-0.4c0.3-0.2,0.3-0.3-0.1-0.4c0-0.1,0.1-0.3,0-0.4
				c0-0.1,0-0.3,0-0.4c-0.2-0.2-0.2-0.3,0.1-0.4c-0.2-0.2-0.1-0.3,0.1-0.4s-0.1-0.4,0.2-0.4c0.1-0.1,0.1-0.3,0.2-0.4
				c0.2-0.1,0.3-0.2,0.2-0.4c0-0.2,0-0.3,0.2-0.4c-0.1-0.3,0-0.3,0.3-0.4c0-0.1,0.1-0.1,0.2-0.2c0.1,0,0.1-0.1,0.1-0.2
				c0.1-0.1,0-0.3,0.2-0.3c0.1-0.1,0.3-0.2,0.2-0.4s0.2-0.2,0.2-0.4c0.3,0,0-0.3,0.1-0.4c0-0.1,0.2-0.2,0.1-0.4
				c0-0.1-0.1-0.2,0.1-0.3c-0.3-0.2,0.1-0.2,0.1-0.4c0.2-0.1,0-0.2,0.1-0.4c-0.1-0.1,0.2-0.2,0-0.4c0-0.1-0.1-0.2,0-0.3
				c-0.2-0.1,0.2-0.2,0-0.3c0-0.1,0-0.2,0-0.3c0.3-0.1,0-0.2,0-0.3s-0.2-0.2,0-0.3c0-0.1,0.1-0.2,0-0.3s0.4-0.3,0-0.3
				c-0.1-0.1,0.3-0.2,0-0.3c-0.3,0,0-0.2,0-0.2s0-0.1,0-0.2c0-0.6,0-1,0.1-1.1c0.2-0.1,0.5,0.3,0.8,1.1c0,0.1,0.3,0.1,0.1,0.2
				c0,0.1,0.2,0.1,0.1,0.3c0.3,0,0.1,0.2,0.1,0.3s0,0.2,0.1,0.3c0.2,0.1,0,0.2,0.1,0.3c-0.2,0.1-0.1,0.2,0.1,0.4
				c-0.2,0.1,0,0.2,0,0.4c-0.3,0.1-0.1,0.3,0,0.4c0.1,0.1,0,0.3,0,0.4c0,0.1,0,0.3,0,0.4c0.1,0.1,0.1,0.3,0,0.4c0.1,0.2,0,0.3,0,0.4
				c0.1,0.2-0.1,0.3-0.1,0.5c0,0.1-0.1,0.1-0.1,0.2c-0.1,0.1-0.1,0.1,0,0.3c0,0.2-0.1,0.3-0.2,0.5c-0.1,0.1-0.2,0.3-0.2,0.5
				c-0.3,0-0.2,0.3-0.2,0.5s-0.1,0.3-0.3,0.4c0,0.1-0.1,0.2-0.1,0.2c0,0.1-0.1,0.1-0.1,0.2c0,0.2-0.3,0.2-0.2,0.3
				c0,0.2-0.2,0.2-0.2,0.3c0,0.1,0,0.3-0.2,0.3c0,0.1-0.3,0.1-0.2,0.3c0,0.1,0.3,0.4-0.1,0.3c0,0.1-0.3,0.2-0.1,0.3
				c-0.3,0-0.1,0.2-0.1,0.3c-0.1,0.1-0.2,0.2-0.1,0.3c0.1,0.1-0.1,0.2,0,0.3c0.1,0,0,0.1,0,0.1s-0.1,0.1,0,0.1c0,0.1,0.1,0.1,0,0.2
				c0.2,0,0.2,0,0.2,0.1s-0.1,0.1-0.1,0.2s0.3,0,0,0.2c0.1,0,0.2,0,0.2,0s-0.1,0.1-0.1,0.2s0.2,0,0.1,0.2c0.2-0.1,0,0.2,0.1,0.2
				c-0.1,0.1,0.1,0.1,0.1,0.2c0.1,0,0.1,0.1,0.1,0.1s0,0.1,0.1,0.1C54.9,22.3,54.9,22.5,54.9,22.6z"/>
		</g>
		<g id="XMLID_17952_">
			<path class="st0" d="M73.3,22.6c-0.1,0.1-0.3,0.1-0.6-0.1c-0.1,0-0.1,0-0.2-0.1c-0.1,0-0.1,0-0.2-0.1c0.1-0.1-0.3,0.1-0.2-0.1
				c0-0.1-0.1-0.1-0.2-0.2c-0.1,0,0-0.2-0.2-0.2c-0.1,0-0.1,0-0.1-0.1s0.1-0.1-0.1-0.1c-0.1-0.1-0.2-0.2-0.2-0.3
				c0.1-0.1,0.1-0.1,0-0.2c-0.1,0-0.1-0.1-0.2-0.1c0.2-0.2,0.1-0.3-0.1-0.4c0.3-0.2,0.3-0.3-0.1-0.4c0-0.1,0.1-0.3,0-0.4
				c0-0.1,0-0.3,0-0.4c-0.2-0.2-0.2-0.3,0.1-0.4c-0.2-0.2-0.1-0.3,0.1-0.4s-0.1-0.4,0.2-0.4c0.1-0.1,0.1-0.3,0.2-0.4
				c0.2-0.1,0.3-0.2,0.2-0.4c0-0.2,0-0.3,0.2-0.4c-0.1-0.3,0.1-0.3,0.3-0.4c0-0.1,0.1-0.1,0.2-0.2s0.1-0.1,0.1-0.2
				c0.1-0.1,0-0.3,0.2-0.3c0.1-0.1,0.3-0.2,0.2-0.4c0.1-0.5,0.4-0.5,0.4-0.6c0.3,0,0-0.3,0.1-0.4c0-0.1,0.2-0.2,0.1-0.4
				c0-0.1,0-0.3,0.1-0.4c-0.3-0.2,0.1-0.2,0.1-0.4c0.2-0.1,0-0.2,0.1-0.4c-0.1-0.1,0.2-0.2,0-0.4c0-0.1-0.1-0.2,0-0.3
				c-0.2-0.1,0.2-0.2,0-0.3c0-0.1,0-0.2,0-0.3c0.3-0.1,0-0.2,0-0.3s-0.2-0.2,0-0.3c0-0.1,0.1-0.2,0-0.3s0.4-0.3,0-0.3
				c-0.1-0.1,0.3-0.2,0-0.3c-0.3,0,0-0.2,0-0.2c0-0.1,0-0.1,0-0.2c0-0.6,0-1,0.1-1.1c0.2-0.1,0.5,0.3,0.8,1.1c0,0.1,0.3,0.1,0.1,0.2
				c0,0.1,0.2,0.1,0.1,0.3c0.3,0,0.1,0.2,0.1,0.3s0,0.2,0.1,0.3c0.2,0.1-0.1,0.2,0.1,0.3c-0.2,0.1-0.1,0.2,0.1,0.4
				c-0.2,0.1,0.1,0.2,0.1,0.4c-0.3,0.1-0.1,0.3,0,0.4c0.1,0.1,0,0.3,0,0.4c-0.1,0.1,0.1,0.3,0,0.4c0.1,0.1,0.1,0.3,0,0.4
				c0.1,0.2,0,0.3-0.1,0.4c0.1,0.2-0.1,0.3-0.1,0.5c0,0.1-0.1,0.1-0.1,0.2c-0.1,0.1-0.1,0.1,0,0.3c0,0.2-0.2,0.3-0.2,0.5
				c-0.1,0.1-0.2,0.3-0.2,0.5c-0.3,0-0.2,0.3-0.2,0.5c0,0.2-0.1,0.3-0.3,0.4c0,0.1-0.1,0.2-0.1,0.2S74,17.1,74,17.2
				c0,0.2-0.3,0.2-0.2,0.3c0,0.2-0.2,0.2-0.2,0.3c0,0.1,0,0.3-0.2,0.3c-0.1,0.1-0.3,0.1-0.2,0.3c0,0.1,0.3,0.4-0.1,0.3
				c0,0.1-0.3,0.2-0.1,0.3c-0.3,0-0.1,0.2-0.1,0.3c-0.1,0.1-0.2,0.2-0.1,0.3c0.1,0.1-0.1,0.2-0.1,0.3c0.1,0,0,0.1,0,0.1
				c-0.1,0-0.1,0.1,0,0.1c0,0.1,0.1,0.1,0,0.2c0.2,0,0.2,0,0.2,0.1c0,0-0.1,0.1-0.1,0.2s0.3,0,0.1,0.2c0.1,0,0.2,0,0.2,0
				S73,20.9,73,21s0.2,0,0.1,0.2c0.2-0.1,0,0.2,0.1,0.2c-0.1,0.1,0.1,0.1,0.1,0.2c0.1,0,0.1,0.1,0.1,0.1l0.1,0.1
				C73.4,22.3,73.4,22.5,73.3,22.6z"/>
		</g>
	</g>
</g>
</svg>
