<?xml version="1.0" encoding="utf-8"?>
<!-- Generator: Adobe Illustrator 23.1.0, SVG Export Plug-In . SVG Version: 6.00 Build 0)  -->
<svg version="1.1" id="Layer_1" xmlns="http://www.w3.org/2000/svg" xmlns:xlink="http://www.w3.org/1999/xlink" x="0px" y="0px"
	 viewBox="0 0 84.3 56.3" style="enable-background:new 0 0 84.3 56.3;" xml:space="preserve">
<style type="text/css">
	.st0{fill:#FFC607;}
</style>
<g>
	<g id="XMLID_17951_">
		<g id="XMLID_17995_">
			<path class="st0" d="M0,51.7c-0.1-0.1-0.1-0.2,0-0.4c0,0,0-0.1,0-0.1c0,0,0-0.1,0-0.1c0.1,0.1-0.1-0.2,0-0.1c0.1,0,0.1,0,0.1-0.1
				s0.1,0,0.1-0.1c-0.2-0.2,0.3,0.2,0.1-0.1c0-0.1,0-0.1,0.1-0.1c0.2,0.1,0.1-0.1,0.1-0.1c0.2,0.1,0.2,0,0.1-0.1
				c0.3,0.2,0.3,0.1,0.1-0.1c0,0,0.2,0,0.1-0.2c0-0.1,0-0.2,0.1-0.2c-0.1-0.2-0.1-0.3,0.1-0.2c-0.1-0.2,0-0.2,0.1-0.2
				c0.1,0-0.1-0.3,0.1-0.2c0.1,0,0.1-0.1,0.1-0.2c0.1,0,0.3,0,0.1-0.2c0-0.1,0-0.2,0.1-0.2c-0.1-0.2,0-0.2,0.1-0.2
				c0-0.1,0.2,0,0.2-0.2c0.1,0,0-0.2,0.2-0.2c0.1,0,0.2,0,0.2-0.2C2.2,48,2.4,48.1,2.4,48c0.2,0.1,0-0.2,0.2-0.2
				c0-0.1,0.2,0,0.2-0.2c0-0.1,0-0.2,0.2-0.1c-0.2-0.3,0.2,0,0.2-0.1c0.2,0.1,0.1-0.1,0.2-0.1c0-0.1,0.2,0,0.2-0.1
				c0.1,0,0-0.2,0.2-0.1c-0.1-0.2,0.2,0,0.2-0.1c0,0,0.1-0.1,0.2-0.1c0.3,0.2,0.1,0,0.1-0.1c0.1,0,0-0.2,0.1-0.1
				c0.1,0,0.2,0,0.1-0.1c0-0.1,0.4,0.2,0.1-0.1c0-0.1,0.3,0.2,0.1-0.1c-0.1-0.2,0.1,0,0.1-0.1s0.1,0,0.1,0c0.3-0.1,0.6-0.2,0.7-0.1
				c0.1,0.1,0.1,0.4-0.1,0.8c0,0,0.1,0.2-0.1,0.1c0,0,0.1,0.2-0.1,0.1c0.2,0.2,0,0.1-0.1,0.1c0,0-0.1,0-0.1,0.1
				c0.1,0.2-0.1,0-0.1,0.1c-0.2-0.1-0.2,0-0.1,0.1c-0.2-0.1-0.1,0.1-0.1,0.2c-0.2-0.1-0.1,0-0.1,0.2s-0.1,0.1-0.1,0.2
				c-0.1,0-0.1,0.1-0.1,0.2c0,0.1,0,0.2-0.1,0.2c0,0.1-0.1,0.1-0.1,0.2c0,0.1-0.1,0.1-0.1,0.2c0,0.1-0.3-0.1-0.2,0.2
				c0,0.1-0.1,0.1-0.2,0.2c-0.1,0-0.2,0.1-0.2,0.2c-0.3-0.1-0.2,0-0.2,0.2c0,0.1-0.1,0.1-0.2,0.2c0,0.1-0.1,0.1-0.2,0.2
				c0,0.1-0.2,0-0.2,0.2c0,0.1-0.2,0-0.2,0.2c0,0.1,0,0.2-0.2,0.1c0,0-0.3-0.1-0.2,0.1c0,0.1,0.2,0.4-0.2,0.1c0,0.1-0.2,0-0.2,0.1
				c-0.3-0.2-0.1,0.1-0.1,0.1c-0.1,0-0.2,0-0.1,0.1c0,0.1-0.1,0-0.1,0.1c0.1,0.2-0.2-0.1-0.1,0.1c-0.1,0-0.1,0.1-0.1,0.1
				c0.2,0.3-0.1,0.1-0.1,0.1c-0.1,0,0.1,0.3-0.1,0.1c0.2,0.2,0,0.1-0.1,0.1c-0.1,0,0,0.2-0.1,0.1c0.1,0.2-0.1,0-0.1,0
				c-0.1-0.1-0.1,0-0.1,0c0,0,0,0.1-0.1,0c0,0-0.1,0-0.1,0C0.2,51.7,0.1,51.7,0,51.7z"/>
		</g>
		<g id="XMLID_17994_">
			<path class="st0" d="M42.8,8.8c-0.1-0.1-0.1-0.2,0-0.4c0,0,0-0.1,0-0.1c0,0,0-0.1,0-0.1c0.1,0.1-0.1-0.2,0-0.1
				c0.1,0,0.1-0.1,0-0.1c0-0.1,0.1,0,0.1-0.1c-0.2-0.2,0.3,0.1,0.1-0.1c0-0.1,0-0.1,0.1-0.1c0.2,0.1,0.1-0.1,0.1-0.1
				c0.2,0.1,0.2,0,0.1-0.1c0.3,0.2,0.3,0.1,0.1-0.1c0-0.1,0.2,0,0.1-0.1c0-0.1,0-0.2,0.1-0.2c-0.1-0.2-0.1-0.2,0.1-0.2
				c-0.1-0.2,0-0.2,0.1-0.2c0.1,0.1-0.1-0.3,0.1-0.2c0.1,0,0.1-0.1,0.1-0.2c0.1,0,0.3,0.1,0.1-0.2c0-0.1,0-0.2,0.2-0.2
				c-0.1-0.2,0-0.2,0.2-0.2c0-0.1,0.2,0,0.2-0.2c0.1,0,0-0.2,0.2-0.2c0.1,0,0.2,0,0.2-0.2c-0.1-0.2,0.2-0.1,0.2-0.2
				c0.2,0.1,0-0.2,0.2-0.2c0-0.1,0.2,0,0.2-0.2c0-0.1,0-0.2,0.2-0.1c-0.2-0.3,0.2,0,0.2-0.1C46,4.7,45.9,4.5,46,4.5
				c0-0.1,0.2,0,0.2-0.1c0.1,0,0-0.2,0.2-0.1c-0.1-0.2,0.2,0,0.2-0.1c0,0,0.1-0.1,0.2-0.1c0.3,0.2,0.1,0,0.1-0.1
				c0.1,0,0-0.2,0.1-0.1c0,0,0.2,0,0.1-0.1c0-0.1,0.4,0.2,0.1-0.1c0-0.1,0.3,0.2,0.1-0.1c-0.1-0.2,0.1,0,0.1-0.1c0,0,0.1,0,0.1,0
				c0.3-0.1,0.6-0.2,0.7-0.1c0.1,0.1,0.1,0.4-0.1,0.8c0,0,0.1,0.2-0.1,0.1c0,0,0,0.2-0.1,0.1c0.2,0.2,0,0.1-0.1,0.1
				c0,0-0.1,0-0.1,0.1c0.1,0.2-0.1,0-0.1,0.1c-0.2-0.1-0.2,0-0.1,0.1c-0.2-0.1-0.1,0.1-0.1,0.2c-0.2-0.1-0.1,0-0.1,0.2
				c0,0.1-0.1,0.1-0.1,0.2c-0.1,0,0,0.1-0.1,0.2c0,0.1,0,0.2-0.1,0.2c0,0.1-0.1,0.1-0.1,0.2c0,0.1-0.1,0.1-0.1,0.2
				c0,0.1-0.3-0.1-0.2,0.2c0,0.1-0.1,0.1-0.2,0.2c-0.1,0-0.2,0.1-0.2,0.2c-0.3-0.1-0.2,0-0.2,0.2c0,0.1-0.1,0.1-0.2,0.2
				c0,0.1-0.1,0.1-0.1,0.2c0,0.1-0.2,0-0.2,0.2s-0.2,0-0.2,0.2c0,0.1,0,0.2-0.2,0.1c0,0.1-0.3-0.1-0.2,0.1c0,0.1,0.2,0.4-0.2,0.1
				c0,0.1-0.2,0-0.2,0.1C44.5,7.8,44.7,8,44.6,8c-0.1,0-0.2,0-0.2,0.1c0,0.1-0.1,0-0.2,0.1c0.1,0.1-0.2-0.1-0.1,0.1
				c-0.1,0-0.1,0.1-0.1,0.1c0.2,0.3-0.1,0.1-0.1,0.1c-0.1,0,0.1,0.3-0.1,0.1c0.2,0.2,0,0.1-0.1,0.1c-0.1,0,0,0.1-0.1,0.1
				c0.1,0.2-0.1,0-0.1,0.1c-0.1-0.1-0.1,0.1-0.1,0c0,0.1,0,0.1-0.1,0c0,0-0.1,0-0.1,0C43,8.9,42.8,8.9,42.8,8.8z"/>
		</g>
		<g id="XMLID_17993_">
			<path class="st0" d="M39.6,5.6c0,0-0.1,0-0.1,0c0,0-0.1,0-0.1-0.1s-0.1,0-0.2-0.1c-0.1-0.1-0.3-0.1-0.4-0.1s-0.3-0.1-0.6-0.1
				c-0.1,0-0.3,0-0.4,0.1c-0.2,0.1-0.3,0.1-0.5,0.2c0,0-0.1,0-0.1,0c0,0-0.1,0.1-0.1,0.1c0,0,0,0.1-0.1,0.1c0,0-0.1,0.1-0.1,0
				c0,0-0.1,0-0.1,0.1c0,0-0.1,0.1-0.1,0.1c-0.1,0.1-0.1,0.2-0.2,0.3C36.3,6.6,36,6.7,35.9,7c0,0.4-0.6,0.2-0.6,0.6
				C35.2,7.8,35,8,34.7,8.2c-0.4,0.1-0.5,0.4-0.7,0.7c-0.4,0.1-0.6,0.4-0.7,0.7c-0.5,0-0.7,0.3-0.7,0.8c-0.3,0.3-0.6,0.4-0.8,0.8
				c-0.2,0.3-0.5,0.6-0.7,0.8c0,0.2,0,0.3,0,0.4c0,0.1-0.1,0.2-0.2,0.3c0.1,0.1,0.2,0.3,0.2,0.4s0,0.3,0,0.4c0,0.1,0,0.1,0.1,0.2
				c0,0,0.1,0,0.1,0.1s0,0,0.1,0.1c0.2,0.1,0.4,0.2,0.4,0.5c0.3,0.3,0.6,0.6,0.9,0.9c0.2,0.4,0.5,0.8,1,0.9c0.4,0.3,0.8,0.5,1,1
				c0.5,0.1,0.8,0.5,1,1c0.4,0.3,0.6,0.8,1,1c0.3,0.4,0.8,0.6,1,1c0.1,0.1,0.2,0.3,0.3,0.3c0.1,0.1,0.3,0.1,0.5,0
				c0.2-0.1,0.3-0.1,0.4-0.1c0.1,0,0.3,0,0.4-0.1c0,0,0.1,0,0.1,0s0.1,0,0.1,0c0,0,0,0,0.1-0.1c0,0,0.1-0.1,0.1-0.1
				c0.1-0.2,0.3-0.4,0.5-0.5c0.3-0.3,0.8-0.5,1-1c0.3-0.4,0.6-0.7,1-0.9c0-0.6,0.7-0.5,0.9-0.9c0.4-0.2,0.6-0.6,0.9-0.9
				c0.3-0.4,0.7-0.5,0.9-0.9c0.2-0.1,0.3-0.3,0.4-0.4c0.1-0.1,0.2-0.2,0.3-0.3c0-0.2,0.1-0.2,0.1-0.4c0-0.1,0.1-0.1,0.1-0.2
				c0-0.1,0-0.1,0-0.2c0-0.1,0-0.3-0.1-0.4c0-0.1-0.1-0.2-0.1-0.4c0.1-0.2,0-0.3-0.1-0.4c-0.1-0.1-0.3-0.2-0.4-0.3
				c-0.2-0.3-0.6-0.4-0.7-0.7c-0.2-0.3-0.3-0.6-0.7-0.7c-0.3-0.2-0.1-0.7-0.6-0.7c-0.3-0.2-0.2-0.6-0.6-0.6c-0.4,0-0.4-0.4-0.5-0.6
				c-0.2-0.2-0.3-0.4-0.5-0.5C40.2,6.7,39.5,5.7,39.6,5.6c0.1-0.1,1.3,0.8,3.2,2.5c0.2,0.2,0.5,0.2,0.6,0.5c0.2,0.2,0.5,0.3,0.6,0.6
				c0.4,0,0.5,0.4,0.7,0.6c0.2,0.2,0.4,0.5,0.7,0.6c0.3,0.1,0.4,0.5,0.7,0.7c0.1,0.2,0.2,0.3,0.3,0.4c0.2,0.1,0.3,0.3,0.5,0.5
				c0.1,0.3,0.2,0.5,0.3,0.7c0.1,0.2,0.2,0.5,0.2,0.7c-0.1,0.3-0.2,0.5-0.2,0.7c0,0.3-0.1,0.5-0.1,0.8c-0.1,0.3-0.3,0.5-0.5,0.7
				c-0.2,0.1-0.3,0.3-0.4,0.4c-0.3,0.3-0.5,0.6-0.9,0.9c-0.2,0.4-0.5,0.7-0.9,0.9c-0.3,0.4-0.6,0.6-0.9,0.9c-0.2,0.4-0.6,0.6-0.9,1
				c-0.3,0.4-0.8,0.5-1,1c-0.2,0.2-0.3,0.3-0.5,0.5l-0.1,0.1l-0.2,0.2c-0.1,0.1-0.1,0.1-0.2,0.2c-0.1,0-0.1,0.1-0.2,0.1
				c-0.3,0.2-0.6,0.3-0.9,0.3s-0.7,0.1-1,0.1c-0.3-0.2-0.6-0.3-0.9-0.4c-0.3-0.1-0.6-0.3-0.9-0.5c-0.4-0.3-0.7-0.7-1-1
				c-0.4-0.3-0.7-0.7-1-1c-0.4-0.3-0.6-0.8-1-1s-0.6-0.7-1-1c-0.4-0.3-0.7-0.5-0.9-1c-0.3-0.3-0.4-0.8-0.9-0.9
				c-0.2-0.1-0.4-0.2-0.6-0.3c0,0-0.1-0.1-0.1-0.1s-0.1-0.1-0.1-0.2c-0.1-0.1-0.1-0.3-0.1-0.5c-0.2-0.2-0.3-0.5-0.3-0.8
				c0-0.3,0-0.6-0.1-0.8c0.1-0.3,0.2-0.5,0.3-0.8c0-0.3,0.1-0.5,0.3-0.7c0.2-0.2,0.4-0.4,0.5-0.5c0.1-0.1,0.3-0.3,0.4-0.4
				c0.2-0.4,0.6-0.5,0.8-0.8c0.1-0.4,0.7-0.4,0.8-0.7c0.3-0.2,0.5-0.5,0.7-0.7c0-0.5,0.5-0.5,0.7-0.7c0.3-0.2,0.3-0.6,0.7-0.6
				c0-0.4,0.4-0.4,0.6-0.6c0.3-0.1,0.3-0.5,0.6-0.5c0-0.2,0.1-0.2,0.2-0.3c0.1,0,0.1-0.1,0.2-0.1c0,0,0.1-0.1,0.2-0.1
				c0.1,0,0.1-0.1,0.2-0.1c0.1,0,0.1-0.1,0.2-0.1c0,0,0.1-0.1,0.2-0.1c0.1,0,0.1-0.1,0.2-0.1c0.2-0.1,0.5-0.2,0.7-0.1
				c0.2,0,0.4,0,0.6,0C38.5,4.8,38.8,4.9,39,5s0.3,0.2,0.4,0.3c0,0.1,0.1,0.1,0.1,0.1C39.5,5.5,39.5,5.5,39.6,5.6
				C39.6,5.6,39.6,5.6,39.6,5.6z"/>
		</g>
		<g id="XMLID_17992_">
			<path class="st0" d="M34,17.6c0,0-0.2,0-0.4-0.1c-0.1-0.1-0.2-0.1-0.4-0.2c-0.2-0.1-0.3-0.2-0.5-0.3c-0.1-0.1-0.3-0.1-0.4-0.2
				c-0.1,0-0.2-0.1-0.2-0.1c-0.1,0-0.2-0.1-0.2-0.1c-0.1-0.2-0.4,0.1-0.5-0.2c-0.1-0.1-0.2-0.1-0.3-0.1c-0.1,0-0.2,0-0.3,0
				c-0.2,0-0.4-0.2-0.7-0.1c-0.1,0.1-0.2,0-0.4-0.1c-0.1-0.1-0.2-0.1-0.4,0c-0.1,0-0.3,0-0.4,0s-0.3,0-0.4,0c-0.1-0.1-0.3-0.1-0.4,0
				s-0.3,0.1-0.4,0.2c-0.3-0.2-0.6,0-0.8,0.3c-0.1-0.1-0.2-0.1-0.3-0.1c-0.1,0-0.2,0-0.2,0c-0.1,0.1-0.2,0.2-0.3,0.4
				c-0.1,0.1-0.3,0.1-0.4,0.2c-0.1,0-0.1,0.1-0.2,0.1c-0.1,0-0.1,0.1-0.1,0.2c-0.1,0.1-0.2,0.2-0.4,0.3c-0.1,0.1-0.2,0.2-0.4,0.3
				c0,0.2-0.1,0.4-0.2,0.5c0,0.1-0.1,0.1-0.2,0.2s-0.1,0.1-0.2,0.1c0,0.4-0.2,0.6-0.5,0.9c-0.1,0.1-0.2,0.3-0.2,0.5s0,0.4-0.2,0.5
				c0,0,0,0.1,0,0.1l0,0.1c0,0.1,0,0.2,0,0.3c0,0.2,0,0.4-0.1,0.5c0,0.1-0.1,0.2-0.1,0.3c0,0.1,0,0.2-0.1,0.3c0,0.1,0,0.2,0,0.3
				c0,0.1,0.1,0.2,0.1,0.3c0,0.2,0.1,0.4,0.1,0.5c0,0.2,0,0.4,0,0.6c0.3,0.3,0.3,0.7,0.4,1.1c0,0.1,0.1,0.2,0.1,0.3s0.1,0.2,0.1,0.3
				c0.1,0.2,0.2,0.4,0.3,0.5c0.1,0.2,0.2,0.3,0.4,0.5c0.1,0.1,0.3,0.3,0.4,0.5c0.1,0.2,0.2,0.3,0.4,0.5c0.1,0.1,0.3,0.2,0.5,0.3
				c0.2,0,0.4,0.1,0.5,0.3c0.1,0.1,0.2,0.1,0.2,0.2s0.2,0.1,0.3,0.1c0.1,0.1,0.1,0.2,0.2,0.2c0.1,0,0.2,0,0.3,0.1l0.1,0
				c0,0,0.1,0,0.1,0c0.1,0,0.2,0,0.3,0.1c0.2,0,0.4,0.1,0.5,0.1c0.2,0.1,0.4,0.1,0.6,0c0.1,0,0.2,0,0.3,0s0.2,0,0.3,0
				c0.1,0,0.2,0,0.3,0c0.1,0,0.2,0,0.3,0c0.1-0.2,0.3-0.2,0.5-0.2c0.1,0,0.2,0,0.3,0c0,0,0.1,0,0.1,0c0,0,0.1,0,0.1,0
				c0.2,0,0.4,0,0.5-0.1c0.1-0.1,0.3-0.2,0.5-0.3c0.1-0.1,0.3-0.2,0.5-0.2c0,0,0.1,0,0.1,0c0,0,0.1,0,0.1-0.1c0.1,0,0.1-0.1,0.2-0.2
				c0.1,0,0.1-0.1,0.2-0.1c0.1-0.1,0.1-0.1,0.2-0.2c0.1-0.1,0.1-0.1,0.2-0.2s0.1-0.1,0.2-0.1c0-0.2,0.2-0.3,0.3-0.4s0.3-0.2,0.3-0.4
				c0-0.1,0.1-0.1,0.1-0.2c0-0.1,0.1-0.1,0.1-0.2c0.1-0.1,0.2-0.3,0.3-0.4c0.2-0.1,0.3-0.2,0.3-0.4c0-0.1,0-0.3,0.1-0.5
				c0.1-0.3,0-0.6,0.3-0.8c0-0.1,0.1-0.3,0.1-0.4c0-0.1,0.1-0.3,0-0.4c0-0.1,0.1-0.3,0.2-0.4s0.1-0.3-0.1-0.4c0-0.1,0-0.3,0.1-0.4
				c0-0.1,0-0.3-0.1-0.4c-0.3-0.2-0.1-0.5-0.1-0.7c0,0,0-0.1,0-0.2s0-0.1,0-0.1c0-0.1,0-0.2-0.1-0.3c-0.3-0.9-0.6-1.5-0.9-2
				C34.1,17.9,34,17.6,34,17.6c0,0,0.1,0,0.3,0.1c0.1,0,0.2,0.1,0.3,0.2c0,0,0.1,0.1,0.2,0.1c0,0,0.1,0.1,0.2,0.2
				c0.5,0.5,1.1,1.3,1.5,2.5c0.1,0.2,0.3,0.5,0.2,0.8c0,0.1,0.1,0.3,0.1,0.4c0,0.1,0,0.3,0,0.4c0.1,0.1,0.2,0.3,0.1,0.5
				c0,0.1-0.1,0.3-0.1,0.5c0,0.2,0,0.3-0.1,0.5s0,0.3,0,0.5c0.1,0.4-0.2,0.6-0.2,1c-0.1,0.1-0.2,0.3-0.3,0.5
				c-0.1,0.2-0.1,0.4-0.1,0.5c-0.2,0.1-0.3,0.3-0.3,0.5c0,0.1-0.1,0.2-0.1,0.3c0,0.1-0.1,0.2-0.2,0.3c-0.2,0.1-0.3,0.2-0.5,0.4
				s-0.2,0.4-0.3,0.5c0,0.1-0.1,0.2-0.2,0.2s-0.2,0.1-0.2,0.2c-0.1,0.1-0.2,0.1-0.2,0.2c-0.1,0.1-0.2,0.1-0.2,0.2
				c-0.1,0-0.2,0.1-0.3,0.2l-0.1,0.1l-0.1,0.1c-0.2,0.1-0.3,0.3-0.5,0.3c-0.2,0.1-0.3,0.3-0.5,0.4c-0.2,0.1-0.4,0.1-0.7,0.1
				c0,0-0.1,0-0.1,0.1c0,0-0.1,0-0.2,0c-0.1,0-0.2,0.1-0.3,0.1c-0.2,0.1-0.5,0.1-0.7,0.1c-0.1,0-0.2,0.1-0.3,0.1c-0.1,0-0.2,0-0.4,0
				s-0.2,0-0.4,0s-0.2,0-0.4,0c-0.2,0-0.5-0.1-0.7-0.1c-0.2-0.1-0.5-0.1-0.7,0c-0.5-0.1-0.9-0.3-1.4-0.4l-0.3-0.2
				c-0.1-0.1-0.2-0.1-0.3-0.2c-0.2-0.1-0.4-0.2-0.7-0.4c-0.1-0.3-0.3-0.4-0.5-0.6c-0.2-0.1-0.4-0.3-0.7-0.4
				c-0.2-0.2-0.4-0.3-0.5-0.5c-0.1-0.2-0.3-0.4-0.4-0.6c-0.1-0.2-0.3-0.4-0.4-0.6C22.1,26.3,22,26.2,22,26l-0.1-0.3
				c-0.1-0.1-0.1-0.2-0.1-0.3c0-0.1-0.1-0.2-0.1-0.4l0-0.2c0-0.1,0-0.1,0-0.2c0-0.1-0.1-0.2-0.1-0.3c-0.1-0.2-0.1-0.5-0.1-0.7
				s0-0.5,0-0.7c0-0.1,0-0.2-0.1-0.4s0-0.2,0-0.4c0-0.1,0-0.2,0-0.4c0-0.1,0.1-0.2,0.1-0.3c0-0.2,0.1-0.4,0.2-0.6
				c0-0.1,0.1-0.2,0.1-0.3c0-0.1,0-0.1,0-0.2s0-0.1,0-0.2c0-0.2,0-0.5,0.1-0.7c0.1-0.2,0.2-0.4,0.4-0.5c0.1-0.2,0.2-0.4,0.4-0.5
				c0,0,0.1-0.1,0.1-0.1c0,0,0.1-0.1,0.1-0.1c0.1-0.1,0.1-0.2,0.1-0.3c0.1,0,0.2-0.1,0.3-0.2c0.1-0.1,0.1-0.1,0.2-0.2
				c0.1-0.2,0.2-0.4,0.4-0.5c0.2-0.1,0.3-0.2,0.5-0.3s0.3-0.2,0.4-0.4c0.1-0.1,0.1-0.1,0.2-0.2c0.1,0,0.2-0.1,0.3-0.1
				c0.2-0.1,0.4-0.1,0.5-0.2c0.1-0.1,0.3-0.2,0.5-0.2c0.1,0,0.2,0,0.3-0.1s0.2-0.1,0.2-0.1c0.3-0.1,0.7-0.2,1-0.2
				c0.1-0.2,0.3-0.2,0.5-0.2s0.3,0.1,0.5,0.1c0.2,0,0.3-0.1,0.5-0.1s0.3,0,0.5,0.1c0.1-0.1,0.3-0.1,0.4-0.1c0.1,0.1,0.3,0.2,0.4,0.2
				c0.3,0.1,0.5,0,0.8,0.2c0.1-0.1,0.3,0,0.4,0.1c0.1,0.1,0.2,0.2,0.3,0.2c0.2,0.2,0.4,0.2,0.6,0.3c0.1,0,0.2,0.1,0.3,0.1
				c0.1,0,0.2,0.1,0.2,0.2c0.2,0.1,0.3,0.2,0.4,0.3c0.2,0.2,0.3,0.3,0.5,0.4c0.1,0.1,0.2,0.3,0.3,0.4C34,17.4,34.1,17.5,34,17.6z"/>
		</g>
		<g id="XMLID_17991_">
			<path class="st0" d="M2.2,43c0,0-0.1,0-0.1,0C2.1,43,2,43,2,43c0,0-0.1-0.1-0.1-0.1c-0.2-0.2-0.4-0.5-0.5-1.1c0-0.2,0-0.4,0-0.6
				c0-0.2,0-0.5,0.1-0.7c0.1,0,0.1-0.1,0.1-0.2s0-0.1,0-0.2s0-0.1,0.1-0.2c0-0.1,0.1-0.1,0.2-0.1c0.1,0,0.1-0.1,0.2-0.1
				c0,0,0.1-0.1,0.1-0.1c0.1-0.1,0.1-0.2,0.2-0.3c0.1-0.2,0.4-0.3,0.5-0.6c0-0.4,0.6-0.2,0.6-0.6c0.2-0.3,0.4-0.5,0.6-0.7
				c0.4-0.1,0.4-0.4,0.7-0.7c0.4,0,0.6-0.4,0.7-0.7c0.5,0,0.7-0.3,0.7-0.8c0.3-0.3,0.6-0.4,0.8-0.8c0.1-0.1,0.3-0.3,0.4-0.4
				c0.1-0.1,0.3-0.3,0.6-0.5c0.3-0.5,0.9-0.7,1.5-0.5c0.3-0.1,0.6-0.2,0.9-0.1c0.3,0.1,0.5,0.2,0.8,0.4c0.1,0.1,0.2,0.2,0.3,0.3
				c0.1,0.1,0.2,0.2,0.4,0.2c0.2,0.1,0.4,0.2,0.4,0.5c0.3,0.3,0.6,0.6,0.9,0.9c0.2,0.4,0.5,0.8,1,0.9c0.4,0.3,0.8,0.5,1,1
				c0.5,0.1,0.8,0.5,1,1c0.4,0.3,0.6,0.8,1,1c0.3,0.4,0.8,0.6,1,1c0.2,0.3,0.4,0.6,0.5,0.9s0.2,0.6,0.4,0.9c0.1,0.3,0.1,0.7,0,1
				s-0.3,0.6-0.4,0.9c-0.1,0.1-0.1,0.1-0.2,0.2c-0.1,0.1-0.1,0.1-0.2,0.2c0,0.1-0.1,0.1-0.1,0.2c0,0-0.1,0.1-0.1,0.1
				c-0.1,0.2-0.3,0.4-0.5,0.5c-0.3,0.3-0.8,0.5-1,1c-0.3,0.3-0.6,0.7-1,0.9c0,0.6-0.7,0.5-0.9,0.9c-0.4,0.2-0.6,0.6-0.9,0.9
				c-0.3,0.3-0.7,0.5-0.9,0.9c-0.2,0.1-0.3,0.3-0.4,0.5c-0.2,0.2-0.4,0.4-0.7,0.4c-0.2,0.2-0.5,0.3-0.7,0.3c-0.3,0-0.5,0-0.8,0
				c-0.3,0-0.5,0-0.7-0.1c-0.2-0.1-0.5-0.2-0.6-0.3c-0.1-0.3-0.3-0.4-0.5-0.5c-0.1-0.1-0.3-0.2-0.4-0.3c-0.2-0.3-0.6-0.4-0.7-0.7
				c-0.2-0.3-0.3-0.6-0.7-0.7c-0.3-0.2-0.1-0.7-0.6-0.7c-0.3-0.2-0.2-0.6-0.6-0.6c-0.4,0-0.4-0.4-0.5-0.6c-0.2-0.2-0.4-0.4-0.5-0.6
				C2.8,44.1,2.1,43.2,2.2,43c0.1-0.1,1.3,0.8,3.2,2.5c0.2,0.2,0.5,0.2,0.6,0.5c0.2,0.2,0.5,0.3,0.6,0.6C7,46.6,7,47,7.2,47.2
				c0.2,0.2,0.4,0.5,0.7,0.7c0.4,0.1,0.4,0.5,0.7,0.7C8.7,48.8,8.8,48.9,9,49c0.1,0.1,0.2,0.1,0.4,0.1c0.1,0.1,0.2,0.2,0.3,0.2
				c0.1,0,0.3,0,0.4,0c0.1,0.1,0.1,0.1,0.2,0.1c0.1,0,0.1,0,0.2,0c0.1,0,0.2-0.2,0.3-0.3c0.1-0.1,0.2-0.2,0.3-0.3
				c0.1-0.1,0.3-0.3,0.4-0.4c0.3-0.3,0.5-0.6,0.9-0.9c0.2-0.4,0.5-0.7,0.9-0.9c0.3-0.4,0.6-0.6,0.9-0.9c0.2-0.4,0.6-0.6,0.9-1
				c0.3-0.4,0.8-0.5,1-1c0.1-0.2,0.3-0.3,0.5-0.5l0.1-0.1l0.1-0.1c0,0,0-0.1,0.1-0.1c0,0,0-0.1,0-0.1c0.2-0.2,0.3-0.5,0.2-0.8
				c0.1-0.2,0.1-0.3,0-0.5c-0.1-0.1-0.2-0.2-0.4-0.3c-0.4-0.3-0.7-0.7-1-1c-0.4-0.3-0.7-0.7-1-1c-0.4-0.3-0.6-0.8-1-1s-0.6-0.7-1-1
				c-0.4-0.3-0.7-0.5-0.9-1c-0.3-0.3-0.4-0.8-0.9-0.9c-0.2-0.1-0.4-0.2-0.6-0.3c-0.1,0-0.1,0-0.1-0.1s0,0-0.1-0.1
				c0,0-0.1-0.1-0.1-0.3c-0.1,0-0.2-0.1-0.4-0.2c-0.1-0.1-0.3-0.1-0.4,0c-0.1-0.1-0.1-0.1-0.2-0.1c-0.1,0-0.1,0-0.2,0.1
				c-0.1,0.1-0.2,0.2-0.3,0.3c-0.1,0-0.1,0-0.2,0.1c-0.1,0-0.1,0.1-0.2,0.2c-0.1,0.1-0.3,0.3-0.4,0.4c-0.2,0.4-0.6,0.5-0.8,0.8
				c-0.1,0.4-0.7,0.4-0.8,0.7c-0.3,0.2-0.5,0.5-0.7,0.7c0,0.5-0.5,0.5-0.7,0.7c-0.3,0.2-0.3,0.6-0.7,0.6c0,0.4-0.4,0.4-0.6,0.6
				c-0.3,0.1-0.3,0.5-0.6,0.5c0,0.2-0.1,0.2-0.2,0.3c-0.1,0-0.1,0-0.2,0.1c0,0-0.1,0.1-0.1,0.1c-0.1,0-0.1,0-0.1,0.1
				s-0.1,0.1-0.1,0.1s0,0.1,0,0.1c0,0,0,0.1-0.1,0.1c0,0.2-0.1,0.3-0.2,0.5c0,0.2,0,0.3-0.1,0.4c0,0.2,0,0.4,0.1,0.6
				c0,0.2,0.1,0.3,0.1,0.4c0,0,0,0.1,0.1,0.2c0,0,0,0.1,0,0.1C2.2,43,2.2,43,2.2,43z"/>
		</g>
		<g id="XMLID_17967_">
			<path class="st0" d="M14.1,37.5c0,0-0.2,0-0.4-0.2c-0.1-0.1-0.2-0.2-0.4-0.3c-0.1-0.1-0.3-0.3-0.4-0.5c-0.1-0.1-0.2-0.3-0.3-0.4
				c-0.1-0.1-0.1-0.1-0.2-0.2s-0.1-0.2-0.1-0.3c0.1-0.2-0.4-0.3-0.3-0.6c0-0.1-0.1-0.2-0.1-0.3c0,0-0.1-0.1-0.1-0.2
				c0-0.1-0.1-0.1-0.1-0.2c-0.1-0.2-0.1-0.5-0.2-0.8c-0.1-0.1-0.1-0.3-0.1-0.4s0.1-0.3-0.1-0.4c0-0.1-0.1-0.3-0.1-0.4
				c0-0.2,0-0.3,0-0.5c0.1-0.1,0.1-0.3,0.1-0.5s-0.1-0.3,0-0.5c0.3-0.3,0.3-0.6,0.2-1c0.2-0.1,0.3-0.3,0.4-0.4
				c0.1-0.2,0.1-0.4,0-0.6c0.1-0.2,0.2-0.3,0.3-0.5c0.1-0.1,0.1-0.2,0.1-0.2c0.1-0.1,0.1-0.2,0.1-0.3c0.1-0.2,0.2-0.3,0.3-0.5
				s0.3-0.3,0.4-0.4c0-0.1,0.1-0.2,0.1-0.3s0.1-0.2,0.2-0.2s0.2-0.1,0.3-0.2c0.1,0,0.2-0.1,0.3-0.1c0.1-0.1,0.1-0.2,0.2-0.3
				c0,0,0.1-0.1,0.1-0.1s0.1-0.1,0.1-0.1c0.2-0.1,0.4-0.2,0.6-0.2c0.2,0,0.4-0.2,0.6-0.3c0.2-0.1,0.4-0.2,0.6-0.2l0.2,0L17,25
				c0.1,0,0.2-0.1,0.3-0.1c0.2-0.1,0.4-0.1,0.7-0.1c0.1,0,0.2,0,0.4,0c0.1,0,0.2,0,0.3,0s0.2,0,0.3,0c0.1,0,0.2,0,0.4-0.1
				c0.2,0,0.5,0,0.7,0c0.2,0,0.5,0.1,0.7,0.2c0.5-0.1,1,0.1,1.4,0.4c0.1,0,0.2,0.1,0.3,0.2c0.1,0.1,0.2,0.1,0.3,0.2
				c0.2,0.1,0.4,0.3,0.7,0.4c0.2,0.2,0.4,0.3,0.6,0.4c0.2,0.1,0.4,0.3,0.5,0.5c0.1,0.2,0.3,0.4,0.4,0.6c0.1,0.2,0.3,0.4,0.5,0.5
				c0.2,0.2,0.3,0.4,0.4,0.6c0,0.1,0.1,0.2,0.1,0.4c0,0.1,0.1,0.2,0.2,0.3c0,0.1,0,0.3,0,0.4c0,0.1,0.1,0.2,0.1,0.3l0.1,0.2
				c0,0,0,0.1,0.1,0.2c0,0.1,0.1,0.2,0.1,0.4c0.1,0.2,0.1,0.5,0.1,0.7c0,0.2,0,0.5,0.1,0.7c0,0.1,0,0.2,0,0.3s0,0.2,0,0.3
				c0,0.1,0,0.2,0,0.3c0,0.1-0.1,0.2-0.1,0.3c0.2,0.3,0.1,0.5,0,0.7c-0.1,0.1-0.1,0.2-0.2,0.3c0,0,0,0.1-0.1,0.2c0,0,0,0.1,0,0.2
				c-0.1,0.2-0.2,0.4-0.3,0.6c-0.1,0.2-0.1,0.4-0.2,0.6c-0.1,0.2-0.2,0.4-0.4,0.5c0,0-0.1,0.1-0.1,0.1c0,0-0.1,0.1-0.1,0.1
				c-0.1,0.1-0.1,0.2-0.1,0.3c-0.1,0.1-0.1,0.2-0.2,0.3c-0.1,0.1-0.1,0.2-0.2,0.3c-0.1,0.2-0.3,0.3-0.5,0.4
				c-0.1,0.2-0.3,0.3-0.4,0.4s-0.4,0.2-0.5,0.3c-0.1,0.1-0.1,0.1-0.2,0.2c-0.1,0-0.2,0.1-0.2,0.2c-0.2,0.1-0.3,0.2-0.5,0.3
				c-0.2,0-0.4,0-0.5,0.1c-0.1,0-0.1,0.1-0.2,0.2c-0.1,0-0.1,0.1-0.2,0.1c-0.3,0.1-0.6,0.4-1,0.2c-0.2,0-0.3,0-0.5,0
				c-0.2,0-0.3,0-0.5,0.1c-0.1,0-0.3-0.1-0.5-0.1c-0.1,0-0.3-0.1-0.4,0.1c-0.1,0-0.3,0-0.4-0.1s-0.3-0.1-0.4,0
				c-0.3,0.2-0.5-0.1-0.8-0.2c-0.1,0-0.1,0-0.2,0c-0.1,0-0.1,0-0.2-0.1c-0.1,0-0.2-0.1-0.3-0.1c-0.9-0.4-1.6-0.9-1.9-1.3
				C14.2,37.8,14.1,37.6,14.1,37.5c0,0,0.1,0,0.3,0.1c0.1,0,0.2,0.1,0.3,0.2c0.1,0,0.1,0.1,0.2,0.1c0.1,0,0.1,0.1,0.2,0.1
				c0.5,0.3,1.3,0.7,2.4,0.9c0.2,0,0.5-0.1,0.7,0.1c0.1,0,0.2,0,0.4,0c0.1,0,0.2,0,0.4,0c0.1-0.1,0.3-0.1,0.4-0.1
				c0.1,0,0.3,0.1,0.4,0.1c0.1,0,0.3,0,0.4,0c0.1,0,0.3,0,0.4-0.1c0.2-0.2,0.6,0,0.8-0.3c0.1,0,0.2,0,0.2,0c0.1,0,0.1,0,0.2-0.1
				c0.1-0.1,0.3-0.2,0.4-0.3c0.2,0,0.3-0.1,0.4-0.2c0.1,0,0.1-0.1,0.2-0.2c0.1-0.1,0.1-0.1,0.2-0.2c0.2,0,0.4-0.1,0.5-0.2
				c0.1-0.1,0.2-0.3,0.3-0.4c0.1-0.1,0.2-0.3,0.3-0.4c0.1-0.1,0.1-0.1,0.2-0.2c0-0.1,0.1-0.1,0.1-0.2c0.3-0.2,0.3-0.6,0.5-0.9
				c0-0.2,0-0.4,0.1-0.5c0.1-0.2,0.1-0.3,0.3-0.5c0,0,0-0.1,0-0.1c0,0,0-0.1,0-0.1c0-0.1,0-0.2,0.1-0.3c0.1-0.2,0.1-0.3,0.1-0.5
				c0-0.1,0-0.2,0-0.3c0-0.1,0-0.2,0-0.3s0-0.2,0-0.3s0-0.2,0-0.3c0-0.2,0-0.4,0-0.6c0-0.2,0-0.4-0.2-0.5c-0.1-0.4-0.2-0.8-0.4-1.1
				l-0.1-0.3c0-0.1-0.1-0.2-0.1-0.3c-0.1-0.2-0.2-0.3-0.3-0.5c0-0.2-0.1-0.4-0.2-0.6c-0.1-0.1-0.3-0.2-0.5-0.4
				c-0.2-0.1-0.3-0.2-0.5-0.4c-0.1-0.1-0.3-0.3-0.4-0.4c-0.2-0.1-0.3-0.2-0.5-0.3c-0.1-0.1-0.2-0.1-0.3-0.1l-0.3-0.1
				c-0.4-0.1-0.7-0.4-1.1-0.4c-0.2,0-0.4,0-0.5-0.1c-0.2-0.1-0.4-0.1-0.6,0c-0.1,0-0.2,0-0.3,0c-0.1,0-0.2,0-0.3,0s-0.2,0-0.3,0
				s-0.2,0-0.3,0c-0.2,0-0.4,0-0.5,0c-0.1,0-0.2,0-0.3,0c0,0-0.1,0-0.1,0.1c0,0-0.1,0.1-0.1,0.1c-0.2,0.1-0.3,0.2-0.4,0.3
				c-0.1,0.1-0.3,0.2-0.5,0.1c-0.1,0.1-0.3,0.2-0.5,0.2c0,0-0.1,0-0.1,0c0,0-0.1,0-0.1,0.1c-0.1,0-0.1,0.1-0.2,0.2
				c-0.1,0-0.2,0-0.3,0c-0.1,0-0.1,0.1-0.2,0.2s-0.1,0.1-0.1,0.2c-0.1,0.1-0.1,0.1-0.1,0.2c-0.1,0.1-0.3,0.2-0.4,0.3
				c-0.1,0.1-0.2,0.3-0.2,0.4c0,0.1-0.1,0.1-0.1,0.2c0,0.1-0.1,0.1-0.1,0.2c-0.1,0.1-0.2,0.2-0.3,0.4c0,0.2-0.1,0.3-0.2,0.4
				c-0.1,0.1-0.2,0.3-0.2,0.4c-0.1,0.3-0.1,0.6-0.3,0.8c0.2,0.2,0.1,0.3,0.1,0.4s-0.2,0.2-0.2,0.4c0,0.1,0,0.3,0.1,0.4
				c0,0.1,0.1,0.3-0.1,0.4c0.1,0.1,0.2,0.2,0.1,0.4c0,0.1-0.1,0.3-0.1,0.4c-0.1,0.3,0.2,0.4,0.1,0.7c0.1,0,0.1,0.1,0.1,0.1
				c0,0,0,0.1,0,0.2c0,0.1,0,0.2,0,0.3c-0.1,0.2,0.1,0.4,0.2,0.5c0.1,0.1,0.1,0.2,0.1,0.2c0,0.1,0.1,0.2,0.1,0.3
				c0.1,0.2,0.1,0.3,0.2,0.4c0.1,0.2,0.2,0.3,0.3,0.5s0.2,0.3,0.2,0.4C14.1,37.3,14.1,37.5,14.1,37.5z"/>
		</g>
		<g id="XMLID_17966_">
			<path class="st0" d="M16.2,48.9c0-0.1,0.1-0.2,0.2-0.3c0,0,0,0,0.1,0c0,0,0.1-0.1,0.1,0c0,0.1,0.1-0.3,0.1,0c0,0.1,0.1,0,0.1,0
				c0,0,0.1,0.1,0.1,0c0-0.3,0.1,0.3,0.1,0c0-0.1,0.1,0,0.1,0c0,0.2,0.1,0,0.1,0c0,0.3,0.1,0.1,0.2,0c0.1,0.3,0.1,0.3,0.2,0
				c0.1,0,0.1,0.1,0.2,0c0.1,0,0.1-0.1,0.2,0c0.1-0.2,0.1-0.2,0.2,0c0.1-0.3,0.1-0.2,0.2,0c0.1,0.1,0.1-0.2,0.2,0
				c0.1,0,0.1-0.1,0.2,0c0.1,0.1,0.1,0.2,0.2,0c0.1-0.1,0.1-0.1,0.2,0c0.1-0.3,0.1-0.2,0.2,0c0.1,0,0.1,0.1,0.2,0
				c0.1,0,0.1-0.1,0.2,0c0.1,0.1,0.2,0.2,0.2,0c0.1-0.2,0.1,0.1,0.2,0c0.1,0.3,0.1-0.1,0.2,0c0.1,0,0.1,0.1,0.2,0
				c0.1,0,0.1-0.1,0.2,0c0.1-0.4,0.1,0.1,0.2,0c0.1,0.2,0.1,0,0.2,0c0.1-0.1,0.1,0.2,0.2,0c0.1,0,0.1-0.1,0.2,0
				c0.1-0.2,0.1,0.2,0.2,0c0.1,0,0.1,0,0.2,0c0.1,0.3,0.1,0,0.2,0c0.1,0,0.1-0.2,0.2,0c0,0,0.1,0.2,0.1,0c0,0,0.1,0.4,0.1,0
				c0-0.1,0.1,0.3,0.1,0c0-0.2,0.1,0,0.1,0c0,0,0.1,0,0.1,0c0.3,0.1,0.5,0.3,0.5,0.4c0,0.2-0.2,0.3-0.6,0.5c0,0-0.1,0.2-0.1,0
				c0,0-0.1,0.2-0.1,0c0,0.3-0.1,0-0.1,0c0,0-0.1-0.1-0.1,0c0,0.2-0.1-0.1-0.2,0c-0.1-0.2-0.1-0.1-0.2,0c-0.1-0.2-0.1,0-0.2,0
				c-0.1-0.3-0.1-0.1-0.2,0c-0.1,0.1-0.1,0-0.2,0c-0.1,0-0.1,0.1-0.2,0c-0.1,0.1-0.1,0.2-0.2,0c-0.1,0.1-0.1,0-0.2,0
				c-0.1,0.1-0.1,0-0.2,0c-0.1,0-0.1-0.3-0.2,0c-0.1,0-0.1,0-0.2,0c-0.1,0-0.1-0.1-0.2,0c-0.1-0.3-0.1-0.1-0.2,0
				c-0.1,0.1-0.2,0-0.2,0c-0.1,0-0.1,0-0.2,0c-0.1,0.1-0.1-0.1-0.2,0c-0.1,0.1-0.1-0.1-0.2,0c-0.1,0.1-0.1,0.1-0.2,0
				c-0.1,0-0.1-0.3-0.2,0c-0.1,0-0.1,0.4-0.2,0c-0.1,0.1-0.1-0.2-0.2,0c-0.1-0.3-0.1,0-0.2,0c-0.1,0-0.1-0.2-0.2,0
				c-0.1,0.1-0.1-0.1-0.2,0c-0.1,0.2-0.1-0.2-0.2,0c-0.1,0-0.1,0-0.2,0c0,0.4-0.1,0-0.1,0c0-0.1-0.1,0.3-0.1,0c0,0.3-0.1,0-0.1,0
				c0-0.1-0.1,0.1-0.1,0c0,0.2-0.1-0.1-0.1,0c0-0.1-0.1,0-0.1,0c0,0-0.1,0-0.1,0c0,0-0.1,0-0.1,0C16.3,49.1,16.2,49,16.2,48.9z"/>
		</g>
		<g id="XMLID_17965_">
			<path class="st0" d="M76.7,48.9c0-0.1,0.1-0.2,0.2-0.3c0,0,0.1,0,0.1,0c0,0,0.1-0.1,0.1,0c0,0.1,0.1-0.3,0.1,0c0,0.1,0.1,0,0.1,0
				s0.1,0.1,0.1,0c0-0.3,0.1,0.3,0.1,0c0.1-0.1,0.1,0,0.1,0c0.1,0.2,0.1,0,0.2,0c0.1,0.3,0.1,0.1,0.2,0c0.1,0.3,0.1,0.3,0.2,0
				c0.1,0,0.1,0.1,0.2,0c0.1,0,0.1-0.1,0.2,0c0.1-0.2,0.1-0.2,0.2,0c0.1-0.3,0.1-0.2,0.2,0c0.1,0.1,0.1-0.2,0.2,0
				c0.1,0,0.1-0.1,0.2,0c0.1,0.1,0.1,0.2,0.2,0c0.1-0.1,0.2-0.1,0.2,0c0.1-0.3,0.2-0.2,0.2,0c0.1,0,0.2,0.1,0.2,0
				c0.1,0,0.2-0.1,0.2,0c0.1,0.1,0.2,0.2,0.2,0c0.1-0.2,0.2,0.1,0.2,0c0.1,0.3,0.2-0.1,0.2,0c0.1,0,0.2,0.1,0.2,0
				c0.1,0,0.1-0.1,0.2,0c0.1-0.4,0.1,0.1,0.2,0c0.1,0.2,0.1,0,0.2,0c0.1-0.1,0.1,0.2,0.2,0c0.1,0,0.1-0.1,0.2,0
				c0.1-0.2,0.1,0.2,0.2,0c0.1,0,0.1,0,0.2,0c0.1,0.3,0.1,0,0.2,0c0.1,0,0.1-0.2,0.2,0c0.1,0,0.1,0.2,0.2,0c0.1,0,0.1,0.4,0.1,0
				c0.1-0.1,0.1,0.3,0.1,0c0-0.2,0.1,0,0.1,0c0,0,0.1,0,0.1,0c0.3,0.1,0.5,0.3,0.5,0.4c0,0.2-0.2,0.3-0.6,0.5c0,0-0.1,0.2-0.1,0
				c0,0-0.1,0.2-0.1,0c-0.1,0.3-0.1,0-0.1,0c-0.1,0-0.1-0.1-0.2,0c-0.1,0.2-0.1-0.1-0.2,0c-0.1-0.2-0.1-0.1-0.2,0
				c-0.1-0.2-0.1,0-0.2,0c-0.1-0.3-0.1-0.1-0.2,0c-0.1,0.1-0.1,0-0.2,0c-0.1,0-0.1,0.1-0.2,0c-0.1,0.1-0.1,0.2-0.2,0
				c-0.1,0.1-0.1,0-0.2,0c-0.1,0.1-0.1,0-0.2,0c-0.1,0-0.2-0.3-0.2,0c-0.1,0-0.2,0-0.2,0c-0.1,0-0.2-0.1-0.2,0
				c-0.1-0.3-0.2-0.1-0.2,0c-0.1,0.1-0.2,0-0.2,0c-0.1,0-0.2,0-0.2,0c-0.1,0.1-0.2-0.1-0.2,0c-0.1,0.1-0.2-0.1-0.2,0
				c-0.1,0.1-0.1,0.1-0.2,0c-0.1,0-0.1-0.3-0.2,0c-0.1,0-0.1,0.4-0.2,0c-0.1,0.1-0.1-0.2-0.2,0c-0.1-0.3-0.1,0-0.2,0
				c-0.1,0-0.1-0.2-0.2,0c-0.1,0.1-0.1-0.1-0.2,0c-0.1,0.2-0.1-0.2-0.2,0c-0.1,0-0.1,0-0.2,0c-0.1,0.4-0.1,0-0.2,0
				c-0.1-0.1-0.1,0.3-0.1,0c-0.1,0.3-0.1,0-0.1,0s-0.1,0.1-0.1,0c0,0.2-0.1-0.1-0.1,0c0-0.1-0.1,0-0.1,0c0,0-0.1,0-0.1,0
				c0,0-0.1,0-0.1,0C76.7,49.1,76.7,49,76.7,48.9z"/>
		</g>
		<g id="XMLID_17964_">
			<path class="st0" d="M76.7,44.4C76.6,44.4,76.6,44.4,76.7,44.4c-0.1-0.1-0.1-0.2-0.1-0.2c0,0,0-0.1-0.1-0.2
				c0-0.1-0.1-0.2-0.2-0.4c-0.1-0.1-0.2-0.3-0.3-0.5c-0.1-0.1-0.2-0.2-0.3-0.3c-0.1-0.1-0.3-0.1-0.4-0.2c0,0-0.1-0.1-0.1-0.1
				c-0.1,0-0.1,0-0.2,0c-0.1,0-0.1,0-0.1,0c0,0-0.1,0-0.1-0.1c-0.1,0-0.1,0-0.2,0c-0.1,0-0.1,0-0.2,0c-0.1,0-0.2,0-0.4,0.1
				c-0.3,0-0.5-0.1-0.8,0c-0.3,0.3-0.6-0.3-0.8,0c-0.3,0.1-0.6,0-0.9,0c-0.3-0.2-0.6,0-1,0c-0.3-0.3-0.7-0.1-1,0
				c-0.3-0.3-0.7-0.3-1.1,0c-0.4,0-0.7-0.1-1.1,0c-0.4,0-0.8,0.1-1,0c-0.1,0.1-0.2,0.2-0.3,0.3c-0.1,0-0.2,0.1-0.4,0.1
				c0,0.2-0.1,0.3-0.1,0.4c-0.1,0.1-0.2,0.2-0.3,0.3c-0.1,0-0.1,0.1-0.1,0.2c0,0,0,0.1,0,0.1c0,0,0,0.1,0,0.1c0.1,0.2,0.1,0.4,0,0.6
				c0,0.4,0.1,0.9,0,1.3c-0.1,0.4-0.2,0.9,0,1.3c0.1,0.5,0.1,0.9,0,1.4c0.3,0.5,0.2,0.9,0,1.4c0,0.5-0.1,1,0,1.4c0,0.5,0.1,1,0,1.5
				c0,0.2-0.1,0.3,0,0.5c0,0.2,0.1,0.3,0.3,0.3c0.2,0.1,0.2,0.2,0.3,0.3s0.2,0.2,0.4,0.2c0,0,0.1,0.1,0.1,0.1c0,0,0.1,0,0.1,0
				s0.1,0,0.1,0c0.1,0,0.1,0,0.2,0c0.2,0,0.5-0.1,0.7,0c0.5,0,0.9,0.1,1.4,0c0.4,0,0.9-0.1,1.3,0c0.4-0.4,0.9,0.1,1.3,0
				c0.4,0.2,0.9,0,1.3,0c0.4-0.1,0.8,0.2,1.2,0c0.2,0,0.4,0,0.6,0c0.1,0,0.2,0,0.4,0c0.1-0.1,0.2-0.1,0.3-0.2c0.1,0,0.1,0,0.2-0.1
				c0.1,0,0.1-0.1,0.1-0.2c0.1-0.1,0.2-0.2,0.2-0.3c0.1-0.1,0.1-0.2,0.2-0.3c0.2-0.1,0.2-0.2,0.2-0.4c0-0.2-0.1-0.3-0.1-0.5
				c0-0.3-0.2-0.7,0-1c0-0.3,0.2-0.7,0-1c0-0.3,0.4-0.6,0-0.9c-0.1-0.3,0.3-0.6,0-0.8c-0.2-0.3,0-0.5,0-0.8s0-0.5,0-0.7
				C76.4,45.6,76.5,44.4,76.7,44.4c0.2,0,0.3,1.5,0.5,4c0,0.3,0.2,0.5,0,0.8c0,0.3,0.2,0.5,0,0.8c0.3,0.3,0.1,0.6,0,0.9
				c0,0.3-0.1,0.6,0,1c0.2,0.3-0.1,0.7,0,1c-0.1,0.2-0.1,0.3-0.1,0.5c0,0.2,0,0.5,0.1,0.7c-0.1,0.2-0.2,0.4-0.3,0.7
				c-0.1,0.2-0.2,0.5-0.4,0.6c-0.3,0.1-0.4,0.2-0.7,0.4c-0.2,0.2-0.4,0.3-0.6,0.5c-0.2,0.1-0.5,0.2-0.8,0.1c-0.2,0-0.4,0-0.6,0
				c-0.4,0-0.8,0.1-1.2,0c-0.4,0.1-0.8,0.2-1.3,0c-0.4,0.1-0.9,0-1.3,0c-0.4,0.1-0.9,0-1.3,0c-0.4,0-0.9-0.3-1.4,0
				c-0.2,0-0.5,0-0.7,0l-0.2,0l-0.2,0c-0.1,0-0.2,0-0.2,0c-0.1,0-0.2,0-0.3,0c-0.6-0.2-1.2-0.6-1.7-1.1c-0.1-0.3-0.2-0.6-0.3-0.9
				c-0.1-0.3-0.3-0.6-0.3-1c-0.1-0.5,0-1,0-1.5c0-0.5,0-1,0-1.4c-0.1-0.5,0.1-0.9,0-1.4c-0.1-0.5,0.1-0.9,0-1.4
				c-0.1-0.5-0.1-0.9,0-1.3c0-0.4,0.3-0.9,0-1.3c0-0.2-0.1-0.4-0.2-0.6c0,0,0-0.1,0-0.2c0-0.1,0-0.2,0-0.2c0-0.2,0.1-0.3,0.3-0.4
				c0-0.3,0.2-0.5,0.4-0.8c0.2-0.2,0.4-0.4,0.5-0.7c0.3-0.1,0.5-0.2,0.7-0.4c0.2-0.2,0.5-0.3,0.7-0.3c0.3,0,0.6,0,0.7,0
				c0.2,0,0.4,0,0.6,0c0.4-0.1,0.8,0.1,1.1,0c0.4-0.2,0.7,0.2,1.1,0c0.3,0,0.7,0,1,0c0.3-0.4,0.7,0,1,0c0.3,0,0.6-0.3,0.9,0
				c0.3-0.3,0.6,0,0.8,0s0.5-0.1,0.8,0c0.1-0.1,0.3-0.1,0.4,0c0.1,0,0.1,0,0.2,0.1c0.1,0,0.1,0,0.2,0c0.1,0,0.1,0.1,0.2,0.1
				c0.1,0,0.1,0,0.2,0c0.1,0,0.1,0,0.2,0c0.1,0,0.1,0,0.2,0.1c0.3,0,0.5,0.2,0.6,0.4c0.2,0.1,0.3,0.3,0.4,0.5
				c0.3,0.5,0.4,0.9,0.4,1.2c0,0.1,0,0.1,0,0.2s0,0.1,0,0.1C76.7,44.4,76.7,44.4,76.7,44.4z"/>
		</g>
		<g id="XMLID_17963_">
			<path class="st0" d="M64.3,48.9c-0.1,0-0.1-0.1-0.2-0.3c0-0.1-0.1-0.3-0.1-0.4C64,48,64,47.8,63.9,47.6c0-0.1-0.1-0.3-0.2-0.4
				c0-0.1-0.1-0.2-0.1-0.2c0-0.1-0.1-0.2-0.1-0.3c0.1-0.2-0.4-0.3-0.3-0.5c0-0.1-0.1-0.2-0.1-0.3c0,0-0.1-0.1-0.1-0.1
				c0,0-0.1-0.1-0.1-0.1c-0.2-0.2-0.2-0.4-0.4-0.5c-0.2,0-0.2-0.2-0.2-0.3s-0.1-0.3-0.3-0.3c-0.1-0.1-0.2-0.2-0.3-0.2
				s-0.2-0.2-0.3-0.3c0-0.2-0.1-0.3-0.3-0.3s-0.3-0.1-0.4-0.2c-0.1-0.3-0.4-0.4-0.8-0.4c0-0.1-0.1-0.2-0.1-0.3
				c0-0.1-0.1-0.1-0.2-0.1c-0.2,0-0.3,0-0.5,0.1c-0.1,0-0.3-0.1-0.4-0.2c-0.1,0-0.2,0-0.2-0.1c-0.1,0-0.2,0-0.3,0
				c-0.2,0-0.3,0-0.5,0s-0.3,0-0.5,0c-0.2,0.1-0.3,0.2-0.5,0.2c-0.1,0-0.2,0-0.3,0c-0.1,0-0.2,0-0.3-0.1c-0.3,0.3-0.6,0.3-1,0.2
				c-0.2,0-0.3,0.1-0.5,0.2c-0.2,0.1-0.3,0.2-0.5,0.2c0,0-0.1,0-0.1,0.1l-0.1,0.1L54,43.6c-0.2,0.1-0.3,0.2-0.5,0.3
				c-0.1,0-0.2,0.1-0.3,0.1c-0.1,0-0.2,0.1-0.2,0.2c-0.1,0.1-0.1,0.1-0.2,0.2c0,0.1-0.1,0.2-0.1,0.3c-0.1,0.2-0.2,0.3-0.3,0.5
				c-0.1,0.2-0.2,0.3-0.4,0.4c0,0.5-0.2,0.7-0.5,1c0,0.1-0.1,0.2-0.1,0.3c0,0.1-0.1,0.2-0.1,0.3c-0.1,0.2-0.1,0.4-0.1,0.6
				c0,0.2,0,0.4-0.1,0.6c0,0.2,0,0.4-0.1,0.6c0,0.2-0.1,0.4-0.1,0.6c0,0.2,0.1,0.4,0.2,0.6c0.1,0.2,0.2,0.4,0.2,0.6
				c0,0.1,0,0.2,0,0.3c0,0.1,0.1,0.2,0.1,0.3c0,0.1,0,0.2,0,0.3c0,0.1,0.1,0.2,0.2,0.3l0.1,0.1c0,0,0.1,0.1,0.1,0.1
				c0.1,0.1,0.1,0.2,0.2,0.3c0.1,0.2,0.2,0.3,0.3,0.5c0.1,0.2,0.2,0.3,0.4,0.4c0.1,0.1,0.1,0.1,0.2,0.2c0.1,0.1,0.2,0.1,0.2,0.2
				c0.1,0.1,0.1,0.1,0.2,0.2c0.1,0.1,0.1,0.1,0.2,0.2c0.3,0,0.4,0.1,0.5,0.2c0.1,0.1,0.1,0.2,0.2,0.2c0,0,0.1,0.1,0.1,0.1
				c0,0,0.1,0,0.1,0c0.1,0.2,0.3,0.2,0.5,0.3s0.3,0.1,0.5,0.2c0.2,0,0.3,0.1,0.5,0.2c0,0,0.1,0,0.1,0c0,0,0.1,0,0.1,0
				c0.1,0,0.2,0,0.3,0c0.1,0,0.2,0,0.3,0c0.1,0,0.2,0,0.3,0c0.1,0,0.2,0,0.3,0s0.2,0,0.2,0.1c0.2-0.1,0.3-0.1,0.5,0s0.3,0,0.5,0
				c0.1,0,0.2,0,0.2,0s0.2,0,0.2-0.1c0.2,0,0.3-0.1,0.5-0.1c0.2,0.1,0.3,0,0.5,0c0.1-0.1,0.2-0.2,0.4-0.3c0.3-0.1,0.4-0.4,0.8-0.4
				c0.1-0.1,0.3-0.1,0.4-0.2s0.2-0.1,0.3-0.3c0.1-0.1,0.3-0.1,0.4-0.2c0.1,0,0.2-0.1,0.2-0.4c0.1-0.1,0.2-0.2,0.3-0.2
				c0.1-0.1,0.2-0.2,0.2-0.3c0-0.3,0.3-0.4,0.4-0.5c0,0,0.1-0.1,0.1-0.1s0-0.1,0.1-0.1c0-0.1,0.1-0.2,0.2-0.3c0.4-0.8,0.6-1.5,0.8-2
				C64.2,49.2,64.3,48.9,64.3,48.9c0,0,0.1,0.1,0.1,0.3c0,0.1,0,0.2,0.1,0.3c0,0.1,0,0.1,0,0.2s0,0.2,0,0.2c0,0.7-0.1,1.7-0.7,2.8
				c-0.1,0.2-0.1,0.6-0.4,0.7c-0.1,0.1-0.1,0.2-0.2,0.4c-0.1,0.1-0.2,0.2-0.3,0.3c0,0.2-0.1,0.3-0.2,0.4c-0.1,0.1-0.3,0.2-0.4,0.3
				c-0.1,0.1-0.3,0.2-0.4,0.3s-0.3,0.2-0.4,0.3c-0.2,0.3-0.6,0.3-0.9,0.5c-0.2,0-0.4,0.1-0.5,0.1c-0.2,0.1-0.3,0.2-0.5,0.3
				c-0.2,0-0.4,0-0.5,0.1c-0.1,0-0.2,0.1-0.3,0.1c-0.1,0-0.2,0.1-0.3,0.1c-0.2-0.1-0.4-0.1-0.6,0s-0.4,0.1-0.6,0.2
				c-0.1,0-0.2,0-0.3,0c-0.1,0-0.2,0-0.3,0c-0.1,0-0.2,0-0.3,0c-0.1,0-0.2,0-0.3,0c-0.1,0-0.2,0-0.3-0.1l-0.2,0l-0.2,0
				c-0.2,0-0.4-0.1-0.6-0.2c-0.2,0-0.5,0-0.7-0.1s-0.4-0.2-0.6-0.4c0,0-0.1,0-0.2,0s-0.1,0-0.2-0.1c-0.1,0-0.2-0.1-0.3-0.2
				c-0.2-0.1-0.4-0.3-0.5-0.4c-0.1,0-0.2-0.1-0.3-0.2c-0.1-0.1-0.2-0.2-0.3-0.2l-0.3-0.3c-0.1-0.1-0.2-0.2-0.2-0.3
				c-0.2-0.2-0.3-0.4-0.4-0.6c-0.1-0.2-0.3-0.4-0.5-0.5c-0.3-0.4-0.4-0.9-0.7-1.3l-0.1-0.4c0-0.1-0.1-0.2-0.1-0.4
				c0-0.2-0.1-0.5-0.2-0.7c0.1-0.3,0.1-0.5,0-0.8c0-0.2-0.1-0.5-0.2-0.7c0-0.3,0-0.5,0-0.8c0-0.3,0.1-0.5,0.2-0.7
				c0-0.3,0.1-0.5,0.2-0.7c0-0.1,0.1-0.2,0.1-0.3l0.1-0.3c0-0.1,0-0.1,0-0.2s0-0.1,0.1-0.2c0.1-0.1,0.1-0.2,0.2-0.3l0.1-0.2
				c0,0,0.1-0.1,0.1-0.2c0.1-0.1,0.1-0.2,0.2-0.3c0.1-0.2,0.3-0.4,0.4-0.6c0.2-0.2,0.3-0.3,0.5-0.5c0.1-0.1,0.1-0.2,0.2-0.3
				c0.1-0.1,0.2-0.2,0.2-0.3c0.1-0.1,0.2-0.2,0.3-0.2c0.1-0.1,0.2-0.1,0.3-0.2c0.2-0.1,0.4-0.2,0.6-0.3c0.1,0,0.2-0.1,0.3-0.2
				c0,0,0.1-0.1,0.1-0.1s0.1-0.1,0.1-0.1c0.2-0.1,0.3-0.3,0.5-0.4c0.2-0.1,0.4-0.2,0.7-0.1c0.2-0.1,0.4-0.1,0.6-0.1c0,0,0.1,0,0.2,0
				s0.1,0,0.2,0c0.1,0,0.2,0,0.3-0.1c0.1,0,0.2,0.1,0.3,0.1c0.1,0,0.2,0,0.3,0c0.2,0,0.4-0.1,0.6-0.1c0.2,0,0.4,0.1,0.6,0.1
				s0.4,0.1,0.6,0c0.1,0,0.2,0,0.3,0s0.2,0.1,0.3,0.1c0.2,0.1,0.3,0.2,0.5,0.2c0.2,0,0.4,0.1,0.5,0.2c0.1,0,0.2,0.1,0.2,0.2
				c0.1,0,0.2,0.1,0.3,0.1c0.3,0.2,0.6,0.3,0.9,0.5c0.2-0.1,0.4,0,0.5,0.2s0.2,0.3,0.3,0.4c0.1,0.1,0.3,0.2,0.4,0.3
				c0.1,0.1,0.2,0.2,0.2,0.4c0.2,0,0.3,0.1,0.4,0.3s0.1,0.3,0.1,0.4c0.1,0.3,0.4,0.4,0.4,0.7c0.1,0,0.1,0.1,0.2,0.1c0,0,0,0.1,0,0.2
				c0,0.1,0,0.3,0.1,0.3c0,0.3,0.2,0.4,0.2,0.6c0.1,0.1,0.1,0.2,0.1,0.3c0,0.1,0,0.2,0,0.3c0,0.2,0.1,0.3,0.1,0.5c0,0.2,0,0.4,0,0.6
				s0,0.3,0,0.5C64.4,48.8,64.4,48.9,64.3,48.9z"/>
		</g>
		<g id="XMLID_17962_">
			<path class="st0" d="M23.8,44.4C23.8,44.4,23.8,44.4,23.8,44.4c-0.1-0.1-0.1-0.2-0.1-0.2s0-0.1,0-0.2c0-0.3,0.1-0.7,0.4-1.2
				c0.1-0.2,0.2-0.3,0.4-0.4c0.1-0.2,0.3-0.3,0.6-0.4c0.1,0,0.1,0,0.2,0c0.1,0,0.1-0.1,0.2-0.1c0.1,0,0.1-0.1,0.2-0.1s0.1,0,0.2,0
				c0.1,0,0.1,0,0.2,0c0.1,0,0.1,0,0.2,0c0.1,0,0.2,0,0.4-0.1c0.3,0,0.5,0.1,0.8,0c0.3-0.3,0.5,0.3,0.8,0c0.3-0.1,0.6,0,0.9,0
				c0.3,0.2,0.6,0,1,0c0.3,0.3,0.7,0.1,1,0c0.3,0.3,0.7,0.3,1.1,0c0.4,0,0.7,0.1,1.1,0c0.2,0,0.4,0,0.6,0c0.2,0,0.5,0,0.7,0.1
				c0.6-0.1,1.2,0.2,1.4,0.7c0.3,0.1,0.5,0.3,0.7,0.5s0.2,0.5,0.2,0.8c0,0.2,0,0.3,0.1,0.4c0,0.1,0,0.3,0.1,0.4c0,0.2,0.1,0.4,0,0.6
				c0,0.4,0.1,0.9,0,1.3c-0.1,0.4-0.2,0.9,0,1.3c0.1,0.5,0.2,0.9,0,1.4c0.3,0.5,0.2,0.9,0,1.4c0,0.5-0.1,1,0,1.4c0,0.5,0.1,1,0,1.5
				c0,0.3-0.1,0.7-0.3,1c-0.1,0.3-0.3,0.6-0.4,0.9c-0.1,0.3-0.4,0.5-0.7,0.7c-0.3,0.2-0.6,0.3-0.9,0.4c-0.1,0-0.2,0-0.3,0
				c-0.1,0-0.2,0-0.2,0s-0.2,0-0.2,0c-0.1,0-0.1,0-0.2,0c-0.2,0-0.5,0.1-0.7,0.1c-0.5,0-0.9-0.1-1.4,0c-0.5,0-0.9,0.1-1.3,0
				c-0.4,0.4-0.9-0.1-1.3,0c-0.4-0.2-0.9,0-1.3,0c-0.4,0.1-0.8-0.2-1.2,0c-0.2,0-0.4,0-0.6,0c-0.3,0-0.5,0-0.8-0.2
				c-0.3,0-0.5-0.1-0.7-0.3c-0.1-0.1-0.2-0.2-0.3-0.3c-0.1-0.1-0.2-0.2-0.3-0.2c-0.2-0.2-0.3-0.4-0.4-0.6c-0.1-0.2-0.2-0.5-0.2-0.7
				c0.1-0.3,0.1-0.5,0-0.7c0-0.2-0.1-0.3-0.1-0.5c0-0.3-0.2-0.7,0-1c0-0.3,0.1-0.7,0-1c0-0.3,0.4-0.6,0-0.9c-0.1-0.3,0.3-0.6,0-0.8
				c-0.2-0.3,0-0.5,0-0.8s0-0.5,0-0.7C23.5,45.6,23.7,44.4,23.8,44.4c0.2,0,0.3,1.5,0.5,4c0,0.3,0.2,0.5,0,0.8c0,0.3,0.2,0.5,0,0.8
				c0.3,0.3,0,0.6,0,0.9c0,0.3-0.1,0.6,0,1c0.2,0.3-0.1,0.7,0,1c-0.1,0.2-0.1,0.3-0.1,0.5c0,0.1,0.1,0.3,0.2,0.4
				c-0.1,0.1,0,0.3,0.1,0.4c0.1,0.1,0.2,0.2,0.3,0.3c0,0.1,0,0.2,0.1,0.2c0,0,0.1,0.1,0.2,0.1c0.1,0.1,0.3,0,0.4,0
				c0.1,0,0.3,0,0.4,0c0.2,0,0.4,0,0.6,0c0.4,0,0.8-0.1,1.2,0c0.4-0.1,0.8-0.2,1.3,0c0.4-0.1,0.9,0,1.3,0c0.4-0.1,0.9,0,1.3,0
				c0.4,0,0.9,0.3,1.4,0c0.2,0,0.5,0,0.7,0l0.2,0h0.1c0,0,0.1,0,0.1,0c0,0,0.1,0,0.1,0c0.3,0,0.6-0.2,0.7-0.5c0.2,0,0.3-0.2,0.3-0.3
				c0-0.2,0-0.3-0.1-0.5c-0.1-0.5,0-1,0-1.5c0-0.5,0-1,0-1.4c-0.1-0.5,0.1-0.9,0-1.4c-0.1-0.5,0.1-0.9,0-1.4c-0.1-0.5-0.1-0.9,0-1.3
				c0-0.4,0.3-0.9,0-1.3c0-0.2-0.1-0.4-0.2-0.6c0-0.1,0-0.1,0-0.1s0-0.1,0-0.1c0-0.1,0.1-0.1,0.1-0.2c-0.1-0.1-0.1-0.2-0.1-0.4
				c0-0.1-0.1-0.3-0.3-0.3c0-0.1,0-0.2-0.1-0.2c0,0-0.1-0.1-0.2-0.1c-0.1,0-0.3,0-0.4,0c-0.2-0.1-0.7-0.2-1,0
				c-0.4,0.1-0.8-0.1-1.1,0c-0.4,0.2-0.7-0.2-1.1,0c-0.4,0-0.7,0-1,0c-0.3,0.4-0.6,0-1,0c-0.3,0-0.6,0.3-0.9,0c-0.3,0.3-0.6,0-0.8,0
				s-0.5,0.1-0.8,0c-0.1,0.1-0.3,0.1-0.4,0c-0.1,0-0.1,0-0.2-0.1s-0.1,0-0.1,0c0,0-0.1,0-0.1,0c0,0-0.1,0-0.1,0c0,0-0.1,0-0.1,0
				s-0.1,0-0.1,0c-0.1,0.1-0.3,0.2-0.4,0.2c-0.1,0.1-0.3,0.2-0.4,0.3c-0.1,0.2-0.3,0.3-0.4,0.4c-0.1,0.1-0.1,0.3-0.2,0.4
				c0,0,0,0.1-0.1,0.2c0,0,0,0.1,0,0.1C23.9,44.4,23.9,44.4,23.8,44.4z"/>
		</g>
		<g id="XMLID_17961_">
			<path class="st0" d="M36.2,48.9c0,0-0.1-0.1-0.1-0.4c0-0.1,0-0.3,0-0.5s0-0.4,0-0.6c0-0.2,0-0.3,0.1-0.5c0-0.1,0-0.2,0-0.3
				c0-0.1,0-0.2,0.1-0.3c0.2-0.1-0.1-0.5,0.2-0.6c0.1-0.1,0.1-0.2,0.2-0.3c0-0.1,0-0.1,0.1-0.2c0-0.1,0-0.1,0.1-0.2
				c0.1-0.2,0.3-0.4,0.4-0.7c0-0.2,0.1-0.3,0.3-0.3c0.1-0.1,0.3-0.1,0.3-0.3c0.1-0.1,0.2-0.3,0.3-0.4c0.1-0.1,0.2-0.2,0.3-0.3
				c0.2,0,0.3-0.1,0.4-0.2c0.1-0.1,0.2-0.3,0.3-0.4c0.4,0,0.6-0.2,0.9-0.5c0.1,0,0.2,0.1,0.3,0c0.1,0,0.2,0,0.3-0.1
				c0.2-0.1,0.3-0.2,0.4-0.4c0.2-0.1,0.4-0.1,0.5-0.1c0.1,0,0.2,0,0.3-0.1s0.2-0.1,0.3-0.1c0.2,0,0.4-0.1,0.6-0.1c0.2,0,0.4,0,0.6,0
				c0.2-0.1,0.4-0.2,0.6-0.2c0.1,0,0.2,0,0.3,0c0.1,0,0.2,0.1,0.3,0.2c0.5-0.2,0.9,0,1.3,0.3c0.2,0.1,0.4,0.2,0.6,0.2
				c0.2,0,0.4,0.1,0.6,0.3l0.2,0l0.2,0.1c0.1,0,0.2,0.1,0.3,0.2c0.2,0.1,0.4,0.2,0.6,0.4l0.2,0.3c0.1,0.1,0.1,0.2,0.2,0.3
				c0.1,0.1,0.2,0.2,0.3,0.2c0.1,0.1,0.2,0.1,0.3,0.2c0.2,0.2,0.4,0.3,0.5,0.5c0.2,0.2,0.3,0.4,0.4,0.6c0.5,0.3,0.6,0.8,0.7,1.3
				c0,0.1,0.1,0.2,0.1,0.3s0.1,0.2,0.1,0.4c0,0.3,0.1,0.5,0.2,0.7c0,0.3,0.1,0.5,0.1,0.7c0,0.3,0.1,0.5,0,0.8c0,0.3-0.1,0.5-0.1,0.8
				c0,0.3-0.1,0.5,0,0.8s-0.1,0.5-0.1,0.7c0,0.1-0.1,0.2-0.2,0.3s-0.1,0.2-0.1,0.3c-0.1,0.1-0.2,0.2-0.2,0.3s-0.1,0.2-0.1,0.3l0,0.2
				c0,0.1,0,0.1-0.1,0.2c0,0.1-0.1,0.2-0.2,0.3c-0.1,0.2-0.3,0.4-0.5,0.6c-0.2,0.2-0.3,0.3-0.4,0.6c-0.1,0.1-0.1,0.2-0.2,0.3
				s-0.2,0.2-0.3,0.3s-0.2,0.2-0.3,0.2c-0.1,0.1-0.2,0.1-0.3,0.2c-0.1,0.3-0.3,0.4-0.5,0.5c-0.1,0-0.2,0.1-0.3,0.1
				c0,0-0.1,0-0.2,0.1s-0.1,0-0.2,0.1c-0.2,0-0.4,0.1-0.6,0.2c-0.2,0.1-0.4,0.2-0.6,0.3c-0.2,0.1-0.4,0.1-0.6,0.1c0,0-0.1,0-0.2,0
				c0,0-0.1,0-0.2,0c-0.1,0-0.2,0-0.3,0.1c-0.1,0-0.2,0-0.3,0c-0.1,0-0.2,0-0.3,0c-0.1,0-0.2,0-0.3,0c-0.1,0-0.2,0-0.3-0.1
				c-0.2,0.1-0.4,0-0.6,0c-0.2-0.1-0.4-0.2-0.6-0.1c-0.1,0-0.2,0-0.3,0s-0.2,0-0.3-0.1c-0.2,0-0.4-0.1-0.5-0.2
				c-0.1-0.2-0.3-0.3-0.5-0.3c-0.2,0-0.4-0.1-0.5-0.1c-0.3-0.2-0.7-0.2-0.9-0.5c-0.1-0.1-0.2-0.2-0.3-0.3c-0.1-0.1-0.2-0.2-0.4-0.3
				c-0.1-0.1-0.2-0.3-0.2-0.4c-0.1-0.1-0.1-0.3-0.4-0.2c-0.1-0.1-0.2-0.2-0.2-0.4s-0.1-0.3-0.3-0.3c-0.4-0.1-0.3-0.5-0.4-0.7
				c0,0-0.1-0.1-0.1-0.2s0-0.1-0.1-0.2c0-0.1-0.1-0.2-0.1-0.3C36,51,36,50.2,36,49.7C36,49.2,36.1,48.9,36.2,48.9
				c0,0,0.1,0.1,0.1,0.2c0,0.1,0,0.2,0.1,0.3c0,0.1,0,0.1,0,0.2s0,0.1,0.1,0.2c0.2,0.6,0.4,1.4,1,2.3c0.1,0.2,0.4,0.3,0.4,0.5
				c0.1,0.1,0.2,0.2,0.3,0.3s0.2,0.2,0.2,0.3c0.2,0,0.3,0.1,0.3,0.2c0.1,0.1,0.1,0.2,0.2,0.3c0.1,0.1,0.2,0.2,0.3,0.3
				c0.1,0.1,0.2,0.2,0.4,0.2c0.2,0,0.3,0.1,0.4,0.2c0.1,0.1,0.2,0.2,0.4,0.2c0.1,0.1,0.2,0.2,0.4,0.3c0.2,0,0.3,0,0.5,0
				c0.1,0.1,0.3,0.2,0.4,0.2c0.1,0,0.2,0,0.2,0s0.2,0,0.2,0c0.1,0.2,0.3,0.2,0.5,0.2c0.2,0,0.3-0.1,0.5-0.1c0.1,0,0.2,0,0.3,0
				c0.1,0,0.2,0,0.3,0c0.1,0,0.2,0,0.3,0s0.2,0,0.3,0c0.1,0,0.2,0,0.3,0c0,0,0.1,0,0.1,0l0.1,0c0.2-0.1,0.3-0.1,0.5-0.1
				c0.1-0.1,0.3-0.2,0.5-0.3s0.3-0.1,0.5-0.1c0,0,0.1,0,0.1-0.1c0,0,0.1,0,0.1-0.1c0.1,0,0.2-0.1,0.2-0.1c0.2-0.1,0.3-0.2,0.5-0.3
				c0.1-0.1,0.1-0.1,0.2-0.2c0.1-0.1,0.1-0.1,0.2-0.2l0.2-0.2c0.1-0.1,0.1-0.1,0.2-0.2c0.1-0.2,0.3-0.2,0.4-0.4
				c0.1-0.1,0.3-0.3,0.3-0.5c0.2-0.3,0.4-0.6,0.5-1l0.1-0.3c0-0.1,0.1-0.2,0.1-0.3c0-0.2,0.1-0.4,0.1-0.6c0.2-0.2,0.2-0.4,0.2-0.6
				c0-0.2-0.1-0.4-0.1-0.6c0-0.2-0.1-0.4-0.1-0.6c0-0.2,0-0.4,0-0.6c0-0.2-0.1-0.4-0.2-0.6c0-0.1,0-0.2-0.1-0.3L49,46.6
				c-0.2-0.3-0.2-0.8-0.5-1c-0.1-0.1-0.2-0.3-0.3-0.5c-0.1-0.2-0.2-0.3-0.4-0.4c-0.1,0-0.2-0.1-0.2-0.2c-0.1,0-0.2-0.1-0.2-0.2
				c-0.1-0.1-0.1-0.1-0.2-0.2C47.1,44.1,47,44,47,43.9c-0.2-0.1-0.3-0.3-0.4-0.4c-0.1-0.1-0.1-0.1-0.2-0.2c0,0-0.1,0-0.1,0
				s-0.1,0-0.2,0c-0.2,0-0.4,0-0.5-0.1c-0.2,0-0.3-0.1-0.4-0.3c-0.2,0-0.3-0.1-0.5-0.2c0,0-0.1,0-0.1-0.1c0,0-0.1,0-0.1,0
				c-0.1,0-0.2,0-0.3,0c-0.1-0.1-0.2-0.1-0.2-0.2c-0.1,0-0.2,0-0.3,0c-0.2,0-0.3,0.1-0.5,0.1c-0.2,0-0.3,0-0.5,0
				c-0.2,0-0.3,0-0.5,0.1c-0.1,0-0.2,0.1-0.2,0.1c-0.1,0-0.2,0-0.2,0c-0.2,0-0.3,0-0.5,0.1c-0.1,0.1-0.3,0.1-0.4,0.1
				c-0.1,0-0.2,0-0.2,0c-0.1,0-0.1,0.1-0.2,0.1c-0.3,0.1-0.5,0.3-0.8,0.4c0,0.2-0.1,0.3-0.3,0.3c-0.1,0-0.3,0-0.4,0.1
				c-0.1,0.1-0.2,0.2-0.2,0.3c-0.1,0.1-0.1,0.2-0.3,0.2c0,0.2,0,0.3-0.2,0.3C38.2,44.9,38,45,37.9,45c-0.2,0.1-0.2,0.5-0.4,0.5
				c0,0.1,0,0.1,0,0.2c0,0-0.1,0.1-0.1,0.1c-0.1,0.1-0.2,0.1-0.2,0.2c-0.2,0.1-0.2,0.4-0.3,0.5c0,0.1,0,0.2-0.1,0.3
				c0,0.1-0.1,0.2-0.1,0.2c0,0.2-0.1,0.3-0.2,0.4c0,0.2-0.1,0.4-0.2,0.5s-0.1,0.3-0.1,0.4C36.3,48.8,36.2,48.9,36.2,48.9z"/>
		</g>
		<g id="XMLID_17960_">
			<path class="st0" d="M64.1,17c-0.1,0.1-0.3,0.1-0.6-0.1c0,0-0.1,0-0.2-0.1c-0.1,0-0.1-0.1-0.2-0.1c0.1-0.1-0.3,0.1-0.2-0.1
				c0-0.1-0.1-0.1-0.2-0.2c-0.1,0,0-0.2-0.2-0.2c-0.1,0-0.1-0.1-0.1-0.1c0-0.1,0.1-0.1-0.1-0.1c-0.1-0.1-0.2-0.2-0.2-0.3
				c0.1-0.1,0.1-0.1,0-0.2c0-0.1-0.1-0.1-0.2-0.1c0.2-0.2,0.1-0.3-0.1-0.4c0.3-0.2,0.3-0.3-0.1-0.4c0-0.1,0.1-0.3,0-0.4
				c0-0.1,0-0.3,0-0.4c-0.2-0.2-0.2-0.3,0.1-0.4c-0.2-0.2-0.1-0.3,0.1-0.4s-0.1-0.4,0.2-0.4c0.1-0.1,0.1-0.3,0.2-0.4
				c0.2-0.1,0.3-0.2,0.2-0.4c0-0.2,0-0.3,0.2-0.4c-0.1-0.3,0-0.3,0.3-0.4c0-0.1,0.1-0.1,0.2-0.2c0.1-0.1,0.1-0.1,0.1-0.2
				c0.1-0.1,0-0.3,0.2-0.3c0.1-0.1,0.3-0.2,0.2-0.4C63.8,9.4,64,9.4,64,9.3c0.3,0,0-0.3,0.1-0.4c0-0.1,0.2-0.2,0.1-0.4
				c0-0.1,0-0.3,0.1-0.4C64,8,64.5,8,64.4,7.8c0.2-0.1,0-0.2,0.1-0.4c-0.1-0.1,0.2-0.2,0-0.3c0-0.1-0.1-0.2,0-0.3
				c-0.2-0.1,0.2-0.2,0-0.3c0-0.1,0-0.2,0-0.3c0.3-0.1,0-0.2,0-0.3c0-0.1-0.2-0.2,0-0.3c0-0.1,0.1-0.2,0-0.3c-0.1-0.1,0.4-0.3,0-0.3
				c-0.1-0.1,0.3-0.2,0-0.3c-0.3,0,0-0.2,0-0.2c0-0.1,0-0.2,0-0.2c0-0.6,0-1,0.1-1.1c0.2-0.1,0.5,0.3,0.8,1.1c0,0.1,0.3,0.1,0.1,0.2
				c0,0.1,0.2,0.2,0.1,0.3c0.3,0,0.1,0.2,0.1,0.3c0,0.1,0,0.2,0.1,0.3c0.2,0.1-0.1,0.2,0.1,0.3c-0.2,0.1-0.1,0.2,0.1,0.3
				C65.8,6.2,66,6.3,66,6.4c-0.3,0.1-0.1,0.3,0,0.4c0.1,0.1,0,0.3,0,0.4c-0.1,0.1,0.1,0.3,0,0.4c0.1,0.2,0.1,0.3,0,0.4
				c0.1,0.2,0,0.3-0.1,0.4C66,8.7,65.9,8.8,65.9,9c0,0.1-0.1,0.1-0.1,0.2c-0.1,0.1-0.1,0.1,0,0.3c0,0.2-0.2,0.3-0.2,0.5
				c-0.1,0.1-0.2,0.3-0.2,0.5c-0.3,0-0.2,0.3-0.2,0.5c0,0.2-0.1,0.3-0.3,0.4c0,0.1-0.1,0.2-0.1,0.2s-0.1,0.1-0.1,0.2
				c0,0.2-0.3,0.2-0.2,0.3c0,0.2-0.2,0.2-0.2,0.3c0,0.1,0,0.3-0.2,0.3c-0.1,0.1-0.3,0.1-0.2,0.3c0,0.1,0.3,0.4-0.1,0.3
				c0,0.1-0.3,0.2-0.1,0.3c-0.3,0-0.1,0.2-0.1,0.3c-0.1,0.1-0.2,0.2-0.1,0.3c0.1,0.1-0.1,0.2,0,0.3c0.1,0,0,0.1,0,0.1
				c0,0-0.1,0.1,0,0.1c0,0.1,0.1,0.1,0,0.2c0.2,0,0.2,0,0.2,0.1c0,0.1-0.1,0.1-0.1,0.2c0,0.1,0.3,0,0,0.2c0.1,0,0.2,0,0.2,0
				c0,0.1-0.1,0.1-0.1,0.2c0,0.1,0.2,0.1,0.1,0.2c0.2-0.1,0,0.2,0.1,0.2c-0.1,0.1,0.1,0.1,0.1,0.2c0.1,0,0.1,0.1,0.1,0.1
				c0,0,0,0.1,0.1,0.1C64.1,16.7,64.2,16.9,64.1,17z"/>
		</g>
		<g id="XMLID_17953_">
			<path class="st0" d="M54.9,22.6c-0.1,0.1-0.3,0.1-0.5-0.1c0,0-0.1,0-0.2-0.1c-0.1,0-0.1,0-0.2-0.1c0.1-0.1-0.3,0.1-0.2-0.1
				c0-0.1-0.1-0.1-0.2-0.2c-0.1,0,0-0.2-0.2-0.2c-0.1,0-0.1,0-0.1-0.1s0.1-0.1-0.1-0.1c-0.1-0.1-0.2-0.2-0.2-0.3
				c0.1-0.1,0.1-0.1,0-0.2c0,0-0.1-0.1-0.2-0.1c0.2-0.2,0.1-0.3-0.1-0.4c0.3-0.2,0.3-0.3-0.1-0.4c0-0.1,0.1-0.3,0-0.4
				c0-0.1,0-0.3,0-0.4c-0.2-0.2-0.2-0.3,0.1-0.4c-0.2-0.2-0.1-0.3,0.1-0.4s-0.1-0.4,0.2-0.4c0.1-0.1,0.1-0.3,0.2-0.4
				c0.2-0.1,0.3-0.2,0.2-0.4c0-0.2,0-0.3,0.2-0.4c-0.1-0.3,0-0.3,0.3-0.4c0-0.1,0.1-0.1,0.2-0.2c0.1,0,0.1-0.1,0.1-0.2
				c0.1-0.1,0-0.3,0.2-0.3c0.1-0.1,0.3-0.2,0.2-0.4c-0.1-0.2,0.2-0.2,0.2-0.4c0.3,0,0-0.3,0.1-0.4c0-0.1,0.2-0.2,0.1-0.4
				c0-0.1-0.1-0.2,0.1-0.3c-0.3-0.2,0.1-0.2,0.1-0.4c0.2-0.1,0-0.2,0.1-0.4c-0.1-0.1,0.2-0.2,0-0.4c0-0.1-0.1-0.2,0-0.3
				c-0.2-0.1,0.2-0.2,0-0.3c0-0.1,0-0.2,0-0.3c0.3-0.1,0-0.2,0-0.3c0-0.1-0.2-0.2,0-0.3c0-0.1,0.1-0.2,0-0.3c-0.1-0.1,0.4-0.3,0-0.3
				c-0.1-0.1,0.3-0.2,0-0.3c-0.3,0,0-0.2,0-0.2s0-0.1,0-0.2c0-0.6,0-1,0.1-1.1c0.2-0.1,0.5,0.3,0.8,1.1c0,0.1,0.3,0.1,0.1,0.2
				c0,0.1,0.2,0.1,0.1,0.3c0.3,0,0.1,0.2,0.1,0.3c0,0.1,0,0.2,0.1,0.3c0.2,0.1,0,0.2,0.1,0.3c-0.2,0.1-0.1,0.2,0.1,0.4
				c-0.2,0.1,0,0.2,0,0.4c-0.3,0.1-0.1,0.3,0,0.4c0.1,0.1,0,0.3,0,0.4c0,0.1,0,0.3,0,0.4c0.1,0.1,0.1,0.3,0,0.4c0.1,0.2,0,0.3,0,0.4
				c0.1,0.2-0.1,0.3-0.1,0.5c0,0.1-0.1,0.1-0.1,0.2c-0.1,0.1-0.1,0.1,0,0.3c0,0.2-0.1,0.3-0.2,0.5c-0.1,0.1-0.2,0.3-0.2,0.5
				c-0.3,0-0.2,0.3-0.2,0.5c0,0.2-0.1,0.3-0.3,0.4c0,0.1-0.1,0.2-0.1,0.2c0,0.1-0.1,0.1-0.1,0.2c0,0.2-0.3,0.2-0.2,0.3
				c0,0.2-0.2,0.2-0.2,0.3c0,0.1,0,0.3-0.2,0.3c0,0.1-0.3,0.1-0.2,0.3c0,0.1,0.3,0.4-0.1,0.3c0,0.1-0.3,0.2-0.1,0.3
				c-0.3,0-0.1,0.2-0.1,0.3c-0.1,0.1-0.2,0.2-0.1,0.3c0.1,0.1-0.1,0.2,0,0.3c0.1,0,0,0.1,0,0.1c0,0-0.1,0.1,0,0.1
				c0,0.1,0.1,0.1,0,0.2c0.2,0,0.2,0,0.2,0.1s-0.1,0.1-0.1,0.2c0,0.1,0.3,0,0,0.2c0.1,0,0.2,0,0.2,0c0,0-0.1,0.1-0.1,0.2
				c0,0.1,0.2,0,0.1,0.2c0.2-0.1,0,0.2,0.1,0.2c-0.1,0.1,0.1,0.1,0.1,0.2c0.1,0,0.1,0.1,0.1,0.1c0,0,0,0.1,0.1,0.1
				C54.9,22.3,54.9,22.5,54.9,22.6z"/>
		</g>
		<g id="XMLID_17952_">
			<path class="st0" d="M73.3,22.6c-0.1,0.1-0.3,0.1-0.6-0.1c-0.1,0-0.1,0-0.2-0.1c-0.1,0-0.1,0-0.2-0.1c0.1-0.1-0.3,0.1-0.2-0.1
				c0-0.1-0.1-0.1-0.2-0.2c-0.1,0,0-0.2-0.2-0.2c-0.1,0-0.1,0-0.1-0.1s0.1-0.1-0.1-0.1c-0.1-0.1-0.2-0.2-0.2-0.3
				c0.1-0.1,0.1-0.1,0-0.2c-0.1,0-0.1-0.1-0.2-0.1c0.2-0.2,0.1-0.3-0.1-0.4c0.3-0.2,0.3-0.3-0.1-0.4c0-0.1,0.1-0.3,0-0.4
				c0-0.1,0-0.3,0-0.4c-0.2-0.2-0.2-0.3,0.1-0.4c-0.2-0.2-0.1-0.3,0.1-0.4s-0.1-0.4,0.2-0.4c0.1-0.1,0.1-0.3,0.2-0.4
				c0.2-0.1,0.3-0.2,0.2-0.4c0-0.2,0-0.3,0.2-0.4c-0.1-0.3,0.1-0.3,0.3-0.4c0-0.1,0.1-0.1,0.2-0.2s0.1-0.1,0.1-0.2
				c0.1-0.1,0-0.3,0.2-0.3c0.1-0.1,0.3-0.2,0.2-0.4C73,15,73.3,15,73.3,14.9c0.3,0,0-0.3,0.1-0.4c0-0.1,0.2-0.2,0.1-0.4
				c0-0.1,0-0.3,0.1-0.4c-0.3-0.2,0.1-0.2,0.1-0.4c0.2-0.1,0-0.2,0.1-0.4c-0.1-0.1,0.2-0.2,0-0.4c0-0.1-0.1-0.2,0-0.3
				c-0.2-0.1,0.2-0.2,0-0.3c0-0.1,0-0.2,0-0.3c0.3-0.1,0-0.2,0-0.3c0-0.1-0.2-0.2,0-0.3c0-0.1,0.1-0.2,0-0.3c-0.1-0.1,0.4-0.3,0-0.3
				c-0.1-0.1,0.3-0.2,0-0.3c-0.3,0,0-0.2,0-0.2c0-0.1,0-0.1,0-0.2c0-0.6,0-1,0.1-1.1c0.2-0.1,0.5,0.3,0.8,1.1c0,0.1,0.3,0.1,0.1,0.2
				c0,0.1,0.2,0.1,0.1,0.3c0.3,0,0.1,0.2,0.1,0.3c0,0.1,0,0.2,0.1,0.3c0.2,0.1-0.1,0.2,0.1,0.3c-0.2,0.1-0.1,0.2,0.1,0.4
				c-0.2,0.1,0.1,0.2,0.1,0.4c-0.3,0.1-0.1,0.3,0,0.4c0.1,0.1,0,0.3,0,0.4c-0.1,0.1,0.1,0.3,0,0.4c0.1,0.1,0.1,0.3,0,0.4
				c0.1,0.2,0,0.3-0.1,0.4c0.1,0.2-0.1,0.3-0.1,0.5c0,0.1-0.1,0.1-0.1,0.2c-0.1,0.1-0.1,0.1,0,0.3c0,0.2-0.2,0.3-0.2,0.5
				c-0.1,0.1-0.2,0.3-0.2,0.5c-0.3,0-0.2,0.3-0.2,0.5c0,0.2-0.1,0.3-0.3,0.4c0,0.1-0.1,0.2-0.1,0.2s-0.1,0.1-0.1,0.2
				c0,0.2-0.3,0.2-0.2,0.3c0,0.2-0.2,0.2-0.2,0.3c0,0.1,0,0.3-0.2,0.3c-0.1,0.1-0.3,0.1-0.2,0.3c0,0.1,0.3,0.4-0.1,0.3
				c0,0.1-0.3,0.2-0.1,0.3c-0.3,0-0.1,0.2-0.1,0.3c-0.1,0.1-0.2,0.2-0.1,0.3c0.1,0.1-0.1,0.2-0.1,0.3c0.1,0,0,0.1,0,0.1
				c-0.1,0-0.1,0.1,0,0.1c0,0.1,0.1,0.1,0,0.2c0.2,0,0.2,0,0.2,0.1c0,0-0.1,0.1-0.1,0.2c0,0.1,0.3,0,0.1,0.2c0.1,0,0.2,0,0.2,0
				c0,0-0.1,0.1-0.1,0.2c0,0.1,0.2,0,0.1,0.2c0.2-0.1,0,0.2,0.1,0.2c-0.1,0.1,0.1,0.1,0.1,0.2c0.1,0,0.1,0.1,0.1,0.1
				c0,0,0.1,0.1,0.1,0.1C73.4,22.3,73.4,22.5,73.3,22.6z"/>
		</g>
	</g>
</g>
</svg>
