<svg width="16" height="17" viewBox="0 0 16 17" fill="none" xmlns="http://www.w3.org/2000/svg">
<path fill-rule="evenodd" clip-rule="evenodd" d="M7.99982 1.65332C8.17555 1.65332 8.318 1.79578 8.318 1.9715V3.8872C8.318 5.10889 8.62147 6.00398 9.0603 6.66451C9.50042 7.32697 10.0894 7.77248 10.688 8.07278C11.2878 8.37372 11.8914 8.52578 12.3478 8.6021C12.5752 8.64014 12.764 8.65903 12.8947 8.6684C12.96 8.67308 13.0107 8.67537 13.0442 8.67649C13.061 8.67705 13.0734 8.67732 13.0813 8.67745L13.0896 8.67755L13.0907 8.67756H14.9998C15.1755 8.67756 15.318 8.82002 15.318 8.99574C15.318 9.17147 15.1755 9.31393 14.9998 9.31393H13.0907C11.8739 9.31393 10.9824 9.61826 10.3245 10.0584C9.66446 10.4999 9.22039 11.091 8.92097 11.6919C8.62095 12.294 8.46935 12.9 8.39325 13.3582C8.35533 13.5865 8.33649 13.7761 8.32714 13.9074C8.32248 13.9729 8.32019 14.0238 8.31907 14.0575C8.31851 14.0743 8.31825 14.0868 8.31812 14.0947L8.31801 14.1031L8.318 14.1043V16.02C8.318 16.1957 8.17555 16.3382 7.99982 16.3382C7.8241 16.3382 7.68164 16.1957 7.68164 16.02V14.1043C7.68164 12.8826 7.37817 11.9875 6.93934 11.327C6.49923 10.6645 5.91021 10.219 5.31168 9.9187C4.71188 9.61776 4.10824 9.46571 3.65188 9.38939C3.42446 9.35135 3.23563 9.33246 3.10492 9.32309C3.03961 9.31841 2.98897 9.31612 2.95545 9.31499C2.93869 9.31443 2.92623 9.31417 2.91837 9.31404L2.91007 9.31393L2.90891 9.31393H0.999822C0.824095 9.31393 0.681641 9.17147 0.681641 8.99574C0.681641 8.82002 0.824095 8.67756 0.999822 8.67756H2.90891C4.12574 8.67756 5.01722 8.37323 5.67518 7.93307C6.33518 7.49155 6.77926 6.90048 7.07867 6.29957C7.3787 5.69744 7.5303 5.09144 7.6064 4.63328C7.64432 4.40495 7.66316 4.21538 7.6725 4.08412C7.67717 4.01855 7.67945 3.96769 7.68057 3.93401C7.68113 3.91718 7.6814 3.90465 7.68153 3.89675L7.68163 3.88839L7.68164 3.8872V1.9715C7.68164 1.79578 7.8241 1.65332 7.99982 1.65332Z" fill="white"/>
</svg>
