<?xml version="1.0" encoding="utf-8"?>
<!-- Generator: Adobe Illustrator 23.1.0, SVG Export Plug-In . SVG Version: 6.00 Build 0)  -->
<svg version="1.1" id="Layer_1" xmlns="http://www.w3.org/2000/svg" xmlns:xlink="http://www.w3.org/1999/xlink" x="0px" y="0px"
	 viewBox="0 0 32.65 36.9" style="enable-background:new 0 0 32.65 36.9;" xml:space="preserve">
<style type="text/css">
	.st0{fill-rule:evenodd;clip-rule:evenodd;fill:#EE2D59;}
	.st1{fill-rule:evenodd;clip-rule:evenodd;fill:#010101;}
	.st2{fill-rule:evenodd;clip-rule:evenodd;fill:#19BEC9;}
</style>
<g>
	<path class="st0" d="M24.2,13.32c2.38,1.7,5.3,2.7,8.45,2.7V9.96c-0.6,0-1.19-0.06-1.78-0.19v4.77c-3.15,0-6.07-1-8.45-2.7v12.37
		c0,6.19-5.02,11.21-11.21,11.21c-2.31,0-4.46-0.7-6.24-1.9c2.04,2.08,4.88,3.37,8.02,3.37c6.19,0,11.21-5.02,11.21-11.21
		L24.2,13.32L24.2,13.32z M26.39,7.2c-1.22-1.33-2.02-3.05-2.19-4.95V1.48h-1.68C22.94,3.89,24.39,5.95,26.39,7.2L26.39,7.2z
		 M8.89,28.78c-0.68-0.89-1.05-1.98-1.05-3.1c0-2.83,2.3-5.13,5.13-5.13c0.53,0,1.05,0.08,1.56,0.24v-6.2
		c-0.59-0.08-1.18-0.11-1.77-0.1v4.82c-0.5-0.16-1.03-0.24-1.56-0.24c-2.83,0-5.13,2.3-5.13,5.13C6.07,26.2,7.21,27.93,8.89,28.78z"
		/>
	<path class="st1" d="M22.42,11.84c2.38,1.7,5.3,2.7,8.45,2.7V9.77c-1.76-0.37-3.32-1.29-4.49-2.57c-2-1.25-3.45-3.31-3.87-5.73
		H18.1v24.22c-0.01,2.82-2.3,5.11-5.13,5.11c-1.67,0-3.15-0.79-4.08-2.02c-1.67-0.84-2.82-2.58-2.82-4.58c0-2.83,2.3-5.13,5.13-5.13
		c0.54,0,1.07,0.08,1.56,0.24v-4.82c-6.08,0.13-10.98,5.09-10.98,11.2c0,3.05,1.22,5.82,3.2,7.84c1.78,1.2,3.93,1.9,6.24,1.9
		c6.19,0,11.21-5.02,11.21-11.21V11.84z"/>
	<path class="st2" d="M30.88,9.77V8.48c-1.59,0-3.14-0.44-4.49-1.28C27.58,8.51,29.15,9.41,30.88,9.77z M22.52,1.48
		c-0.04-0.23-0.07-0.46-0.09-0.7V0h-6.1v24.22c-0.01,2.82-2.3,5.11-5.13,5.11c-0.83,0-1.61-0.2-2.31-0.55
		c0.94,1.23,2.42,2.02,4.08,2.02c2.83,0,5.12-2.29,5.13-5.11V1.48H22.52z M12.75,14.49v-1.37c-0.51-0.07-1.02-0.1-1.54-0.1
		C5.02,13.01,0,18.03,0,24.22c0,3.88,1.97,7.3,4.97,9.31c-1.98-2.02-3.2-4.79-3.2-7.84C1.78,19.58,6.67,14.61,12.75,14.49
		L12.75,14.49z"/>
</g>
</svg>
