<svg width="28" height="29" viewBox="0 0 28 29" fill="none" xmlns="http://www.w3.org/2000/svg">
<path d="M14.0213 7.47267C10.1334 7.47267 6.99561 10.6104 6.99561 14.4983C6.99561 18.3863 10.1334 21.524 14.0213 21.524C17.9092 21.524 21.0469 18.3863 21.0469 14.4983C21.0469 10.6104 17.9092 7.47267 14.0213 7.47267ZM14.0213 19.0645C11.507 19.0645 9.45511 17.0126 9.45511 14.4983C9.45511 11.984 11.507 9.93216 14.0213 9.93216C16.5356 9.93216 18.5874 11.984 18.5874 14.4983C18.5874 17.0126 16.5356 19.0645 14.0213 19.0645ZM21.3347 5.54755C20.4269 5.54755 19.6939 6.2806 19.6939 7.18835C19.6939 8.09611 20.4269 8.82916 21.3347 8.82916C22.2424 8.82916 22.9755 8.09953 22.9755 7.18835C22.9758 6.9728 22.9335 6.75932 22.8511 6.56012C22.7688 6.36093 22.6479 6.17994 22.4955 6.02753C22.3431 5.87511 22.1621 5.75426 21.9629 5.6719C21.7637 5.58953 21.5502 5.54728 21.3347 5.54755V5.54755ZM27.7163 14.4983C27.7163 12.6075 27.7335 10.7337 27.6273 8.84629C27.5211 6.65398 27.021 4.70831 25.4178 3.10518C23.8113 1.49863 21.869 1.00194 19.6767 0.895745C17.7859 0.789555 15.9121 0.806683 14.0247 0.806683C12.1338 0.806683 10.2601 0.789555 8.37265 0.895745C6.18035 1.00194 4.23467 1.50206 2.63155 3.10518C1.025 4.71173 0.528302 6.65398 0.422113 8.84629C0.315923 10.7372 0.33305 12.6109 0.33305 14.4983C0.33305 16.3858 0.315923 18.2629 0.422113 20.1504C0.528302 22.3427 1.02842 24.2884 2.63155 25.8915C4.2381 27.498 6.18035 27.9947 8.37265 28.1009C10.2635 28.2071 12.1373 28.19 14.0247 28.19C15.9156 28.19 17.7893 28.2071 19.6767 28.1009C21.869 27.9947 23.8147 27.4946 25.4178 25.8915C27.0244 24.2849 27.5211 22.3427 27.6273 20.1504C27.7369 18.2629 27.7163 16.3892 27.7163 14.4983V14.4983ZM24.7019 22.5756C24.4519 23.1991 24.1504 23.6649 23.6674 24.1445C23.1844 24.6275 22.722 24.9289 22.0986 25.179C20.2968 25.8949 16.0183 25.7339 14.0213 25.7339C12.0242 25.7339 7.74237 25.8949 5.94056 25.1824C5.31712 24.9323 4.85126 24.6309 4.37169 24.1479C3.8887 23.6649 3.58726 23.2025 3.3372 22.579C2.6247 20.7738 2.78569 16.4954 2.78569 14.4983C2.78569 12.5013 2.6247 8.21942 3.3372 6.41762C3.58726 5.79418 3.8887 5.32832 4.37169 4.84875C4.85468 4.36918 5.31712 4.06432 5.94056 3.81426C7.74237 3.10176 12.0242 3.26275 14.0213 3.26275C16.0183 3.26275 20.3002 3.10176 22.102 3.81426C22.7254 4.06432 23.1913 4.36576 23.6709 4.84875C24.1538 5.33174 24.4553 5.79418 24.7053 6.41762C25.4178 8.21942 25.2568 12.5013 25.2568 14.4983C25.2568 16.4954 25.4178 20.7738 24.7019 22.5756Z" fill="#fff"/>
</svg>
