<?xml version="1.0" encoding="utf-8"?>
<!-- Generator: Adobe Illustrator 23.1.0, SVG Export Plug-In . SVG Version: 6.00 Build 0)  -->
<svg version="1.1" id="Layer_1" xmlns="http://www.w3.org/2000/svg" xmlns:xlink="http://www.w3.org/1999/xlink" x="0px" y="0px"
	 viewBox="0 0 35.38 35.38" style="enable-background:new 0 0 35.38 35.38;" xml:space="preserve">
<style type="text/css">
	.st0{fill:url(#SVGID_1_);}
	.st1{fill:url(#SVGID_2_);}
	.st2{fill:url(#SVGID_3_);}
</style>
<g>
	<g>
		<linearGradient id="SVGID_1_" gradientUnits="userSpaceOnUse" x1="10.8493" y1="-7.1224" x2="42.9374" y2="23.5913">
			<stop  offset="1.104800e-03" style="stop-color:#FFE187"/>
			<stop  offset="0.2094" style="stop-color:#FDB944"/>
			<stop  offset="0.3765" style="stop-color:#F05577"/>
			<stop  offset="0.5238" style="stop-color:#ED3995"/>
			<stop  offset="0.7394" style="stop-color:#8E509F"/>
			<stop  offset="1" style="stop-color:#5E5DA9"/>
		</linearGradient>
		<path class="st0" d="M27.06,6.32c-1.15,0-2.07,0.93-2.07,2.07c0,1.15,0.93,2.07,2.07,2.07c1.15,0,2.07-0.93,2.07-2.07
			C29.13,7.25,28.2,6.32,27.06,6.32z"/>
		<linearGradient id="SVGID_2_" gradientUnits="userSpaceOnUse" x1="1.7951" y1="2.337" x2="33.8832" y2="33.0507">
			<stop  offset="1.104800e-03" style="stop-color:#FFE187"/>
			<stop  offset="0.2094" style="stop-color:#FDB944"/>
			<stop  offset="0.3765" style="stop-color:#F05577"/>
			<stop  offset="0.5238" style="stop-color:#ED3995"/>
			<stop  offset="0.7394" style="stop-color:#8E509F"/>
			<stop  offset="1" style="stop-color:#5E5DA9"/>
		</linearGradient>
		<path class="st1" d="M17.84,8.98c-4.8,0-8.71,3.91-8.71,8.71c0,4.8,3.91,8.71,8.71,8.71c4.8,0,8.71-3.91,8.71-8.71
			C26.55,12.89,22.64,8.98,17.84,8.98z M17.84,23.27c-3.08,0-5.58-2.5-5.58-5.58s2.5-5.58,5.58-5.58c3.08,0,5.58,2.5,5.58,5.58
			S20.91,23.27,17.84,23.27z"/>
		<linearGradient id="SVGID_3_" gradientUnits="userSpaceOnUse" x1="1.7256" y1="2.4097" x2="33.8135" y2="33.1231">
			<stop  offset="1.104800e-03" style="stop-color:#FFE187"/>
			<stop  offset="0.2094" style="stop-color:#FDB944"/>
			<stop  offset="0.3765" style="stop-color:#F05577"/>
			<stop  offset="0.5238" style="stop-color:#ED3995"/>
			<stop  offset="0.7394" style="stop-color:#8E509F"/>
			<stop  offset="1" style="stop-color:#5E5DA9"/>
		</linearGradient>
		<path class="st2" d="M24.75,35.38H10.63C4.77,35.38,0,30.61,0,24.75V10.63C0,4.77,4.77,0,10.63,0h14.13
			c5.86,0,10.63,4.77,10.63,10.63v14.13C35.38,30.61,30.61,35.38,24.75,35.38z M10.63,3.33c-4.02,0-7.3,3.27-7.3,7.3v14.13
			c0,4.02,3.27,7.3,7.3,7.3h14.13c4.02,0,7.3-3.27,7.3-7.3V10.63c0-4.02-3.27-7.3-7.3-7.3H10.63z"/>
	</g>
</g>
</svg>
