<?xml version="1.0" encoding="utf-8"?>
<!-- Generator: Adobe Illustrator 23.1.0, SVG Export Plug-In . SVG Version: 6.00 Build 0)  -->
<svg version="1.1" id="Layer_1" xmlns="http://www.w3.org/2000/svg" xmlns:xlink="http://www.w3.org/1999/xlink" x="0px" y="0px"
	 viewBox="0 0 55.6 59.5" style="enable-background:new 0 0 55.6 59.5;" xml:space="preserve">
<style type="text/css">
	.st0{fill:#FFFFFF;}
</style>
<g>
	<g>
		<g>
			<g id="_x31_05_x2C__Cucumber_x2C__Lettuce_x2C__Salad">
				<g>
					<path class="st0" d="M53.1,52.3c0.7,0,1.3,0.6,1.3,1.3c0,0.7-0.6,1.3-1.3,1.3c-0.7,0-1.3-0.6-1.3-1.3
						C51.8,52.9,52.4,52.3,53.1,52.3z"/>
					<path class="st0" d="M34.2,39.8c0.7,0,1.3,0.6,1.3,1.3c0,0.7-0.6,1.3-1.3,1.3s-1.3-0.6-1.3-1.3C32.9,40.4,33.5,39.8,34.2,39.8z
						"/>
					<path class="st0" d="M51.9,12.4c0.7,0,1.2,0.5,1.2,1.2s-0.5,1.2-1.2,1.2s-1.2-0.5-1.2-1.2C50.7,12.9,51.2,12.4,51.9,12.4z"/>
					<path class="st0" d="M40.5,17.3c0.7,0,1.3,0.6,1.3,1.3s-0.6,1.3-1.3,1.3s-1.3-0.6-1.3-1.3C39.2,17.9,39.7,17.3,40.5,17.3z"/>
					<path class="st0" d="M24.1,17.3c0.7,0,1.3,0.6,1.3,1.3s-0.6,1.3-1.3,1.3c-0.7,0-1.3-0.6-1.3-1.3C22.8,17.9,23.4,17.3,24.1,17.3
						z"/>
					<path class="st0" d="M31.7,3.5c0.7,0,1.3,0.6,1.3,1.3s-0.6,1.3-1.3,1.3c-0.7,0-1.3-0.6-1.3-1.3C30.4,4.1,30.9,3.5,31.7,3.5z"/>
					<path class="st0" d="M19,1c0.7,0,1.3,0.6,1.3,1.3S19.7,3.6,19,3.6c-0.7,0-1.3-0.6-1.3-1.3C17.7,1.6,18.3,1,19,1z"/>
					<path class="st0" d="M7.6,4.8c0.7,0,1.3,0.6,1.3,1.3S8.3,7.4,7.6,7.4S6.3,6.8,6.3,6.1C6.3,5.4,6.9,4.8,7.6,4.8z"/>
					<path class="st0" d="M1.3,19.8c0.7,0,1.3,0.6,1.3,1.3S2,22.4,1.3,22.4c-0.7,0-1.3-0.6-1.3-1.3C0,20.4,0.6,19.8,1.3,19.8z"/>
					<path class="st0" d="M20.2,29.8c0.7,0,1.3,0.6,1.3,1.3s-0.6,1.3-1.3,1.3s-1.3-0.6-1.3-1.3C18.9,30.4,19.5,29.8,20.2,29.8z"/>
					<path class="st0" d="M46.8,56c0.7,0,1.3,0.6,1.3,1.3c0,0.7-0.6,1.3-1.3,1.3s-1.3-0.6-1.3-1.3C45.5,56.6,46.1,56,46.8,56z"/>
					<path class="st0" d="M2.5,54.8c0.7,0,1.3,0.6,1.3,1.3c0,0.7-0.6,1.3-1.3,1.3c-0.7,0-1.3-0.6-1.3-1.3
						C1.2,55.4,1.8,54.8,2.5,54.8z"/>
					<path class="st0" d="M51.9,36.1c0-0.7-0.6-1.3-1.3-1.3H2.5c-0.7,0-1.3,0.6-1.3,1.3v6c0,7,5.7,12.6,12.6,12.7l0,0
						c0,2.7,2.2,5,5.1,5h15.2c2.7,0,5.1-2.2,5.1-5l0,0c7-0.1,12.6-5.8,12.6-12.7v-6H51.9z M10.1,37.3v2.5H3.7v-2.5H10.1z M3.8,42.3
						h6.3c0.1,4.1,2.1,7.7,5.3,10h-1.2C8.5,52.3,4,47.9,3.8,42.3z M36.6,54.9c0,1.4-1.1,2.5-2.5,2.5H18.9c-1.4,0-2.5-1.1-2.5-2.5
						l0,0C18.9,54.8,34.4,54.8,36.6,54.9L36.6,54.9z M49.4,42.1c0,5.7-4.7,10.3-10.4,10.3h-1.2c3.1-2.3,5.3-6.1,5.3-10.3
						c0-0.7-0.6-1.3-1.3-1.3s-1.2,0.6-1.2,1.3c0,5.7-4.7,10.3-10.4,10.3H23c-5.7,0-10.2-4.5-10.3-10h17.7c0.7,0,1.3-0.6,1.3-1.3
						s-0.6-1.3-1.3-1.3H12.7v-2.5h36.7C49.4,37.3,49.4,42.1,49.4,42.1z"/>
					<path class="st0" d="M16.8,16.5c-1.1,0.6-1.8,1.8-1.8,3.1c0,2,1.6,3.5,3.5,3.5h0.9c-0.5,2.2,1.2,4.3,3.5,4.3h0.9
						c-0.5,2.2,1.2,4.3,3.5,4.3h6.2c0.6,0,1.1-0.1,1.6-0.4l1.9,1.9c0.5,0.5,1.3,0.5,1.8,0c0.5-0.5,0.5-1.3,0-1.8L37,29.5
						c0.2-0.5,0.4-1,0.4-1.6v-6.1c0-2.3-2.1-4-4.3-3.5v-0.8c0-2.3-2.1-4-4.4-3.5v-0.9c0-2-1.6-3.5-3.5-3.5c-1.3,0-2.4,0.7-3.1,1.8
						l-2.1-2.1c-1.4-1.4-3.6-1.4-5.1,0s-1.4,3.6,0,5L16.8,16.5z M16.5,11.1c0.4-0.4,1.1-0.4,1.5,0l3.7,3.7c0.4,0.4,0.9,0.5,1.4,0.3
						s0.8-0.6,0.8-1.2v-0.8c0-0.6,0.5-1,1-1c0.5,0,1,0.5,1,1v3.4c0,0.6,0.4,1.1,1,1.2s1.1-0.1,1.4-0.6c0.2-0.3,0.5-0.6,0.9-0.6
						c0.6,0,1,0.5,1,1v3.3c0,0.6,0.4,1.1,1,1.2s1.1-0.1,1.4-0.6c0.2-0.3,0.5-0.6,0.9-0.6c0.6,0,1,0.5,1,1v5.6l-7.3-7.2
						c-0.5-0.5-1.3-0.5-1.8,0s-0.5,1.3,0,1.8l7.3,7.2h-5.6c-0.6,0-1-0.5-1-1c0-0.4,0.2-0.7,0.6-0.9c0.5-0.3,0.8-0.8,0.6-1.4
						c-0.1-0.6-0.6-1-1.2-1H23c-0.6,0-1-0.5-1-1c0-0.4,0.2-0.7,0.6-0.9c0.5-0.3,0.8-0.8,0.6-1.4c-0.1-0.6-0.6-1-1.2-1h-3.3
						c-0.6,0-1-0.5-1-1s0.5-1,1-1h0.8c0.5,0,1-0.3,1.2-0.8s0.1-1-0.3-1.4l-3.7-3.7C16.1,12.2,16.1,11.5,16.5,11.1z"/>
					<path class="st0" d="M5.7,33.6c1.2,0,2.3-0.5,3.1-1.3c0.8,0.8,1.9,1.3,3.1,1.3c2.4,0,4.4-2,4.4-4.4s-2-4.4-4.4-4.4
						c-1.2,0-2.3,0.5-3.1,1.3c-0.8-0.8-1.9-1.3-3.1-1.3c-2.4,0-4.4,2-4.4,4.4C1.3,31.6,3.2,33.6,5.7,33.6z M12,27.3
						c1,0,1.9,0.8,1.9,1.9s-0.8,1.9-1.9,1.9s-1.9-0.9-1.9-1.9S10.9,27.3,12,27.3z M5.7,27.3c1,0,1.9,0.8,1.9,1.9s-0.8,1.9-1.9,1.9
						s-1.9-0.8-1.9-1.9C3.7,28.1,4.7,27.3,5.7,27.3z"/>
					<path class="st0" d="M8.9,24.2c2.1,0,3.8-1.7,3.8-3.8c0-1.6-1-3-2.5-3.5v-3.3c0-0.7-0.6-1.3-1.3-1.3c-0.7,0-1.3,0.6-1.3,1.3
						v3.3C6.1,17.4,5,18.8,5,20.5C5.1,22.5,6.8,24.2,8.9,24.2z M8.9,19.2c0.7,0,1.3,0.6,1.3,1.3c0,0.7-0.6,1.3-1.3,1.3
						c-0.7,0-1.3-0.6-1.3-1.3C7.6,19.8,8.2,19.2,8.9,19.2z"/>
					<path class="st0" d="M39,16.1c2.5,0,4.7-2.1,4.7-4.7c1.3,0,2.5-0.5,3.3-1.3c1.5-1.5,1.7-3.7,0.8-5.4l2.4-2.4
						c0.5-0.5,0.5-1.3,0-1.8S49,0,48.5,0.5L46,2.9c-0.7-0.4-1.4-0.6-2.2-0.6c-2.6,0-4.7,2.1-4.7,4.7c-2.6-0.1-4.8,2-4.8,4.6
						C34.4,14.1,36.5,16.1,39,16.1z M42.3,5.4c0.8-0.8,2.1-0.8,2.9,0s0.8,2.1,0,2.9s-2.1,0.8-2.9,0C41.5,7.5,41.5,6.2,42.3,5.4z
						 M39,9.5c1.1,0,2.1,0.9,2.1,2.1s-0.9,2.1-2.1,2.1c-1.1,0-2.1-0.9-2.1-2.1C36.9,10.4,37.9,9.5,39,9.5z"/>
					<path class="st0" d="M44.3,26.1c0,2.1,1.7,3.8,3.8,3.8s3.8-1.7,3.8-3.8s-1.7-3.8-3.8-3.8C46,22.3,44.3,24,44.3,26.1z
						 M49.4,26.1c0,0.7-0.6,1.3-1.3,1.3s-1.3-0.6-1.3-1.3c0-0.7,0.6-1.3,1.3-1.3C48.8,24.8,49.4,25.4,49.4,26.1z"/>
					<path class="st0" d="M40.5,26.1c0,4.1,3.4,7.5,7.6,7.5s7.6-3.4,7.6-7.5s-3.4-7.5-7.6-7.5S40.5,22,40.5,26.1z M53.1,26.1
						c0,2.8-2.2,5-5.1,5c-2.8,0-5.1-2.2-5.1-5s2.2-5,5.1-5S53.1,23.3,53.1,26.1z"/>
				</g>
			</g>
			<g id="Layer_1_00000016060988517015312090000017125138089314725777_">
			</g>
		</g>
	</g>
</g>
</svg>
